%TF.GenerationSoftware,KiCad,Pcbnew,9.0.7*%
%TF.CreationDate,2026-08-01T21:15:10-07:00*%
%TF.ProjectId,FN32ROV-XEBook-KiCad,464e3332-524f-4562-9d58-45426f6f6b2d,rev?*%
%TF.SameCoordinates,Original*%
%TF.FileFunction,Soldermask,Top*%
%TF.FilePolarity,Negative*%
%FSLAX46Y46*%
G04 Gerber Fmt 4.6, Leading zero omitted, Abs format (unit mm)*
G04 Created by KiCad (PCBNEW 9.0.7) date 2026-08-01 21:15:10*
%MOMM*%
%LPD*%
G01*
G04 APERTURE LIST*
G04 Aperture macros list*
%AMRoundRect*
0 Rectangle with rounded corners*
0 $1 Rounding radius*
0 $2 $3 $4 $5 $6 $7 $8 $9 X,Y pos of 4 corners*
0 Add a 4 corners polygon primitive as box body*
4,1,4,$2,$3,$4,$5,$6,$7,$8,$9,$2,$3,0*
0 Add four circle primitives for the rounded corners*
1,1,$1+$1,$2,$3*
1,1,$1+$1,$4,$5*
1,1,$1+$1,$6,$7*
1,1,$1+$1,$8,$9*
0 Add four rect primitives between the rounded corners*
20,1,$1+$1,$2,$3,$4,$5,0*
20,1,$1+$1,$4,$5,$6,$7,0*
20,1,$1+$1,$6,$7,$8,$9,0*
20,1,$1+$1,$8,$9,$2,$3,0*%
G04 Aperture macros list end*
%ADD10RoundRect,0.140000X-0.140000X-0.170000X0.140000X-0.170000X0.140000X0.170000X-0.140000X0.170000X0*%
%ADD11RoundRect,0.135000X-0.135000X-0.185000X0.135000X-0.185000X0.135000X0.185000X-0.135000X0.185000X0*%
%ADD12RoundRect,0.100000X-0.100000X0.562500X-0.100000X-0.562500X0.100000X-0.562500X0.100000X0.562500X0*%
%ADD13C,2.200000*%
%ADD14RoundRect,0.150000X0.150000X0.200000X-0.150000X0.200000X-0.150000X-0.200000X0.150000X-0.200000X0*%
%ADD15RoundRect,0.135000X-0.185000X0.135000X-0.185000X-0.135000X0.185000X-0.135000X0.185000X0.135000X0*%
%ADD16RoundRect,0.135000X0.135000X0.185000X-0.135000X0.185000X-0.135000X-0.185000X0.135000X-0.185000X0*%
%ADD17RoundRect,0.250000X-1.045000X0.785000X-1.045000X-0.785000X1.045000X-0.785000X1.045000X0.785000X0*%
%ADD18RoundRect,0.250000X-0.350000X-0.625000X0.350000X-0.625000X0.350000X0.625000X-0.350000X0.625000X0*%
%ADD19O,1.200000X1.750000*%
%ADD20RoundRect,0.150000X-0.150000X-0.200000X0.150000X-0.200000X0.150000X0.200000X-0.150000X0.200000X0*%
%ADD21RoundRect,0.112500X0.112500X-0.187500X0.112500X0.187500X-0.112500X0.187500X-0.112500X-0.187500X0*%
%ADD22RoundRect,0.150000X-0.587500X-0.150000X0.587500X-0.150000X0.587500X0.150000X-0.587500X0.150000X0*%
%ADD23RoundRect,0.062500X-0.350000X-0.062500X0.350000X-0.062500X0.350000X0.062500X-0.350000X0.062500X0*%
%ADD24RoundRect,0.062500X-0.062500X-0.350000X0.062500X-0.350000X0.062500X0.350000X-0.062500X0.350000X0*%
%ADD25R,2.600000X2.600000*%
%ADD26RoundRect,0.135000X0.185000X-0.135000X0.185000X0.135000X-0.185000X0.135000X-0.185000X-0.135000X0*%
%ADD27RoundRect,0.140000X-0.170000X0.140000X-0.170000X-0.140000X0.170000X-0.140000X0.170000X0.140000X0*%
%ADD28RoundRect,0.250000X-0.600000X-0.600000X0.600000X-0.600000X0.600000X0.600000X-0.600000X0.600000X0*%
%ADD29C,1.700000*%
%ADD30RoundRect,0.150000X-0.825000X-0.150000X0.825000X-0.150000X0.825000X0.150000X-0.825000X0.150000X0*%
%ADD31RoundRect,0.112500X-0.112500X0.187500X-0.112500X-0.187500X0.112500X-0.187500X0.112500X0.187500X0*%
%ADD32RoundRect,0.150000X-0.512500X-0.150000X0.512500X-0.150000X0.512500X0.150000X-0.512500X0.150000X0*%
%ADD33R,1.500000X0.900000*%
%ADD34R,0.900000X0.900000*%
%ADD35R,1.750000X0.700000*%
%ADD36R,1.000000X1.450000*%
%ADD37R,1.550000X1.000000*%
%ADD38R,1.500000X0.800000*%
%ADD39R,1.500000X1.300000*%
%ADD40R,1.500000X1.500000*%
%ADD41R,1.400000X0.800000*%
%ADD42C,0.650000*%
%ADD43RoundRect,0.150000X0.500000X-0.150000X0.500000X0.150000X-0.500000X0.150000X-0.500000X-0.150000X0*%
%ADD44RoundRect,0.075000X0.575000X-0.075000X0.575000X0.075000X-0.575000X0.075000X-0.575000X-0.075000X0*%
%ADD45O,2.100000X1.000000*%
%ADD46O,1.600000X1.000000*%
%ADD47RoundRect,0.250000X-0.625000X0.350000X-0.625000X-0.350000X0.625000X-0.350000X0.625000X0.350000X0*%
%ADD48O,1.750000X1.200000*%
G04 APERTURE END LIST*
D10*
%TO.C,C5*%
X25540000Y-71500000D03*
X26500000Y-71500000D03*
%TD*%
D11*
%TO.C,R4*%
X30000000Y-51500000D03*
X31020000Y-51500000D03*
%TD*%
D12*
%TO.C,Q1*%
X31650000Y-39612500D03*
X31000000Y-39612500D03*
X30350000Y-39612500D03*
X30350000Y-41387500D03*
X31000000Y-41387500D03*
X31650000Y-41387500D03*
%TD*%
D13*
%TO.C,MH1*%
X22500000Y-28000000D03*
%TD*%
D14*
%TO.C,D4*%
X62300000Y-56000000D03*
X63700000Y-56000000D03*
%TD*%
D10*
%TO.C,C7*%
X35520000Y-51500000D03*
X36480000Y-51500000D03*
%TD*%
D15*
%TO.C,R19*%
X56486300Y-65990000D03*
X56486300Y-67010000D03*
%TD*%
D16*
%TO.C,R24*%
X63510000Y-51500000D03*
X62490000Y-51500000D03*
%TD*%
%TO.C,R16*%
X67500000Y-51500000D03*
X66480000Y-51500000D03*
%TD*%
D17*
%TO.C,C12*%
X68000000Y-55880000D03*
X68000000Y-62120000D03*
%TD*%
D11*
%TO.C,R9*%
X34000000Y-32000000D03*
X35020000Y-32000000D03*
%TD*%
D18*
%TO.C,J_BTN1*%
X60000000Y-73550000D03*
D19*
X62000000Y-73550000D03*
X64000000Y-73550000D03*
X66000000Y-73550000D03*
%TD*%
D20*
%TO.C,D6*%
X38500000Y-32000000D03*
X37100000Y-32000000D03*
%TD*%
D11*
%TO.C,R15*%
X53000000Y-67000000D03*
X54020000Y-67000000D03*
%TD*%
D13*
%TO.C,MH4*%
X82000000Y-77500000D03*
%TD*%
D21*
%TO.C,D8*%
X42000000Y-60000000D03*
X42000000Y-57900000D03*
%TD*%
D22*
%TO.C,Q2*%
X45625000Y-58050000D03*
X45625000Y-59950000D03*
X47500000Y-59000000D03*
%TD*%
D23*
%TO.C,U2*%
X34625000Y-36500000D03*
X34625000Y-37000000D03*
X34625000Y-37500000D03*
X34625000Y-38000000D03*
X34625000Y-38500000D03*
X34625000Y-39000000D03*
D24*
X35312500Y-39687500D03*
X35812500Y-39687500D03*
X36312500Y-39687500D03*
X36812500Y-39687500D03*
X37312500Y-39687500D03*
X37812500Y-39687500D03*
D23*
X38500000Y-39000000D03*
X38500000Y-38500000D03*
X38500000Y-38000000D03*
X38500000Y-37500000D03*
X38500000Y-37000000D03*
X38500000Y-36500000D03*
D24*
X37812500Y-35812500D03*
X37312500Y-35812500D03*
X36812500Y-35812500D03*
X36312500Y-35812500D03*
X35812500Y-35812500D03*
X35312500Y-35812500D03*
D25*
X36562500Y-37750000D03*
%TD*%
D14*
%TO.C,D5*%
X72300000Y-66000000D03*
X73700000Y-66000000D03*
%TD*%
D11*
%TO.C,R2*%
X31000000Y-33500000D03*
X32020000Y-33500000D03*
%TD*%
%TO.C,R17*%
X22480000Y-71500000D03*
X23500000Y-71500000D03*
%TD*%
%TO.C,R3*%
X29990000Y-48500000D03*
X31010000Y-48500000D03*
%TD*%
D26*
%TO.C,R21*%
X63500000Y-63500000D03*
X63500000Y-62480000D03*
%TD*%
D27*
%TO.C,C9*%
X48500000Y-62540000D03*
X48500000Y-63500000D03*
%TD*%
D11*
%TO.C,R12*%
X35510000Y-45500000D03*
X36530000Y-45500000D03*
%TD*%
D16*
%TO.C,R26*%
X70000000Y-70000000D03*
X68980000Y-70000000D03*
%TD*%
%TO.C,R10*%
X30000000Y-71500000D03*
X28980000Y-71500000D03*
%TD*%
D27*
%TO.C,C11*%
X27000000Y-74040000D03*
X27000000Y-75000000D03*
%TD*%
D15*
%TO.C,R5*%
X55500000Y-62490000D03*
X55500000Y-63510000D03*
%TD*%
D11*
%TO.C,R1*%
X29990000Y-45500000D03*
X31010000Y-45500000D03*
%TD*%
%TO.C,R11*%
X32480000Y-71500000D03*
X33500000Y-71500000D03*
%TD*%
D15*
%TO.C,R20*%
X59000000Y-62490000D03*
X59000000Y-63510000D03*
%TD*%
D28*
%TO.C,J_SIO1*%
X72872500Y-37300000D03*
D29*
X75412500Y-37300000D03*
X72872500Y-39840000D03*
X75412500Y-39840000D03*
X72872500Y-42380000D03*
X75412500Y-42380000D03*
X72872500Y-44920000D03*
X75412500Y-44920000D03*
X72872500Y-47460000D03*
X75412500Y-47460000D03*
X72872500Y-50000000D03*
X75412500Y-50000000D03*
%TD*%
D11*
%TO.C,R28*%
X21980000Y-51500000D03*
X23000000Y-51500000D03*
%TD*%
D30*
%TO.C,U4*%
X63000000Y-38880000D03*
X63000000Y-40150000D03*
X63000000Y-41420000D03*
X63000000Y-42690000D03*
X63000000Y-43960000D03*
X63000000Y-45230000D03*
X63000000Y-46500000D03*
X67950000Y-46500000D03*
X67950000Y-45230000D03*
X67950000Y-43960000D03*
X67950000Y-42690000D03*
X67950000Y-41420000D03*
X67950000Y-40150000D03*
X67950000Y-38880000D03*
%TD*%
D18*
%TO.C,J_PWR1*%
X38500000Y-73550000D03*
D19*
X40500000Y-73550000D03*
%TD*%
D11*
%TO.C,R13*%
X49000000Y-67000000D03*
X50020000Y-67000000D03*
%TD*%
%TO.C,R6*%
X30980000Y-36500000D03*
X32000000Y-36500000D03*
%TD*%
D22*
%TO.C,Q3*%
X51125000Y-58000000D03*
X51125000Y-59900000D03*
X53000000Y-58950000D03*
%TD*%
D15*
%TO.C,R23*%
X30500000Y-74000000D03*
X30500000Y-75020000D03*
%TD*%
D27*
%TO.C,C4*%
X56530000Y-58040000D03*
X56530000Y-59000000D03*
%TD*%
D11*
%TO.C,R25*%
X69000000Y-66500000D03*
X70020000Y-66500000D03*
%TD*%
%TO.C,R7*%
X35510000Y-48500000D03*
X36530000Y-48500000D03*
%TD*%
D15*
%TO.C,R18*%
X59980000Y-65990000D03*
X59980000Y-67010000D03*
%TD*%
D27*
%TO.C,C3*%
X65500000Y-48520000D03*
X65500000Y-49480000D03*
%TD*%
D18*
%TO.C,J_LED1*%
X47500000Y-73550000D03*
D19*
X49500000Y-73550000D03*
X51500000Y-73550000D03*
X53500000Y-73550000D03*
%TD*%
D27*
%TO.C,C8*%
X52000000Y-62520000D03*
X52000000Y-63480000D03*
%TD*%
D11*
%TO.C,R14*%
X45500000Y-67000000D03*
X46520000Y-67000000D03*
%TD*%
D10*
%TO.C,C1*%
X31000000Y-30500000D03*
X31960000Y-30500000D03*
%TD*%
D31*
%TO.C,D7*%
X37500000Y-58000000D03*
X37500000Y-60100000D03*
%TD*%
D32*
%TO.C,U5*%
X64000000Y-66550000D03*
X64000000Y-67500000D03*
X64000000Y-68450000D03*
X66275000Y-68450000D03*
X66275000Y-66550000D03*
%TD*%
D33*
%TO.C,U1*%
X41500000Y-30000000D03*
X41500000Y-31270000D03*
X41500000Y-32540000D03*
X41500000Y-33810000D03*
X41500000Y-35080000D03*
X41500000Y-36350000D03*
X41500000Y-37620000D03*
X41500000Y-38890000D03*
X41500000Y-40160000D03*
X41500000Y-41430000D03*
X41500000Y-42700000D03*
X41500000Y-43970000D03*
X41500000Y-45240000D03*
X41500000Y-46510000D03*
X41500000Y-47780000D03*
X41500000Y-49050000D03*
X41500000Y-50320000D03*
X41500000Y-51590000D03*
X41500000Y-52860000D03*
X59000000Y-52860000D03*
X59000000Y-51590000D03*
X59000000Y-50320000D03*
X59000000Y-49050000D03*
X59000000Y-47780000D03*
X59000000Y-46510000D03*
X59000000Y-45240000D03*
X59000000Y-43970000D03*
X59000000Y-42700000D03*
X59000000Y-41430000D03*
X59000000Y-40160000D03*
X59000000Y-38890000D03*
X59000000Y-37620000D03*
X59000000Y-36350000D03*
X59000000Y-35080000D03*
X59000000Y-33810000D03*
X59000000Y-32540000D03*
X59000000Y-31270000D03*
X59000000Y-30000000D03*
D34*
X47345000Y-36395000D03*
X47350000Y-37795000D03*
X47350000Y-39195000D03*
X48750000Y-36395000D03*
X48750000Y-37795000D03*
X48750000Y-39195000D03*
X50150000Y-36395000D03*
X50150000Y-37795000D03*
X50150000Y-39195000D03*
%TD*%
D11*
%TO.C,R27*%
X25500000Y-51500000D03*
X26520000Y-51500000D03*
%TD*%
D35*
%TO.C,SD1*%
X20875000Y-64050000D03*
X20875000Y-62950000D03*
X20875000Y-61850000D03*
X20875000Y-60750000D03*
X20875000Y-59650000D03*
X20875000Y-58550000D03*
X20875000Y-57450000D03*
X20875000Y-56350000D03*
D36*
X30100000Y-55225000D03*
D37*
X31675000Y-66450000D03*
D38*
X28600000Y-54900000D03*
D39*
X21000000Y-55150000D03*
D40*
X21000000Y-66500000D03*
D41*
X29250000Y-66850000D03*
%TD*%
D42*
%TO.C,J2*%
X77820000Y-70890000D03*
X77820000Y-65110000D03*
D43*
X76680000Y-71200000D03*
X76680000Y-70400000D03*
D44*
X76680000Y-69250000D03*
X76680000Y-68250000D03*
X76680000Y-67750000D03*
X76680000Y-66750000D03*
D43*
X76680000Y-65600000D03*
X76680000Y-64800000D03*
X76680000Y-64800000D03*
X76680000Y-65600000D03*
D44*
X76680000Y-66250000D03*
X76680000Y-67250000D03*
X76680000Y-68750000D03*
X76680000Y-69750000D03*
D43*
X76680000Y-70400000D03*
X76680000Y-71200000D03*
D45*
X77320000Y-72320000D03*
D46*
X81500000Y-72320000D03*
D45*
X77320000Y-63680000D03*
D46*
X81500000Y-63680000D03*
%TD*%
D15*
%TO.C,R8*%
X62500000Y-48490000D03*
X62500000Y-49510000D03*
%TD*%
D27*
%TO.C,C10*%
X45000000Y-62520000D03*
X45000000Y-63480000D03*
%TD*%
D13*
%TO.C,MH2*%
X82000000Y-28000000D03*
%TD*%
D27*
%TO.C,C2*%
X59530000Y-58040000D03*
X59530000Y-59000000D03*
%TD*%
D15*
%TO.C,R22*%
X41500000Y-65990000D03*
X41500000Y-67010000D03*
%TD*%
D47*
%TO.C,J_SD1*%
X26500000Y-34000000D03*
D48*
X26500000Y-36000000D03*
X26500000Y-38000000D03*
X26500000Y-40000000D03*
X26500000Y-42000000D03*
X26500000Y-44000000D03*
X26500000Y-46000000D03*
%TD*%
D13*
%TO.C,MH3*%
X22500000Y-77500000D03*
%TD*%
D30*
%TO.C,U3*%
X63000000Y-27880000D03*
X63000000Y-29150000D03*
X63000000Y-30420000D03*
X63000000Y-31690000D03*
X63000000Y-32960000D03*
X63000000Y-34230000D03*
X63000000Y-35500000D03*
X67950000Y-35500000D03*
X67950000Y-34230000D03*
X67950000Y-32960000D03*
X67950000Y-31690000D03*
X67950000Y-30420000D03*
X67950000Y-29150000D03*
X67950000Y-27880000D03*
%TD*%
D27*
%TO.C,C6*%
X41500000Y-62540000D03*
X41500000Y-63500000D03*
%TD*%
M02*
