%TF.GenerationSoftware,KiCad,Pcbnew,9.0.7*%
%TF.CreationDate,2026-08-01T21:15:10-07:00*%
%TF.ProjectId,FN32ROV-XEBook-KiCad,464e3332-524f-4562-9d58-45426f6f6b2d,rev?*%
%TF.SameCoordinates,Original*%
%TF.FileFunction,Copper,L2,Bot*%
%TF.FilePolarity,Positive*%
%FSLAX46Y46*%
G04 Gerber Fmt 4.6, Leading zero omitted, Abs format (unit mm)*
G04 Created by KiCad (PCBNEW 9.0.7) date 2026-08-01 21:15:10*
%MOMM*%
%LPD*%
G01*
G04 APERTURE LIST*
G04 Aperture macros list*
%AMRoundRect*
0 Rectangle with rounded corners*
0 $1 Rounding radius*
0 $2 $3 $4 $5 $6 $7 $8 $9 X,Y pos of 4 corners*
0 Add a 4 corners polygon primitive as box body*
4,1,4,$2,$3,$4,$5,$6,$7,$8,$9,$2,$3,0*
0 Add four circle primitives for the rounded corners*
1,1,$1+$1,$2,$3*
1,1,$1+$1,$4,$5*
1,1,$1+$1,$6,$7*
1,1,$1+$1,$8,$9*
0 Add four rect primitives between the rounded corners*
20,1,$1+$1,$2,$3,$4,$5,0*
20,1,$1+$1,$4,$5,$6,$7,0*
20,1,$1+$1,$6,$7,$8,$9,0*
20,1,$1+$1,$8,$9,$2,$3,0*%
G04 Aperture macros list end*
%TA.AperFunction,ComponentPad*%
%ADD10RoundRect,0.250000X-0.350000X-0.625000X0.350000X-0.625000X0.350000X0.625000X-0.350000X0.625000X0*%
%TD*%
%TA.AperFunction,ComponentPad*%
%ADD11O,1.200000X1.750000*%
%TD*%
%TA.AperFunction,ComponentPad*%
%ADD12RoundRect,0.250000X-0.600000X-0.600000X0.600000X-0.600000X0.600000X0.600000X-0.600000X0.600000X0*%
%TD*%
%TA.AperFunction,ComponentPad*%
%ADD13C,1.700000*%
%TD*%
%TA.AperFunction,HeatsinkPad*%
%ADD14O,2.100000X1.000000*%
%TD*%
%TA.AperFunction,HeatsinkPad*%
%ADD15O,1.600000X1.000000*%
%TD*%
%TA.AperFunction,ComponentPad*%
%ADD16RoundRect,0.250000X-0.625000X0.350000X-0.625000X-0.350000X0.625000X-0.350000X0.625000X0.350000X0*%
%TD*%
%TA.AperFunction,ComponentPad*%
%ADD17O,1.750000X1.200000*%
%TD*%
%TA.AperFunction,ViaPad*%
%ADD18C,0.600000*%
%TD*%
%TA.AperFunction,Conductor*%
%ADD19C,0.200000*%
%TD*%
G04 APERTURE END LIST*
D10*
%TO.P,J_BTN1,1,Pin_1*%
%TO.N,/GND*%
X60000000Y-73550000D03*
D11*
%TO.P,J_BTN1,2,Pin_2*%
%TO.N,/BTN_SWAP*%
X62000000Y-73550000D03*
%TO.P,J_BTN1,3,Pin_3*%
%TO.N,/BTN_BT*%
X64000000Y-73550000D03*
%TO.P,J_BTN1,4,Pin_4*%
%TO.N,/BTN_RST*%
X66000000Y-73550000D03*
%TD*%
D12*
%TO.P,J_SIO1,1,Pin_1*%
%TO.N,/SIO_CKIN*%
X72872500Y-37300000D03*
D13*
%TO.P,J_SIO1,2,Pin_2*%
%TO.N,/SIO_CKOUT*%
X75412500Y-37300000D03*
%TO.P,J_SIO1,3,Pin_3*%
%TO.N,/SIO_DATAIN*%
X72872500Y-39840000D03*
%TO.P,J_SIO1,4,Pin_4*%
%TO.N,/GND*%
X75412500Y-39840000D03*
%TO.P,J_SIO1,5,Pin_5*%
%TO.N,/SIO_DATAOUT*%
X72872500Y-42380000D03*
%TO.P,J_SIO1,6,Pin_6*%
%TO.N,/SIO_CMD*%
X75412500Y-42380000D03*
%TO.P,J_SIO1,7,Pin_7*%
%TO.N,/SIO_MCTL*%
X72872500Y-44920000D03*
%TO.P,J_SIO1,8,Pin_8*%
%TO.N,/SIO_PROC*%
X75412500Y-44920000D03*
%TO.P,J_SIO1,9,Pin_9*%
%TO.N,/SIO_5V*%
X72872500Y-47460000D03*
%TO.P,J_SIO1,10,Pin_10*%
%TO.N,/SIO_AUDIN*%
X75412500Y-47460000D03*
%TO.P,J_SIO1,11,Pin_11*%
%TO.N,/SIO_INT*%
X72872500Y-50000000D03*
%TO.P,J_SIO1,12,Pin_12*%
%TO.N,unconnected-(J_SIO1-Pin_12-Pad12)*%
X75412500Y-50000000D03*
%TD*%
D10*
%TO.P,J_PWR1,1,Pin_1*%
%TO.N,/PWR_SW_VCC*%
X38500000Y-73550000D03*
D11*
%TO.P,J_PWR1,2,Pin_2*%
%TO.N,/PWR_SW_EN*%
X40500000Y-73550000D03*
%TD*%
D10*
%TO.P,J_LED1,1,Pin_1*%
%TO.N,/3V3*%
X47500000Y-73550000D03*
D11*
%TO.P,J_LED1,2,Pin_2*%
%TO.N,/LED_WIFI*%
X49500000Y-73550000D03*
%TO.P,J_LED1,3,Pin_3*%
%TO.N,/LED_BT*%
X51500000Y-73550000D03*
%TO.P,J_LED1,4,Pin_4*%
%TO.N,/LED_SIO*%
X53500000Y-73550000D03*
%TD*%
D14*
%TO.P,J2,S1,SHIELD*%
%TO.N,/GND*%
X77320000Y-72320000D03*
D15*
X81500000Y-72320000D03*
D14*
X77320000Y-63680000D03*
D15*
X81500000Y-63680000D03*
%TD*%
D16*
%TO.P,J_SD1,1,Pin_1*%
%TO.N,/3V3*%
X26500000Y-34000000D03*
D17*
%TO.P,J_SD1,2,Pin_2*%
%TO.N,/GND*%
X26500000Y-36000000D03*
%TO.P,J_SD1,3,Pin_3*%
%TO.N,/IO18{slash}SPI_CLK*%
X26500000Y-38000000D03*
%TO.P,J_SD1,4,Pin_4*%
%TO.N,/IO23{slash}SPI_MOSI*%
X26500000Y-40000000D03*
%TO.P,J_SD1,5,Pin_5*%
%TO.N,/IO19{slash}SPI_MISO*%
X26500000Y-42000000D03*
%TO.P,J_SD1,6,Pin_6*%
%TO.N,/IO5{slash}SPI_CS*%
X26500000Y-44000000D03*
%TO.P,J_SD1,7,Pin_7*%
%TO.N,/IO15{slash}TDO*%
X26500000Y-46000000D03*
%TD*%
D18*
%TO.N,/GND*%
X57975000Y-78975000D03*
X21975000Y-33975000D03*
X27975000Y-78975000D03*
X78975000Y-78975000D03*
X81975000Y-36975000D03*
X54975000Y-69975000D03*
X75975000Y-54975000D03*
X66975000Y-78975000D03*
X72975000Y-72975000D03*
X24975000Y-27975000D03*
X78975000Y-54975000D03*
X81975000Y-51975000D03*
X75975000Y-33975000D03*
X78975000Y-39975000D03*
X51975000Y-78975000D03*
X63975000Y-78975000D03*
X72975000Y-75975000D03*
X69975000Y-78975000D03*
X81975000Y-39975000D03*
X33975000Y-78975000D03*
X27975000Y-69975000D03*
X78975000Y-69975000D03*
X72975000Y-78975000D03*
X81975000Y-45975000D03*
X22263400Y-55150000D03*
X75975000Y-30975000D03*
X72975000Y-54975000D03*
X78975000Y-42975000D03*
X57975000Y-75975000D03*
X30975000Y-78975000D03*
X78975000Y-51975000D03*
X81975000Y-30975000D03*
X24975000Y-75975000D03*
X78975000Y-75975000D03*
X72975000Y-60975000D03*
X48975000Y-51975000D03*
X48975000Y-78975000D03*
X54975000Y-78975000D03*
X36975000Y-78975000D03*
X78975000Y-36975000D03*
X75975000Y-78975000D03*
X39975000Y-78975000D03*
X66975000Y-75975000D03*
X78975000Y-48975000D03*
X78975000Y-33975000D03*
X81975000Y-48975000D03*
X81975000Y-42975000D03*
X42975000Y-78975000D03*
X51206500Y-30000000D03*
X60975000Y-78975000D03*
X81975000Y-69975000D03*
X76603300Y-57123700D03*
X78975000Y-45975000D03*
X81975000Y-33975000D03*
X75975000Y-75975000D03*
X45975000Y-30975000D03*
X69975000Y-72975000D03*
X27975000Y-27975000D03*
X24975000Y-78975000D03*
X48975000Y-30975000D03*
X51206500Y-39811500D03*
X81975000Y-66975000D03*
X24975000Y-30975000D03*
X69975000Y-75975000D03*
X75975000Y-60975000D03*
X21975000Y-30975000D03*
X78975000Y-30975000D03*
X81975000Y-54975000D03*
X81975000Y-57975000D03*
%TO.N,/3V3*%
X23620100Y-70663400D03*
X57489400Y-62575400D03*
X23088900Y-60707700D03*
X51181000Y-62079900D03*
X22916500Y-52343500D03*
X58565600Y-61338700D03*
%TO.N,/EN*%
X38460300Y-40613500D03*
X53280500Y-55864000D03*
X53278900Y-32540000D03*
X40220700Y-32620800D03*
X54658500Y-63510000D03*
%TO.N,/VDD*%
X40666400Y-69706100D03*
X44727200Y-56415800D03*
X37822300Y-41145600D03*
%TO.N,/VCC_BUF*%
X48901000Y-53611700D03*
X48901000Y-59272300D03*
X49327400Y-63502200D03*
X67374300Y-38064000D03*
X63778000Y-53611700D03*
%TO.N,/USB_5V*%
X36689200Y-41417200D03*
X74808600Y-70280100D03*
X37500000Y-60929500D03*
X39319900Y-31718800D03*
X37500000Y-71500000D03*
X61513900Y-66260600D03*
X74808600Y-65600000D03*
X37500000Y-51624600D03*
%TO.N,/PWR_SW_VCC*%
X38386600Y-58001200D03*
%TO.N,/USB_D+*%
X34432200Y-57015700D03*
X33476000Y-38805000D03*
%TO.N,/USB_D-*%
X35050900Y-76481000D03*
X33700300Y-38000000D03*
%TO.N,/BTN_SWAP*%
X32812600Y-36195200D03*
X60264700Y-46510000D03*
X33303100Y-53651300D03*
X32436900Y-37762200D03*
%TO.N,/BTN_BT*%
X32674200Y-77512100D03*
X44799900Y-35777200D03*
X32674200Y-45500000D03*
X46308000Y-77512100D03*
%TO.N,/BTN_RST*%
X57489500Y-46212900D03*
%TO.N,/PWR_SW_EN*%
X40500000Y-75859700D03*
%TO.N,/IO5{slash}SPI_CS*%
X56884400Y-41479500D03*
X23904500Y-62970800D03*
X57310000Y-65990000D03*
%TO.N,/IO15{slash}TDO*%
X31813100Y-55957800D03*
X30100000Y-53968500D03*
X31821400Y-73380600D03*
%TO.N,/IO19{slash}SPI_MISO*%
X28284200Y-42000000D03*
X21868400Y-70886800D03*
X24173500Y-57450000D03*
X43745600Y-40422400D03*
X22561800Y-57450000D03*
%TO.N,/IO18{slash}SPI_CLK*%
X24189900Y-59470600D03*
X44358800Y-41033600D03*
%TO.N,/IO23{slash}SPI_MOSI*%
X23690600Y-61850000D03*
X54292400Y-29380000D03*
X55841600Y-65382700D03*
X54070500Y-31270000D03*
%TO.N,/SIO_INT*%
X69704600Y-37453300D03*
%TO.N,/SIO_CMD*%
X70171000Y-28515000D03*
%TO.N,/SIO_PROC*%
X64492700Y-34230000D03*
%TO.N,/SIO_MCTL*%
X65258900Y-30420000D03*
%TO.N,/SIO_DATAIN*%
X64379800Y-47031600D03*
X64627300Y-51130500D03*
%TO.N,/DTR*%
X31981500Y-35038000D03*
X29626200Y-40772100D03*
X31668800Y-38444000D03*
%TO.N,/RTS*%
X33867700Y-47320600D03*
X33804400Y-40037700D03*
X39325900Y-42323100D03*
X39325900Y-35812500D03*
X33804400Y-43688900D03*
%TO.N,/IO36{slash}MCTRL*%
X57740200Y-33177900D03*
X60887200Y-31796000D03*
%TO.N,/IO35*%
X36743500Y-49348000D03*
X38076900Y-44819900D03*
%TO.N,/IO25_DAC*%
X57717500Y-43675800D03*
X62541800Y-50309100D03*
%TO.N,/CP2102_VBUS_SENSE*%
X35679000Y-70334200D03*
X35410200Y-40695900D03*
X34179700Y-32840300D03*
%TO.N,/CP2102_RESET*%
X36383900Y-72444000D03*
X36463400Y-40602400D03*
%TO.N,/IO39{slash}CMD*%
X55445100Y-29380000D03*
X55445100Y-34477100D03*
%TO.N,/IO2{slash}LED1*%
X51784100Y-47780000D03*
X51784100Y-67790600D03*
%TO.N,/IO13{slash}LED3{slash}TCK*%
X43273400Y-66200200D03*
X43273400Y-49050000D03*
%TO.N,/IO4{slash}LED2*%
X55357800Y-45611200D03*
X55191200Y-66777400D03*
%TO.N,/SD_DAT2*%
X22268100Y-64050000D03*
X20724600Y-52393600D03*
%TO.N,/IO33{slash}DATOUT*%
X63157400Y-47654700D03*
X57616100Y-42113400D03*
%TO.N,/IO27{slash}CKIN*%
X60260600Y-38246300D03*
X55076100Y-43970000D03*
%TO.N,/IO26{slash}INT*%
X65831100Y-34640700D03*
X55632700Y-43043000D03*
%TO.N,/IO32{slash}CKOUT*%
X65714400Y-42690000D03*
X54687300Y-38963700D03*
%TO.N,/USB_RXI*%
X40244000Y-34836800D03*
X42803300Y-33810000D03*
%TO.N,/IO21{slash}DATIN*%
X64489500Y-43958400D03*
X64489500Y-36738300D03*
%TO.N,/USB_TXO*%
X39062000Y-34068900D03*
X42834100Y-35175300D03*
%TD*%
D19*
%TO.N,/GND*%
X80398300Y-72320000D02*
X80398300Y-63680000D01*
X22263400Y-55150000D02*
X22263400Y-40574700D01*
X51206500Y-30000000D02*
X51206500Y-39811500D01*
X76603300Y-57123700D02*
X75968300Y-57758700D01*
X75968300Y-57758700D02*
X75968300Y-63680000D01*
X81500000Y-63680000D02*
X80398300Y-63680000D01*
X77320000Y-63680000D02*
X75968300Y-63680000D01*
X22263400Y-40574700D02*
X25936400Y-36901700D01*
X25936400Y-36901700D02*
X26500000Y-36901700D01*
X76603300Y-41030800D02*
X76603300Y-57123700D01*
X26500000Y-36000000D02*
X26500000Y-36901700D01*
X75412500Y-39840000D02*
X76603300Y-41030800D01*
X81500000Y-72320000D02*
X80398300Y-72320000D01*
%TO.N,/3V3*%
X23088900Y-60707700D02*
X23170000Y-60626600D01*
X22916500Y-55785300D02*
X21910000Y-55785300D01*
X21910000Y-55785300D02*
X21659500Y-55534800D01*
X47500000Y-73550000D02*
X51181000Y-69869000D01*
X23170000Y-60626600D02*
X23170000Y-56038800D01*
X21257400Y-65965700D02*
X21257400Y-71131200D01*
X58565600Y-61338700D02*
X58565600Y-61499200D01*
X21910000Y-62563600D02*
X22873100Y-63526700D01*
X21659500Y-55534800D02*
X21659500Y-38840500D01*
X23170000Y-56038800D02*
X22916500Y-55785300D01*
X58565600Y-61499200D02*
X57489400Y-62575400D01*
X22873100Y-63526700D02*
X22873100Y-64350000D01*
X22794900Y-71488600D02*
X23620100Y-70663400D01*
X21910000Y-55785300D02*
X21910000Y-62563600D01*
X22873100Y-64350000D02*
X21257400Y-65965700D01*
X21614800Y-71488600D02*
X22794900Y-71488600D01*
X21659500Y-38840500D02*
X26500000Y-34000000D01*
X51181000Y-69869000D02*
X51181000Y-62079900D01*
X21257400Y-71131200D02*
X21614800Y-71488600D01*
X22916500Y-55785300D02*
X22916500Y-52343500D01*
%TO.N,/EN*%
X38460300Y-33804300D02*
X38460300Y-40613500D01*
X53278900Y-32540000D02*
X53278900Y-55862400D01*
X40220700Y-32620800D02*
X39643800Y-32620800D01*
X53278900Y-55862400D02*
X53280500Y-55864000D01*
X54658500Y-63510000D02*
X53280500Y-62132000D01*
X39643800Y-32620800D02*
X38460300Y-33804300D01*
X53280500Y-62132000D02*
X53280500Y-55864000D01*
%TO.N,/VDD*%
X39076800Y-42924800D02*
X39208000Y-42924800D01*
X39208000Y-42924800D02*
X44727200Y-48444000D01*
X44727200Y-56415800D02*
X44727200Y-65645300D01*
X44727200Y-48444000D02*
X44727200Y-56415800D01*
X44727200Y-65645300D02*
X40666400Y-69706100D01*
X38724200Y-42047500D02*
X38724200Y-42572200D01*
X38724200Y-42572200D02*
X39076800Y-42924800D01*
X37822300Y-41145600D02*
X38724200Y-42047500D01*
%TO.N,/VCC_BUF*%
X67374300Y-50015400D02*
X63778000Y-53611700D01*
X48901000Y-59272300D02*
X48901000Y-63075800D01*
X67374300Y-38064000D02*
X67374300Y-50015400D01*
X48901000Y-63075800D02*
X49327400Y-63502200D01*
X48901000Y-59272300D02*
X48901000Y-53611700D01*
%TO.N,/USB_5V*%
X38679000Y-50445600D02*
X38679000Y-43095000D01*
X37215800Y-41417200D02*
X36689200Y-41417200D01*
X37500000Y-51624600D02*
X38679000Y-50445600D01*
X37215800Y-33822900D02*
X37215800Y-41417200D01*
X39319900Y-31718800D02*
X37215800Y-33822900D01*
X74808600Y-66260600D02*
X61513900Y-66260600D01*
X37215800Y-41631800D02*
X37215800Y-41417200D01*
X74808600Y-66260600D02*
X74808600Y-65600000D01*
X37500000Y-71500000D02*
X37500000Y-60929500D01*
X74808600Y-70280100D02*
X74808600Y-66260600D01*
X38679000Y-43095000D02*
X37215800Y-41631800D01*
X37500000Y-60929500D02*
X37500000Y-51624600D01*
%TO.N,/PWR_SW_VCC*%
X38500000Y-73550000D02*
X38500000Y-58114600D01*
X38500000Y-58114600D02*
X38386600Y-58001200D01*
%TO.N,/USB_D+*%
X34469400Y-47071400D02*
X34432200Y-47034200D01*
X34406800Y-41111300D02*
X34406800Y-39735800D01*
X34469400Y-56978500D02*
X34469400Y-47071400D01*
X34406800Y-39735800D02*
X33476000Y-38805000D01*
X34432200Y-41136700D02*
X34406800Y-41111300D01*
X34432200Y-47034200D02*
X34432200Y-41136700D01*
X34432200Y-57015700D02*
X34469400Y-56978500D01*
%TO.N,/USB_D-*%
X34985800Y-41122300D02*
X34985800Y-41998900D01*
X33700300Y-38000000D02*
X34808500Y-39108200D01*
X34808500Y-39108200D02*
X34808500Y-40945000D01*
X34985800Y-41998900D02*
X35050900Y-42064000D01*
X35050900Y-42064000D02*
X35050900Y-76481000D01*
X34808500Y-40945000D02*
X34985800Y-41122300D01*
%TO.N,/BTN_SWAP*%
X32812600Y-37665900D02*
X32716300Y-37762200D01*
X32716300Y-37762200D02*
X32716300Y-44213100D01*
X32716300Y-44213100D02*
X33303100Y-44799900D01*
X60893400Y-47138700D02*
X60893400Y-69783100D01*
X32716300Y-37762200D02*
X32436900Y-37762200D01*
X60893400Y-69783100D02*
X62000000Y-70889700D01*
X33303100Y-47034400D02*
X33266000Y-47071500D01*
X33266000Y-47071500D02*
X33266000Y-53614200D01*
X33303100Y-44799900D02*
X33303100Y-47034400D01*
X60264700Y-46510000D02*
X60893400Y-47138700D01*
X62000000Y-70889700D02*
X62000000Y-72373300D01*
X32812600Y-36195200D02*
X32812600Y-37665900D01*
X33266000Y-53614200D02*
X33303100Y-53651300D01*
X62000000Y-73550000D02*
X62000000Y-72373300D01*
%TO.N,/BTN_BT*%
X46308000Y-77512100D02*
X46307900Y-77512100D01*
X46307900Y-77512100D02*
X46307900Y-37285200D01*
X46307900Y-37285200D02*
X44799900Y-35777200D01*
X32674200Y-77512100D02*
X32674200Y-45500000D01*
%TO.N,/BTN_RST*%
X60491700Y-69949500D02*
X60491700Y-49215100D01*
X61068200Y-70526000D02*
X60491700Y-69949500D01*
X64469500Y-74742400D02*
X61636300Y-74742400D01*
X61636300Y-74742400D02*
X61068200Y-74174300D01*
X65098300Y-73550000D02*
X65098300Y-74113600D01*
X66000000Y-73550000D02*
X65098300Y-73550000D01*
X60491700Y-49215100D02*
X57489500Y-46212900D01*
X61068200Y-74174300D02*
X61068200Y-70526000D01*
X65098300Y-74113600D02*
X64469500Y-74742400D01*
%TO.N,/PWR_SW_EN*%
X40500000Y-73550000D02*
X40500000Y-75859700D01*
%TO.N,/IO5{slash}SPI_CS*%
X25317300Y-61558000D02*
X23904500Y-62970800D01*
X25936400Y-44901700D02*
X25317300Y-45520800D01*
X56884400Y-41479500D02*
X56884400Y-65564400D01*
X25317300Y-45520800D02*
X25317300Y-61558000D01*
X26500000Y-44000000D02*
X26500000Y-44901700D01*
X56884400Y-65564400D02*
X57310000Y-65990000D01*
X26500000Y-44901700D02*
X25936400Y-44901700D01*
%TO.N,/IO15{slash}TDO*%
X30100000Y-53968500D02*
X30100000Y-54244700D01*
X26500000Y-46000000D02*
X26500000Y-50368500D01*
X30100000Y-54244700D02*
X31813100Y-55957800D01*
X31821400Y-73380600D02*
X31821400Y-55966100D01*
X26500000Y-50368500D02*
X30100000Y-53968500D01*
X31821400Y-55966100D02*
X31813100Y-55957800D01*
%TO.N,/IO19{slash}SPI_MISO*%
X35062700Y-31074000D02*
X28284200Y-37852500D01*
X22487100Y-62572700D02*
X23274800Y-63360400D01*
X23274800Y-63360400D02*
X23274800Y-69480400D01*
X22561800Y-57450000D02*
X22487100Y-57524700D01*
X43796400Y-33907600D02*
X42570400Y-32681600D01*
X26293400Y-42000000D02*
X26500000Y-42000000D01*
X41227500Y-32681600D02*
X39619900Y-31074000D01*
X24173500Y-57450000D02*
X24173500Y-44119900D01*
X28284200Y-37852500D02*
X28284200Y-42000000D01*
X24173500Y-44119900D02*
X26293400Y-42000000D01*
X42570400Y-32681600D02*
X41227500Y-32681600D01*
X22487100Y-57524700D02*
X22487100Y-62572700D01*
X43796400Y-40371600D02*
X43796400Y-33907600D01*
X23274800Y-69480400D02*
X21868400Y-70886800D01*
X39619900Y-31074000D02*
X35062700Y-31074000D01*
X43745600Y-40422400D02*
X43796400Y-40371600D01*
%TO.N,/IO18{slash}SPI_CLK*%
X27676700Y-37878200D02*
X27676700Y-38901700D01*
X34882600Y-30672300D02*
X27676700Y-37878200D01*
X24775200Y-58885300D02*
X24775200Y-44134200D01*
X44358800Y-41033600D02*
X44358800Y-36520900D01*
X24775200Y-44134200D02*
X25909400Y-43000000D01*
X26500000Y-38000000D02*
X26500000Y-38901700D01*
X44198100Y-36360200D02*
X44198100Y-33741300D01*
X44358800Y-36520900D02*
X44198100Y-36360200D01*
X44198100Y-33741300D02*
X41129100Y-30672300D01*
X27676700Y-42375600D02*
X27676700Y-38901700D01*
X24189900Y-59470600D02*
X24775200Y-58885300D01*
X27052300Y-43000000D02*
X27676700Y-42375600D01*
X26500000Y-38901700D02*
X27676700Y-38901700D01*
X41129100Y-30672300D02*
X34882600Y-30672300D01*
X25909400Y-43000000D02*
X27052300Y-43000000D01*
%TO.N,/IO23{slash}SPI_MOSI*%
X25936400Y-40901700D02*
X23571700Y-43266400D01*
X55841600Y-65382700D02*
X55973500Y-65250800D01*
X23571700Y-60339600D02*
X23690600Y-60458500D01*
X55973500Y-65250800D02*
X55973500Y-45300700D01*
X26500000Y-40901700D02*
X25936400Y-40901700D01*
X26500000Y-40000000D02*
X26500000Y-40901700D01*
X23690600Y-60458500D02*
X23690600Y-61850000D01*
X55682200Y-45009400D02*
X54696600Y-45009400D01*
X54292400Y-31048100D02*
X54070500Y-31270000D01*
X54292400Y-29380000D02*
X54292400Y-31048100D01*
X54696600Y-45009400D02*
X54070500Y-44383300D01*
X55973500Y-45300700D02*
X55682200Y-45009400D01*
X54070500Y-44383300D02*
X54070500Y-31270000D01*
X23571700Y-43266400D02*
X23571700Y-60339600D01*
%TO.N,/SIO_INT*%
X69704600Y-37453300D02*
X69704600Y-46832100D01*
X69704600Y-46832100D02*
X72872500Y-50000000D01*
%TO.N,/SIO_CMD*%
X74230800Y-41198300D02*
X74230800Y-32574800D01*
X74230800Y-32574800D02*
X70171000Y-28515000D01*
X75412500Y-42380000D02*
X74230800Y-41198300D01*
%TO.N,/SIO_PROC*%
X72388900Y-46093000D02*
X70708100Y-44412200D01*
X64707500Y-34015200D02*
X64492700Y-34230000D01*
X67165900Y-34015200D02*
X64707500Y-34015200D01*
X74239500Y-46093000D02*
X72388900Y-46093000D01*
X70708100Y-37557400D02*
X67165900Y-34015200D01*
X75412500Y-44920000D02*
X74239500Y-46093000D01*
X70708100Y-44412200D02*
X70708100Y-37557400D01*
%TO.N,/SIO_MCTL*%
X71482700Y-36643800D02*
X65258900Y-30420000D01*
X72872500Y-44920000D02*
X71482700Y-43530200D01*
X71482700Y-43530200D02*
X71482700Y-36643800D01*
%TO.N,/SIO_DATAIN*%
X64379800Y-50883000D02*
X64379800Y-47031600D01*
X64627300Y-51130500D02*
X64379800Y-50883000D01*
%TO.N,/DTR*%
X31668800Y-38444000D02*
X31668800Y-35350700D01*
X31668800Y-38729500D02*
X29626200Y-40772100D01*
X31668800Y-38444000D02*
X31668800Y-38729500D01*
X31668800Y-35350700D02*
X31981500Y-35038000D01*
%TO.N,/RTS*%
X33804400Y-43688900D02*
X33867700Y-43752200D01*
X33804400Y-43688900D02*
X33804400Y-40037700D01*
X33867700Y-43752200D02*
X33867700Y-47320600D01*
X39325900Y-42323100D02*
X39325900Y-35812500D01*
%TO.N,/IO36{slash}MCTRL*%
X60887200Y-31796000D02*
X59505300Y-33177900D01*
X59505300Y-33177900D02*
X57740200Y-33177900D01*
%TO.N,/IO35*%
X38076900Y-48014600D02*
X38076900Y-44819900D01*
X36743500Y-49348000D02*
X38076900Y-48014600D01*
%TO.N,/IO25_DAC*%
X62541800Y-47865900D02*
X58351700Y-43675800D01*
X62541800Y-50309100D02*
X62541800Y-47865900D01*
X58351700Y-43675800D02*
X57717500Y-43675800D01*
%TO.N,/CP2102_VBUS_SENSE*%
X35387500Y-41832600D02*
X35622900Y-42068000D01*
X35387500Y-40718600D02*
X35387500Y-41832600D01*
X35477400Y-34138000D02*
X35477400Y-40628700D01*
X35679000Y-42124000D02*
X35679000Y-70334200D01*
X35410200Y-40695900D02*
X35387500Y-40718600D01*
X35477400Y-40628700D02*
X35410200Y-40695900D01*
X35622900Y-42068000D02*
X35623000Y-42068000D01*
X34179700Y-32840300D02*
X35477400Y-34138000D01*
X35623000Y-42068000D02*
X35679000Y-42124000D01*
%TO.N,/CP2102_RESET*%
X35789200Y-41276600D02*
X35789200Y-41666300D01*
X35789200Y-41666300D02*
X36141800Y-42018900D01*
X36463400Y-40602400D02*
X35789200Y-41276600D01*
X36141800Y-42018900D02*
X36141800Y-53112200D01*
X36383900Y-53354300D02*
X36383900Y-72444000D01*
X36141800Y-53112200D02*
X36383900Y-53354300D01*
%TO.N,/IO39{slash}CMD*%
X55445100Y-29380000D02*
X55445100Y-34477100D01*
%TO.N,/IO2{slash}LED1*%
X51784100Y-67790600D02*
X51784100Y-47780000D01*
%TO.N,/IO13{slash}LED3{slash}TCK*%
X43273400Y-66200200D02*
X43273400Y-49050000D01*
%TO.N,/IO4{slash}LED2*%
X55357800Y-65015700D02*
X55357800Y-45611200D01*
X55191200Y-65182300D02*
X55357800Y-65015700D01*
X55191200Y-66777400D02*
X55191200Y-65182300D01*
%TO.N,/SD_DAT2*%
X20724600Y-62506500D02*
X22268100Y-64050000D01*
X20724600Y-52393600D02*
X20724600Y-62506500D01*
%TO.N,/IO33{slash}DATOUT*%
X57616100Y-42113400D02*
X63157400Y-47654700D01*
%TO.N,/IO27{slash}CKIN*%
X58055300Y-38246300D02*
X55029400Y-41272200D01*
X60260600Y-38246300D02*
X58055300Y-38246300D01*
X55029400Y-43923300D02*
X55076100Y-43970000D01*
X55029400Y-41272200D02*
X55029400Y-43923300D01*
%TO.N,/IO26{slash}INT*%
X55576600Y-41293000D02*
X55576600Y-42986900D01*
X55576600Y-42986900D02*
X55632700Y-43043000D01*
X61409000Y-38968000D02*
X57901600Y-38968000D01*
X57901600Y-38968000D02*
X55576600Y-41293000D01*
X65831100Y-34640700D02*
X65736300Y-34640700D01*
X65736300Y-34640700D02*
X61409000Y-38968000D01*
%TO.N,/IO32{slash}CKOUT*%
X54862900Y-44607700D02*
X54472200Y-44217000D01*
X64798800Y-44560200D02*
X63264900Y-44560200D01*
X65714400Y-42690000D02*
X65714400Y-43644600D01*
X56218000Y-41699000D02*
X56284200Y-41765200D01*
X56284200Y-41765200D02*
X56284200Y-43682500D01*
X56218000Y-41226100D02*
X56218000Y-41699000D01*
X59551200Y-40846500D02*
X56597600Y-40846500D01*
X54472200Y-39178800D02*
X54687300Y-38963700D01*
X54472200Y-44217000D02*
X54472200Y-39178800D01*
X63264900Y-44560200D02*
X59551200Y-40846500D01*
X65714400Y-43644600D02*
X64798800Y-44560200D01*
X55359000Y-44607700D02*
X54862900Y-44607700D01*
X56284200Y-43682500D02*
X55359000Y-44607700D01*
X56597600Y-40846500D02*
X56218000Y-41226100D01*
%TO.N,/USB_RXI*%
X41270800Y-33810000D02*
X40244000Y-34836800D01*
X42803300Y-33810000D02*
X41270800Y-33810000D01*
%TO.N,/IO21{slash}DATIN*%
X64489500Y-36738300D02*
X64489500Y-43958400D01*
%TO.N,/USB_TXO*%
X42560100Y-35449300D02*
X39998300Y-35449300D01*
X42834100Y-35175300D02*
X42560100Y-35449300D01*
X39062000Y-34513000D02*
X39062000Y-34068900D01*
X39998300Y-35449300D02*
X39062000Y-34513000D01*
%TD*%
%TA.AperFunction,Conductor*%
%TO.N,/GND*%
G36*
X39442539Y-25520185D02*
G01*
X39488294Y-25572989D01*
X39499500Y-25624500D01*
X39499500Y-28565891D01*
X39533608Y-28693187D01*
X39542057Y-28707820D01*
X39599500Y-28807314D01*
X39692686Y-28900500D01*
X39806814Y-28966392D01*
X39934108Y-29000500D01*
X40065892Y-29000500D01*
X53400610Y-29000500D01*
X53467649Y-29020185D01*
X53513404Y-29072989D01*
X53523348Y-29142147D01*
X53522227Y-29148691D01*
X53491900Y-29301153D01*
X53491900Y-29458846D01*
X53522661Y-29613489D01*
X53522664Y-29613501D01*
X53583002Y-29759172D01*
X53583009Y-29759185D01*
X53671002Y-29890874D01*
X53691880Y-29957551D01*
X53691900Y-29959765D01*
X53691900Y-30493939D01*
X53672215Y-30560978D01*
X53636791Y-30597041D01*
X53560211Y-30648210D01*
X53560207Y-30648213D01*
X53448713Y-30759707D01*
X53448710Y-30759711D01*
X53361109Y-30890814D01*
X53361102Y-30890827D01*
X53300764Y-31036498D01*
X53300761Y-31036510D01*
X53270000Y-31191153D01*
X53270000Y-31348846D01*
X53300761Y-31503489D01*
X53300764Y-31503501D01*
X53327500Y-31568048D01*
X53334969Y-31637518D01*
X53303693Y-31699997D01*
X53243604Y-31735648D01*
X53212939Y-31739500D01*
X53200055Y-31739500D01*
X53045410Y-31770261D01*
X53045398Y-31770264D01*
X52899727Y-31830602D01*
X52899714Y-31830609D01*
X52768611Y-31918210D01*
X52768607Y-31918213D01*
X52657113Y-32029707D01*
X52657110Y-32029711D01*
X52569509Y-32160814D01*
X52569502Y-32160827D01*
X52509164Y-32306498D01*
X52509161Y-32306510D01*
X52478400Y-32461153D01*
X52478400Y-32618846D01*
X52509161Y-32773489D01*
X52509164Y-32773501D01*
X52569502Y-32919172D01*
X52569509Y-32919185D01*
X52657502Y-33050874D01*
X52678380Y-33117551D01*
X52678400Y-33119765D01*
X52678400Y-47268778D01*
X52658715Y-47335817D01*
X52605911Y-47381572D01*
X52536753Y-47391516D01*
X52473197Y-47362491D01*
X52451298Y-47337669D01*
X52405889Y-47269711D01*
X52405886Y-47269707D01*
X52294392Y-47158213D01*
X52294388Y-47158210D01*
X52163285Y-47070609D01*
X52163272Y-47070602D01*
X52017601Y-47010264D01*
X52017589Y-47010261D01*
X51862945Y-46979500D01*
X51862942Y-46979500D01*
X51705258Y-46979500D01*
X51705255Y-46979500D01*
X51550610Y-47010261D01*
X51550598Y-47010264D01*
X51404927Y-47070602D01*
X51404914Y-47070609D01*
X51273811Y-47158210D01*
X51273807Y-47158213D01*
X51162313Y-47269707D01*
X51162310Y-47269711D01*
X51074709Y-47400814D01*
X51074702Y-47400827D01*
X51014364Y-47546498D01*
X51014361Y-47546510D01*
X50983600Y-47701153D01*
X50983600Y-47858846D01*
X51014361Y-48013489D01*
X51014364Y-48013501D01*
X51074702Y-48159172D01*
X51074709Y-48159185D01*
X51136724Y-48251996D01*
X51155610Y-48280261D01*
X51162702Y-48290874D01*
X51183580Y-48357551D01*
X51183600Y-48359765D01*
X51183600Y-61161435D01*
X51163915Y-61228474D01*
X51111111Y-61274229D01*
X51083792Y-61283052D01*
X50947508Y-61310161D01*
X50947498Y-61310164D01*
X50801827Y-61370502D01*
X50801814Y-61370509D01*
X50670711Y-61458110D01*
X50670707Y-61458113D01*
X50559213Y-61569607D01*
X50559210Y-61569611D01*
X50471609Y-61700714D01*
X50471602Y-61700727D01*
X50411264Y-61846398D01*
X50411261Y-61846410D01*
X50380500Y-62001053D01*
X50380500Y-62158746D01*
X50411261Y-62313389D01*
X50411264Y-62313401D01*
X50471602Y-62459072D01*
X50471609Y-62459085D01*
X50559602Y-62590774D01*
X50580480Y-62657451D01*
X50580500Y-62659665D01*
X50580500Y-69568902D01*
X50560815Y-69635941D01*
X50544181Y-69656583D01*
X48056226Y-72144537D01*
X47994903Y-72178022D01*
X47955943Y-72180214D01*
X47900011Y-72174500D01*
X47099998Y-72174500D01*
X47099980Y-72174501D01*
X47045001Y-72180118D01*
X46976308Y-72167348D01*
X46925424Y-72119467D01*
X46908400Y-72056760D01*
X46908400Y-53532853D01*
X48100500Y-53532853D01*
X48100500Y-53690546D01*
X48131261Y-53845189D01*
X48131264Y-53845201D01*
X48191602Y-53990872D01*
X48191609Y-53990885D01*
X48279602Y-54122574D01*
X48300480Y-54189251D01*
X48300500Y-54191465D01*
X48300500Y-58692534D01*
X48280815Y-58759573D01*
X48279602Y-58761425D01*
X48191609Y-58893114D01*
X48191602Y-58893127D01*
X48131264Y-59038798D01*
X48131261Y-59038810D01*
X48100500Y-59193453D01*
X48100500Y-59351146D01*
X48131261Y-59505789D01*
X48131264Y-59505801D01*
X48191602Y-59651472D01*
X48191609Y-59651485D01*
X48279602Y-59783174D01*
X48300480Y-59849851D01*
X48300500Y-59852065D01*
X48300500Y-62989130D01*
X48300499Y-62989148D01*
X48300499Y-63154854D01*
X48300498Y-63154854D01*
X48313748Y-63204301D01*
X48341423Y-63307585D01*
X48370360Y-63357704D01*
X48420480Y-63444516D01*
X48498525Y-63522561D01*
X48503434Y-63528943D01*
X48513274Y-63554310D01*
X48526311Y-63578185D01*
X48526762Y-63580351D01*
X48557661Y-63735691D01*
X48557664Y-63735701D01*
X48618002Y-63881372D01*
X48618009Y-63881385D01*
X48705610Y-64012488D01*
X48705613Y-64012492D01*
X48817107Y-64123986D01*
X48817111Y-64123989D01*
X48948214Y-64211590D01*
X48948227Y-64211597D01*
X49093898Y-64271935D01*
X49093903Y-64271937D01*
X49248553Y-64302699D01*
X49248556Y-64302700D01*
X49248558Y-64302700D01*
X49406244Y-64302700D01*
X49406245Y-64302699D01*
X49560897Y-64271937D01*
X49706579Y-64211594D01*
X49837689Y-64123989D01*
X49949189Y-64012489D01*
X50036794Y-63881379D01*
X50097137Y-63735697D01*
X50127900Y-63581042D01*
X50127900Y-63423358D01*
X50127900Y-63423355D01*
X50127899Y-63423353D01*
X50120928Y-63388307D01*
X50097137Y-63268703D01*
X50071301Y-63206328D01*
X50036797Y-63123027D01*
X50036790Y-63123014D01*
X49949189Y-62991911D01*
X49949186Y-62991907D01*
X49837692Y-62880413D01*
X49837688Y-62880410D01*
X49706585Y-62792809D01*
X49706575Y-62792804D01*
X49578047Y-62739566D01*
X49523644Y-62695725D01*
X49501579Y-62629431D01*
X49501500Y-62625005D01*
X49501500Y-59852065D01*
X49521185Y-59785026D01*
X49522398Y-59783174D01*
X49610390Y-59651485D01*
X49610390Y-59651484D01*
X49610394Y-59651479D01*
X49670737Y-59505797D01*
X49701500Y-59351142D01*
X49701500Y-59193458D01*
X49701500Y-59193455D01*
X49701499Y-59193453D01*
X49670738Y-59038810D01*
X49670737Y-59038803D01*
X49670735Y-59038798D01*
X49610397Y-58893127D01*
X49610390Y-58893114D01*
X49522398Y-58761425D01*
X49501520Y-58694747D01*
X49501500Y-58692534D01*
X49501500Y-54191465D01*
X49521185Y-54124426D01*
X49522398Y-54122574D01*
X49610390Y-53990885D01*
X49610390Y-53990884D01*
X49610394Y-53990879D01*
X49670737Y-53845197D01*
X49701500Y-53690542D01*
X49701500Y-53532858D01*
X49701500Y-53532855D01*
X49701499Y-53532853D01*
X49670737Y-53378203D01*
X49621406Y-53259106D01*
X49610397Y-53232527D01*
X49610390Y-53232514D01*
X49522789Y-53101411D01*
X49522786Y-53101407D01*
X49411292Y-52989913D01*
X49411288Y-52989910D01*
X49280185Y-52902309D01*
X49280172Y-52902302D01*
X49134501Y-52841964D01*
X49134489Y-52841961D01*
X48979845Y-52811200D01*
X48979842Y-52811200D01*
X48822158Y-52811200D01*
X48822155Y-52811200D01*
X48667510Y-52841961D01*
X48667498Y-52841964D01*
X48521827Y-52902302D01*
X48521814Y-52902309D01*
X48390711Y-52989910D01*
X48390707Y-52989913D01*
X48279213Y-53101407D01*
X48279210Y-53101411D01*
X48191609Y-53232514D01*
X48191602Y-53232527D01*
X48131264Y-53378198D01*
X48131261Y-53378210D01*
X48100500Y-53532853D01*
X46908400Y-53532853D01*
X46908400Y-37206145D01*
X46908400Y-37206143D01*
X46886524Y-37124500D01*
X46867477Y-37053415D01*
X46820922Y-36972780D01*
X46788420Y-36916484D01*
X46676616Y-36804680D01*
X46676615Y-36804679D01*
X46672285Y-36800349D01*
X46672274Y-36800339D01*
X45634474Y-35762539D01*
X45600989Y-35701216D01*
X45600538Y-35699049D01*
X45569638Y-35543710D01*
X45569637Y-35543703D01*
X45545657Y-35485809D01*
X45509297Y-35398027D01*
X45509290Y-35398014D01*
X45421689Y-35266911D01*
X45421686Y-35266907D01*
X45310192Y-35155413D01*
X45310188Y-35155410D01*
X45179085Y-35067809D01*
X45179072Y-35067802D01*
X45033401Y-35007464D01*
X45033391Y-35007461D01*
X44898408Y-34980611D01*
X44836497Y-34948226D01*
X44801923Y-34887510D01*
X44798600Y-34858994D01*
X44798600Y-33662246D01*
X44798600Y-33662243D01*
X44797575Y-33658419D01*
X44784122Y-33608211D01*
X44757677Y-33509516D01*
X44753772Y-33502752D01*
X44678624Y-33372590D01*
X44678621Y-33372586D01*
X44678620Y-33372584D01*
X44566816Y-33260780D01*
X44566815Y-33260779D01*
X44562485Y-33256449D01*
X44562474Y-33256439D01*
X41616690Y-30310655D01*
X41616688Y-30310652D01*
X41497817Y-30191781D01*
X41497816Y-30191780D01*
X41411004Y-30141660D01*
X41411004Y-30141659D01*
X41411000Y-30141658D01*
X41360885Y-30112723D01*
X41208157Y-30071799D01*
X41050043Y-30071799D01*
X41042447Y-30071799D01*
X41042431Y-30071800D01*
X34969270Y-30071800D01*
X34969254Y-30071799D01*
X34961658Y-30071799D01*
X34803543Y-30071799D01*
X34727179Y-30092261D01*
X34650814Y-30112723D01*
X34650809Y-30112726D01*
X34513890Y-30191775D01*
X34513882Y-30191781D01*
X27597598Y-37108065D01*
X27536275Y-37141550D01*
X27466583Y-37136566D01*
X27437032Y-37120701D01*
X27423905Y-37111164D01*
X27408548Y-37100006D01*
X27365883Y-37044675D01*
X27359907Y-36975061D01*
X27392514Y-36913267D01*
X27408552Y-36899371D01*
X27491598Y-36839036D01*
X27614032Y-36716602D01*
X27715804Y-36576524D01*
X27794408Y-36422255D01*
X27847914Y-36257584D01*
X27849115Y-36250000D01*
X26780330Y-36250000D01*
X26800075Y-36230255D01*
X26849444Y-36144745D01*
X26875000Y-36049370D01*
X26875000Y-35950630D01*
X26849444Y-35855255D01*
X26800075Y-35769745D01*
X26780330Y-35750000D01*
X27849115Y-35750000D01*
X27849115Y-35749999D01*
X27847914Y-35742415D01*
X27794408Y-35577744D01*
X27715804Y-35423475D01*
X27614032Y-35283397D01*
X27506434Y-35175799D01*
X27472949Y-35114476D01*
X27477933Y-35044784D01*
X27519805Y-34988851D01*
X27528995Y-34982594D01*
X27593656Y-34942712D01*
X27717712Y-34818656D01*
X27809814Y-34669334D01*
X27864999Y-34502797D01*
X27875500Y-34400009D01*
X27875499Y-33599992D01*
X27872042Y-33566154D01*
X27864999Y-33497203D01*
X27864998Y-33497200D01*
X27855607Y-33468861D01*
X27809814Y-33330666D01*
X27717712Y-33181344D01*
X27593656Y-33057288D01*
X27444334Y-32965186D01*
X27277797Y-32910001D01*
X27277795Y-32910000D01*
X27175010Y-32899500D01*
X25824998Y-32899500D01*
X25824981Y-32899501D01*
X25722203Y-32910000D01*
X25722200Y-32910001D01*
X25555668Y-32965185D01*
X25555663Y-32965187D01*
X25406342Y-33057289D01*
X25282289Y-33181342D01*
X25190187Y-33330663D01*
X25190185Y-33330668D01*
X25170536Y-33389966D01*
X25135001Y-33497203D01*
X25135001Y-33497204D01*
X25135000Y-33497204D01*
X25124500Y-33599983D01*
X25124500Y-34400001D01*
X25124502Y-34400022D01*
X25130214Y-34455945D01*
X25117443Y-34524638D01*
X25094537Y-34556226D01*
X21290786Y-38359978D01*
X21178982Y-38471781D01*
X21178978Y-38471787D01*
X21129146Y-38558099D01*
X21099924Y-38608712D01*
X21099923Y-38608713D01*
X21087638Y-38654563D01*
X21058999Y-38761443D01*
X21058999Y-38761445D01*
X21058999Y-38929546D01*
X21059000Y-38929559D01*
X21059000Y-51492839D01*
X21039315Y-51559878D01*
X20986511Y-51605633D01*
X20917353Y-51615577D01*
X20910809Y-51614456D01*
X20803445Y-51593100D01*
X20803442Y-51593100D01*
X20645758Y-51593100D01*
X20645755Y-51593100D01*
X20491110Y-51623861D01*
X20491098Y-51623864D01*
X20345427Y-51684202D01*
X20345414Y-51684209D01*
X20214311Y-51771810D01*
X20214307Y-51771813D01*
X20102813Y-51883307D01*
X20102810Y-51883311D01*
X20015209Y-52014414D01*
X20015202Y-52014427D01*
X19954864Y-52160098D01*
X19954861Y-52160110D01*
X19924100Y-52314753D01*
X19924100Y-52472446D01*
X19954861Y-52627089D01*
X19954864Y-52627101D01*
X20015202Y-52772772D01*
X20015209Y-52772785D01*
X20103202Y-52904474D01*
X20124080Y-52971151D01*
X20124100Y-52973365D01*
X20124100Y-62419830D01*
X20124099Y-62419848D01*
X20124099Y-62585554D01*
X20124098Y-62585554D01*
X20131324Y-62612520D01*
X20165023Y-62738285D01*
X20177503Y-62759900D01*
X20221887Y-62836777D01*
X20244079Y-62875215D01*
X20362949Y-62994085D01*
X20362955Y-62994090D01*
X21433525Y-64064660D01*
X21467010Y-64125983D01*
X21467461Y-64128149D01*
X21498361Y-64283491D01*
X21498364Y-64283501D01*
X21558702Y-64429172D01*
X21558709Y-64429185D01*
X21646310Y-64560288D01*
X21650176Y-64564999D01*
X21648013Y-64566774D01*
X21675746Y-64617563D01*
X21670762Y-64687255D01*
X21642261Y-64731602D01*
X20888686Y-65485178D01*
X20776881Y-65596982D01*
X20776879Y-65596984D01*
X20752506Y-65639202D01*
X20738149Y-65664069D01*
X20723229Y-65689911D01*
X20703343Y-65724355D01*
X20697823Y-65733915D01*
X20656899Y-65886643D01*
X20656899Y-65886645D01*
X20656899Y-66054746D01*
X20656900Y-66054759D01*
X20656900Y-71044530D01*
X20656899Y-71044548D01*
X20656899Y-71210254D01*
X20656898Y-71210254D01*
X20697822Y-71362983D01*
X20714619Y-71392077D01*
X20776875Y-71499909D01*
X20776881Y-71499917D01*
X20895749Y-71618785D01*
X20895755Y-71618790D01*
X21129939Y-71852974D01*
X21129949Y-71852985D01*
X21134279Y-71857315D01*
X21134280Y-71857316D01*
X21246084Y-71969120D01*
X21332895Y-72019239D01*
X21332897Y-72019241D01*
X21369622Y-72040444D01*
X21383015Y-72048177D01*
X21535743Y-72089101D01*
X21535746Y-72089101D01*
X21701453Y-72089101D01*
X21701469Y-72089100D01*
X22708231Y-72089100D01*
X22708247Y-72089101D01*
X22715843Y-72089101D01*
X22873954Y-72089101D01*
X22873957Y-72089101D01*
X23026685Y-72048177D01*
X23076804Y-72019239D01*
X23163616Y-71969120D01*
X23275420Y-71857316D01*
X23275420Y-71857314D01*
X23285628Y-71847107D01*
X23285629Y-71847104D01*
X23634762Y-71497972D01*
X23696083Y-71464489D01*
X23698250Y-71464038D01*
X23756185Y-71452513D01*
X23853597Y-71433137D01*
X23999279Y-71372794D01*
X24130389Y-71285189D01*
X24241889Y-71173689D01*
X24329494Y-71042579D01*
X24389837Y-70896897D01*
X24420600Y-70742242D01*
X24420600Y-70584558D01*
X24420600Y-70584555D01*
X24420599Y-70584553D01*
X24407954Y-70520982D01*
X24389837Y-70429903D01*
X24383457Y-70414500D01*
X24329497Y-70284227D01*
X24329490Y-70284214D01*
X24241889Y-70153111D01*
X24241886Y-70153107D01*
X24130392Y-70041613D01*
X24130388Y-70041610D01*
X23999285Y-69954009D01*
X23999276Y-69954004D01*
X23884162Y-69906323D01*
X23829759Y-69862482D01*
X23807694Y-69796188D01*
X23824232Y-69729756D01*
X23831186Y-69717713D01*
X23832561Y-69715329D01*
X23834377Y-69712185D01*
X23875301Y-69559457D01*
X23875301Y-69401343D01*
X23875301Y-69393748D01*
X23875300Y-69393730D01*
X23875300Y-63894328D01*
X23894985Y-63827289D01*
X23947789Y-63781534D01*
X23977570Y-63773509D01*
X23977368Y-63772489D01*
X24063834Y-63755288D01*
X24137997Y-63740537D01*
X24283679Y-63680194D01*
X24414789Y-63592589D01*
X24526289Y-63481089D01*
X24613894Y-63349979D01*
X24615901Y-63345135D01*
X24647561Y-63268698D01*
X24674237Y-63204297D01*
X24705000Y-63049642D01*
X24705138Y-63048950D01*
X24737523Y-62987039D01*
X24739020Y-62985514D01*
X25686013Y-62038521D01*
X25686016Y-62038520D01*
X25797820Y-61926716D01*
X25847939Y-61839904D01*
X25876877Y-61789785D01*
X25917801Y-61637057D01*
X25917801Y-61478943D01*
X25917801Y-61471348D01*
X25917800Y-61471330D01*
X25917800Y-50934898D01*
X25924037Y-50913655D01*
X25925616Y-50891571D01*
X25933689Y-50880784D01*
X25937485Y-50867859D01*
X25954215Y-50853362D01*
X25967484Y-50835635D01*
X25980108Y-50830925D01*
X25990289Y-50822104D01*
X26012200Y-50818953D01*
X26032947Y-50811214D01*
X26046112Y-50814077D01*
X26059447Y-50812160D01*
X26079584Y-50821356D01*
X26101221Y-50826062D01*
X26118951Y-50839334D01*
X26123003Y-50841185D01*
X26129476Y-50847212D01*
X26138350Y-50856085D01*
X26138350Y-50856086D01*
X26138355Y-50856090D01*
X29265425Y-53983160D01*
X29298910Y-54044483D01*
X29299361Y-54046649D01*
X29330261Y-54201991D01*
X29330264Y-54202001D01*
X29390602Y-54347672D01*
X29390609Y-54347685D01*
X29478210Y-54478788D01*
X29478213Y-54478792D01*
X29589708Y-54590287D01*
X29599574Y-54596879D01*
X29618364Y-54612299D01*
X29619478Y-54613413D01*
X29619480Y-54613416D01*
X29731284Y-54725220D01*
X29731286Y-54725221D01*
X29738356Y-54732291D01*
X30978525Y-55972460D01*
X31012010Y-56033783D01*
X31012461Y-56035949D01*
X31043361Y-56191291D01*
X31043364Y-56191301D01*
X31103702Y-56336972D01*
X31103709Y-56336985D01*
X31191308Y-56468085D01*
X31192750Y-56469842D01*
X31193217Y-56470943D01*
X31194695Y-56473154D01*
X31194275Y-56473434D01*
X31220066Y-56534151D01*
X31220900Y-56548511D01*
X31220900Y-72800834D01*
X31201215Y-72867873D01*
X31200002Y-72869725D01*
X31112009Y-73001414D01*
X31112002Y-73001427D01*
X31051664Y-73147098D01*
X31051661Y-73147110D01*
X31020900Y-73301753D01*
X31020900Y-73459446D01*
X31051661Y-73614089D01*
X31051664Y-73614101D01*
X31112002Y-73759772D01*
X31112009Y-73759785D01*
X31199610Y-73890888D01*
X31199613Y-73890892D01*
X31311107Y-74002386D01*
X31311111Y-74002389D01*
X31442214Y-74089990D01*
X31442227Y-74089997D01*
X31587898Y-74150335D01*
X31587903Y-74150337D01*
X31717291Y-74176074D01*
X31742553Y-74181099D01*
X31742556Y-74181100D01*
X31742558Y-74181100D01*
X31900242Y-74181100D01*
X31925508Y-74176074D01*
X31995098Y-74182300D01*
X32050276Y-74225162D01*
X32073522Y-74291051D01*
X32073700Y-74297691D01*
X32073700Y-76932334D01*
X32054015Y-76999373D01*
X32052802Y-77001225D01*
X31964809Y-77132914D01*
X31964802Y-77132927D01*
X31904464Y-77278598D01*
X31904461Y-77278610D01*
X31873700Y-77433253D01*
X31873700Y-77590946D01*
X31904461Y-77745589D01*
X31904464Y-77745601D01*
X31964802Y-77891272D01*
X31964809Y-77891285D01*
X32052410Y-78022388D01*
X32052413Y-78022392D01*
X32163907Y-78133886D01*
X32163911Y-78133889D01*
X32295014Y-78221490D01*
X32295027Y-78221497D01*
X32440698Y-78281835D01*
X32440703Y-78281837D01*
X32595353Y-78312599D01*
X32595356Y-78312600D01*
X32595358Y-78312600D01*
X32753044Y-78312600D01*
X32753045Y-78312599D01*
X32907697Y-78281837D01*
X33053379Y-78221494D01*
X33184489Y-78133889D01*
X33295989Y-78022389D01*
X33383594Y-77891279D01*
X33443937Y-77745597D01*
X33474700Y-77590942D01*
X33474700Y-77433258D01*
X33474700Y-77433257D01*
X33474700Y-77433255D01*
X33474699Y-77433253D01*
X33443938Y-77278610D01*
X33443937Y-77278603D01*
X33407400Y-77190394D01*
X33383597Y-77132927D01*
X33383590Y-77132914D01*
X33295598Y-77001225D01*
X33274720Y-76934547D01*
X33274700Y-76932334D01*
X33274700Y-54574749D01*
X33294385Y-54507710D01*
X33347189Y-54461955D01*
X33376197Y-54454142D01*
X33375968Y-54452989D01*
X33462434Y-54435788D01*
X33536597Y-54421037D01*
X33682279Y-54360694D01*
X33682282Y-54360691D01*
X33686449Y-54358466D01*
X33754852Y-54344225D01*
X33820095Y-54369226D01*
X33861465Y-54425532D01*
X33868900Y-54467825D01*
X33868900Y-56395559D01*
X33849215Y-56462598D01*
X33832581Y-56483240D01*
X33810413Y-56505407D01*
X33810410Y-56505411D01*
X33722809Y-56636514D01*
X33722802Y-56636527D01*
X33662464Y-56782198D01*
X33662461Y-56782210D01*
X33631700Y-56936853D01*
X33631700Y-57094546D01*
X33662461Y-57249189D01*
X33662464Y-57249201D01*
X33722802Y-57394872D01*
X33722809Y-57394885D01*
X33810410Y-57525988D01*
X33810413Y-57525992D01*
X33921907Y-57637486D01*
X33921911Y-57637489D01*
X34053014Y-57725090D01*
X34053027Y-57725097D01*
X34198698Y-57785435D01*
X34198703Y-57785437D01*
X34274472Y-57800508D01*
X34350591Y-57815650D01*
X34412502Y-57848035D01*
X34447076Y-57908750D01*
X34450400Y-57937267D01*
X34450400Y-75901234D01*
X34430715Y-75968273D01*
X34429502Y-75970125D01*
X34341509Y-76101814D01*
X34341502Y-76101827D01*
X34281164Y-76247498D01*
X34281161Y-76247510D01*
X34250400Y-76402153D01*
X34250400Y-76559846D01*
X34281161Y-76714489D01*
X34281164Y-76714501D01*
X34341502Y-76860172D01*
X34341509Y-76860185D01*
X34429110Y-76991288D01*
X34429113Y-76991292D01*
X34540607Y-77102786D01*
X34540611Y-77102789D01*
X34671714Y-77190390D01*
X34671727Y-77190397D01*
X34817398Y-77250735D01*
X34817403Y-77250737D01*
X34957469Y-77278598D01*
X34972053Y-77281499D01*
X34972056Y-77281500D01*
X34972058Y-77281500D01*
X35129744Y-77281500D01*
X35129745Y-77281499D01*
X35284397Y-77250737D01*
X35430079Y-77190394D01*
X35561189Y-77102789D01*
X35672689Y-76991289D01*
X35760294Y-76860179D01*
X35820637Y-76714497D01*
X35851400Y-76559842D01*
X35851400Y-76402158D01*
X35851400Y-76402155D01*
X35851399Y-76402153D01*
X35820638Y-76247510D01*
X35820637Y-76247503D01*
X35817062Y-76238872D01*
X35760297Y-76101827D01*
X35760290Y-76101814D01*
X35672298Y-75970125D01*
X35651420Y-75903447D01*
X35651400Y-75901234D01*
X35651400Y-73142941D01*
X35671085Y-73075902D01*
X35723889Y-73030147D01*
X35793047Y-73020203D01*
X35856603Y-73049228D01*
X35863081Y-73055260D01*
X35873607Y-73065786D01*
X35873611Y-73065789D01*
X36004714Y-73153390D01*
X36004727Y-73153397D01*
X36150398Y-73213735D01*
X36150403Y-73213737D01*
X36305053Y-73244499D01*
X36305056Y-73244500D01*
X36305058Y-73244500D01*
X36462744Y-73244500D01*
X36462745Y-73244499D01*
X36617397Y-73213737D01*
X36763079Y-73153394D01*
X36894189Y-73065789D01*
X37005689Y-72954289D01*
X37093294Y-72823179D01*
X37153637Y-72677497D01*
X37184400Y-72522842D01*
X37184400Y-72404500D01*
X37189740Y-72386312D01*
X37190093Y-72367358D01*
X37199381Y-72353479D01*
X37204085Y-72337461D01*
X37218408Y-72325049D01*
X37228954Y-72309293D01*
X37244271Y-72302639D01*
X37256889Y-72291706D01*
X37275650Y-72289008D01*
X37293039Y-72281455D01*
X37321128Y-72282469D01*
X37326047Y-72281762D01*
X37328327Y-72282112D01*
X37330469Y-72282460D01*
X37421158Y-72300500D01*
X37441265Y-72300500D01*
X37451166Y-72302112D01*
X37473993Y-72313054D01*
X37498278Y-72320185D01*
X37504961Y-72327898D01*
X37514171Y-72332313D01*
X37527460Y-72353863D01*
X37544033Y-72372989D01*
X37545485Y-72383093D01*
X37550845Y-72391784D01*
X37550374Y-72417091D01*
X37553977Y-72442147D01*
X37549688Y-72453978D01*
X37549546Y-72461642D01*
X37543797Y-72470231D01*
X37536778Y-72489595D01*
X37512007Y-72529756D01*
X37465187Y-72605663D01*
X37465185Y-72605668D01*
X37441382Y-72677501D01*
X37410001Y-72772203D01*
X37410001Y-72772204D01*
X37410000Y-72772204D01*
X37399500Y-72874983D01*
X37399500Y-74225001D01*
X37399501Y-74225018D01*
X37410000Y-74327796D01*
X37410001Y-74327799D01*
X37465185Y-74494331D01*
X37465187Y-74494336D01*
X37488870Y-74532732D01*
X37557288Y-74643656D01*
X37681344Y-74767712D01*
X37830666Y-74859814D01*
X37997203Y-74914999D01*
X38099991Y-74925500D01*
X38900008Y-74925499D01*
X38900016Y-74925498D01*
X38900019Y-74925498D01*
X38956302Y-74919748D01*
X39002797Y-74914999D01*
X39169334Y-74859814D01*
X39318656Y-74767712D01*
X39442712Y-74643656D01*
X39482310Y-74579456D01*
X39534258Y-74532732D01*
X39603220Y-74521509D01*
X39667303Y-74549352D01*
X39675530Y-74556872D01*
X39783072Y-74664414D01*
X39848388Y-74711868D01*
X39891051Y-74767195D01*
X39899500Y-74812184D01*
X39899500Y-75279934D01*
X39879815Y-75346973D01*
X39878602Y-75348825D01*
X39790609Y-75480514D01*
X39790602Y-75480527D01*
X39730264Y-75626198D01*
X39730261Y-75626210D01*
X39699500Y-75780853D01*
X39699500Y-75938546D01*
X39730261Y-76093189D01*
X39730264Y-76093201D01*
X39790602Y-76238872D01*
X39790609Y-76238885D01*
X39878210Y-76369988D01*
X39878213Y-76369992D01*
X39989707Y-76481486D01*
X39989711Y-76481489D01*
X40120814Y-76569090D01*
X40120827Y-76569097D01*
X40244222Y-76620208D01*
X40266503Y-76629437D01*
X40421153Y-76660199D01*
X40421156Y-76660200D01*
X40421158Y-76660200D01*
X40578844Y-76660200D01*
X40578845Y-76660199D01*
X40733497Y-76629437D01*
X40879179Y-76569094D01*
X41010289Y-76481489D01*
X41121789Y-76369989D01*
X41209394Y-76238879D01*
X41269737Y-76093197D01*
X41300500Y-75938542D01*
X41300500Y-75780858D01*
X41300500Y-75780855D01*
X41300499Y-75780853D01*
X41269738Y-75626210D01*
X41269737Y-75626203D01*
X41269735Y-75626198D01*
X41209397Y-75480527D01*
X41209390Y-75480514D01*
X41121398Y-75348825D01*
X41100520Y-75282147D01*
X41100500Y-75279934D01*
X41100500Y-74812184D01*
X41120185Y-74745145D01*
X41151609Y-74711870D01*
X41216928Y-74664414D01*
X41339414Y-74541928D01*
X41441232Y-74401788D01*
X41519873Y-74247445D01*
X41573402Y-74082701D01*
X41600500Y-73911611D01*
X41600500Y-73188389D01*
X41573402Y-73017299D01*
X41519873Y-72852555D01*
X41441232Y-72698212D01*
X41339414Y-72558072D01*
X41216928Y-72435586D01*
X41076788Y-72333768D01*
X40922445Y-72255127D01*
X40757701Y-72201598D01*
X40757699Y-72201597D01*
X40757698Y-72201597D01*
X40608848Y-72178022D01*
X40586611Y-72174500D01*
X40413389Y-72174500D01*
X40391152Y-72178022D01*
X40242302Y-72201597D01*
X40077552Y-72255128D01*
X39923211Y-72333768D01*
X39783073Y-72435585D01*
X39675530Y-72543128D01*
X39614207Y-72576612D01*
X39544515Y-72571628D01*
X39488582Y-72529756D01*
X39482310Y-72520543D01*
X39463222Y-72489597D01*
X39442712Y-72456344D01*
X39318656Y-72332288D01*
X39169334Y-72240186D01*
X39169332Y-72240185D01*
X39163187Y-72236395D01*
X39164290Y-72234605D01*
X39119649Y-72195290D01*
X39100500Y-72129091D01*
X39100500Y-58394165D01*
X39109939Y-58346713D01*
X39156335Y-58234701D01*
X39156337Y-58234697D01*
X39187100Y-58080042D01*
X39187100Y-57922358D01*
X39187100Y-57922355D01*
X39187099Y-57922353D01*
X39172316Y-57848035D01*
X39156337Y-57767703D01*
X39102400Y-57637486D01*
X39095997Y-57622027D01*
X39095990Y-57622014D01*
X39008389Y-57490911D01*
X39008386Y-57490907D01*
X38896892Y-57379413D01*
X38896888Y-57379410D01*
X38765785Y-57291809D01*
X38765772Y-57291802D01*
X38620101Y-57231464D01*
X38620089Y-57231461D01*
X38465445Y-57200700D01*
X38465442Y-57200700D01*
X38307758Y-57200700D01*
X38248690Y-57212449D01*
X38179099Y-57206220D01*
X38123922Y-57163357D01*
X38100678Y-57097467D01*
X38100500Y-57090831D01*
X38100500Y-52204365D01*
X38120185Y-52137326D01*
X38121398Y-52135474D01*
X38209390Y-52003785D01*
X38209390Y-52003784D01*
X38209394Y-52003779D01*
X38269737Y-51858097D01*
X38300500Y-51703442D01*
X38300638Y-51702750D01*
X38333023Y-51640839D01*
X38334516Y-51639318D01*
X39159520Y-50814316D01*
X39238577Y-50677385D01*
X39279501Y-50524657D01*
X39279501Y-50366542D01*
X39279501Y-50358947D01*
X39279500Y-50358929D01*
X39279500Y-44144897D01*
X39299185Y-44077858D01*
X39351989Y-44032103D01*
X39421147Y-44022159D01*
X39484703Y-44051184D01*
X39491181Y-44057216D01*
X43476662Y-48042697D01*
X43510147Y-48104020D01*
X43505163Y-48173712D01*
X43463291Y-48229645D01*
X43397827Y-48254062D01*
X43364791Y-48251996D01*
X43352242Y-48249500D01*
X43194558Y-48249500D01*
X43194555Y-48249500D01*
X43039910Y-48280261D01*
X43039898Y-48280264D01*
X42894227Y-48340602D01*
X42894214Y-48340609D01*
X42763111Y-48428210D01*
X42763107Y-48428213D01*
X42651613Y-48539707D01*
X42651610Y-48539711D01*
X42564009Y-48670814D01*
X42564002Y-48670827D01*
X42503664Y-48816498D01*
X42503661Y-48816510D01*
X42472900Y-48971153D01*
X42472900Y-49128846D01*
X42503661Y-49283489D01*
X42503664Y-49283501D01*
X42564002Y-49429172D01*
X42564009Y-49429185D01*
X42652002Y-49560874D01*
X42672880Y-49627551D01*
X42672900Y-49629765D01*
X42672900Y-65620434D01*
X42653215Y-65687473D01*
X42652002Y-65689325D01*
X42564009Y-65821014D01*
X42564002Y-65821027D01*
X42503664Y-65966698D01*
X42503661Y-65966710D01*
X42472900Y-66121353D01*
X42472900Y-66279046D01*
X42503661Y-66433689D01*
X42503664Y-66433701D01*
X42564002Y-66579372D01*
X42564009Y-66579385D01*
X42651610Y-66710489D01*
X42652959Y-66712132D01*
X42653395Y-66713160D01*
X42654995Y-66715554D01*
X42654541Y-66715857D01*
X42680271Y-66776443D01*
X42668479Y-66845310D01*
X42644786Y-66878477D01*
X40651739Y-68871525D01*
X40590416Y-68905010D01*
X40588250Y-68905461D01*
X40432908Y-68936361D01*
X40432898Y-68936364D01*
X40287227Y-68996702D01*
X40287214Y-68996709D01*
X40156111Y-69084310D01*
X40156107Y-69084313D01*
X40044613Y-69195807D01*
X40044610Y-69195811D01*
X39957009Y-69326914D01*
X39957002Y-69326927D01*
X39896664Y-69472598D01*
X39896661Y-69472610D01*
X39865900Y-69627253D01*
X39865900Y-69784946D01*
X39896661Y-69939589D01*
X39896664Y-69939601D01*
X39957002Y-70085272D01*
X39957009Y-70085285D01*
X40044610Y-70216388D01*
X40044613Y-70216392D01*
X40156107Y-70327886D01*
X40156111Y-70327889D01*
X40287214Y-70415490D01*
X40287227Y-70415497D01*
X40363054Y-70446905D01*
X40432903Y-70475837D01*
X40587553Y-70506599D01*
X40587556Y-70506600D01*
X40587558Y-70506600D01*
X40745244Y-70506600D01*
X40745245Y-70506599D01*
X40899897Y-70475837D01*
X41045579Y-70415494D01*
X41176689Y-70327889D01*
X41288189Y-70216389D01*
X41375794Y-70085279D01*
X41436137Y-69939597D01*
X41455513Y-69842185D01*
X41467038Y-69784250D01*
X41499423Y-69722339D01*
X41500919Y-69720815D01*
X45085706Y-66136027D01*
X45085711Y-66136024D01*
X45095914Y-66125820D01*
X45095916Y-66125820D01*
X45207720Y-66014016D01*
X45286777Y-65877084D01*
X45327700Y-65724357D01*
X45327700Y-56995565D01*
X45347385Y-56928526D01*
X45348598Y-56926674D01*
X45389268Y-56865808D01*
X45436594Y-56794979D01*
X45468839Y-56717133D01*
X45512679Y-56662729D01*
X45578974Y-56640664D01*
X45646673Y-56657943D01*
X45694284Y-56709080D01*
X45707400Y-56764585D01*
X45707400Y-76932483D01*
X45687715Y-76999522D01*
X45686502Y-77001374D01*
X45598609Y-77132914D01*
X45598602Y-77132927D01*
X45538264Y-77278598D01*
X45538261Y-77278610D01*
X45507500Y-77433253D01*
X45507500Y-77590946D01*
X45538261Y-77745589D01*
X45538264Y-77745601D01*
X45598602Y-77891272D01*
X45598609Y-77891285D01*
X45686210Y-78022388D01*
X45686213Y-78022392D01*
X45797707Y-78133886D01*
X45797711Y-78133889D01*
X45928814Y-78221490D01*
X45928827Y-78221497D01*
X46074498Y-78281835D01*
X46074503Y-78281837D01*
X46229153Y-78312599D01*
X46229156Y-78312600D01*
X46229158Y-78312600D01*
X46386844Y-78312600D01*
X46386845Y-78312599D01*
X46541497Y-78281837D01*
X46687179Y-78221494D01*
X46818289Y-78133889D01*
X46929789Y-78022389D01*
X47017394Y-77891279D01*
X47077737Y-77745597D01*
X47108500Y-77590942D01*
X47108500Y-77433258D01*
X47108499Y-77433255D01*
X47104477Y-77413034D01*
X47104477Y-77413032D01*
X47100634Y-77393713D01*
X80649500Y-77393713D01*
X80649500Y-77606286D01*
X80682753Y-77816239D01*
X80748444Y-78018414D01*
X80844951Y-78207820D01*
X80969890Y-78379786D01*
X81120213Y-78530109D01*
X81292179Y-78655048D01*
X81292181Y-78655049D01*
X81292184Y-78655051D01*
X81481588Y-78751557D01*
X81683757Y-78817246D01*
X81893713Y-78850500D01*
X81893714Y-78850500D01*
X82106286Y-78850500D01*
X82106287Y-78850500D01*
X82316243Y-78817246D01*
X82518412Y-78751557D01*
X82707816Y-78655051D01*
X82729789Y-78639086D01*
X82879786Y-78530109D01*
X82879788Y-78530106D01*
X82879792Y-78530104D01*
X83030104Y-78379792D01*
X83030106Y-78379788D01*
X83030109Y-78379786D01*
X83155048Y-78207820D01*
X83155047Y-78207820D01*
X83155051Y-78207816D01*
X83251557Y-78018412D01*
X83317246Y-77816243D01*
X83350500Y-77606287D01*
X83350500Y-77393713D01*
X83317246Y-77183757D01*
X83251557Y-76981588D01*
X83155051Y-76792184D01*
X83155049Y-76792181D01*
X83155048Y-76792179D01*
X83030109Y-76620213D01*
X82879786Y-76469890D01*
X82707820Y-76344951D01*
X82518414Y-76248444D01*
X82518413Y-76248443D01*
X82518412Y-76248443D01*
X82316243Y-76182754D01*
X82316241Y-76182753D01*
X82316240Y-76182753D01*
X82154957Y-76157208D01*
X82106287Y-76149500D01*
X81893713Y-76149500D01*
X81845042Y-76157208D01*
X81683760Y-76182753D01*
X81683757Y-76182754D01*
X81484460Y-76247510D01*
X81481585Y-76248444D01*
X81292179Y-76344951D01*
X81120213Y-76469890D01*
X80969890Y-76620213D01*
X80844951Y-76792179D01*
X80748444Y-76981585D01*
X80682753Y-77183760D01*
X80649500Y-77393713D01*
X47100634Y-77393713D01*
X47077738Y-77278610D01*
X47077737Y-77278603D01*
X47041200Y-77190394D01*
X47017397Y-77132927D01*
X47017390Y-77132914D01*
X46929298Y-77001075D01*
X46908420Y-76934397D01*
X46908400Y-76932184D01*
X46908400Y-75043240D01*
X46928085Y-74976201D01*
X46980889Y-74930446D01*
X47045001Y-74919882D01*
X47099991Y-74925500D01*
X47900008Y-74925499D01*
X47900016Y-74925498D01*
X47900019Y-74925498D01*
X47956302Y-74919748D01*
X48002797Y-74914999D01*
X48169334Y-74859814D01*
X48318656Y-74767712D01*
X48442712Y-74643656D01*
X48482310Y-74579456D01*
X48534258Y-74532732D01*
X48603220Y-74521509D01*
X48667303Y-74549352D01*
X48675530Y-74556872D01*
X48783072Y-74664414D01*
X48923212Y-74766232D01*
X49077555Y-74844873D01*
X49242299Y-74898402D01*
X49413389Y-74925500D01*
X49413390Y-74925500D01*
X49586610Y-74925500D01*
X49586611Y-74925500D01*
X49757701Y-74898402D01*
X49922445Y-74844873D01*
X50076788Y-74766232D01*
X50216928Y-74664414D01*
X50339414Y-74541928D01*
X50399682Y-74458975D01*
X50455012Y-74416311D01*
X50524626Y-74410332D01*
X50586421Y-74442938D01*
X50600315Y-74458973D01*
X50660586Y-74541928D01*
X50783072Y-74664414D01*
X50923212Y-74766232D01*
X51077555Y-74844873D01*
X51242299Y-74898402D01*
X51413389Y-74925500D01*
X51413390Y-74925500D01*
X51586610Y-74925500D01*
X51586611Y-74925500D01*
X51757701Y-74898402D01*
X51922445Y-74844873D01*
X52076788Y-74766232D01*
X52216928Y-74664414D01*
X52339414Y-74541928D01*
X52399682Y-74458975D01*
X52455012Y-74416311D01*
X52524626Y-74410332D01*
X52586421Y-74442938D01*
X52600315Y-74458973D01*
X52660586Y-74541928D01*
X52783072Y-74664414D01*
X52923212Y-74766232D01*
X53077555Y-74844873D01*
X53242299Y-74898402D01*
X53413389Y-74925500D01*
X53413390Y-74925500D01*
X53586610Y-74925500D01*
X53586611Y-74925500D01*
X53757701Y-74898402D01*
X53922445Y-74844873D01*
X54076788Y-74766232D01*
X54216928Y-74664414D01*
X54339414Y-74541928D01*
X54441232Y-74401788D01*
X54519873Y-74247445D01*
X54573402Y-74082701D01*
X54600500Y-73911611D01*
X54600500Y-73188389D01*
X54573402Y-73017299D01*
X54519873Y-72852555D01*
X54441232Y-72698212D01*
X54339414Y-72558072D01*
X54216928Y-72435586D01*
X54076788Y-72333768D01*
X53922445Y-72255127D01*
X53757701Y-72201598D01*
X53757699Y-72201597D01*
X53757698Y-72201597D01*
X53608848Y-72178022D01*
X53586611Y-72174500D01*
X53413389Y-72174500D01*
X53391152Y-72178022D01*
X53242302Y-72201597D01*
X53077552Y-72255128D01*
X52923211Y-72333768D01*
X52876979Y-72367358D01*
X52783072Y-72435586D01*
X52783070Y-72435588D01*
X52783069Y-72435588D01*
X52660588Y-72558069D01*
X52660581Y-72558078D01*
X52600317Y-72641023D01*
X52544987Y-72683689D01*
X52475374Y-72689667D01*
X52413579Y-72657061D01*
X52399683Y-72641023D01*
X52339418Y-72558078D01*
X52339416Y-72558075D01*
X52339414Y-72558072D01*
X52216928Y-72435586D01*
X52076788Y-72333768D01*
X51922445Y-72255127D01*
X51757701Y-72201598D01*
X51757699Y-72201597D01*
X51757698Y-72201597D01*
X51608848Y-72178022D01*
X51586611Y-72174500D01*
X51413389Y-72174500D01*
X51391152Y-72178022D01*
X51242302Y-72201597D01*
X51077552Y-72255128D01*
X50923211Y-72333768D01*
X50876979Y-72367358D01*
X50783072Y-72435586D01*
X50783070Y-72435588D01*
X50783069Y-72435588D01*
X50660588Y-72558069D01*
X50660581Y-72558078D01*
X50600317Y-72641023D01*
X50544987Y-72683689D01*
X50475374Y-72689667D01*
X50413579Y-72657061D01*
X50399683Y-72641023D01*
X50339418Y-72558078D01*
X50339416Y-72558075D01*
X50339414Y-72558072D01*
X50216928Y-72435586D01*
X50076788Y-72333768D01*
X50028753Y-72309293D01*
X49922446Y-72255127D01*
X49904808Y-72249396D01*
X49847133Y-72209957D01*
X49819937Y-72145597D01*
X49831853Y-72076751D01*
X49855445Y-72043788D01*
X51539506Y-70359728D01*
X51539511Y-70359724D01*
X51549714Y-70349520D01*
X51549716Y-70349520D01*
X51661520Y-70237716D01*
X51729039Y-70120769D01*
X51740577Y-70100785D01*
X51781500Y-69948057D01*
X51781500Y-69789943D01*
X51781500Y-68709064D01*
X51801185Y-68642025D01*
X51853989Y-68596270D01*
X51881309Y-68587447D01*
X51940063Y-68575759D01*
X52017597Y-68560337D01*
X52163279Y-68499994D01*
X52294389Y-68412389D01*
X52405889Y-68300889D01*
X52493494Y-68169779D01*
X52553837Y-68024097D01*
X52584600Y-67869442D01*
X52584600Y-67711758D01*
X52584600Y-67711755D01*
X52584599Y-67711753D01*
X52553837Y-67557103D01*
X52524716Y-67486797D01*
X52493497Y-67411427D01*
X52493490Y-67411414D01*
X52405498Y-67279725D01*
X52384620Y-67213047D01*
X52384600Y-67210834D01*
X52384600Y-56372826D01*
X52394143Y-56340325D01*
X52403105Y-56307659D01*
X52403961Y-56306889D01*
X52404285Y-56305787D01*
X52429854Y-56283630D01*
X52455083Y-56260969D01*
X52456220Y-56260784D01*
X52457089Y-56260032D01*
X52490611Y-56255211D01*
X52524053Y-56249793D01*
X52525107Y-56250251D01*
X52526247Y-56250088D01*
X52557088Y-56264172D01*
X52588117Y-56277679D01*
X52589128Y-56278804D01*
X52589803Y-56279113D01*
X52611701Y-56303934D01*
X52657733Y-56372826D01*
X52659102Y-56374874D01*
X52679980Y-56441552D01*
X52680000Y-56443765D01*
X52680000Y-62045330D01*
X52679999Y-62045348D01*
X52679999Y-62211054D01*
X52679998Y-62211054D01*
X52720923Y-62363786D01*
X52720924Y-62363787D01*
X52738561Y-62394335D01*
X52775944Y-62459085D01*
X52799981Y-62500717D01*
X52918849Y-62619585D01*
X52918855Y-62619590D01*
X53823925Y-63524660D01*
X53857410Y-63585983D01*
X53857861Y-63588149D01*
X53888761Y-63743491D01*
X53888764Y-63743501D01*
X53949102Y-63889172D01*
X53949109Y-63889185D01*
X54036710Y-64020288D01*
X54036713Y-64020292D01*
X54148207Y-64131786D01*
X54148211Y-64131789D01*
X54279314Y-64219390D01*
X54279327Y-64219397D01*
X54406167Y-64271935D01*
X54425003Y-64279737D01*
X54559700Y-64306530D01*
X54579653Y-64310499D01*
X54579656Y-64310500D01*
X54633300Y-64310500D01*
X54700339Y-64330185D01*
X54746094Y-64382989D01*
X54757300Y-64434500D01*
X54757300Y-64715602D01*
X54737615Y-64782641D01*
X54736520Y-64784317D01*
X54729694Y-64794569D01*
X54710680Y-64813584D01*
X54671132Y-64882084D01*
X54669158Y-64885502D01*
X54669154Y-64885509D01*
X54645509Y-64926464D01*
X54631623Y-64950515D01*
X54590699Y-65103243D01*
X54590699Y-65103245D01*
X54590699Y-65271346D01*
X54590700Y-65271359D01*
X54590700Y-66197634D01*
X54571015Y-66264673D01*
X54569802Y-66266525D01*
X54481809Y-66398214D01*
X54481802Y-66398227D01*
X54421464Y-66543898D01*
X54421461Y-66543910D01*
X54390700Y-66698553D01*
X54390700Y-66856246D01*
X54421461Y-67010889D01*
X54421464Y-67010901D01*
X54481802Y-67156572D01*
X54481809Y-67156585D01*
X54569410Y-67287688D01*
X54569413Y-67287692D01*
X54680907Y-67399186D01*
X54680911Y-67399189D01*
X54812014Y-67486790D01*
X54812027Y-67486797D01*
X54957698Y-67547135D01*
X54957703Y-67547137D01*
X55112353Y-67577899D01*
X55112356Y-67577900D01*
X55112358Y-67577900D01*
X55270044Y-67577900D01*
X55270045Y-67577899D01*
X55424697Y-67547137D01*
X55570379Y-67486794D01*
X55701489Y-67399189D01*
X55812989Y-67287689D01*
X55900594Y-67156579D01*
X55960937Y-67010897D01*
X55991700Y-66856242D01*
X55991700Y-66698558D01*
X55991700Y-66698555D01*
X55991699Y-66698553D01*
X55967995Y-66579385D01*
X55960937Y-66543903D01*
X55942871Y-66500288D01*
X55900597Y-66398227D01*
X55900595Y-66398223D01*
X55900594Y-66398221D01*
X55879208Y-66366214D01*
X55858330Y-66299537D01*
X55876814Y-66232157D01*
X55928793Y-66185466D01*
X55958119Y-66175706D01*
X56010035Y-66165378D01*
X56075097Y-66152437D01*
X56220779Y-66092094D01*
X56325407Y-66022183D01*
X56392083Y-66001306D01*
X56459463Y-66019790D01*
X56506154Y-66071769D01*
X56515914Y-66101094D01*
X56540261Y-66223491D01*
X56540264Y-66223501D01*
X56600602Y-66369172D01*
X56600609Y-66369185D01*
X56688210Y-66500288D01*
X56688213Y-66500292D01*
X56799707Y-66611786D01*
X56799711Y-66611789D01*
X56930814Y-66699390D01*
X56930827Y-66699397D01*
X57076498Y-66759735D01*
X57076503Y-66759737D01*
X57231153Y-66790499D01*
X57231156Y-66790500D01*
X57231158Y-66790500D01*
X57388844Y-66790500D01*
X57388845Y-66790499D01*
X57543497Y-66759737D01*
X57689179Y-66699394D01*
X57820289Y-66611789D01*
X57931789Y-66500289D01*
X58019394Y-66369179D01*
X58079737Y-66223497D01*
X58110500Y-66068842D01*
X58110500Y-65911158D01*
X58110500Y-65911155D01*
X58110499Y-65911153D01*
X58095052Y-65833497D01*
X58079737Y-65756503D01*
X58066422Y-65724357D01*
X58019397Y-65610827D01*
X58019390Y-65610814D01*
X57931789Y-65479711D01*
X57931786Y-65479707D01*
X57820292Y-65368213D01*
X57820288Y-65368210D01*
X57689185Y-65280609D01*
X57689172Y-65280602D01*
X57561448Y-65227698D01*
X57507044Y-65183857D01*
X57484979Y-65117563D01*
X57484900Y-65113137D01*
X57484900Y-63494242D01*
X57504585Y-63427203D01*
X57557389Y-63381448D01*
X57584709Y-63372625D01*
X57648838Y-63359868D01*
X57722897Y-63345137D01*
X57868579Y-63284794D01*
X57999689Y-63197189D01*
X58111189Y-63085689D01*
X58198794Y-62954579D01*
X58259137Y-62808897D01*
X58278908Y-62709500D01*
X58290038Y-62653550D01*
X58322423Y-62591639D01*
X58323918Y-62590116D01*
X58792757Y-62121277D01*
X58832979Y-62094401D01*
X58944779Y-62048094D01*
X59075889Y-61960489D01*
X59187389Y-61848989D01*
X59274994Y-61717879D01*
X59335337Y-61572197D01*
X59366100Y-61417542D01*
X59366100Y-61259858D01*
X59366100Y-61259855D01*
X59366099Y-61259853D01*
X59335338Y-61105210D01*
X59335337Y-61105203D01*
X59335335Y-61105198D01*
X59274997Y-60959527D01*
X59274990Y-60959514D01*
X59187389Y-60828411D01*
X59187386Y-60828407D01*
X59075892Y-60716913D01*
X59075888Y-60716910D01*
X58944785Y-60629309D01*
X58944772Y-60629302D01*
X58799101Y-60568964D01*
X58799089Y-60568961D01*
X58644445Y-60538200D01*
X58644442Y-60538200D01*
X58486758Y-60538200D01*
X58486755Y-60538200D01*
X58332110Y-60568961D01*
X58332098Y-60568964D01*
X58186427Y-60629302D01*
X58186414Y-60629309D01*
X58055311Y-60716910D01*
X58055307Y-60716913D01*
X57943813Y-60828407D01*
X57943810Y-60828411D01*
X57856209Y-60959514D01*
X57856202Y-60959527D01*
X57795864Y-61105198D01*
X57795861Y-61105210D01*
X57765100Y-61259853D01*
X57765100Y-61399102D01*
X57756455Y-61428542D01*
X57749932Y-61458529D01*
X57746177Y-61463544D01*
X57745415Y-61466141D01*
X57728781Y-61486783D01*
X57696581Y-61518983D01*
X57635258Y-61552468D01*
X57565566Y-61547484D01*
X57509633Y-61505612D01*
X57485216Y-61440148D01*
X57484900Y-61431302D01*
X57484900Y-47356897D01*
X57504585Y-47289858D01*
X57557389Y-47244103D01*
X57626547Y-47234159D01*
X57690103Y-47263184D01*
X57696581Y-47269216D01*
X59854881Y-49427516D01*
X59888366Y-49488839D01*
X59891200Y-49515197D01*
X59891200Y-69862830D01*
X59891199Y-69862848D01*
X59891199Y-70028554D01*
X59891198Y-70028554D01*
X59924574Y-70153111D01*
X59932123Y-70181285D01*
X59933831Y-70184243D01*
X59935206Y-70186625D01*
X60011177Y-70318212D01*
X60011181Y-70318217D01*
X60130049Y-70437085D01*
X60130055Y-70437090D01*
X60431381Y-70738416D01*
X60464866Y-70799739D01*
X60467700Y-70826097D01*
X60467700Y-72051000D01*
X60448015Y-72118039D01*
X60395211Y-72163794D01*
X60343700Y-72175000D01*
X60250000Y-72175000D01*
X60250000Y-73269670D01*
X60230255Y-73249925D01*
X60144745Y-73200556D01*
X60049370Y-73175000D01*
X59950630Y-73175000D01*
X59855255Y-73200556D01*
X59769745Y-73249925D01*
X59750000Y-73269670D01*
X59750000Y-72175000D01*
X59600027Y-72175000D01*
X59600012Y-72175001D01*
X59497302Y-72185494D01*
X59330880Y-72240641D01*
X59330875Y-72240643D01*
X59181654Y-72332684D01*
X59057684Y-72456654D01*
X58965643Y-72605875D01*
X58965641Y-72605880D01*
X58910494Y-72772302D01*
X58910493Y-72772309D01*
X58900000Y-72875013D01*
X58900000Y-73300000D01*
X59719670Y-73300000D01*
X59699925Y-73319745D01*
X59650556Y-73405255D01*
X59625000Y-73500630D01*
X59625000Y-73599370D01*
X59650556Y-73694745D01*
X59699925Y-73780255D01*
X59719670Y-73800000D01*
X58900001Y-73800000D01*
X58900001Y-74224986D01*
X58910494Y-74327697D01*
X58965641Y-74494119D01*
X58965643Y-74494124D01*
X59057684Y-74643345D01*
X59181654Y-74767315D01*
X59330875Y-74859356D01*
X59330880Y-74859358D01*
X59497302Y-74914505D01*
X59497309Y-74914506D01*
X59600019Y-74924999D01*
X59749999Y-74924999D01*
X59750000Y-74924998D01*
X59750000Y-73830330D01*
X59769745Y-73850075D01*
X59855255Y-73899444D01*
X59950630Y-73925000D01*
X60049370Y-73925000D01*
X60144745Y-73899444D01*
X60230255Y-73850075D01*
X60250000Y-73830330D01*
X60250000Y-74924999D01*
X60399972Y-74924999D01*
X60399986Y-74924998D01*
X60502697Y-74914505D01*
X60669119Y-74859358D01*
X60669126Y-74859355D01*
X60730958Y-74821216D01*
X60798350Y-74802775D01*
X60865014Y-74823697D01*
X60883737Y-74839073D01*
X61267584Y-75222920D01*
X61267586Y-75222921D01*
X61267590Y-75222924D01*
X61366336Y-75279934D01*
X61404516Y-75301977D01*
X61557243Y-75342901D01*
X61557245Y-75342901D01*
X61722954Y-75342901D01*
X61722970Y-75342900D01*
X64382831Y-75342900D01*
X64382847Y-75342901D01*
X64390443Y-75342901D01*
X64548554Y-75342901D01*
X64548557Y-75342901D01*
X64701285Y-75301977D01*
X64751404Y-75273039D01*
X64838216Y-75222920D01*
X64950020Y-75111116D01*
X64950020Y-75111114D01*
X64960228Y-75100907D01*
X64960230Y-75100904D01*
X65274534Y-74786599D01*
X65335855Y-74753116D01*
X65405547Y-74758100D01*
X65418633Y-74764485D01*
X65418871Y-74764020D01*
X65423211Y-74766231D01*
X65423212Y-74766232D01*
X65577555Y-74844873D01*
X65742299Y-74898402D01*
X65913389Y-74925500D01*
X65913390Y-74925500D01*
X66086610Y-74925500D01*
X66086611Y-74925500D01*
X66257701Y-74898402D01*
X66422445Y-74844873D01*
X66576788Y-74766232D01*
X66716928Y-74664414D01*
X66839414Y-74541928D01*
X66941232Y-74401788D01*
X67019873Y-74247445D01*
X67073402Y-74082701D01*
X67100500Y-73911611D01*
X67100500Y-73188389D01*
X67073402Y-73017299D01*
X67019873Y-72852555D01*
X66941232Y-72698212D01*
X66839414Y-72558072D01*
X66716928Y-72435586D01*
X66576788Y-72333768D01*
X66422445Y-72255127D01*
X66257701Y-72201598D01*
X66257699Y-72201597D01*
X66257698Y-72201597D01*
X66108848Y-72178022D01*
X66086611Y-72174500D01*
X65913389Y-72174500D01*
X65891152Y-72178022D01*
X65742302Y-72201597D01*
X65577552Y-72255128D01*
X65423211Y-72333768D01*
X65376979Y-72367358D01*
X65283072Y-72435586D01*
X65283070Y-72435588D01*
X65283069Y-72435588D01*
X65160588Y-72558069D01*
X65160581Y-72558078D01*
X65100317Y-72641023D01*
X65044987Y-72683689D01*
X64975374Y-72689667D01*
X64913579Y-72657061D01*
X64899683Y-72641023D01*
X64839418Y-72558078D01*
X64839416Y-72558075D01*
X64839414Y-72558072D01*
X64716928Y-72435586D01*
X64576788Y-72333768D01*
X64422445Y-72255127D01*
X64257701Y-72201598D01*
X64257699Y-72201597D01*
X64257698Y-72201597D01*
X64108848Y-72178022D01*
X64086611Y-72174500D01*
X63913389Y-72174500D01*
X63891152Y-72178022D01*
X63742302Y-72201597D01*
X63577552Y-72255128D01*
X63423211Y-72333768D01*
X63376979Y-72367358D01*
X63283072Y-72435586D01*
X63283070Y-72435588D01*
X63283069Y-72435588D01*
X63160588Y-72558069D01*
X63160581Y-72558078D01*
X63100317Y-72641023D01*
X63044987Y-72683689D01*
X62975374Y-72689667D01*
X62913579Y-72657061D01*
X62899683Y-72641023D01*
X62839418Y-72558078D01*
X62839416Y-72558075D01*
X62839414Y-72558072D01*
X62716928Y-72435586D01*
X62691472Y-72417091D01*
X62651613Y-72388131D01*
X62608948Y-72332801D01*
X62600500Y-72287814D01*
X62600500Y-72070000D01*
X75800138Y-72070000D01*
X76603012Y-72070000D01*
X76585795Y-72079940D01*
X76529940Y-72135795D01*
X76490444Y-72204204D01*
X76470000Y-72280504D01*
X76470000Y-72359496D01*
X76490444Y-72435796D01*
X76529940Y-72504205D01*
X76585795Y-72560060D01*
X76603012Y-72570000D01*
X75800138Y-72570000D01*
X75808430Y-72611690D01*
X75808430Y-72611692D01*
X75883807Y-72793671D01*
X75883814Y-72793684D01*
X75993248Y-72957462D01*
X75993251Y-72957466D01*
X76132533Y-73096748D01*
X76132537Y-73096751D01*
X76296315Y-73206185D01*
X76296328Y-73206192D01*
X76478306Y-73281569D01*
X76478318Y-73281572D01*
X76671504Y-73319999D01*
X76671508Y-73320000D01*
X77070000Y-73320000D01*
X77070000Y-72620000D01*
X77570000Y-72620000D01*
X77570000Y-73320000D01*
X77968492Y-73320000D01*
X77968495Y-73319999D01*
X78161681Y-73281572D01*
X78161693Y-73281569D01*
X78343671Y-73206192D01*
X78343684Y-73206185D01*
X78507462Y-73096751D01*
X78507466Y-73096748D01*
X78646748Y-72957466D01*
X78646751Y-72957462D01*
X78756185Y-72793684D01*
X78756192Y-72793671D01*
X78831569Y-72611692D01*
X78831569Y-72611690D01*
X78839862Y-72570000D01*
X78036988Y-72570000D01*
X78054205Y-72560060D01*
X78110060Y-72504205D01*
X78149556Y-72435796D01*
X78170000Y-72359496D01*
X78170000Y-72280504D01*
X78149556Y-72204204D01*
X78110060Y-72135795D01*
X78054205Y-72079940D01*
X78036988Y-72070000D01*
X78839862Y-72070000D01*
X80230138Y-72070000D01*
X81033012Y-72070000D01*
X81015795Y-72079940D01*
X80959940Y-72135795D01*
X80920444Y-72204204D01*
X80900000Y-72280504D01*
X80900000Y-72359496D01*
X80920444Y-72435796D01*
X80959940Y-72504205D01*
X81015795Y-72560060D01*
X81033012Y-72570000D01*
X80230138Y-72570000D01*
X80238430Y-72611690D01*
X80238430Y-72611692D01*
X80313807Y-72793671D01*
X80313814Y-72793684D01*
X80423248Y-72957462D01*
X80423251Y-72957466D01*
X80562533Y-73096748D01*
X80562537Y-73096751D01*
X80726315Y-73206185D01*
X80726328Y-73206192D01*
X80908306Y-73281569D01*
X80908318Y-73281572D01*
X81101504Y-73319999D01*
X81101508Y-73320000D01*
X81250000Y-73320000D01*
X81250000Y-72620000D01*
X81750000Y-72620000D01*
X81750000Y-73320000D01*
X81898492Y-73320000D01*
X81898495Y-73319999D01*
X82091681Y-73281572D01*
X82091693Y-73281569D01*
X82273671Y-73206192D01*
X82273684Y-73206185D01*
X82437462Y-73096751D01*
X82437466Y-73096748D01*
X82576748Y-72957466D01*
X82576751Y-72957462D01*
X82686185Y-72793684D01*
X82686192Y-72793671D01*
X82761569Y-72611692D01*
X82761569Y-72611690D01*
X82769862Y-72570000D01*
X81966988Y-72570000D01*
X81984205Y-72560060D01*
X82040060Y-72504205D01*
X82079556Y-72435796D01*
X82100000Y-72359496D01*
X82100000Y-72280504D01*
X82079556Y-72204204D01*
X82040060Y-72135795D01*
X81984205Y-72079940D01*
X81966988Y-72070000D01*
X82769862Y-72070000D01*
X82761569Y-72028309D01*
X82761569Y-72028307D01*
X82686192Y-71846328D01*
X82686185Y-71846315D01*
X82576751Y-71682537D01*
X82576748Y-71682533D01*
X82437466Y-71543251D01*
X82437462Y-71543248D01*
X82273684Y-71433814D01*
X82273671Y-71433807D01*
X82091693Y-71358430D01*
X82091681Y-71358427D01*
X81898495Y-71320000D01*
X81750000Y-71320000D01*
X81750000Y-72020000D01*
X81250000Y-72020000D01*
X81250000Y-71320000D01*
X81101504Y-71320000D01*
X80908318Y-71358427D01*
X80908306Y-71358430D01*
X80726328Y-71433807D01*
X80726315Y-71433814D01*
X80562537Y-71543248D01*
X80562533Y-71543251D01*
X80423251Y-71682533D01*
X80423248Y-71682537D01*
X80313814Y-71846315D01*
X80313807Y-71846328D01*
X80238430Y-72028307D01*
X80238430Y-72028309D01*
X80230138Y-72070000D01*
X78839862Y-72070000D01*
X78831569Y-72028309D01*
X78831569Y-72028307D01*
X78756192Y-71846328D01*
X78756185Y-71846315D01*
X78646751Y-71682537D01*
X78646748Y-71682533D01*
X78507466Y-71543251D01*
X78507462Y-71543248D01*
X78343684Y-71433814D01*
X78343671Y-71433807D01*
X78235802Y-71389127D01*
X78181398Y-71345286D01*
X78159333Y-71278992D01*
X78176612Y-71211293D01*
X78195573Y-71186885D01*
X78200495Y-71181964D01*
X78263095Y-71073536D01*
X78295500Y-70952601D01*
X78295500Y-70827399D01*
X78263095Y-70706464D01*
X78200495Y-70598036D01*
X78111964Y-70509505D01*
X78003536Y-70446905D01*
X78003537Y-70446905D01*
X77940521Y-70430020D01*
X77882601Y-70414500D01*
X77757399Y-70414500D01*
X77699479Y-70430020D01*
X77636463Y-70446905D01*
X77528037Y-70509504D01*
X77528034Y-70509506D01*
X77439506Y-70598034D01*
X77439504Y-70598037D01*
X77376905Y-70706463D01*
X77376905Y-70706464D01*
X77344500Y-70827399D01*
X77344500Y-70952601D01*
X77376905Y-71073536D01*
X77434727Y-71173689D01*
X77439504Y-71181962D01*
X77439506Y-71181965D01*
X77533681Y-71276140D01*
X77567166Y-71337463D01*
X77570000Y-71363821D01*
X77570000Y-72020000D01*
X77070000Y-72020000D01*
X77070000Y-71320000D01*
X76671504Y-71320000D01*
X76478318Y-71358427D01*
X76478306Y-71358430D01*
X76296328Y-71433807D01*
X76296315Y-71433814D01*
X76132537Y-71543248D01*
X76132533Y-71543251D01*
X75993251Y-71682533D01*
X75993248Y-71682537D01*
X75883814Y-71846315D01*
X75883807Y-71846328D01*
X75808430Y-72028307D01*
X75808430Y-72028309D01*
X75800138Y-72070000D01*
X62600500Y-72070000D01*
X62600500Y-70978760D01*
X62600501Y-70978747D01*
X62600501Y-70810644D01*
X62597579Y-70799739D01*
X62559577Y-70657916D01*
X62525006Y-70598036D01*
X62480524Y-70520990D01*
X62480518Y-70520982D01*
X61530219Y-69570683D01*
X61496734Y-69509360D01*
X61493900Y-69483002D01*
X61493900Y-67182525D01*
X61513585Y-67115486D01*
X61566389Y-67069731D01*
X61593709Y-67060908D01*
X61650805Y-67049550D01*
X61747397Y-67030337D01*
X61893079Y-66969994D01*
X61947563Y-66933589D01*
X62024775Y-66881998D01*
X62091453Y-66861120D01*
X62093666Y-66861100D01*
X74084100Y-66861100D01*
X74151139Y-66880785D01*
X74196894Y-66933589D01*
X74208100Y-66985100D01*
X74208100Y-69700334D01*
X74188415Y-69767373D01*
X74187202Y-69769225D01*
X74099209Y-69900914D01*
X74099202Y-69900927D01*
X74038864Y-70046598D01*
X74038861Y-70046610D01*
X74008100Y-70201253D01*
X74008100Y-70358946D01*
X74038861Y-70513589D01*
X74038864Y-70513601D01*
X74099202Y-70659272D01*
X74099209Y-70659285D01*
X74186810Y-70790388D01*
X74186813Y-70790392D01*
X74298307Y-70901886D01*
X74298311Y-70901889D01*
X74429414Y-70989490D01*
X74429427Y-70989497D01*
X74562334Y-71044548D01*
X74575103Y-71049837D01*
X74729753Y-71080599D01*
X74729756Y-71080600D01*
X74729758Y-71080600D01*
X74887444Y-71080600D01*
X74887445Y-71080599D01*
X75042097Y-71049837D01*
X75187779Y-70989494D01*
X75318889Y-70901889D01*
X75430389Y-70790389D01*
X75517994Y-70659279D01*
X75518562Y-70657909D01*
X75548946Y-70584553D01*
X75578337Y-70513597D01*
X75609100Y-70358942D01*
X75609100Y-70201258D01*
X75609100Y-70201255D01*
X75609099Y-70201253D01*
X75593090Y-70120770D01*
X75578337Y-70046603D01*
X75539984Y-69954009D01*
X75517997Y-69900927D01*
X75517990Y-69900914D01*
X75429998Y-69769225D01*
X75409120Y-69702547D01*
X75409100Y-69700334D01*
X75409100Y-66179765D01*
X75428785Y-66112726D01*
X75429998Y-66110874D01*
X75442545Y-66092097D01*
X75517994Y-65979179D01*
X75578337Y-65833497D01*
X75609100Y-65678842D01*
X75609100Y-65521158D01*
X75609100Y-65521155D01*
X75609099Y-65521153D01*
X75603074Y-65490863D01*
X75578337Y-65366503D01*
X75566810Y-65338674D01*
X75517997Y-65220827D01*
X75517990Y-65220814D01*
X75442718Y-65108162D01*
X75430389Y-65089711D01*
X75430386Y-65089707D01*
X75318892Y-64978213D01*
X75318888Y-64978210D01*
X75187785Y-64890609D01*
X75187772Y-64890602D01*
X75042101Y-64830264D01*
X75042089Y-64830261D01*
X74887445Y-64799500D01*
X74887442Y-64799500D01*
X74729758Y-64799500D01*
X74729755Y-64799500D01*
X74575110Y-64830261D01*
X74575098Y-64830264D01*
X74429427Y-64890602D01*
X74429414Y-64890609D01*
X74298311Y-64978210D01*
X74298307Y-64978213D01*
X74186813Y-65089707D01*
X74186810Y-65089711D01*
X74099209Y-65220814D01*
X74099202Y-65220827D01*
X74038864Y-65366498D01*
X74038861Y-65366510D01*
X74008100Y-65521153D01*
X74008100Y-65536100D01*
X73988415Y-65603139D01*
X73935611Y-65648894D01*
X73884100Y-65660100D01*
X62093666Y-65660100D01*
X62026627Y-65640415D01*
X62024775Y-65639202D01*
X61893085Y-65551209D01*
X61893072Y-65551202D01*
X61747401Y-65490864D01*
X61747391Y-65490861D01*
X61593708Y-65460291D01*
X61531797Y-65427906D01*
X61497223Y-65367190D01*
X61493900Y-65338674D01*
X61493900Y-63430000D01*
X75800138Y-63430000D01*
X76603012Y-63430000D01*
X76585795Y-63439940D01*
X76529940Y-63495795D01*
X76490444Y-63564204D01*
X76470000Y-63640504D01*
X76470000Y-63719496D01*
X76490444Y-63795796D01*
X76529940Y-63864205D01*
X76585795Y-63920060D01*
X76603012Y-63930000D01*
X75800138Y-63930000D01*
X75808430Y-63971690D01*
X75808430Y-63971692D01*
X75883807Y-64153671D01*
X75883814Y-64153684D01*
X75993248Y-64317462D01*
X75993251Y-64317466D01*
X76132533Y-64456748D01*
X76132537Y-64456751D01*
X76296315Y-64566185D01*
X76296328Y-64566192D01*
X76478306Y-64641569D01*
X76478318Y-64641572D01*
X76671504Y-64679999D01*
X76671508Y-64680000D01*
X77070000Y-64680000D01*
X77070000Y-63980000D01*
X77570000Y-63980000D01*
X77570000Y-64636179D01*
X77550315Y-64703218D01*
X77533681Y-64723860D01*
X77439506Y-64818034D01*
X77439504Y-64818037D01*
X77376905Y-64926463D01*
X77376905Y-64926464D01*
X77344500Y-65047399D01*
X77344500Y-65172601D01*
X77376905Y-65293536D01*
X77439505Y-65401964D01*
X77528036Y-65490495D01*
X77636464Y-65553095D01*
X77757399Y-65585500D01*
X77757401Y-65585500D01*
X77882599Y-65585500D01*
X77882601Y-65585500D01*
X78003536Y-65553095D01*
X78111964Y-65490495D01*
X78200495Y-65401964D01*
X78263095Y-65293536D01*
X78295500Y-65172601D01*
X78295500Y-65047399D01*
X78263095Y-64926464D01*
X78200495Y-64818036D01*
X78195573Y-64813114D01*
X78162088Y-64751791D01*
X78167072Y-64682099D01*
X78208944Y-64626166D01*
X78235802Y-64610871D01*
X78343680Y-64566187D01*
X78343684Y-64566185D01*
X78507462Y-64456751D01*
X78507466Y-64456748D01*
X78646748Y-64317466D01*
X78646751Y-64317462D01*
X78756185Y-64153684D01*
X78756192Y-64153671D01*
X78831569Y-63971692D01*
X78831569Y-63971690D01*
X78839862Y-63930000D01*
X78036988Y-63930000D01*
X78054205Y-63920060D01*
X78110060Y-63864205D01*
X78149556Y-63795796D01*
X78170000Y-63719496D01*
X78170000Y-63640504D01*
X78149556Y-63564204D01*
X78110060Y-63495795D01*
X78054205Y-63439940D01*
X78036988Y-63430000D01*
X78839862Y-63430000D01*
X80230138Y-63430000D01*
X81033012Y-63430000D01*
X81015795Y-63439940D01*
X80959940Y-63495795D01*
X80920444Y-63564204D01*
X80900000Y-63640504D01*
X80900000Y-63719496D01*
X80920444Y-63795796D01*
X80959940Y-63864205D01*
X81015795Y-63920060D01*
X81033012Y-63930000D01*
X80230138Y-63930000D01*
X80238430Y-63971690D01*
X80238430Y-63971692D01*
X80313807Y-64153671D01*
X80313814Y-64153684D01*
X80423248Y-64317462D01*
X80423251Y-64317466D01*
X80562533Y-64456748D01*
X80562537Y-64456751D01*
X80726315Y-64566185D01*
X80726328Y-64566192D01*
X80908306Y-64641569D01*
X80908318Y-64641572D01*
X81101504Y-64679999D01*
X81101508Y-64680000D01*
X81250000Y-64680000D01*
X81250000Y-63980000D01*
X81750000Y-63980000D01*
X81750000Y-64680000D01*
X81898492Y-64680000D01*
X81898495Y-64679999D01*
X82091681Y-64641572D01*
X82091693Y-64641569D01*
X82273671Y-64566192D01*
X82273684Y-64566185D01*
X82437462Y-64456751D01*
X82437466Y-64456748D01*
X82576748Y-64317466D01*
X82576751Y-64317462D01*
X82686185Y-64153684D01*
X82686192Y-64153671D01*
X82761569Y-63971692D01*
X82761569Y-63971690D01*
X82769862Y-63930000D01*
X81966988Y-63930000D01*
X81984205Y-63920060D01*
X82040060Y-63864205D01*
X82079556Y-63795796D01*
X82100000Y-63719496D01*
X82100000Y-63640504D01*
X82079556Y-63564204D01*
X82040060Y-63495795D01*
X81984205Y-63439940D01*
X81966988Y-63430000D01*
X82769862Y-63430000D01*
X82761569Y-63388309D01*
X82761569Y-63388307D01*
X82686192Y-63206328D01*
X82686185Y-63206315D01*
X82576751Y-63042537D01*
X82576748Y-63042533D01*
X82437466Y-62903251D01*
X82437462Y-62903248D01*
X82273684Y-62793814D01*
X82273671Y-62793807D01*
X82091693Y-62718430D01*
X82091681Y-62718427D01*
X81898495Y-62680000D01*
X81750000Y-62680000D01*
X81750000Y-63380000D01*
X81250000Y-63380000D01*
X81250000Y-62680000D01*
X81101504Y-62680000D01*
X80908318Y-62718427D01*
X80908306Y-62718430D01*
X80726328Y-62793807D01*
X80726315Y-62793814D01*
X80562537Y-62903248D01*
X80562533Y-62903251D01*
X80423251Y-63042533D01*
X80423248Y-63042537D01*
X80313814Y-63206315D01*
X80313807Y-63206328D01*
X80238430Y-63388307D01*
X80238430Y-63388309D01*
X80230138Y-63430000D01*
X78839862Y-63430000D01*
X78831569Y-63388309D01*
X78831569Y-63388307D01*
X78756192Y-63206328D01*
X78756185Y-63206315D01*
X78646751Y-63042537D01*
X78646748Y-63042533D01*
X78507466Y-62903251D01*
X78507462Y-62903248D01*
X78343684Y-62793814D01*
X78343671Y-62793807D01*
X78161693Y-62718430D01*
X78161681Y-62718427D01*
X77968495Y-62680000D01*
X77570000Y-62680000D01*
X77570000Y-63380000D01*
X77070000Y-63380000D01*
X77070000Y-62680000D01*
X76671504Y-62680000D01*
X76478318Y-62718427D01*
X76478306Y-62718430D01*
X76296328Y-62793807D01*
X76296315Y-62793814D01*
X76132537Y-62903248D01*
X76132533Y-62903251D01*
X75993251Y-63042533D01*
X75993248Y-63042537D01*
X75883814Y-63206315D01*
X75883807Y-63206328D01*
X75808430Y-63388307D01*
X75808430Y-63388309D01*
X75800138Y-63430000D01*
X61493900Y-63430000D01*
X61493900Y-47966597D01*
X61513585Y-47899558D01*
X61566389Y-47853803D01*
X61635547Y-47843859D01*
X61699103Y-47872884D01*
X61705581Y-47878916D01*
X61904981Y-48078316D01*
X61938466Y-48139639D01*
X61941300Y-48165997D01*
X61941300Y-49729334D01*
X61921615Y-49796373D01*
X61920402Y-49798225D01*
X61832409Y-49929914D01*
X61832402Y-49929927D01*
X61772064Y-50075598D01*
X61772061Y-50075610D01*
X61741900Y-50227238D01*
X61741900Y-50227241D01*
X61741300Y-50230258D01*
X61741300Y-50387942D01*
X61741900Y-50390958D01*
X61741900Y-50390961D01*
X61772061Y-50542589D01*
X61772064Y-50542601D01*
X61832402Y-50688272D01*
X61832409Y-50688285D01*
X61920010Y-50819388D01*
X61920013Y-50819392D01*
X62031507Y-50930886D01*
X62031511Y-50930889D01*
X62162614Y-51018490D01*
X62162627Y-51018497D01*
X62291857Y-51072025D01*
X62308303Y-51078837D01*
X62462953Y-51109599D01*
X62462956Y-51109600D01*
X62462958Y-51109600D01*
X62620644Y-51109600D01*
X62620645Y-51109599D01*
X62775297Y-51078837D01*
X62920979Y-51018494D01*
X63052089Y-50930889D01*
X63163589Y-50819389D01*
X63251194Y-50688279D01*
X63311537Y-50542597D01*
X63342300Y-50387942D01*
X63342300Y-50230258D01*
X63342300Y-50230255D01*
X63342299Y-50230253D01*
X63319918Y-50117737D01*
X63311537Y-50075603D01*
X63267708Y-49969789D01*
X63251197Y-49929927D01*
X63251190Y-49929914D01*
X63163198Y-49798225D01*
X63142320Y-49731547D01*
X63142300Y-49729334D01*
X63142300Y-48575650D01*
X63161985Y-48508611D01*
X63214789Y-48462856D01*
X63242109Y-48454033D01*
X63248546Y-48452752D01*
X63390897Y-48424437D01*
X63503566Y-48377767D01*
X63536572Y-48364097D01*
X63536572Y-48364096D01*
X63536579Y-48364094D01*
X63548004Y-48356460D01*
X63586409Y-48330799D01*
X63653086Y-48309921D01*
X63720466Y-48328405D01*
X63767157Y-48380384D01*
X63779300Y-48433901D01*
X63779300Y-50796330D01*
X63779299Y-50796348D01*
X63779299Y-50962054D01*
X63779298Y-50962054D01*
X63822327Y-51122637D01*
X63820393Y-51123155D01*
X63826800Y-51155329D01*
X63826800Y-51209346D01*
X63857561Y-51363989D01*
X63857564Y-51364001D01*
X63917902Y-51509672D01*
X63917909Y-51509685D01*
X64005510Y-51640788D01*
X64005513Y-51640792D01*
X64117007Y-51752286D01*
X64117011Y-51752289D01*
X64248114Y-51839890D01*
X64248127Y-51839897D01*
X64396598Y-51901395D01*
X64451002Y-51945236D01*
X64473067Y-52011530D01*
X64455788Y-52079229D01*
X64436827Y-52103637D01*
X63763339Y-52777125D01*
X63702016Y-52810610D01*
X63699850Y-52811061D01*
X63544508Y-52841961D01*
X63544498Y-52841964D01*
X63398827Y-52902302D01*
X63398814Y-52902309D01*
X63267711Y-52989910D01*
X63267707Y-52989913D01*
X63156213Y-53101407D01*
X63156210Y-53101411D01*
X63068609Y-53232514D01*
X63068602Y-53232527D01*
X63008264Y-53378198D01*
X63008261Y-53378210D01*
X62977500Y-53532853D01*
X62977500Y-53690546D01*
X63008261Y-53845189D01*
X63008264Y-53845201D01*
X63068602Y-53990872D01*
X63068609Y-53990885D01*
X63156210Y-54121988D01*
X63156213Y-54121992D01*
X63267707Y-54233486D01*
X63267711Y-54233489D01*
X63398814Y-54321090D01*
X63398827Y-54321097D01*
X63544498Y-54381435D01*
X63544503Y-54381437D01*
X63699153Y-54412199D01*
X63699156Y-54412200D01*
X63699158Y-54412200D01*
X63856844Y-54412200D01*
X63856845Y-54412199D01*
X64011497Y-54381437D01*
X64157179Y-54321094D01*
X64288289Y-54233489D01*
X64399789Y-54121989D01*
X64487394Y-53990879D01*
X64547737Y-53845197D01*
X64569657Y-53734998D01*
X64578638Y-53689850D01*
X64611023Y-53627939D01*
X64612519Y-53626415D01*
X67732806Y-50506127D01*
X67732811Y-50506124D01*
X67743014Y-50495920D01*
X67743016Y-50495920D01*
X67854820Y-50384116D01*
X67913488Y-50282499D01*
X67933877Y-50247185D01*
X67974800Y-50094458D01*
X67974800Y-49936343D01*
X67974800Y-38643765D01*
X67994485Y-38576726D01*
X67995698Y-38574874D01*
X68083690Y-38443185D01*
X68083690Y-38443184D01*
X68083694Y-38443179D01*
X68144037Y-38297497D01*
X68174800Y-38142842D01*
X68174800Y-37985158D01*
X68174800Y-37985155D01*
X68174799Y-37985153D01*
X68164450Y-37933125D01*
X68144037Y-37830503D01*
X68139029Y-37818412D01*
X68083697Y-37684827D01*
X68083690Y-37684814D01*
X67996089Y-37553711D01*
X67996086Y-37553707D01*
X67884592Y-37442213D01*
X67884588Y-37442210D01*
X67753485Y-37354609D01*
X67753472Y-37354602D01*
X67607801Y-37294264D01*
X67607789Y-37294261D01*
X67453145Y-37263500D01*
X67453142Y-37263500D01*
X67295458Y-37263500D01*
X67295455Y-37263500D01*
X67140810Y-37294261D01*
X67140798Y-37294264D01*
X66995127Y-37354602D01*
X66995114Y-37354609D01*
X66864011Y-37442210D01*
X66864007Y-37442213D01*
X66752513Y-37553707D01*
X66752510Y-37553711D01*
X66664909Y-37684814D01*
X66664902Y-37684827D01*
X66604564Y-37830498D01*
X66604561Y-37830510D01*
X66573800Y-37985153D01*
X66573800Y-38142846D01*
X66604561Y-38297489D01*
X66604564Y-38297501D01*
X66664902Y-38443172D01*
X66664909Y-38443185D01*
X66752902Y-38574874D01*
X66773780Y-38641551D01*
X66773800Y-38643765D01*
X66773800Y-49715303D01*
X66754115Y-49782342D01*
X66737481Y-49802984D01*
X65600437Y-50940027D01*
X65539114Y-50973512D01*
X65469422Y-50968528D01*
X65413489Y-50926656D01*
X65398195Y-50899798D01*
X65336697Y-50751327D01*
X65336690Y-50751314D01*
X65249089Y-50620211D01*
X65249086Y-50620207D01*
X65137592Y-50508713D01*
X65137588Y-50508710D01*
X65035409Y-50440436D01*
X64990604Y-50386824D01*
X64980300Y-50337334D01*
X64980300Y-47611365D01*
X64999985Y-47544326D01*
X65001198Y-47542474D01*
X65089190Y-47410785D01*
X65089190Y-47410784D01*
X65089194Y-47410779D01*
X65149537Y-47265097D01*
X65180300Y-47110442D01*
X65180300Y-46952758D01*
X65180300Y-46952755D01*
X65180299Y-46952753D01*
X65178078Y-46941585D01*
X65149537Y-46798103D01*
X65127727Y-46745448D01*
X65089197Y-46652427D01*
X65089190Y-46652414D01*
X65001589Y-46521311D01*
X65001586Y-46521307D01*
X64890092Y-46409813D01*
X64890088Y-46409810D01*
X64758985Y-46322209D01*
X64758972Y-46322202D01*
X64613301Y-46261864D01*
X64613289Y-46261861D01*
X64458645Y-46231100D01*
X64458642Y-46231100D01*
X64300958Y-46231100D01*
X64300955Y-46231100D01*
X64146310Y-46261861D01*
X64146298Y-46261864D01*
X64000627Y-46322202D01*
X64000614Y-46322209D01*
X63869511Y-46409810D01*
X63869507Y-46409813D01*
X63758013Y-46521307D01*
X63758010Y-46521311D01*
X63670409Y-46652414D01*
X63670402Y-46652427D01*
X63610064Y-46798098D01*
X63610061Y-46798107D01*
X63606894Y-46814032D01*
X63574508Y-46875943D01*
X63513791Y-46910516D01*
X63454696Y-46910009D01*
X63446055Y-46907810D01*
X63390897Y-46884963D01*
X63236242Y-46854200D01*
X63235390Y-46854200D01*
X63229162Y-46852615D01*
X63201806Y-46836410D01*
X63173641Y-46821677D01*
X63172062Y-46820126D01*
X58450673Y-42098737D01*
X58417188Y-42037414D01*
X58416737Y-42035247D01*
X58398571Y-41943921D01*
X58385837Y-41879903D01*
X58378251Y-41861588D01*
X58325497Y-41734227D01*
X58325490Y-41734214D01*
X58262465Y-41639891D01*
X58241587Y-41573214D01*
X58260071Y-41505833D01*
X58312050Y-41459143D01*
X58365567Y-41447000D01*
X59251103Y-41447000D01*
X59318142Y-41466685D01*
X59338784Y-41483319D01*
X62780039Y-44924574D01*
X62780049Y-44924585D01*
X62784379Y-44928915D01*
X62784380Y-44928916D01*
X62896184Y-45040720D01*
X62978457Y-45088220D01*
X63033115Y-45119777D01*
X63185843Y-45160701D01*
X63185846Y-45160701D01*
X63351553Y-45160701D01*
X63351569Y-45160700D01*
X64712131Y-45160700D01*
X64712147Y-45160701D01*
X64719743Y-45160701D01*
X64877854Y-45160701D01*
X64877857Y-45160701D01*
X65030585Y-45119777D01*
X65085243Y-45088220D01*
X65167516Y-45040720D01*
X65279320Y-44928916D01*
X65279320Y-44928914D01*
X65289524Y-44918711D01*
X65289528Y-44918706D01*
X66072906Y-44135328D01*
X66072911Y-44135324D01*
X66083114Y-44125120D01*
X66083116Y-44125120D01*
X66194920Y-44013316D01*
X66198771Y-44006644D01*
X66252392Y-43913772D01*
X66252393Y-43913770D01*
X66273974Y-43876390D01*
X66273975Y-43876389D01*
X66273975Y-43876387D01*
X66273977Y-43876385D01*
X66314901Y-43723657D01*
X66314901Y-43565543D01*
X66314901Y-43557948D01*
X66314900Y-43557930D01*
X66314900Y-43269765D01*
X66334585Y-43202726D01*
X66335798Y-43200874D01*
X66423790Y-43069185D01*
X66423790Y-43069184D01*
X66423794Y-43069179D01*
X66484137Y-42923497D01*
X66514900Y-42768842D01*
X66514900Y-42611158D01*
X66514900Y-42611155D01*
X66514899Y-42611153D01*
X66494836Y-42510289D01*
X66484137Y-42456503D01*
X66461538Y-42401944D01*
X66423797Y-42310827D01*
X66423790Y-42310814D01*
X66336189Y-42179711D01*
X66336186Y-42179707D01*
X66224692Y-42068213D01*
X66224688Y-42068210D01*
X66093585Y-41980609D01*
X66093572Y-41980602D01*
X65947901Y-41920264D01*
X65947889Y-41920261D01*
X65793245Y-41889500D01*
X65793242Y-41889500D01*
X65635558Y-41889500D01*
X65635555Y-41889500D01*
X65480910Y-41920261D01*
X65480898Y-41920264D01*
X65335227Y-41980602D01*
X65335214Y-41980609D01*
X65282891Y-42015571D01*
X65216213Y-42036449D01*
X65148833Y-42017964D01*
X65102143Y-41965985D01*
X65090000Y-41912469D01*
X65090000Y-37318065D01*
X65109685Y-37251026D01*
X65110898Y-37249174D01*
X65130519Y-37219810D01*
X65198894Y-37117479D01*
X65206132Y-37100006D01*
X65251082Y-36991484D01*
X65259237Y-36971797D01*
X65290000Y-36817142D01*
X65290000Y-36659458D01*
X65290000Y-36659455D01*
X65289999Y-36659453D01*
X65273078Y-36574385D01*
X65259237Y-36504803D01*
X65212623Y-36392265D01*
X65198897Y-36359127D01*
X65198890Y-36359114D01*
X65122538Y-36244846D01*
X65101660Y-36178169D01*
X65120144Y-36110788D01*
X65137954Y-36088279D01*
X65748716Y-35477519D01*
X65810039Y-35444034D01*
X65836397Y-35441200D01*
X65909944Y-35441200D01*
X65909945Y-35441199D01*
X66064597Y-35410437D01*
X66210279Y-35350094D01*
X66341389Y-35262489D01*
X66452889Y-35150989D01*
X66540494Y-35019879D01*
X66600837Y-34874197D01*
X66614701Y-34804498D01*
X66632403Y-34715508D01*
X66647117Y-34687377D01*
X66660307Y-34658497D01*
X66663196Y-34656640D01*
X66664788Y-34653597D01*
X66692380Y-34637884D01*
X66719085Y-34620723D01*
X66723678Y-34620062D01*
X66725504Y-34619023D01*
X66754020Y-34615700D01*
X66865803Y-34615700D01*
X66932842Y-34635385D01*
X66953484Y-34652019D01*
X69076212Y-36774747D01*
X69109697Y-36836070D01*
X69104713Y-36905762D01*
X69084389Y-36941087D01*
X69082812Y-36943007D01*
X68995209Y-37074114D01*
X68995202Y-37074127D01*
X68934864Y-37219798D01*
X68934861Y-37219810D01*
X68904100Y-37374453D01*
X68904100Y-37532146D01*
X68934861Y-37686789D01*
X68934864Y-37686801D01*
X68995202Y-37832472D01*
X68995209Y-37832485D01*
X69083202Y-37964174D01*
X69104080Y-38030851D01*
X69104100Y-38033065D01*
X69104100Y-46745430D01*
X69104099Y-46745448D01*
X69104099Y-46911154D01*
X69104098Y-46911154D01*
X69145023Y-47063887D01*
X69150513Y-47073393D01*
X69150515Y-47073404D01*
X69150518Y-47073403D01*
X69224075Y-47200809D01*
X69224081Y-47200817D01*
X69342949Y-47319685D01*
X69342955Y-47319690D01*
X71538741Y-49515476D01*
X71572226Y-49576799D01*
X71568992Y-49641473D01*
X71555253Y-49683757D01*
X71522000Y-49893713D01*
X71522000Y-50106286D01*
X71549909Y-50282500D01*
X71555254Y-50316243D01*
X71616950Y-50506124D01*
X71620944Y-50518414D01*
X71717451Y-50707820D01*
X71842390Y-50879786D01*
X71992713Y-51030109D01*
X72164679Y-51155048D01*
X72164681Y-51155049D01*
X72164684Y-51155051D01*
X72354088Y-51251557D01*
X72556257Y-51317246D01*
X72766213Y-51350500D01*
X72766214Y-51350500D01*
X72978786Y-51350500D01*
X72978787Y-51350500D01*
X73188743Y-51317246D01*
X73390912Y-51251557D01*
X73580316Y-51155051D01*
X73620061Y-51126175D01*
X73752286Y-51030109D01*
X73752288Y-51030106D01*
X73752292Y-51030104D01*
X73902604Y-50879792D01*
X73902606Y-50879788D01*
X73902609Y-50879786D01*
X74027548Y-50707820D01*
X74027547Y-50707820D01*
X74027551Y-50707816D01*
X74032014Y-50699054D01*
X74079988Y-50648259D01*
X74147808Y-50631463D01*
X74213944Y-50653999D01*
X74252986Y-50699056D01*
X74257451Y-50707820D01*
X74382390Y-50879786D01*
X74532713Y-51030109D01*
X74704679Y-51155048D01*
X74704681Y-51155049D01*
X74704684Y-51155051D01*
X74894088Y-51251557D01*
X75096257Y-51317246D01*
X75306213Y-51350500D01*
X75306214Y-51350500D01*
X75518786Y-51350500D01*
X75518787Y-51350500D01*
X75728743Y-51317246D01*
X75930912Y-51251557D01*
X76120316Y-51155051D01*
X76160061Y-51126175D01*
X76292286Y-51030109D01*
X76292288Y-51030106D01*
X76292292Y-51030104D01*
X76442604Y-50879792D01*
X76442606Y-50879788D01*
X76442609Y-50879786D01*
X76567548Y-50707820D01*
X76567547Y-50707820D01*
X76567551Y-50707816D01*
X76664057Y-50518412D01*
X76729746Y-50316243D01*
X76763000Y-50106287D01*
X76763000Y-49893713D01*
X76729746Y-49683757D01*
X76664057Y-49481588D01*
X76567551Y-49292184D01*
X76567549Y-49292181D01*
X76567548Y-49292179D01*
X76442609Y-49120213D01*
X76292286Y-48969890D01*
X76120320Y-48844951D01*
X76119615Y-48844591D01*
X76111554Y-48840485D01*
X76060759Y-48792512D01*
X76043963Y-48724692D01*
X76066499Y-48658556D01*
X76111554Y-48619515D01*
X76120316Y-48615051D01*
X76174547Y-48575650D01*
X76292286Y-48490109D01*
X76292288Y-48490106D01*
X76292292Y-48490104D01*
X76442604Y-48339792D01*
X76442606Y-48339788D01*
X76442609Y-48339786D01*
X76567548Y-48167820D01*
X76567547Y-48167820D01*
X76567551Y-48167816D01*
X76664057Y-47978412D01*
X76729746Y-47776243D01*
X76763000Y-47566287D01*
X76763000Y-47353713D01*
X76729746Y-47143757D01*
X76664057Y-46941588D01*
X76567551Y-46752184D01*
X76567549Y-46752181D01*
X76567548Y-46752179D01*
X76442609Y-46580213D01*
X76292286Y-46429890D01*
X76120320Y-46304951D01*
X76119615Y-46304591D01*
X76111554Y-46300485D01*
X76060759Y-46252512D01*
X76043963Y-46184692D01*
X76066499Y-46118556D01*
X76111554Y-46079515D01*
X76120316Y-46075051D01*
X76209454Y-46010289D01*
X76292286Y-45950109D01*
X76292288Y-45950106D01*
X76292292Y-45950104D01*
X76442604Y-45799792D01*
X76442606Y-45799788D01*
X76442609Y-45799786D01*
X76567548Y-45627820D01*
X76567547Y-45627820D01*
X76567551Y-45627816D01*
X76664057Y-45438412D01*
X76729746Y-45236243D01*
X76763000Y-45026287D01*
X76763000Y-44813713D01*
X76729746Y-44603757D01*
X76664057Y-44401588D01*
X76567551Y-44212184D01*
X76567549Y-44212181D01*
X76567548Y-44212179D01*
X76442609Y-44040213D01*
X76292286Y-43889890D01*
X76120320Y-43764951D01*
X76119615Y-43764591D01*
X76111554Y-43760485D01*
X76060759Y-43712512D01*
X76043963Y-43644692D01*
X76066499Y-43578556D01*
X76111554Y-43539515D01*
X76120316Y-43535051D01*
X76142289Y-43519086D01*
X76292286Y-43410109D01*
X76292288Y-43410106D01*
X76292292Y-43410104D01*
X76442604Y-43259792D01*
X76442606Y-43259788D01*
X76442609Y-43259786D01*
X76567548Y-43087820D01*
X76567547Y-43087820D01*
X76567551Y-43087816D01*
X76664057Y-42898412D01*
X76729746Y-42696243D01*
X76763000Y-42486287D01*
X76763000Y-42273713D01*
X76729746Y-42063757D01*
X76664057Y-41861588D01*
X76567551Y-41672184D01*
X76567549Y-41672181D01*
X76567548Y-41672179D01*
X76442609Y-41500213D01*
X76292286Y-41349890D01*
X76120317Y-41224949D01*
X76111004Y-41220204D01*
X76060207Y-41172230D01*
X76043412Y-41104409D01*
X76065949Y-41038274D01*
X76111007Y-40999232D01*
X76120055Y-40994622D01*
X76174216Y-40955270D01*
X76174217Y-40955270D01*
X75541909Y-40322962D01*
X75605493Y-40305925D01*
X75719507Y-40240099D01*
X75812599Y-40147007D01*
X75878425Y-40032993D01*
X75895462Y-39969409D01*
X76527770Y-40601717D01*
X76527770Y-40601716D01*
X76567122Y-40547554D01*
X76663595Y-40358217D01*
X76729257Y-40156130D01*
X76729257Y-40156127D01*
X76762500Y-39946246D01*
X76762500Y-39733753D01*
X76729257Y-39523872D01*
X76729257Y-39523869D01*
X76663595Y-39321782D01*
X76567124Y-39132449D01*
X76527770Y-39078282D01*
X76527769Y-39078282D01*
X75895462Y-39710590D01*
X75878425Y-39647007D01*
X75812599Y-39532993D01*
X75719507Y-39439901D01*
X75605493Y-39374075D01*
X75541907Y-39357036D01*
X76174216Y-38724728D01*
X76120047Y-38685373D01*
X76120047Y-38685372D01*
X76111000Y-38680763D01*
X76060206Y-38632788D01*
X76043412Y-38564966D01*
X76065951Y-38498832D01*
X76111008Y-38459793D01*
X76120316Y-38455051D01*
X76199507Y-38397515D01*
X76292286Y-38330109D01*
X76292288Y-38330106D01*
X76292292Y-38330104D01*
X76442604Y-38179792D01*
X76442606Y-38179788D01*
X76442609Y-38179786D01*
X76567548Y-38007820D01*
X76567547Y-38007820D01*
X76567551Y-38007816D01*
X76664057Y-37818412D01*
X76729746Y-37616243D01*
X76763000Y-37406287D01*
X76763000Y-37193713D01*
X76729746Y-36983757D01*
X76664057Y-36781588D01*
X76567551Y-36592184D01*
X76567549Y-36592181D01*
X76567548Y-36592179D01*
X76442609Y-36420213D01*
X76292286Y-36269890D01*
X76120320Y-36144951D01*
X75930914Y-36048444D01*
X75930913Y-36048443D01*
X75930912Y-36048443D01*
X75728743Y-35982754D01*
X75728741Y-35982753D01*
X75728740Y-35982753D01*
X75525921Y-35950630D01*
X75518787Y-35949500D01*
X75306213Y-35949500D01*
X75299079Y-35950630D01*
X75096259Y-35982753D01*
X75096255Y-35982754D01*
X74993617Y-36016103D01*
X74923776Y-36018098D01*
X74863944Y-35982017D01*
X74833116Y-35919316D01*
X74831300Y-35898172D01*
X74831300Y-32495745D01*
X74831298Y-32495736D01*
X74825992Y-32475931D01*
X74790377Y-32343015D01*
X74744662Y-32263835D01*
X74711320Y-32206084D01*
X74599516Y-32094280D01*
X74599515Y-32094279D01*
X74595185Y-32089949D01*
X74595174Y-32089939D01*
X71005574Y-28500339D01*
X70972089Y-28439016D01*
X70971638Y-28436849D01*
X70940738Y-28281510D01*
X70940737Y-28281503D01*
X70940735Y-28281498D01*
X70880397Y-28135827D01*
X70880390Y-28135814D01*
X70792789Y-28004711D01*
X70792786Y-28004707D01*
X70681792Y-27893713D01*
X80649500Y-27893713D01*
X80649500Y-28106286D01*
X80677251Y-28281503D01*
X80682754Y-28316243D01*
X80731499Y-28466265D01*
X80748444Y-28518414D01*
X80844951Y-28707820D01*
X80969890Y-28879786D01*
X81120213Y-29030109D01*
X81292179Y-29155048D01*
X81292181Y-29155049D01*
X81292184Y-29155051D01*
X81481588Y-29251557D01*
X81683757Y-29317246D01*
X81893713Y-29350500D01*
X81893714Y-29350500D01*
X82106286Y-29350500D01*
X82106287Y-29350500D01*
X82316243Y-29317246D01*
X82518412Y-29251557D01*
X82707816Y-29155051D01*
X82732956Y-29136786D01*
X82879786Y-29030109D01*
X82879788Y-29030106D01*
X82879792Y-29030104D01*
X83030104Y-28879792D01*
X83030106Y-28879788D01*
X83030109Y-28879786D01*
X83155048Y-28707820D01*
X83155047Y-28707820D01*
X83155051Y-28707816D01*
X83251557Y-28518412D01*
X83317246Y-28316243D01*
X83350500Y-28106287D01*
X83350500Y-27893713D01*
X83317246Y-27683757D01*
X83251557Y-27481588D01*
X83155051Y-27292184D01*
X83155049Y-27292181D01*
X83155048Y-27292179D01*
X83030109Y-27120213D01*
X82879786Y-26969890D01*
X82707820Y-26844951D01*
X82518414Y-26748444D01*
X82518413Y-26748443D01*
X82518412Y-26748443D01*
X82316243Y-26682754D01*
X82316241Y-26682753D01*
X82316240Y-26682753D01*
X82154957Y-26657208D01*
X82106287Y-26649500D01*
X81893713Y-26649500D01*
X81845042Y-26657208D01*
X81683760Y-26682753D01*
X81481585Y-26748444D01*
X81292179Y-26844951D01*
X81120213Y-26969890D01*
X80969890Y-27120213D01*
X80844951Y-27292179D01*
X80748444Y-27481585D01*
X80682753Y-27683760D01*
X80649500Y-27893713D01*
X70681792Y-27893713D01*
X70681292Y-27893213D01*
X70681288Y-27893210D01*
X70550185Y-27805609D01*
X70550172Y-27805602D01*
X70404501Y-27745264D01*
X70404489Y-27745261D01*
X70249845Y-27714500D01*
X70249842Y-27714500D01*
X70092158Y-27714500D01*
X70092155Y-27714500D01*
X69937510Y-27745261D01*
X69937498Y-27745264D01*
X69791827Y-27805602D01*
X69791814Y-27805609D01*
X69660711Y-27893210D01*
X69660707Y-27893213D01*
X69549213Y-28004707D01*
X69549210Y-28004711D01*
X69461609Y-28135814D01*
X69461602Y-28135827D01*
X69401264Y-28281498D01*
X69401261Y-28281510D01*
X69370500Y-28436153D01*
X69370500Y-28593846D01*
X69401261Y-28748489D01*
X69401264Y-28748501D01*
X69461602Y-28894172D01*
X69461609Y-28894185D01*
X69549210Y-29025288D01*
X69549213Y-29025292D01*
X69660707Y-29136786D01*
X69660711Y-29136789D01*
X69791814Y-29224390D01*
X69791827Y-29224397D01*
X69937498Y-29284735D01*
X69937503Y-29284737D01*
X70002147Y-29297595D01*
X70092849Y-29315638D01*
X70154760Y-29348023D01*
X70156339Y-29349574D01*
X73593981Y-32787216D01*
X73627466Y-32848539D01*
X73630300Y-32874897D01*
X73630300Y-35825500D01*
X73610615Y-35892539D01*
X73557811Y-35938294D01*
X73506300Y-35949500D01*
X72222498Y-35949500D01*
X72222481Y-35949501D01*
X72119703Y-35960000D01*
X72119700Y-35960001D01*
X71953168Y-36015185D01*
X71953159Y-36015190D01*
X71882083Y-36059029D01*
X71814690Y-36077469D01*
X71748027Y-36056546D01*
X71729306Y-36041171D01*
X66093474Y-30405339D01*
X66059989Y-30344016D01*
X66059538Y-30341849D01*
X66029687Y-30191781D01*
X66028637Y-30186503D01*
X65981126Y-30071800D01*
X65968297Y-30040827D01*
X65968290Y-30040814D01*
X65880689Y-29909711D01*
X65880686Y-29909707D01*
X65769192Y-29798213D01*
X65769188Y-29798210D01*
X65638085Y-29710609D01*
X65638072Y-29710602D01*
X65492401Y-29650264D01*
X65492389Y-29650261D01*
X65337745Y-29619500D01*
X65337742Y-29619500D01*
X65180058Y-29619500D01*
X65180055Y-29619500D01*
X65025410Y-29650261D01*
X65025398Y-29650264D01*
X64879727Y-29710602D01*
X64879714Y-29710609D01*
X64748611Y-29798210D01*
X64748607Y-29798213D01*
X64637113Y-29909707D01*
X64637110Y-29909711D01*
X64549509Y-30040814D01*
X64549502Y-30040827D01*
X64489164Y-30186498D01*
X64489161Y-30186510D01*
X64458400Y-30341153D01*
X64458400Y-30498846D01*
X64489161Y-30653489D01*
X64489164Y-30653501D01*
X64549502Y-30799172D01*
X64549509Y-30799185D01*
X64637110Y-30930288D01*
X64637113Y-30930292D01*
X64748607Y-31041786D01*
X64748611Y-31041789D01*
X64879714Y-31129390D01*
X64879727Y-31129397D01*
X64987924Y-31174213D01*
X65025403Y-31189737D01*
X65090047Y-31202595D01*
X65180749Y-31220638D01*
X65242660Y-31253023D01*
X65244239Y-31254574D01*
X67192683Y-33203018D01*
X67203293Y-33222450D01*
X67217794Y-33239183D01*
X67219711Y-33252517D01*
X67226168Y-33264341D01*
X67224588Y-33286424D01*
X67227741Y-33308341D01*
X67222144Y-33320595D01*
X67221184Y-33334033D01*
X67207914Y-33351758D01*
X67198718Y-33371898D01*
X67187385Y-33379181D01*
X67179312Y-33389966D01*
X67158567Y-33397703D01*
X67139941Y-33409675D01*
X67118019Y-33412827D01*
X67113848Y-33414383D01*
X67105007Y-33414699D01*
X67086843Y-33414699D01*
X67086840Y-33414699D01*
X67079236Y-33414700D01*
X67079235Y-33414699D01*
X67079231Y-33414700D01*
X64628441Y-33414700D01*
X64588975Y-33425275D01*
X64556883Y-33429500D01*
X64413855Y-33429500D01*
X64259210Y-33460261D01*
X64259198Y-33460264D01*
X64113527Y-33520602D01*
X64113514Y-33520609D01*
X63982411Y-33608210D01*
X63982409Y-33608212D01*
X63870913Y-33719707D01*
X63870910Y-33719711D01*
X63783309Y-33850814D01*
X63783302Y-33850827D01*
X63722964Y-33996498D01*
X63722961Y-33996510D01*
X63692200Y-34151153D01*
X63692200Y-34308846D01*
X63722961Y-34463489D01*
X63722964Y-34463501D01*
X63783302Y-34609172D01*
X63783309Y-34609185D01*
X63870910Y-34740288D01*
X63870913Y-34740292D01*
X63982407Y-34851786D01*
X63982411Y-34851789D01*
X64113514Y-34939390D01*
X64113527Y-34939397D01*
X64259198Y-34999735D01*
X64259203Y-34999737D01*
X64259207Y-34999737D01*
X64265035Y-35001506D01*
X64264416Y-35003544D01*
X64317779Y-35031436D01*
X64352373Y-35092140D01*
X64348656Y-35161911D01*
X64319387Y-35208377D01*
X61272781Y-38254984D01*
X61211458Y-38288469D01*
X61141766Y-38283485D01*
X61085833Y-38241613D01*
X61061416Y-38176149D01*
X61061108Y-38167542D01*
X61061099Y-38167453D01*
X61057393Y-38148824D01*
X61030337Y-38012803D01*
X61018770Y-37984878D01*
X60969997Y-37867127D01*
X60969990Y-37867114D01*
X60882389Y-37736011D01*
X60882386Y-37736007D01*
X60770892Y-37624513D01*
X60770888Y-37624510D01*
X60639785Y-37536909D01*
X60639772Y-37536902D01*
X60494101Y-37476564D01*
X60494089Y-37476561D01*
X60339445Y-37445800D01*
X60339442Y-37445800D01*
X60181758Y-37445800D01*
X60181755Y-37445800D01*
X60027110Y-37476561D01*
X60027098Y-37476564D01*
X59881427Y-37536902D01*
X59881414Y-37536909D01*
X59749725Y-37624902D01*
X59683047Y-37645780D01*
X59680834Y-37645800D01*
X58141969Y-37645800D01*
X58141953Y-37645799D01*
X58134357Y-37645799D01*
X57976243Y-37645799D01*
X57868887Y-37674565D01*
X57823510Y-37686724D01*
X57823509Y-37686725D01*
X57773396Y-37715659D01*
X57773395Y-37715660D01*
X57738153Y-37736007D01*
X57686585Y-37765779D01*
X57686582Y-37765781D01*
X55284381Y-40167983D01*
X55223058Y-40201468D01*
X55153366Y-40196484D01*
X55097433Y-40154612D01*
X55073016Y-40089148D01*
X55072700Y-40080302D01*
X55072700Y-39735216D01*
X55092385Y-39668177D01*
X55127807Y-39632115D01*
X55197589Y-39585489D01*
X55309089Y-39473989D01*
X55396694Y-39342879D01*
X55403476Y-39326507D01*
X55421467Y-39283072D01*
X55457037Y-39197197D01*
X55487800Y-39042542D01*
X55487800Y-38884858D01*
X55487800Y-38884855D01*
X55487799Y-38884853D01*
X55478761Y-38839418D01*
X55457037Y-38730203D01*
X55438468Y-38685372D01*
X55396697Y-38584527D01*
X55396690Y-38584514D01*
X55309089Y-38453411D01*
X55309086Y-38453407D01*
X55197592Y-38341913D01*
X55197588Y-38341910D01*
X55066485Y-38254309D01*
X55066472Y-38254302D01*
X54920801Y-38193964D01*
X54920791Y-38193961D01*
X54770808Y-38164127D01*
X54708897Y-38131742D01*
X54674323Y-38071026D01*
X54671000Y-38042510D01*
X54671000Y-35134441D01*
X54690685Y-35067402D01*
X54743489Y-35021647D01*
X54812647Y-35011703D01*
X54876203Y-35040728D01*
X54882681Y-35046760D01*
X54934807Y-35098886D01*
X54934811Y-35098889D01*
X55065914Y-35186490D01*
X55065927Y-35186497D01*
X55210811Y-35246509D01*
X55211603Y-35246837D01*
X55366253Y-35277599D01*
X55366256Y-35277600D01*
X55366258Y-35277600D01*
X55523944Y-35277600D01*
X55523945Y-35277599D01*
X55678597Y-35246837D01*
X55824279Y-35186494D01*
X55955389Y-35098889D01*
X56066889Y-34987389D01*
X56154494Y-34856279D01*
X56214837Y-34710597D01*
X56245600Y-34555942D01*
X56245600Y-34398258D01*
X56245600Y-34398255D01*
X56245599Y-34398253D01*
X56239739Y-34368791D01*
X56214837Y-34243603D01*
X56203843Y-34217060D01*
X56154497Y-34097927D01*
X56154490Y-34097914D01*
X56066498Y-33966225D01*
X56045620Y-33899547D01*
X56045600Y-33897334D01*
X56045600Y-33099053D01*
X56939700Y-33099053D01*
X56939700Y-33256746D01*
X56970461Y-33411389D01*
X56970464Y-33411401D01*
X57030802Y-33557072D01*
X57030809Y-33557085D01*
X57118410Y-33688188D01*
X57118413Y-33688192D01*
X57229907Y-33799686D01*
X57229911Y-33799689D01*
X57361014Y-33887290D01*
X57361027Y-33887297D01*
X57501597Y-33945522D01*
X57506703Y-33947637D01*
X57661353Y-33978399D01*
X57661356Y-33978400D01*
X57661358Y-33978400D01*
X57819044Y-33978400D01*
X57819045Y-33978399D01*
X57973697Y-33947637D01*
X58119379Y-33887294D01*
X58197029Y-33835410D01*
X58251075Y-33799298D01*
X58317753Y-33778420D01*
X58319966Y-33778400D01*
X59418631Y-33778400D01*
X59418647Y-33778401D01*
X59426243Y-33778401D01*
X59584354Y-33778401D01*
X59584357Y-33778401D01*
X59737085Y-33737477D01*
X59801678Y-33700184D01*
X59874016Y-33658420D01*
X59985820Y-33546616D01*
X59985820Y-33546614D01*
X59996024Y-33536411D01*
X59996027Y-33536406D01*
X60901865Y-32630570D01*
X60963184Y-32597088D01*
X60965351Y-32596637D01*
X60966040Y-32596500D01*
X60966042Y-32596500D01*
X61120697Y-32565737D01*
X61266379Y-32505394D01*
X61397489Y-32417789D01*
X61508989Y-32306289D01*
X61596594Y-32175179D01*
X61656937Y-32029497D01*
X61687700Y-31874842D01*
X61687700Y-31717158D01*
X61687700Y-31717155D01*
X61687699Y-31717153D01*
X61674178Y-31649179D01*
X61656937Y-31562503D01*
X61632493Y-31503489D01*
X61596597Y-31416827D01*
X61596590Y-31416814D01*
X61508989Y-31285711D01*
X61508986Y-31285707D01*
X61397492Y-31174213D01*
X61397488Y-31174210D01*
X61266385Y-31086609D01*
X61266372Y-31086602D01*
X61120701Y-31026264D01*
X61120689Y-31026261D01*
X60966045Y-30995500D01*
X60966042Y-30995500D01*
X60808358Y-30995500D01*
X60808355Y-30995500D01*
X60653710Y-31026261D01*
X60653698Y-31026264D01*
X60508027Y-31086602D01*
X60508014Y-31086609D01*
X60376911Y-31174210D01*
X60376907Y-31174213D01*
X60265413Y-31285707D01*
X60265410Y-31285711D01*
X60177809Y-31416814D01*
X60177802Y-31416827D01*
X60117464Y-31562498D01*
X60117461Y-31562508D01*
X60086562Y-31717848D01*
X60054177Y-31779759D01*
X60052626Y-31781337D01*
X59292884Y-32541081D01*
X59231561Y-32574566D01*
X59205203Y-32577400D01*
X58319966Y-32577400D01*
X58252927Y-32557715D01*
X58251075Y-32556502D01*
X58119385Y-32468509D01*
X58119372Y-32468502D01*
X57973701Y-32408164D01*
X57973689Y-32408161D01*
X57819045Y-32377400D01*
X57819042Y-32377400D01*
X57661358Y-32377400D01*
X57661355Y-32377400D01*
X57506710Y-32408161D01*
X57506698Y-32408164D01*
X57361027Y-32468502D01*
X57361014Y-32468509D01*
X57229911Y-32556110D01*
X57229907Y-32556113D01*
X57118413Y-32667607D01*
X57118410Y-32667611D01*
X57030809Y-32798714D01*
X57030802Y-32798727D01*
X56970464Y-32944398D01*
X56970461Y-32944410D01*
X56939700Y-33099053D01*
X56045600Y-33099053D01*
X56045600Y-29959765D01*
X56065285Y-29892726D01*
X56066498Y-29890874D01*
X56154490Y-29759185D01*
X56154490Y-29759184D01*
X56154494Y-29759179D01*
X56214837Y-29613497D01*
X56245600Y-29458842D01*
X56245600Y-29301158D01*
X56245600Y-29301155D01*
X56245599Y-29301153D01*
X56215273Y-29148691D01*
X56221500Y-29079100D01*
X56264363Y-29023922D01*
X56330253Y-29000678D01*
X56336890Y-29000500D01*
X60565890Y-29000500D01*
X60565892Y-29000500D01*
X60693186Y-28966392D01*
X60807314Y-28900500D01*
X60900500Y-28807314D01*
X60966392Y-28693186D01*
X61000500Y-28565892D01*
X61000500Y-25624500D01*
X61020185Y-25557461D01*
X61072989Y-25511706D01*
X61124500Y-25500500D01*
X84128282Y-25500500D01*
X84195321Y-25520185D01*
X84241076Y-25572989D01*
X84252281Y-25623946D01*
X84419102Y-62991911D01*
X84483571Y-77433258D01*
X84496704Y-80374946D01*
X84477319Y-80442073D01*
X84424719Y-80488063D01*
X84372705Y-80499500D01*
X19624500Y-80499500D01*
X19557461Y-80479815D01*
X19511706Y-80427011D01*
X19500500Y-80375500D01*
X19500500Y-77393713D01*
X21149500Y-77393713D01*
X21149500Y-77606286D01*
X21182753Y-77816239D01*
X21248444Y-78018414D01*
X21344951Y-78207820D01*
X21469890Y-78379786D01*
X21620213Y-78530109D01*
X21792179Y-78655048D01*
X21792181Y-78655049D01*
X21792184Y-78655051D01*
X21981588Y-78751557D01*
X22183757Y-78817246D01*
X22393713Y-78850500D01*
X22393714Y-78850500D01*
X22606286Y-78850500D01*
X22606287Y-78850500D01*
X22816243Y-78817246D01*
X23018412Y-78751557D01*
X23207816Y-78655051D01*
X23229789Y-78639086D01*
X23379786Y-78530109D01*
X23379788Y-78530106D01*
X23379792Y-78530104D01*
X23530104Y-78379792D01*
X23530106Y-78379788D01*
X23530109Y-78379786D01*
X23655048Y-78207820D01*
X23655047Y-78207820D01*
X23655051Y-78207816D01*
X23751557Y-78018412D01*
X23817246Y-77816243D01*
X23850500Y-77606287D01*
X23850500Y-77393713D01*
X23817246Y-77183757D01*
X23751557Y-76981588D01*
X23655051Y-76792184D01*
X23655049Y-76792181D01*
X23655048Y-76792179D01*
X23530109Y-76620213D01*
X23379786Y-76469890D01*
X23207820Y-76344951D01*
X23018414Y-76248444D01*
X23018413Y-76248443D01*
X23018412Y-76248443D01*
X22816243Y-76182754D01*
X22816241Y-76182753D01*
X22816240Y-76182753D01*
X22654957Y-76157208D01*
X22606287Y-76149500D01*
X22393713Y-76149500D01*
X22345042Y-76157208D01*
X22183760Y-76182753D01*
X22183757Y-76182754D01*
X21984460Y-76247510D01*
X21981585Y-76248444D01*
X21792179Y-76344951D01*
X21620213Y-76469890D01*
X21469890Y-76620213D01*
X21344951Y-76792179D01*
X21248444Y-76981585D01*
X21182753Y-77183760D01*
X21149500Y-77393713D01*
X19500500Y-77393713D01*
X19500500Y-27893713D01*
X21149500Y-27893713D01*
X21149500Y-28106286D01*
X21177251Y-28281503D01*
X21182754Y-28316243D01*
X21231499Y-28466265D01*
X21248444Y-28518414D01*
X21344951Y-28707820D01*
X21469890Y-28879786D01*
X21620213Y-29030109D01*
X21792179Y-29155048D01*
X21792181Y-29155049D01*
X21792184Y-29155051D01*
X21981588Y-29251557D01*
X22183757Y-29317246D01*
X22393713Y-29350500D01*
X22393714Y-29350500D01*
X22606286Y-29350500D01*
X22606287Y-29350500D01*
X22816243Y-29317246D01*
X23018412Y-29251557D01*
X23207816Y-29155051D01*
X23232956Y-29136786D01*
X23379786Y-29030109D01*
X23379788Y-29030106D01*
X23379792Y-29030104D01*
X23530104Y-28879792D01*
X23530106Y-28879788D01*
X23530109Y-28879786D01*
X23655048Y-28707820D01*
X23655047Y-28707820D01*
X23655051Y-28707816D01*
X23751557Y-28518412D01*
X23817246Y-28316243D01*
X23850500Y-28106287D01*
X23850500Y-27893713D01*
X23817246Y-27683757D01*
X23751557Y-27481588D01*
X23655051Y-27292184D01*
X23655049Y-27292181D01*
X23655048Y-27292179D01*
X23530109Y-27120213D01*
X23379786Y-26969890D01*
X23207820Y-26844951D01*
X23018414Y-26748444D01*
X23018413Y-26748443D01*
X23018412Y-26748443D01*
X22816243Y-26682754D01*
X22816241Y-26682753D01*
X22816240Y-26682753D01*
X22654957Y-26657208D01*
X22606287Y-26649500D01*
X22393713Y-26649500D01*
X22345042Y-26657208D01*
X22183760Y-26682753D01*
X21981585Y-26748444D01*
X21792179Y-26844951D01*
X21620213Y-26969890D01*
X21469890Y-27120213D01*
X21344951Y-27292179D01*
X21248444Y-27481585D01*
X21182753Y-27683760D01*
X21149500Y-27893713D01*
X19500500Y-27893713D01*
X19500500Y-25624500D01*
X19520185Y-25557461D01*
X19572989Y-25511706D01*
X19624500Y-25500500D01*
X39375500Y-25500500D01*
X39442539Y-25520185D01*
G37*
%TD.AperFunction*%
%TA.AperFunction,Conductor*%
G36*
X25125197Y-36326550D02*
G01*
X25181130Y-36368422D01*
X25199794Y-36404414D01*
X25205591Y-36422255D01*
X25284195Y-36576524D01*
X25385967Y-36716602D01*
X25508401Y-36839036D01*
X25591447Y-36899371D01*
X25634114Y-36954701D01*
X25640093Y-37024314D01*
X25607488Y-37086109D01*
X25591450Y-37100007D01*
X25508072Y-37160585D01*
X25385588Y-37283069D01*
X25385588Y-37283070D01*
X25385586Y-37283072D01*
X25377455Y-37294264D01*
X25283768Y-37423211D01*
X25205128Y-37577552D01*
X25151597Y-37742302D01*
X25124500Y-37913389D01*
X25124500Y-38086610D01*
X25151167Y-38254984D01*
X25151598Y-38257701D01*
X25205127Y-38422445D01*
X25283768Y-38576788D01*
X25385586Y-38716928D01*
X25508072Y-38839414D01*
X25508078Y-38839418D01*
X25591023Y-38899683D01*
X25633689Y-38955013D01*
X25639667Y-39024626D01*
X25607061Y-39086421D01*
X25591023Y-39100317D01*
X25508078Y-39160581D01*
X25508069Y-39160588D01*
X25385588Y-39283069D01*
X25385588Y-39283070D01*
X25385586Y-39283072D01*
X25354033Y-39326501D01*
X25283768Y-39423211D01*
X25205128Y-39577552D01*
X25205127Y-39577554D01*
X25205127Y-39577555D01*
X25178362Y-39659927D01*
X25151597Y-39742302D01*
X25124500Y-39913389D01*
X25124500Y-40086610D01*
X25149744Y-40246000D01*
X25151598Y-40257701D01*
X25205127Y-40422445D01*
X25283768Y-40576788D01*
X25283770Y-40576791D01*
X25285980Y-40581128D01*
X25283965Y-40582154D01*
X25299683Y-40640649D01*
X25278455Y-40707216D01*
X25263397Y-40725466D01*
X23202986Y-42785878D01*
X23091181Y-42897682D01*
X23091177Y-42897687D01*
X23043582Y-42980126D01*
X23012124Y-43034611D01*
X23012123Y-43034612D01*
X22987568Y-43126251D01*
X22971199Y-43187343D01*
X22971199Y-43187345D01*
X22971199Y-43355446D01*
X22971200Y-43355459D01*
X22971200Y-51419000D01*
X22951515Y-51486039D01*
X22898711Y-51531794D01*
X22847200Y-51543000D01*
X22837655Y-51543000D01*
X22683010Y-51573761D01*
X22682998Y-51573764D01*
X22537327Y-51634102D01*
X22537316Y-51634108D01*
X22452890Y-51690520D01*
X22386213Y-51711397D01*
X22318833Y-51692912D01*
X22272143Y-51640933D01*
X22260000Y-51587417D01*
X22260000Y-39140596D01*
X22279685Y-39073557D01*
X22296314Y-39052920D01*
X24994186Y-36355048D01*
X25055505Y-36321566D01*
X25125197Y-36326550D01*
G37*
%TD.AperFunction*%
%TD*%
M02*
