%TF.GenerationSoftware,KiCad,Pcbnew,9.0.7*%
%TF.CreationDate,2026-08-01T21:15:10-07:00*%
%TF.ProjectId,FN32ROV-XEBook-KiCad,464e3332-524f-4562-9d58-45426f6f6b2d,rev?*%
%TF.SameCoordinates,Original*%
%TF.FileFunction,Soldermask,Bot*%
%TF.FilePolarity,Negative*%
%FSLAX46Y46*%
G04 Gerber Fmt 4.6, Leading zero omitted, Abs format (unit mm)*
G04 Created by KiCad (PCBNEW 9.0.7) date 2026-08-01 21:15:10*
%MOMM*%
%LPD*%
G01*
G04 APERTURE LIST*
G04 Aperture macros list*
%AMRoundRect*
0 Rectangle with rounded corners*
0 $1 Rounding radius*
0 $2 $3 $4 $5 $6 $7 $8 $9 X,Y pos of 4 corners*
0 Add a 4 corners polygon primitive as box body*
4,1,4,$2,$3,$4,$5,$6,$7,$8,$9,$2,$3,0*
0 Add four circle primitives for the rounded corners*
1,1,$1+$1,$2,$3*
1,1,$1+$1,$4,$5*
1,1,$1+$1,$6,$7*
1,1,$1+$1,$8,$9*
0 Add four rect primitives between the rounded corners*
20,1,$1+$1,$2,$3,$4,$5,0*
20,1,$1+$1,$4,$5,$6,$7,0*
20,1,$1+$1,$6,$7,$8,$9,0*
20,1,$1+$1,$8,$9,$2,$3,0*%
G04 Aperture macros list end*
%ADD10C,2.200000*%
%ADD11RoundRect,0.250000X-0.350000X-0.625000X0.350000X-0.625000X0.350000X0.625000X-0.350000X0.625000X0*%
%ADD12O,1.200000X1.750000*%
%ADD13RoundRect,0.250000X-0.600000X-0.600000X0.600000X-0.600000X0.600000X0.600000X-0.600000X0.600000X0*%
%ADD14C,1.700000*%
%ADD15C,0.650000*%
%ADD16O,2.100000X1.000000*%
%ADD17O,1.600000X1.000000*%
%ADD18RoundRect,0.250000X-0.625000X0.350000X-0.625000X-0.350000X0.625000X-0.350000X0.625000X0.350000X0*%
%ADD19O,1.750000X1.200000*%
G04 APERTURE END LIST*
D10*
%TO.C,MH1*%
X22500000Y-28000000D03*
%TD*%
D11*
%TO.C,J_BTN1*%
X60000000Y-73550000D03*
D12*
X62000000Y-73550000D03*
X64000000Y-73550000D03*
X66000000Y-73550000D03*
%TD*%
D10*
%TO.C,MH4*%
X82000000Y-77500000D03*
%TD*%
D13*
%TO.C,J_SIO1*%
X72872500Y-37300000D03*
D14*
X75412500Y-37300000D03*
X72872500Y-39840000D03*
X75412500Y-39840000D03*
X72872500Y-42380000D03*
X75412500Y-42380000D03*
X72872500Y-44920000D03*
X75412500Y-44920000D03*
X72872500Y-47460000D03*
X75412500Y-47460000D03*
X72872500Y-50000000D03*
X75412500Y-50000000D03*
%TD*%
D11*
%TO.C,J_PWR1*%
X38500000Y-73550000D03*
D12*
X40500000Y-73550000D03*
%TD*%
D11*
%TO.C,J_LED1*%
X47500000Y-73550000D03*
D12*
X49500000Y-73550000D03*
X51500000Y-73550000D03*
X53500000Y-73550000D03*
%TD*%
D15*
%TO.C,J2*%
X77820000Y-70890000D03*
X77820000Y-65110000D03*
D16*
X77320000Y-72320000D03*
D17*
X81500000Y-72320000D03*
D16*
X77320000Y-63680000D03*
D17*
X81500000Y-63680000D03*
%TD*%
D10*
%TO.C,MH2*%
X82000000Y-28000000D03*
%TD*%
D18*
%TO.C,J_SD1*%
X26500000Y-34000000D03*
D19*
X26500000Y-36000000D03*
X26500000Y-38000000D03*
X26500000Y-40000000D03*
X26500000Y-42000000D03*
X26500000Y-44000000D03*
X26500000Y-46000000D03*
%TD*%
D10*
%TO.C,MH3*%
X22500000Y-77500000D03*
%TD*%
M02*
