M48
; DRILL file {KiCad 9.0.7} date 2026-07-27T20:51:32-0700
; FORMAT={-:-/ absolute / metric / decimal}
; #@! TF.CreationDate,2026-07-27T20:51:32-07:00
; #@! TF.GenerationSoftware,Kicad,Pcbnew,9.0.7
; #@! TF.FileFunction,Plated,1,2,PTH
FMAT,2
METRIC
; #@! TA.AperFunction,Plated,PTH,ViaDrill
T1C0.300
; #@! TA.AperFunction,Plated,PTH,ComponentDrill
T2C0.600
; #@! TA.AperFunction,Plated,PTH,ComponentDrill
T3C0.750
; #@! TA.AperFunction,Plated,PTH,ComponentDrill
T4C1.000
%
G90
G05
T1
X20.725Y-52.394
X21.868Y-70.887
X22.263Y-55.15
X22.268Y-64.05
X22.562Y-57.45
X22.916Y-52.343
X23.089Y-60.708
X23.62Y-70.663
X23.691Y-61.85
X23.904Y-62.971
X24.174Y-57.45
X24.19Y-59.471
X28.284Y-42.0
X29.626Y-40.772
X30.1Y-53.968
X31.669Y-38.444
X31.813Y-55.958
X31.821Y-73.381
X31.981Y-35.038
X32.437Y-37.762
X32.674Y-45.5
X32.674Y-77.512
X32.813Y-36.195
X33.303Y-53.651
X33.476Y-38.805
X33.7Y-38.0
X33.804Y-40.038
X33.804Y-43.689
X33.868Y-47.321
X34.18Y-32.84
X34.432Y-57.016
X35.051Y-76.481
X35.41Y-40.696
X35.679Y-70.334
X36.384Y-72.444
X36.463Y-40.602
X36.689Y-41.417
X36.743Y-49.348
X37.5Y-51.625
X37.5Y-60.929
X37.5Y-71.5
X37.822Y-41.146
X38.077Y-44.82
X38.387Y-58.001
X38.46Y-40.613
X39.062Y-34.069
X39.32Y-31.719
X39.326Y-35.812
X39.326Y-42.323
X40.221Y-32.621
X40.244Y-34.837
X40.5Y-75.86
X40.666Y-69.706
X42.803Y-33.81
X42.834Y-35.175
X43.273Y-49.05
X43.273Y-66.2
X43.746Y-40.422
X44.359Y-41.034
X44.727Y-56.416
X44.8Y-35.777
X46.308Y-77.512
X48.901Y-53.612
X48.901Y-59.272
X49.327Y-63.502
X51.181Y-62.08
X51.206Y-30.0
X51.206Y-39.811
X51.784Y-47.78
X51.784Y-67.791
X53.279Y-32.54
X53.28Y-55.864
X54.07Y-31.27
X54.292Y-29.38
X54.658Y-63.51
X54.687Y-38.964
X55.076Y-43.97
X55.191Y-66.777
X55.358Y-45.611
X55.445Y-29.38
X55.445Y-34.477
X55.633Y-43.043
X55.842Y-65.383
X56.884Y-41.48
X57.31Y-65.99
X57.489Y-62.575
X57.489Y-46.213
X57.616Y-42.113
X57.717Y-43.676
X57.74Y-33.178
X58.566Y-61.339
X60.261Y-38.246
X60.265Y-46.51
X60.887Y-31.796
X61.514Y-66.261
X62.542Y-50.309
X63.157Y-47.655
X63.778Y-53.612
X64.38Y-47.032
X64.489Y-36.738
X64.489Y-43.958
X64.493Y-34.23
X64.627Y-51.13
X65.259Y-30.42
X65.714Y-42.69
X65.831Y-34.641
X67.374Y-38.064
X69.705Y-37.453
X70.171Y-28.515
X74.809Y-65.6
X74.809Y-70.28
X76.603Y-57.124
T3
X26.5Y-34.0
X26.5Y-36.0
X26.5Y-38.0
X26.5Y-40.0
X26.5Y-42.0
X26.5Y-44.0
X26.5Y-46.0
X38.5Y-73.55
X40.5Y-73.55
X47.5Y-73.55
X49.5Y-73.55
X51.5Y-73.55
X53.5Y-73.55
X60.0Y-73.55
X62.0Y-73.55
X64.0Y-73.55
X66.0Y-73.55
T4
X72.873Y-37.3
X72.873Y-39.84
X72.873Y-42.38
X72.873Y-44.92
X72.873Y-47.46
X72.873Y-50.0
X75.412Y-37.3
X75.412Y-39.84
X75.412Y-42.38
X75.412Y-44.92
X75.412Y-47.46
X75.412Y-50.0
T2
X76.77Y-63.68G85X77.87Y-63.68
G05
X76.77Y-72.32G85X77.87Y-72.32
G05
X81.2Y-63.68G85X81.8Y-63.68
G05
X81.2Y-72.32G85X81.8Y-72.32
G05
M30
