%TF.GenerationSoftware,KiCad,Pcbnew,9.0.7*%
%TF.CreationDate,2026-07-27T20:51:06-07:00*%
%TF.ProjectId,FN32ROV-XEBook-KiCad,464e3332-524f-4562-9d58-45426f6f6b2d,rev?*%
%TF.SameCoordinates,Original*%
%TF.FileFunction,Legend,Top*%
%TF.FilePolarity,Positive*%
%FSLAX46Y46*%
G04 Gerber Fmt 4.6, Leading zero omitted, Abs format (unit mm)*
G04 Created by KiCad (PCBNEW 9.0.7) date 2026-07-27 20:51:06*
%MOMM*%
%LPD*%
G01*
G04 APERTURE LIST*
G04 Aperture macros list*
%AMRoundRect*
0 Rectangle with rounded corners*
0 $1 Rounding radius*
0 $2 $3 $4 $5 $6 $7 $8 $9 X,Y pos of 4 corners*
0 Add a 4 corners polygon primitive as box body*
4,1,4,$2,$3,$4,$5,$6,$7,$8,$9,$2,$3,0*
0 Add four circle primitives for the rounded corners*
1,1,$1+$1,$2,$3*
1,1,$1+$1,$4,$5*
1,1,$1+$1,$6,$7*
1,1,$1+$1,$8,$9*
0 Add four rect primitives between the rounded corners*
20,1,$1+$1,$2,$3,$4,$5,0*
20,1,$1+$1,$4,$5,$6,$7,0*
20,1,$1+$1,$6,$7,$8,$9,0*
20,1,$1+$1,$8,$9,$2,$3,0*%
G04 Aperture macros list end*
%ADD10C,0.150000*%
%ADD11C,0.120000*%
%ADD12RoundRect,0.140000X-0.140000X-0.170000X0.140000X-0.170000X0.140000X0.170000X-0.140000X0.170000X0*%
%ADD13RoundRect,0.135000X-0.135000X-0.185000X0.135000X-0.185000X0.135000X0.185000X-0.135000X0.185000X0*%
%ADD14RoundRect,0.100000X-0.100000X0.562500X-0.100000X-0.562500X0.100000X-0.562500X0.100000X0.562500X0*%
%ADD15C,2.200000*%
%ADD16RoundRect,0.150000X0.150000X0.200000X-0.150000X0.200000X-0.150000X-0.200000X0.150000X-0.200000X0*%
%ADD17RoundRect,0.135000X-0.185000X0.135000X-0.185000X-0.135000X0.185000X-0.135000X0.185000X0.135000X0*%
%ADD18RoundRect,0.135000X0.135000X0.185000X-0.135000X0.185000X-0.135000X-0.185000X0.135000X-0.185000X0*%
%ADD19RoundRect,0.250000X-1.045000X0.785000X-1.045000X-0.785000X1.045000X-0.785000X1.045000X0.785000X0*%
%ADD20RoundRect,0.250000X-0.350000X-0.625000X0.350000X-0.625000X0.350000X0.625000X-0.350000X0.625000X0*%
%ADD21O,1.200000X1.750000*%
%ADD22RoundRect,0.150000X-0.150000X-0.200000X0.150000X-0.200000X0.150000X0.200000X-0.150000X0.200000X0*%
%ADD23RoundRect,0.112500X0.112500X-0.187500X0.112500X0.187500X-0.112500X0.187500X-0.112500X-0.187500X0*%
%ADD24RoundRect,0.150000X-0.587500X-0.150000X0.587500X-0.150000X0.587500X0.150000X-0.587500X0.150000X0*%
%ADD25RoundRect,0.062500X-0.350000X-0.062500X0.350000X-0.062500X0.350000X0.062500X-0.350000X0.062500X0*%
%ADD26RoundRect,0.062500X-0.062500X-0.350000X0.062500X-0.350000X0.062500X0.350000X-0.062500X0.350000X0*%
%ADD27R,2.600000X2.600000*%
%ADD28RoundRect,0.135000X0.185000X-0.135000X0.185000X0.135000X-0.185000X0.135000X-0.185000X-0.135000X0*%
%ADD29RoundRect,0.140000X-0.170000X0.140000X-0.170000X-0.140000X0.170000X-0.140000X0.170000X0.140000X0*%
%ADD30RoundRect,0.250000X-0.600000X-0.600000X0.600000X-0.600000X0.600000X0.600000X-0.600000X0.600000X0*%
%ADD31C,1.700000*%
%ADD32RoundRect,0.150000X-0.825000X-0.150000X0.825000X-0.150000X0.825000X0.150000X-0.825000X0.150000X0*%
%ADD33RoundRect,0.112500X-0.112500X0.187500X-0.112500X-0.187500X0.112500X-0.187500X0.112500X0.187500X0*%
%ADD34RoundRect,0.150000X-0.512500X-0.150000X0.512500X-0.150000X0.512500X0.150000X-0.512500X0.150000X0*%
%ADD35R,1.500000X0.900000*%
%ADD36R,0.900000X0.900000*%
%ADD37R,1.750000X0.700000*%
%ADD38R,1.000000X1.450000*%
%ADD39R,1.550000X1.000000*%
%ADD40R,1.500000X0.800000*%
%ADD41R,1.500000X1.300000*%
%ADD42R,1.500000X1.500000*%
%ADD43R,1.400000X0.800000*%
%ADD44C,0.650000*%
%ADD45RoundRect,0.150000X0.500000X-0.150000X0.500000X0.150000X-0.500000X0.150000X-0.500000X-0.150000X0*%
%ADD46RoundRect,0.075000X0.575000X-0.075000X0.575000X0.075000X-0.575000X0.075000X-0.575000X-0.075000X0*%
%ADD47O,2.100000X1.000000*%
%ADD48O,1.600000X1.000000*%
%ADD49RoundRect,0.250000X-0.625000X0.350000X-0.625000X-0.350000X0.625000X-0.350000X0.625000X0.350000X0*%
%ADD50O,1.750000X1.200000*%
G04 APERTURE END LIST*
D10*
X25853333Y-70699580D02*
X25805714Y-70747200D01*
X25805714Y-70747200D02*
X25662857Y-70794819D01*
X25662857Y-70794819D02*
X25567619Y-70794819D01*
X25567619Y-70794819D02*
X25424762Y-70747200D01*
X25424762Y-70747200D02*
X25329524Y-70651961D01*
X25329524Y-70651961D02*
X25281905Y-70556723D01*
X25281905Y-70556723D02*
X25234286Y-70366247D01*
X25234286Y-70366247D02*
X25234286Y-70223390D01*
X25234286Y-70223390D02*
X25281905Y-70032914D01*
X25281905Y-70032914D02*
X25329524Y-69937676D01*
X25329524Y-69937676D02*
X25424762Y-69842438D01*
X25424762Y-69842438D02*
X25567619Y-69794819D01*
X25567619Y-69794819D02*
X25662857Y-69794819D01*
X25662857Y-69794819D02*
X25805714Y-69842438D01*
X25805714Y-69842438D02*
X25853333Y-69890057D01*
X26758095Y-69794819D02*
X26281905Y-69794819D01*
X26281905Y-69794819D02*
X26234286Y-70271009D01*
X26234286Y-70271009D02*
X26281905Y-70223390D01*
X26281905Y-70223390D02*
X26377143Y-70175771D01*
X26377143Y-70175771D02*
X26615238Y-70175771D01*
X26615238Y-70175771D02*
X26710476Y-70223390D01*
X26710476Y-70223390D02*
X26758095Y-70271009D01*
X26758095Y-70271009D02*
X26805714Y-70366247D01*
X26805714Y-70366247D02*
X26805714Y-70604342D01*
X26805714Y-70604342D02*
X26758095Y-70699580D01*
X26758095Y-70699580D02*
X26710476Y-70747200D01*
X26710476Y-70747200D02*
X26615238Y-70794819D01*
X26615238Y-70794819D02*
X26377143Y-70794819D01*
X26377143Y-70794819D02*
X26281905Y-70747200D01*
X26281905Y-70747200D02*
X26234286Y-70699580D01*
X30343333Y-50784819D02*
X30010000Y-50308628D01*
X29771905Y-50784819D02*
X29771905Y-49784819D01*
X29771905Y-49784819D02*
X30152857Y-49784819D01*
X30152857Y-49784819D02*
X30248095Y-49832438D01*
X30248095Y-49832438D02*
X30295714Y-49880057D01*
X30295714Y-49880057D02*
X30343333Y-49975295D01*
X30343333Y-49975295D02*
X30343333Y-50118152D01*
X30343333Y-50118152D02*
X30295714Y-50213390D01*
X30295714Y-50213390D02*
X30248095Y-50261009D01*
X30248095Y-50261009D02*
X30152857Y-50308628D01*
X30152857Y-50308628D02*
X29771905Y-50308628D01*
X31200476Y-50118152D02*
X31200476Y-50784819D01*
X30962381Y-49737200D02*
X30724286Y-50451485D01*
X30724286Y-50451485D02*
X31343333Y-50451485D01*
X31550057Y-40595238D02*
X31502438Y-40690476D01*
X31502438Y-40690476D02*
X31407200Y-40785714D01*
X31407200Y-40785714D02*
X31264342Y-40928571D01*
X31264342Y-40928571D02*
X31216723Y-41023809D01*
X31216723Y-41023809D02*
X31216723Y-41119047D01*
X31454819Y-41071428D02*
X31407200Y-41166666D01*
X31407200Y-41166666D02*
X31311961Y-41261904D01*
X31311961Y-41261904D02*
X31121485Y-41309523D01*
X31121485Y-41309523D02*
X30788152Y-41309523D01*
X30788152Y-41309523D02*
X30597676Y-41261904D01*
X30597676Y-41261904D02*
X30502438Y-41166666D01*
X30502438Y-41166666D02*
X30454819Y-41071428D01*
X30454819Y-41071428D02*
X30454819Y-40880952D01*
X30454819Y-40880952D02*
X30502438Y-40785714D01*
X30502438Y-40785714D02*
X30597676Y-40690476D01*
X30597676Y-40690476D02*
X30788152Y-40642857D01*
X30788152Y-40642857D02*
X31121485Y-40642857D01*
X31121485Y-40642857D02*
X31311961Y-40690476D01*
X31311961Y-40690476D02*
X31407200Y-40785714D01*
X31407200Y-40785714D02*
X31454819Y-40880952D01*
X31454819Y-40880952D02*
X31454819Y-41071428D01*
X31454819Y-39690476D02*
X31454819Y-40261904D01*
X31454819Y-39976190D02*
X30454819Y-39976190D01*
X30454819Y-39976190D02*
X30597676Y-40071428D01*
X30597676Y-40071428D02*
X30692914Y-40166666D01*
X30692914Y-40166666D02*
X30740533Y-40261904D01*
X62261905Y-55154819D02*
X62261905Y-54154819D01*
X62261905Y-54154819D02*
X62500000Y-54154819D01*
X62500000Y-54154819D02*
X62642857Y-54202438D01*
X62642857Y-54202438D02*
X62738095Y-54297676D01*
X62738095Y-54297676D02*
X62785714Y-54392914D01*
X62785714Y-54392914D02*
X62833333Y-54583390D01*
X62833333Y-54583390D02*
X62833333Y-54726247D01*
X62833333Y-54726247D02*
X62785714Y-54916723D01*
X62785714Y-54916723D02*
X62738095Y-55011961D01*
X62738095Y-55011961D02*
X62642857Y-55107200D01*
X62642857Y-55107200D02*
X62500000Y-55154819D01*
X62500000Y-55154819D02*
X62261905Y-55154819D01*
X63690476Y-54488152D02*
X63690476Y-55154819D01*
X63452381Y-54107200D02*
X63214286Y-54821485D01*
X63214286Y-54821485D02*
X63833333Y-54821485D01*
X35833333Y-50699580D02*
X35785714Y-50747200D01*
X35785714Y-50747200D02*
X35642857Y-50794819D01*
X35642857Y-50794819D02*
X35547619Y-50794819D01*
X35547619Y-50794819D02*
X35404762Y-50747200D01*
X35404762Y-50747200D02*
X35309524Y-50651961D01*
X35309524Y-50651961D02*
X35261905Y-50556723D01*
X35261905Y-50556723D02*
X35214286Y-50366247D01*
X35214286Y-50366247D02*
X35214286Y-50223390D01*
X35214286Y-50223390D02*
X35261905Y-50032914D01*
X35261905Y-50032914D02*
X35309524Y-49937676D01*
X35309524Y-49937676D02*
X35404762Y-49842438D01*
X35404762Y-49842438D02*
X35547619Y-49794819D01*
X35547619Y-49794819D02*
X35642857Y-49794819D01*
X35642857Y-49794819D02*
X35785714Y-49842438D01*
X35785714Y-49842438D02*
X35833333Y-49890057D01*
X36166667Y-49794819D02*
X36833333Y-49794819D01*
X36833333Y-49794819D02*
X36404762Y-50794819D01*
X58111119Y-67142857D02*
X57634928Y-67476190D01*
X58111119Y-67714285D02*
X57111119Y-67714285D01*
X57111119Y-67714285D02*
X57111119Y-67333333D01*
X57111119Y-67333333D02*
X57158738Y-67238095D01*
X57158738Y-67238095D02*
X57206357Y-67190476D01*
X57206357Y-67190476D02*
X57301595Y-67142857D01*
X57301595Y-67142857D02*
X57444452Y-67142857D01*
X57444452Y-67142857D02*
X57539690Y-67190476D01*
X57539690Y-67190476D02*
X57587309Y-67238095D01*
X57587309Y-67238095D02*
X57634928Y-67333333D01*
X57634928Y-67333333D02*
X57634928Y-67714285D01*
X58111119Y-66190476D02*
X58111119Y-66761904D01*
X58111119Y-66476190D02*
X57111119Y-66476190D01*
X57111119Y-66476190D02*
X57253976Y-66571428D01*
X57253976Y-66571428D02*
X57349214Y-66666666D01*
X57349214Y-66666666D02*
X57396833Y-66761904D01*
X58111119Y-65714285D02*
X58111119Y-65523809D01*
X58111119Y-65523809D02*
X58063500Y-65428571D01*
X58063500Y-65428571D02*
X58015880Y-65380952D01*
X58015880Y-65380952D02*
X57873023Y-65285714D01*
X57873023Y-65285714D02*
X57682547Y-65238095D01*
X57682547Y-65238095D02*
X57301595Y-65238095D01*
X57301595Y-65238095D02*
X57206357Y-65285714D01*
X57206357Y-65285714D02*
X57158738Y-65333333D01*
X57158738Y-65333333D02*
X57111119Y-65428571D01*
X57111119Y-65428571D02*
X57111119Y-65619047D01*
X57111119Y-65619047D02*
X57158738Y-65714285D01*
X57158738Y-65714285D02*
X57206357Y-65761904D01*
X57206357Y-65761904D02*
X57301595Y-65809523D01*
X57301595Y-65809523D02*
X57539690Y-65809523D01*
X57539690Y-65809523D02*
X57634928Y-65761904D01*
X57634928Y-65761904D02*
X57682547Y-65714285D01*
X57682547Y-65714285D02*
X57730166Y-65619047D01*
X57730166Y-65619047D02*
X57730166Y-65428571D01*
X57730166Y-65428571D02*
X57682547Y-65333333D01*
X57682547Y-65333333D02*
X57634928Y-65285714D01*
X57634928Y-65285714D02*
X57539690Y-65238095D01*
X62357142Y-53124819D02*
X62023809Y-52648628D01*
X61785714Y-53124819D02*
X61785714Y-52124819D01*
X61785714Y-52124819D02*
X62166666Y-52124819D01*
X62166666Y-52124819D02*
X62261904Y-52172438D01*
X62261904Y-52172438D02*
X62309523Y-52220057D01*
X62309523Y-52220057D02*
X62357142Y-52315295D01*
X62357142Y-52315295D02*
X62357142Y-52458152D01*
X62357142Y-52458152D02*
X62309523Y-52553390D01*
X62309523Y-52553390D02*
X62261904Y-52601009D01*
X62261904Y-52601009D02*
X62166666Y-52648628D01*
X62166666Y-52648628D02*
X61785714Y-52648628D01*
X62738095Y-52220057D02*
X62785714Y-52172438D01*
X62785714Y-52172438D02*
X62880952Y-52124819D01*
X62880952Y-52124819D02*
X63119047Y-52124819D01*
X63119047Y-52124819D02*
X63214285Y-52172438D01*
X63214285Y-52172438D02*
X63261904Y-52220057D01*
X63261904Y-52220057D02*
X63309523Y-52315295D01*
X63309523Y-52315295D02*
X63309523Y-52410533D01*
X63309523Y-52410533D02*
X63261904Y-52553390D01*
X63261904Y-52553390D02*
X62690476Y-53124819D01*
X62690476Y-53124819D02*
X63309523Y-53124819D01*
X64166666Y-52458152D02*
X64166666Y-53124819D01*
X63928571Y-52077200D02*
X63690476Y-52791485D01*
X63690476Y-52791485D02*
X64309523Y-52791485D01*
X66347142Y-53124819D02*
X66013809Y-52648628D01*
X65775714Y-53124819D02*
X65775714Y-52124819D01*
X65775714Y-52124819D02*
X66156666Y-52124819D01*
X66156666Y-52124819D02*
X66251904Y-52172438D01*
X66251904Y-52172438D02*
X66299523Y-52220057D01*
X66299523Y-52220057D02*
X66347142Y-52315295D01*
X66347142Y-52315295D02*
X66347142Y-52458152D01*
X66347142Y-52458152D02*
X66299523Y-52553390D01*
X66299523Y-52553390D02*
X66251904Y-52601009D01*
X66251904Y-52601009D02*
X66156666Y-52648628D01*
X66156666Y-52648628D02*
X65775714Y-52648628D01*
X67299523Y-53124819D02*
X66728095Y-53124819D01*
X67013809Y-53124819D02*
X67013809Y-52124819D01*
X67013809Y-52124819D02*
X66918571Y-52267676D01*
X66918571Y-52267676D02*
X66823333Y-52362914D01*
X66823333Y-52362914D02*
X66728095Y-52410533D01*
X68156666Y-52124819D02*
X67966190Y-52124819D01*
X67966190Y-52124819D02*
X67870952Y-52172438D01*
X67870952Y-52172438D02*
X67823333Y-52220057D01*
X67823333Y-52220057D02*
X67728095Y-52362914D01*
X67728095Y-52362914D02*
X67680476Y-52553390D01*
X67680476Y-52553390D02*
X67680476Y-52934342D01*
X67680476Y-52934342D02*
X67728095Y-53029580D01*
X67728095Y-53029580D02*
X67775714Y-53077200D01*
X67775714Y-53077200D02*
X67870952Y-53124819D01*
X67870952Y-53124819D02*
X68061428Y-53124819D01*
X68061428Y-53124819D02*
X68156666Y-53077200D01*
X68156666Y-53077200D02*
X68204285Y-53029580D01*
X68204285Y-53029580D02*
X68251904Y-52934342D01*
X68251904Y-52934342D02*
X68251904Y-52696247D01*
X68251904Y-52696247D02*
X68204285Y-52601009D01*
X68204285Y-52601009D02*
X68156666Y-52553390D01*
X68156666Y-52553390D02*
X68061428Y-52505771D01*
X68061428Y-52505771D02*
X67870952Y-52505771D01*
X67870952Y-52505771D02*
X67775714Y-52553390D01*
X67775714Y-52553390D02*
X67728095Y-52601009D01*
X67728095Y-52601009D02*
X67680476Y-52696247D01*
X68359580Y-59642857D02*
X68407200Y-59690476D01*
X68407200Y-59690476D02*
X68454819Y-59833333D01*
X68454819Y-59833333D02*
X68454819Y-59928571D01*
X68454819Y-59928571D02*
X68407200Y-60071428D01*
X68407200Y-60071428D02*
X68311961Y-60166666D01*
X68311961Y-60166666D02*
X68216723Y-60214285D01*
X68216723Y-60214285D02*
X68026247Y-60261904D01*
X68026247Y-60261904D02*
X67883390Y-60261904D01*
X67883390Y-60261904D02*
X67692914Y-60214285D01*
X67692914Y-60214285D02*
X67597676Y-60166666D01*
X67597676Y-60166666D02*
X67502438Y-60071428D01*
X67502438Y-60071428D02*
X67454819Y-59928571D01*
X67454819Y-59928571D02*
X67454819Y-59833333D01*
X67454819Y-59833333D02*
X67502438Y-59690476D01*
X67502438Y-59690476D02*
X67550057Y-59642857D01*
X68454819Y-58690476D02*
X68454819Y-59261904D01*
X68454819Y-58976190D02*
X67454819Y-58976190D01*
X67454819Y-58976190D02*
X67597676Y-59071428D01*
X67597676Y-59071428D02*
X67692914Y-59166666D01*
X67692914Y-59166666D02*
X67740533Y-59261904D01*
X67550057Y-58309523D02*
X67502438Y-58261904D01*
X67502438Y-58261904D02*
X67454819Y-58166666D01*
X67454819Y-58166666D02*
X67454819Y-57928571D01*
X67454819Y-57928571D02*
X67502438Y-57833333D01*
X67502438Y-57833333D02*
X67550057Y-57785714D01*
X67550057Y-57785714D02*
X67645295Y-57738095D01*
X67645295Y-57738095D02*
X67740533Y-57738095D01*
X67740533Y-57738095D02*
X67883390Y-57785714D01*
X67883390Y-57785714D02*
X68454819Y-58357142D01*
X68454819Y-58357142D02*
X68454819Y-57738095D01*
X34343333Y-31284819D02*
X34010000Y-30808628D01*
X33771905Y-31284819D02*
X33771905Y-30284819D01*
X33771905Y-30284819D02*
X34152857Y-30284819D01*
X34152857Y-30284819D02*
X34248095Y-30332438D01*
X34248095Y-30332438D02*
X34295714Y-30380057D01*
X34295714Y-30380057D02*
X34343333Y-30475295D01*
X34343333Y-30475295D02*
X34343333Y-30618152D01*
X34343333Y-30618152D02*
X34295714Y-30713390D01*
X34295714Y-30713390D02*
X34248095Y-30761009D01*
X34248095Y-30761009D02*
X34152857Y-30808628D01*
X34152857Y-30808628D02*
X33771905Y-30808628D01*
X34819524Y-31284819D02*
X35010000Y-31284819D01*
X35010000Y-31284819D02*
X35105238Y-31237200D01*
X35105238Y-31237200D02*
X35152857Y-31189580D01*
X35152857Y-31189580D02*
X35248095Y-31046723D01*
X35248095Y-31046723D02*
X35295714Y-30856247D01*
X35295714Y-30856247D02*
X35295714Y-30475295D01*
X35295714Y-30475295D02*
X35248095Y-30380057D01*
X35248095Y-30380057D02*
X35200476Y-30332438D01*
X35200476Y-30332438D02*
X35105238Y-30284819D01*
X35105238Y-30284819D02*
X34914762Y-30284819D01*
X34914762Y-30284819D02*
X34819524Y-30332438D01*
X34819524Y-30332438D02*
X34771905Y-30380057D01*
X34771905Y-30380057D02*
X34724286Y-30475295D01*
X34724286Y-30475295D02*
X34724286Y-30713390D01*
X34724286Y-30713390D02*
X34771905Y-30808628D01*
X34771905Y-30808628D02*
X34819524Y-30856247D01*
X34819524Y-30856247D02*
X34914762Y-30903866D01*
X34914762Y-30903866D02*
X35105238Y-30903866D01*
X35105238Y-30903866D02*
X35200476Y-30856247D01*
X35200476Y-30856247D02*
X35248095Y-30808628D01*
X35248095Y-30808628D02*
X35295714Y-30713390D01*
X60880952Y-70454819D02*
X60880952Y-71169104D01*
X60880952Y-71169104D02*
X60833333Y-71311961D01*
X60833333Y-71311961D02*
X60738095Y-71407200D01*
X60738095Y-71407200D02*
X60595238Y-71454819D01*
X60595238Y-71454819D02*
X60500000Y-71454819D01*
X61119048Y-71550057D02*
X61880952Y-71550057D01*
X62452381Y-70931009D02*
X62595238Y-70978628D01*
X62595238Y-70978628D02*
X62642857Y-71026247D01*
X62642857Y-71026247D02*
X62690476Y-71121485D01*
X62690476Y-71121485D02*
X62690476Y-71264342D01*
X62690476Y-71264342D02*
X62642857Y-71359580D01*
X62642857Y-71359580D02*
X62595238Y-71407200D01*
X62595238Y-71407200D02*
X62500000Y-71454819D01*
X62500000Y-71454819D02*
X62119048Y-71454819D01*
X62119048Y-71454819D02*
X62119048Y-70454819D01*
X62119048Y-70454819D02*
X62452381Y-70454819D01*
X62452381Y-70454819D02*
X62547619Y-70502438D01*
X62547619Y-70502438D02*
X62595238Y-70550057D01*
X62595238Y-70550057D02*
X62642857Y-70645295D01*
X62642857Y-70645295D02*
X62642857Y-70740533D01*
X62642857Y-70740533D02*
X62595238Y-70835771D01*
X62595238Y-70835771D02*
X62547619Y-70883390D01*
X62547619Y-70883390D02*
X62452381Y-70931009D01*
X62452381Y-70931009D02*
X62119048Y-70931009D01*
X62976191Y-70454819D02*
X63547619Y-70454819D01*
X63261905Y-71454819D02*
X63261905Y-70454819D01*
X63880953Y-71454819D02*
X63880953Y-70454819D01*
X63880953Y-70454819D02*
X64452381Y-71454819D01*
X64452381Y-71454819D02*
X64452381Y-70454819D01*
X65452381Y-71454819D02*
X64880953Y-71454819D01*
X65166667Y-71454819D02*
X65166667Y-70454819D01*
X65166667Y-70454819D02*
X65071429Y-70597676D01*
X65071429Y-70597676D02*
X64976191Y-70692914D01*
X64976191Y-70692914D02*
X64880953Y-70740533D01*
X37061905Y-30954819D02*
X37061905Y-29954819D01*
X37061905Y-29954819D02*
X37300000Y-29954819D01*
X37300000Y-29954819D02*
X37442857Y-30002438D01*
X37442857Y-30002438D02*
X37538095Y-30097676D01*
X37538095Y-30097676D02*
X37585714Y-30192914D01*
X37585714Y-30192914D02*
X37633333Y-30383390D01*
X37633333Y-30383390D02*
X37633333Y-30526247D01*
X37633333Y-30526247D02*
X37585714Y-30716723D01*
X37585714Y-30716723D02*
X37538095Y-30811961D01*
X37538095Y-30811961D02*
X37442857Y-30907200D01*
X37442857Y-30907200D02*
X37300000Y-30954819D01*
X37300000Y-30954819D02*
X37061905Y-30954819D01*
X38490476Y-29954819D02*
X38300000Y-29954819D01*
X38300000Y-29954819D02*
X38204762Y-30002438D01*
X38204762Y-30002438D02*
X38157143Y-30050057D01*
X38157143Y-30050057D02*
X38061905Y-30192914D01*
X38061905Y-30192914D02*
X38014286Y-30383390D01*
X38014286Y-30383390D02*
X38014286Y-30764342D01*
X38014286Y-30764342D02*
X38061905Y-30859580D01*
X38061905Y-30859580D02*
X38109524Y-30907200D01*
X38109524Y-30907200D02*
X38204762Y-30954819D01*
X38204762Y-30954819D02*
X38395238Y-30954819D01*
X38395238Y-30954819D02*
X38490476Y-30907200D01*
X38490476Y-30907200D02*
X38538095Y-30859580D01*
X38538095Y-30859580D02*
X38585714Y-30764342D01*
X38585714Y-30764342D02*
X38585714Y-30526247D01*
X38585714Y-30526247D02*
X38538095Y-30431009D01*
X38538095Y-30431009D02*
X38490476Y-30383390D01*
X38490476Y-30383390D02*
X38395238Y-30335771D01*
X38395238Y-30335771D02*
X38204762Y-30335771D01*
X38204762Y-30335771D02*
X38109524Y-30383390D01*
X38109524Y-30383390D02*
X38061905Y-30431009D01*
X38061905Y-30431009D02*
X38014286Y-30526247D01*
X52867142Y-66284819D02*
X52533809Y-65808628D01*
X52295714Y-66284819D02*
X52295714Y-65284819D01*
X52295714Y-65284819D02*
X52676666Y-65284819D01*
X52676666Y-65284819D02*
X52771904Y-65332438D01*
X52771904Y-65332438D02*
X52819523Y-65380057D01*
X52819523Y-65380057D02*
X52867142Y-65475295D01*
X52867142Y-65475295D02*
X52867142Y-65618152D01*
X52867142Y-65618152D02*
X52819523Y-65713390D01*
X52819523Y-65713390D02*
X52771904Y-65761009D01*
X52771904Y-65761009D02*
X52676666Y-65808628D01*
X52676666Y-65808628D02*
X52295714Y-65808628D01*
X53819523Y-66284819D02*
X53248095Y-66284819D01*
X53533809Y-66284819D02*
X53533809Y-65284819D01*
X53533809Y-65284819D02*
X53438571Y-65427676D01*
X53438571Y-65427676D02*
X53343333Y-65522914D01*
X53343333Y-65522914D02*
X53248095Y-65570533D01*
X54724285Y-65284819D02*
X54248095Y-65284819D01*
X54248095Y-65284819D02*
X54200476Y-65761009D01*
X54200476Y-65761009D02*
X54248095Y-65713390D01*
X54248095Y-65713390D02*
X54343333Y-65665771D01*
X54343333Y-65665771D02*
X54581428Y-65665771D01*
X54581428Y-65665771D02*
X54676666Y-65713390D01*
X54676666Y-65713390D02*
X54724285Y-65761009D01*
X54724285Y-65761009D02*
X54771904Y-65856247D01*
X54771904Y-65856247D02*
X54771904Y-66094342D01*
X54771904Y-66094342D02*
X54724285Y-66189580D01*
X54724285Y-66189580D02*
X54676666Y-66237200D01*
X54676666Y-66237200D02*
X54581428Y-66284819D01*
X54581428Y-66284819D02*
X54343333Y-66284819D01*
X54343333Y-66284819D02*
X54248095Y-66237200D01*
X54248095Y-66237200D02*
X54200476Y-66189580D01*
X40454819Y-59738094D02*
X39454819Y-59738094D01*
X39454819Y-59738094D02*
X39454819Y-59499999D01*
X39454819Y-59499999D02*
X39502438Y-59357142D01*
X39502438Y-59357142D02*
X39597676Y-59261904D01*
X39597676Y-59261904D02*
X39692914Y-59214285D01*
X39692914Y-59214285D02*
X39883390Y-59166666D01*
X39883390Y-59166666D02*
X40026247Y-59166666D01*
X40026247Y-59166666D02*
X40216723Y-59214285D01*
X40216723Y-59214285D02*
X40311961Y-59261904D01*
X40311961Y-59261904D02*
X40407200Y-59357142D01*
X40407200Y-59357142D02*
X40454819Y-59499999D01*
X40454819Y-59499999D02*
X40454819Y-59738094D01*
X39883390Y-58595237D02*
X39835771Y-58690475D01*
X39835771Y-58690475D02*
X39788152Y-58738094D01*
X39788152Y-58738094D02*
X39692914Y-58785713D01*
X39692914Y-58785713D02*
X39645295Y-58785713D01*
X39645295Y-58785713D02*
X39550057Y-58738094D01*
X39550057Y-58738094D02*
X39502438Y-58690475D01*
X39502438Y-58690475D02*
X39454819Y-58595237D01*
X39454819Y-58595237D02*
X39454819Y-58404761D01*
X39454819Y-58404761D02*
X39502438Y-58309523D01*
X39502438Y-58309523D02*
X39550057Y-58261904D01*
X39550057Y-58261904D02*
X39645295Y-58214285D01*
X39645295Y-58214285D02*
X39692914Y-58214285D01*
X39692914Y-58214285D02*
X39788152Y-58261904D01*
X39788152Y-58261904D02*
X39835771Y-58309523D01*
X39835771Y-58309523D02*
X39883390Y-58404761D01*
X39883390Y-58404761D02*
X39883390Y-58595237D01*
X39883390Y-58595237D02*
X39931009Y-58690475D01*
X39931009Y-58690475D02*
X39978628Y-58738094D01*
X39978628Y-58738094D02*
X40073866Y-58785713D01*
X40073866Y-58785713D02*
X40264342Y-58785713D01*
X40264342Y-58785713D02*
X40359580Y-58738094D01*
X40359580Y-58738094D02*
X40407200Y-58690475D01*
X40407200Y-58690475D02*
X40454819Y-58595237D01*
X40454819Y-58595237D02*
X40454819Y-58404761D01*
X40454819Y-58404761D02*
X40407200Y-58309523D01*
X40407200Y-58309523D02*
X40359580Y-58261904D01*
X40359580Y-58261904D02*
X40264342Y-58214285D01*
X40264342Y-58214285D02*
X40073866Y-58214285D01*
X40073866Y-58214285D02*
X39978628Y-58261904D01*
X39978628Y-58261904D02*
X39931009Y-58309523D01*
X39931009Y-58309523D02*
X39883390Y-58404761D01*
X46467261Y-57150057D02*
X46372023Y-57102438D01*
X46372023Y-57102438D02*
X46276785Y-57007200D01*
X46276785Y-57007200D02*
X46133928Y-56864342D01*
X46133928Y-56864342D02*
X46038690Y-56816723D01*
X46038690Y-56816723D02*
X45943452Y-56816723D01*
X45991071Y-57054819D02*
X45895833Y-57007200D01*
X45895833Y-57007200D02*
X45800595Y-56911961D01*
X45800595Y-56911961D02*
X45752976Y-56721485D01*
X45752976Y-56721485D02*
X45752976Y-56388152D01*
X45752976Y-56388152D02*
X45800595Y-56197676D01*
X45800595Y-56197676D02*
X45895833Y-56102438D01*
X45895833Y-56102438D02*
X45991071Y-56054819D01*
X45991071Y-56054819D02*
X46181547Y-56054819D01*
X46181547Y-56054819D02*
X46276785Y-56102438D01*
X46276785Y-56102438D02*
X46372023Y-56197676D01*
X46372023Y-56197676D02*
X46419642Y-56388152D01*
X46419642Y-56388152D02*
X46419642Y-56721485D01*
X46419642Y-56721485D02*
X46372023Y-56911961D01*
X46372023Y-56911961D02*
X46276785Y-57007200D01*
X46276785Y-57007200D02*
X46181547Y-57054819D01*
X46181547Y-57054819D02*
X45991071Y-57054819D01*
X46800595Y-56150057D02*
X46848214Y-56102438D01*
X46848214Y-56102438D02*
X46943452Y-56054819D01*
X46943452Y-56054819D02*
X47181547Y-56054819D01*
X47181547Y-56054819D02*
X47276785Y-56102438D01*
X47276785Y-56102438D02*
X47324404Y-56150057D01*
X47324404Y-56150057D02*
X47372023Y-56245295D01*
X47372023Y-56245295D02*
X47372023Y-56340533D01*
X47372023Y-56340533D02*
X47324404Y-56483390D01*
X47324404Y-56483390D02*
X46752976Y-57054819D01*
X46752976Y-57054819D02*
X47372023Y-57054819D01*
X72549405Y-64754819D02*
X72549405Y-63754819D01*
X72549405Y-63754819D02*
X72787500Y-63754819D01*
X72787500Y-63754819D02*
X72930357Y-63802438D01*
X72930357Y-63802438D02*
X73025595Y-63897676D01*
X73025595Y-63897676D02*
X73073214Y-63992914D01*
X73073214Y-63992914D02*
X73120833Y-64183390D01*
X73120833Y-64183390D02*
X73120833Y-64326247D01*
X73120833Y-64326247D02*
X73073214Y-64516723D01*
X73073214Y-64516723D02*
X73025595Y-64611961D01*
X73025595Y-64611961D02*
X72930357Y-64707200D01*
X72930357Y-64707200D02*
X72787500Y-64754819D01*
X72787500Y-64754819D02*
X72549405Y-64754819D01*
X74025595Y-63754819D02*
X73549405Y-63754819D01*
X73549405Y-63754819D02*
X73501786Y-64231009D01*
X73501786Y-64231009D02*
X73549405Y-64183390D01*
X73549405Y-64183390D02*
X73644643Y-64135771D01*
X73644643Y-64135771D02*
X73882738Y-64135771D01*
X73882738Y-64135771D02*
X73977976Y-64183390D01*
X73977976Y-64183390D02*
X74025595Y-64231009D01*
X74025595Y-64231009D02*
X74073214Y-64326247D01*
X74073214Y-64326247D02*
X74073214Y-64564342D01*
X74073214Y-64564342D02*
X74025595Y-64659580D01*
X74025595Y-64659580D02*
X73977976Y-64707200D01*
X73977976Y-64707200D02*
X73882738Y-64754819D01*
X73882738Y-64754819D02*
X73644643Y-64754819D01*
X73644643Y-64754819D02*
X73549405Y-64707200D01*
X73549405Y-64707200D02*
X73501786Y-64659580D01*
X31343333Y-32784819D02*
X31010000Y-32308628D01*
X30771905Y-32784819D02*
X30771905Y-31784819D01*
X30771905Y-31784819D02*
X31152857Y-31784819D01*
X31152857Y-31784819D02*
X31248095Y-31832438D01*
X31248095Y-31832438D02*
X31295714Y-31880057D01*
X31295714Y-31880057D02*
X31343333Y-31975295D01*
X31343333Y-31975295D02*
X31343333Y-32118152D01*
X31343333Y-32118152D02*
X31295714Y-32213390D01*
X31295714Y-32213390D02*
X31248095Y-32261009D01*
X31248095Y-32261009D02*
X31152857Y-32308628D01*
X31152857Y-32308628D02*
X30771905Y-32308628D01*
X31724286Y-31880057D02*
X31771905Y-31832438D01*
X31771905Y-31832438D02*
X31867143Y-31784819D01*
X31867143Y-31784819D02*
X32105238Y-31784819D01*
X32105238Y-31784819D02*
X32200476Y-31832438D01*
X32200476Y-31832438D02*
X32248095Y-31880057D01*
X32248095Y-31880057D02*
X32295714Y-31975295D01*
X32295714Y-31975295D02*
X32295714Y-32070533D01*
X32295714Y-32070533D02*
X32248095Y-32213390D01*
X32248095Y-32213390D02*
X31676667Y-32784819D01*
X31676667Y-32784819D02*
X32295714Y-32784819D01*
X22347142Y-70784819D02*
X22013809Y-70308628D01*
X21775714Y-70784819D02*
X21775714Y-69784819D01*
X21775714Y-69784819D02*
X22156666Y-69784819D01*
X22156666Y-69784819D02*
X22251904Y-69832438D01*
X22251904Y-69832438D02*
X22299523Y-69880057D01*
X22299523Y-69880057D02*
X22347142Y-69975295D01*
X22347142Y-69975295D02*
X22347142Y-70118152D01*
X22347142Y-70118152D02*
X22299523Y-70213390D01*
X22299523Y-70213390D02*
X22251904Y-70261009D01*
X22251904Y-70261009D02*
X22156666Y-70308628D01*
X22156666Y-70308628D02*
X21775714Y-70308628D01*
X23299523Y-70784819D02*
X22728095Y-70784819D01*
X23013809Y-70784819D02*
X23013809Y-69784819D01*
X23013809Y-69784819D02*
X22918571Y-69927676D01*
X22918571Y-69927676D02*
X22823333Y-70022914D01*
X22823333Y-70022914D02*
X22728095Y-70070533D01*
X23632857Y-69784819D02*
X24299523Y-69784819D01*
X24299523Y-69784819D02*
X23870952Y-70784819D01*
X30333333Y-47784819D02*
X30000000Y-47308628D01*
X29761905Y-47784819D02*
X29761905Y-46784819D01*
X29761905Y-46784819D02*
X30142857Y-46784819D01*
X30142857Y-46784819D02*
X30238095Y-46832438D01*
X30238095Y-46832438D02*
X30285714Y-46880057D01*
X30285714Y-46880057D02*
X30333333Y-46975295D01*
X30333333Y-46975295D02*
X30333333Y-47118152D01*
X30333333Y-47118152D02*
X30285714Y-47213390D01*
X30285714Y-47213390D02*
X30238095Y-47261009D01*
X30238095Y-47261009D02*
X30142857Y-47308628D01*
X30142857Y-47308628D02*
X29761905Y-47308628D01*
X30666667Y-46784819D02*
X31285714Y-46784819D01*
X31285714Y-46784819D02*
X30952381Y-47165771D01*
X30952381Y-47165771D02*
X31095238Y-47165771D01*
X31095238Y-47165771D02*
X31190476Y-47213390D01*
X31190476Y-47213390D02*
X31238095Y-47261009D01*
X31238095Y-47261009D02*
X31285714Y-47356247D01*
X31285714Y-47356247D02*
X31285714Y-47594342D01*
X31285714Y-47594342D02*
X31238095Y-47689580D01*
X31238095Y-47689580D02*
X31190476Y-47737200D01*
X31190476Y-47737200D02*
X31095238Y-47784819D01*
X31095238Y-47784819D02*
X30809524Y-47784819D01*
X30809524Y-47784819D02*
X30714286Y-47737200D01*
X30714286Y-47737200D02*
X30666667Y-47689580D01*
X62784819Y-63632857D02*
X62308628Y-63966190D01*
X62784819Y-64204285D02*
X61784819Y-64204285D01*
X61784819Y-64204285D02*
X61784819Y-63823333D01*
X61784819Y-63823333D02*
X61832438Y-63728095D01*
X61832438Y-63728095D02*
X61880057Y-63680476D01*
X61880057Y-63680476D02*
X61975295Y-63632857D01*
X61975295Y-63632857D02*
X62118152Y-63632857D01*
X62118152Y-63632857D02*
X62213390Y-63680476D01*
X62213390Y-63680476D02*
X62261009Y-63728095D01*
X62261009Y-63728095D02*
X62308628Y-63823333D01*
X62308628Y-63823333D02*
X62308628Y-64204285D01*
X61880057Y-63251904D02*
X61832438Y-63204285D01*
X61832438Y-63204285D02*
X61784819Y-63109047D01*
X61784819Y-63109047D02*
X61784819Y-62870952D01*
X61784819Y-62870952D02*
X61832438Y-62775714D01*
X61832438Y-62775714D02*
X61880057Y-62728095D01*
X61880057Y-62728095D02*
X61975295Y-62680476D01*
X61975295Y-62680476D02*
X62070533Y-62680476D01*
X62070533Y-62680476D02*
X62213390Y-62728095D01*
X62213390Y-62728095D02*
X62784819Y-63299523D01*
X62784819Y-63299523D02*
X62784819Y-62680476D01*
X62784819Y-61728095D02*
X62784819Y-62299523D01*
X62784819Y-62013809D02*
X61784819Y-62013809D01*
X61784819Y-62013809D02*
X61927676Y-62109047D01*
X61927676Y-62109047D02*
X62022914Y-62204285D01*
X62022914Y-62204285D02*
X62070533Y-62299523D01*
X50019580Y-63186666D02*
X50067200Y-63234285D01*
X50067200Y-63234285D02*
X50114819Y-63377142D01*
X50114819Y-63377142D02*
X50114819Y-63472380D01*
X50114819Y-63472380D02*
X50067200Y-63615237D01*
X50067200Y-63615237D02*
X49971961Y-63710475D01*
X49971961Y-63710475D02*
X49876723Y-63758094D01*
X49876723Y-63758094D02*
X49686247Y-63805713D01*
X49686247Y-63805713D02*
X49543390Y-63805713D01*
X49543390Y-63805713D02*
X49352914Y-63758094D01*
X49352914Y-63758094D02*
X49257676Y-63710475D01*
X49257676Y-63710475D02*
X49162438Y-63615237D01*
X49162438Y-63615237D02*
X49114819Y-63472380D01*
X49114819Y-63472380D02*
X49114819Y-63377142D01*
X49114819Y-63377142D02*
X49162438Y-63234285D01*
X49162438Y-63234285D02*
X49210057Y-63186666D01*
X50114819Y-62710475D02*
X50114819Y-62519999D01*
X50114819Y-62519999D02*
X50067200Y-62424761D01*
X50067200Y-62424761D02*
X50019580Y-62377142D01*
X50019580Y-62377142D02*
X49876723Y-62281904D01*
X49876723Y-62281904D02*
X49686247Y-62234285D01*
X49686247Y-62234285D02*
X49305295Y-62234285D01*
X49305295Y-62234285D02*
X49210057Y-62281904D01*
X49210057Y-62281904D02*
X49162438Y-62329523D01*
X49162438Y-62329523D02*
X49114819Y-62424761D01*
X49114819Y-62424761D02*
X49114819Y-62615237D01*
X49114819Y-62615237D02*
X49162438Y-62710475D01*
X49162438Y-62710475D02*
X49210057Y-62758094D01*
X49210057Y-62758094D02*
X49305295Y-62805713D01*
X49305295Y-62805713D02*
X49543390Y-62805713D01*
X49543390Y-62805713D02*
X49638628Y-62758094D01*
X49638628Y-62758094D02*
X49686247Y-62710475D01*
X49686247Y-62710475D02*
X49733866Y-62615237D01*
X49733866Y-62615237D02*
X49733866Y-62424761D01*
X49733866Y-62424761D02*
X49686247Y-62329523D01*
X49686247Y-62329523D02*
X49638628Y-62281904D01*
X49638628Y-62281904D02*
X49543390Y-62234285D01*
X35377142Y-44784819D02*
X35043809Y-44308628D01*
X34805714Y-44784819D02*
X34805714Y-43784819D01*
X34805714Y-43784819D02*
X35186666Y-43784819D01*
X35186666Y-43784819D02*
X35281904Y-43832438D01*
X35281904Y-43832438D02*
X35329523Y-43880057D01*
X35329523Y-43880057D02*
X35377142Y-43975295D01*
X35377142Y-43975295D02*
X35377142Y-44118152D01*
X35377142Y-44118152D02*
X35329523Y-44213390D01*
X35329523Y-44213390D02*
X35281904Y-44261009D01*
X35281904Y-44261009D02*
X35186666Y-44308628D01*
X35186666Y-44308628D02*
X34805714Y-44308628D01*
X36329523Y-44784819D02*
X35758095Y-44784819D01*
X36043809Y-44784819D02*
X36043809Y-43784819D01*
X36043809Y-43784819D02*
X35948571Y-43927676D01*
X35948571Y-43927676D02*
X35853333Y-44022914D01*
X35853333Y-44022914D02*
X35758095Y-44070533D01*
X36710476Y-43880057D02*
X36758095Y-43832438D01*
X36758095Y-43832438D02*
X36853333Y-43784819D01*
X36853333Y-43784819D02*
X37091428Y-43784819D01*
X37091428Y-43784819D02*
X37186666Y-43832438D01*
X37186666Y-43832438D02*
X37234285Y-43880057D01*
X37234285Y-43880057D02*
X37281904Y-43975295D01*
X37281904Y-43975295D02*
X37281904Y-44070533D01*
X37281904Y-44070533D02*
X37234285Y-44213390D01*
X37234285Y-44213390D02*
X36662857Y-44784819D01*
X36662857Y-44784819D02*
X37281904Y-44784819D01*
X69347142Y-68954819D02*
X69013809Y-68478628D01*
X68775714Y-68954819D02*
X68775714Y-67954819D01*
X68775714Y-67954819D02*
X69156666Y-67954819D01*
X69156666Y-67954819D02*
X69251904Y-68002438D01*
X69251904Y-68002438D02*
X69299523Y-68050057D01*
X69299523Y-68050057D02*
X69347142Y-68145295D01*
X69347142Y-68145295D02*
X69347142Y-68288152D01*
X69347142Y-68288152D02*
X69299523Y-68383390D01*
X69299523Y-68383390D02*
X69251904Y-68431009D01*
X69251904Y-68431009D02*
X69156666Y-68478628D01*
X69156666Y-68478628D02*
X68775714Y-68478628D01*
X69728095Y-68050057D02*
X69775714Y-68002438D01*
X69775714Y-68002438D02*
X69870952Y-67954819D01*
X69870952Y-67954819D02*
X70109047Y-67954819D01*
X70109047Y-67954819D02*
X70204285Y-68002438D01*
X70204285Y-68002438D02*
X70251904Y-68050057D01*
X70251904Y-68050057D02*
X70299523Y-68145295D01*
X70299523Y-68145295D02*
X70299523Y-68240533D01*
X70299523Y-68240533D02*
X70251904Y-68383390D01*
X70251904Y-68383390D02*
X69680476Y-68954819D01*
X69680476Y-68954819D02*
X70299523Y-68954819D01*
X71156666Y-67954819D02*
X70966190Y-67954819D01*
X70966190Y-67954819D02*
X70870952Y-68002438D01*
X70870952Y-68002438D02*
X70823333Y-68050057D01*
X70823333Y-68050057D02*
X70728095Y-68192914D01*
X70728095Y-68192914D02*
X70680476Y-68383390D01*
X70680476Y-68383390D02*
X70680476Y-68764342D01*
X70680476Y-68764342D02*
X70728095Y-68859580D01*
X70728095Y-68859580D02*
X70775714Y-68907200D01*
X70775714Y-68907200D02*
X70870952Y-68954819D01*
X70870952Y-68954819D02*
X71061428Y-68954819D01*
X71061428Y-68954819D02*
X71156666Y-68907200D01*
X71156666Y-68907200D02*
X71204285Y-68859580D01*
X71204285Y-68859580D02*
X71251904Y-68764342D01*
X71251904Y-68764342D02*
X71251904Y-68526247D01*
X71251904Y-68526247D02*
X71204285Y-68431009D01*
X71204285Y-68431009D02*
X71156666Y-68383390D01*
X71156666Y-68383390D02*
X71061428Y-68335771D01*
X71061428Y-68335771D02*
X70870952Y-68335771D01*
X70870952Y-68335771D02*
X70775714Y-68383390D01*
X70775714Y-68383390D02*
X70728095Y-68431009D01*
X70728095Y-68431009D02*
X70680476Y-68526247D01*
X28847142Y-70954819D02*
X28513809Y-70478628D01*
X28275714Y-70954819D02*
X28275714Y-69954819D01*
X28275714Y-69954819D02*
X28656666Y-69954819D01*
X28656666Y-69954819D02*
X28751904Y-70002438D01*
X28751904Y-70002438D02*
X28799523Y-70050057D01*
X28799523Y-70050057D02*
X28847142Y-70145295D01*
X28847142Y-70145295D02*
X28847142Y-70288152D01*
X28847142Y-70288152D02*
X28799523Y-70383390D01*
X28799523Y-70383390D02*
X28751904Y-70431009D01*
X28751904Y-70431009D02*
X28656666Y-70478628D01*
X28656666Y-70478628D02*
X28275714Y-70478628D01*
X29799523Y-70954819D02*
X29228095Y-70954819D01*
X29513809Y-70954819D02*
X29513809Y-69954819D01*
X29513809Y-69954819D02*
X29418571Y-70097676D01*
X29418571Y-70097676D02*
X29323333Y-70192914D01*
X29323333Y-70192914D02*
X29228095Y-70240533D01*
X30418571Y-69954819D02*
X30513809Y-69954819D01*
X30513809Y-69954819D02*
X30609047Y-70002438D01*
X30609047Y-70002438D02*
X30656666Y-70050057D01*
X30656666Y-70050057D02*
X30704285Y-70145295D01*
X30704285Y-70145295D02*
X30751904Y-70335771D01*
X30751904Y-70335771D02*
X30751904Y-70573866D01*
X30751904Y-70573866D02*
X30704285Y-70764342D01*
X30704285Y-70764342D02*
X30656666Y-70859580D01*
X30656666Y-70859580D02*
X30609047Y-70907200D01*
X30609047Y-70907200D02*
X30513809Y-70954819D01*
X30513809Y-70954819D02*
X30418571Y-70954819D01*
X30418571Y-70954819D02*
X30323333Y-70907200D01*
X30323333Y-70907200D02*
X30275714Y-70859580D01*
X30275714Y-70859580D02*
X30228095Y-70764342D01*
X30228095Y-70764342D02*
X30180476Y-70573866D01*
X30180476Y-70573866D02*
X30180476Y-70335771D01*
X30180476Y-70335771D02*
X30228095Y-70145295D01*
X30228095Y-70145295D02*
X30275714Y-70050057D01*
X30275714Y-70050057D02*
X30323333Y-70002438D01*
X30323333Y-70002438D02*
X30418571Y-69954819D01*
X28519580Y-75162857D02*
X28567200Y-75210476D01*
X28567200Y-75210476D02*
X28614819Y-75353333D01*
X28614819Y-75353333D02*
X28614819Y-75448571D01*
X28614819Y-75448571D02*
X28567200Y-75591428D01*
X28567200Y-75591428D02*
X28471961Y-75686666D01*
X28471961Y-75686666D02*
X28376723Y-75734285D01*
X28376723Y-75734285D02*
X28186247Y-75781904D01*
X28186247Y-75781904D02*
X28043390Y-75781904D01*
X28043390Y-75781904D02*
X27852914Y-75734285D01*
X27852914Y-75734285D02*
X27757676Y-75686666D01*
X27757676Y-75686666D02*
X27662438Y-75591428D01*
X27662438Y-75591428D02*
X27614819Y-75448571D01*
X27614819Y-75448571D02*
X27614819Y-75353333D01*
X27614819Y-75353333D02*
X27662438Y-75210476D01*
X27662438Y-75210476D02*
X27710057Y-75162857D01*
X28614819Y-74210476D02*
X28614819Y-74781904D01*
X28614819Y-74496190D02*
X27614819Y-74496190D01*
X27614819Y-74496190D02*
X27757676Y-74591428D01*
X27757676Y-74591428D02*
X27852914Y-74686666D01*
X27852914Y-74686666D02*
X27900533Y-74781904D01*
X28614819Y-73258095D02*
X28614819Y-73829523D01*
X28614819Y-73543809D02*
X27614819Y-73543809D01*
X27614819Y-73543809D02*
X27757676Y-73639047D01*
X27757676Y-73639047D02*
X27852914Y-73734285D01*
X27852914Y-73734285D02*
X27900533Y-73829523D01*
X57124819Y-63166666D02*
X56648628Y-63499999D01*
X57124819Y-63738094D02*
X56124819Y-63738094D01*
X56124819Y-63738094D02*
X56124819Y-63357142D01*
X56124819Y-63357142D02*
X56172438Y-63261904D01*
X56172438Y-63261904D02*
X56220057Y-63214285D01*
X56220057Y-63214285D02*
X56315295Y-63166666D01*
X56315295Y-63166666D02*
X56458152Y-63166666D01*
X56458152Y-63166666D02*
X56553390Y-63214285D01*
X56553390Y-63214285D02*
X56601009Y-63261904D01*
X56601009Y-63261904D02*
X56648628Y-63357142D01*
X56648628Y-63357142D02*
X56648628Y-63738094D01*
X56124819Y-62261904D02*
X56124819Y-62738094D01*
X56124819Y-62738094D02*
X56601009Y-62785713D01*
X56601009Y-62785713D02*
X56553390Y-62738094D01*
X56553390Y-62738094D02*
X56505771Y-62642856D01*
X56505771Y-62642856D02*
X56505771Y-62404761D01*
X56505771Y-62404761D02*
X56553390Y-62309523D01*
X56553390Y-62309523D02*
X56601009Y-62261904D01*
X56601009Y-62261904D02*
X56696247Y-62214285D01*
X56696247Y-62214285D02*
X56934342Y-62214285D01*
X56934342Y-62214285D02*
X57029580Y-62261904D01*
X57029580Y-62261904D02*
X57077200Y-62309523D01*
X57077200Y-62309523D02*
X57124819Y-62404761D01*
X57124819Y-62404761D02*
X57124819Y-62642856D01*
X57124819Y-62642856D02*
X57077200Y-62738094D01*
X57077200Y-62738094D02*
X57029580Y-62785713D01*
X30333333Y-44784819D02*
X30000000Y-44308628D01*
X29761905Y-44784819D02*
X29761905Y-43784819D01*
X29761905Y-43784819D02*
X30142857Y-43784819D01*
X30142857Y-43784819D02*
X30238095Y-43832438D01*
X30238095Y-43832438D02*
X30285714Y-43880057D01*
X30285714Y-43880057D02*
X30333333Y-43975295D01*
X30333333Y-43975295D02*
X30333333Y-44118152D01*
X30333333Y-44118152D02*
X30285714Y-44213390D01*
X30285714Y-44213390D02*
X30238095Y-44261009D01*
X30238095Y-44261009D02*
X30142857Y-44308628D01*
X30142857Y-44308628D02*
X29761905Y-44308628D01*
X31285714Y-44784819D02*
X30714286Y-44784819D01*
X31000000Y-44784819D02*
X31000000Y-43784819D01*
X31000000Y-43784819D02*
X30904762Y-43927676D01*
X30904762Y-43927676D02*
X30809524Y-44022914D01*
X30809524Y-44022914D02*
X30714286Y-44070533D01*
X32347142Y-70784819D02*
X32013809Y-70308628D01*
X31775714Y-70784819D02*
X31775714Y-69784819D01*
X31775714Y-69784819D02*
X32156666Y-69784819D01*
X32156666Y-69784819D02*
X32251904Y-69832438D01*
X32251904Y-69832438D02*
X32299523Y-69880057D01*
X32299523Y-69880057D02*
X32347142Y-69975295D01*
X32347142Y-69975295D02*
X32347142Y-70118152D01*
X32347142Y-70118152D02*
X32299523Y-70213390D01*
X32299523Y-70213390D02*
X32251904Y-70261009D01*
X32251904Y-70261009D02*
X32156666Y-70308628D01*
X32156666Y-70308628D02*
X31775714Y-70308628D01*
X33299523Y-70784819D02*
X32728095Y-70784819D01*
X33013809Y-70784819D02*
X33013809Y-69784819D01*
X33013809Y-69784819D02*
X32918571Y-69927676D01*
X32918571Y-69927676D02*
X32823333Y-70022914D01*
X32823333Y-70022914D02*
X32728095Y-70070533D01*
X34251904Y-70784819D02*
X33680476Y-70784819D01*
X33966190Y-70784819D02*
X33966190Y-69784819D01*
X33966190Y-69784819D02*
X33870952Y-69927676D01*
X33870952Y-69927676D02*
X33775714Y-70022914D01*
X33775714Y-70022914D02*
X33680476Y-70070533D01*
X60624819Y-63642857D02*
X60148628Y-63976190D01*
X60624819Y-64214285D02*
X59624819Y-64214285D01*
X59624819Y-64214285D02*
X59624819Y-63833333D01*
X59624819Y-63833333D02*
X59672438Y-63738095D01*
X59672438Y-63738095D02*
X59720057Y-63690476D01*
X59720057Y-63690476D02*
X59815295Y-63642857D01*
X59815295Y-63642857D02*
X59958152Y-63642857D01*
X59958152Y-63642857D02*
X60053390Y-63690476D01*
X60053390Y-63690476D02*
X60101009Y-63738095D01*
X60101009Y-63738095D02*
X60148628Y-63833333D01*
X60148628Y-63833333D02*
X60148628Y-64214285D01*
X59720057Y-63261904D02*
X59672438Y-63214285D01*
X59672438Y-63214285D02*
X59624819Y-63119047D01*
X59624819Y-63119047D02*
X59624819Y-62880952D01*
X59624819Y-62880952D02*
X59672438Y-62785714D01*
X59672438Y-62785714D02*
X59720057Y-62738095D01*
X59720057Y-62738095D02*
X59815295Y-62690476D01*
X59815295Y-62690476D02*
X59910533Y-62690476D01*
X59910533Y-62690476D02*
X60053390Y-62738095D01*
X60053390Y-62738095D02*
X60624819Y-63309523D01*
X60624819Y-63309523D02*
X60624819Y-62690476D01*
X59624819Y-62071428D02*
X59624819Y-61976190D01*
X59624819Y-61976190D02*
X59672438Y-61880952D01*
X59672438Y-61880952D02*
X59720057Y-61833333D01*
X59720057Y-61833333D02*
X59815295Y-61785714D01*
X59815295Y-61785714D02*
X60005771Y-61738095D01*
X60005771Y-61738095D02*
X60243866Y-61738095D01*
X60243866Y-61738095D02*
X60434342Y-61785714D01*
X60434342Y-61785714D02*
X60529580Y-61833333D01*
X60529580Y-61833333D02*
X60577200Y-61880952D01*
X60577200Y-61880952D02*
X60624819Y-61976190D01*
X60624819Y-61976190D02*
X60624819Y-62071428D01*
X60624819Y-62071428D02*
X60577200Y-62166666D01*
X60577200Y-62166666D02*
X60529580Y-62214285D01*
X60529580Y-62214285D02*
X60434342Y-62261904D01*
X60434342Y-62261904D02*
X60243866Y-62309523D01*
X60243866Y-62309523D02*
X60005771Y-62309523D01*
X60005771Y-62309523D02*
X59815295Y-62261904D01*
X59815295Y-62261904D02*
X59720057Y-62214285D01*
X59720057Y-62214285D02*
X59672438Y-62166666D01*
X59672438Y-62166666D02*
X59624819Y-62071428D01*
X21847142Y-50784819D02*
X21513809Y-50308628D01*
X21275714Y-50784819D02*
X21275714Y-49784819D01*
X21275714Y-49784819D02*
X21656666Y-49784819D01*
X21656666Y-49784819D02*
X21751904Y-49832438D01*
X21751904Y-49832438D02*
X21799523Y-49880057D01*
X21799523Y-49880057D02*
X21847142Y-49975295D01*
X21847142Y-49975295D02*
X21847142Y-50118152D01*
X21847142Y-50118152D02*
X21799523Y-50213390D01*
X21799523Y-50213390D02*
X21751904Y-50261009D01*
X21751904Y-50261009D02*
X21656666Y-50308628D01*
X21656666Y-50308628D02*
X21275714Y-50308628D01*
X22228095Y-49880057D02*
X22275714Y-49832438D01*
X22275714Y-49832438D02*
X22370952Y-49784819D01*
X22370952Y-49784819D02*
X22609047Y-49784819D01*
X22609047Y-49784819D02*
X22704285Y-49832438D01*
X22704285Y-49832438D02*
X22751904Y-49880057D01*
X22751904Y-49880057D02*
X22799523Y-49975295D01*
X22799523Y-49975295D02*
X22799523Y-50070533D01*
X22799523Y-50070533D02*
X22751904Y-50213390D01*
X22751904Y-50213390D02*
X22180476Y-50784819D01*
X22180476Y-50784819D02*
X22799523Y-50784819D01*
X23370952Y-50213390D02*
X23275714Y-50165771D01*
X23275714Y-50165771D02*
X23228095Y-50118152D01*
X23228095Y-50118152D02*
X23180476Y-50022914D01*
X23180476Y-50022914D02*
X23180476Y-49975295D01*
X23180476Y-49975295D02*
X23228095Y-49880057D01*
X23228095Y-49880057D02*
X23275714Y-49832438D01*
X23275714Y-49832438D02*
X23370952Y-49784819D01*
X23370952Y-49784819D02*
X23561428Y-49784819D01*
X23561428Y-49784819D02*
X23656666Y-49832438D01*
X23656666Y-49832438D02*
X23704285Y-49880057D01*
X23704285Y-49880057D02*
X23751904Y-49975295D01*
X23751904Y-49975295D02*
X23751904Y-50022914D01*
X23751904Y-50022914D02*
X23704285Y-50118152D01*
X23704285Y-50118152D02*
X23656666Y-50165771D01*
X23656666Y-50165771D02*
X23561428Y-50213390D01*
X23561428Y-50213390D02*
X23370952Y-50213390D01*
X23370952Y-50213390D02*
X23275714Y-50261009D01*
X23275714Y-50261009D02*
X23228095Y-50308628D01*
X23228095Y-50308628D02*
X23180476Y-50403866D01*
X23180476Y-50403866D02*
X23180476Y-50594342D01*
X23180476Y-50594342D02*
X23228095Y-50689580D01*
X23228095Y-50689580D02*
X23275714Y-50737200D01*
X23275714Y-50737200D02*
X23370952Y-50784819D01*
X23370952Y-50784819D02*
X23561428Y-50784819D01*
X23561428Y-50784819D02*
X23656666Y-50737200D01*
X23656666Y-50737200D02*
X23704285Y-50689580D01*
X23704285Y-50689580D02*
X23751904Y-50594342D01*
X23751904Y-50594342D02*
X23751904Y-50403866D01*
X23751904Y-50403866D02*
X23704285Y-50308628D01*
X23704285Y-50308628D02*
X23656666Y-50261009D01*
X23656666Y-50261009D02*
X23561428Y-50213390D01*
X64713095Y-36864819D02*
X64713095Y-37674342D01*
X64713095Y-37674342D02*
X64760714Y-37769580D01*
X64760714Y-37769580D02*
X64808333Y-37817200D01*
X64808333Y-37817200D02*
X64903571Y-37864819D01*
X64903571Y-37864819D02*
X65094047Y-37864819D01*
X65094047Y-37864819D02*
X65189285Y-37817200D01*
X65189285Y-37817200D02*
X65236904Y-37769580D01*
X65236904Y-37769580D02*
X65284523Y-37674342D01*
X65284523Y-37674342D02*
X65284523Y-36864819D01*
X66189285Y-37198152D02*
X66189285Y-37864819D01*
X65951190Y-36817200D02*
X65713095Y-37531485D01*
X65713095Y-37531485D02*
X66332142Y-37531485D01*
X37214285Y-70454819D02*
X37214285Y-71169104D01*
X37214285Y-71169104D02*
X37166666Y-71311961D01*
X37166666Y-71311961D02*
X37071428Y-71407200D01*
X37071428Y-71407200D02*
X36928571Y-71454819D01*
X36928571Y-71454819D02*
X36833333Y-71454819D01*
X37452381Y-71550057D02*
X38214285Y-71550057D01*
X38452381Y-71454819D02*
X38452381Y-70454819D01*
X38452381Y-70454819D02*
X38833333Y-70454819D01*
X38833333Y-70454819D02*
X38928571Y-70502438D01*
X38928571Y-70502438D02*
X38976190Y-70550057D01*
X38976190Y-70550057D02*
X39023809Y-70645295D01*
X39023809Y-70645295D02*
X39023809Y-70788152D01*
X39023809Y-70788152D02*
X38976190Y-70883390D01*
X38976190Y-70883390D02*
X38928571Y-70931009D01*
X38928571Y-70931009D02*
X38833333Y-70978628D01*
X38833333Y-70978628D02*
X38452381Y-70978628D01*
X39357143Y-70454819D02*
X39595238Y-71454819D01*
X39595238Y-71454819D02*
X39785714Y-70740533D01*
X39785714Y-70740533D02*
X39976190Y-71454819D01*
X39976190Y-71454819D02*
X40214286Y-70454819D01*
X41166666Y-71454819D02*
X40833333Y-70978628D01*
X40595238Y-71454819D02*
X40595238Y-70454819D01*
X40595238Y-70454819D02*
X40976190Y-70454819D01*
X40976190Y-70454819D02*
X41071428Y-70502438D01*
X41071428Y-70502438D02*
X41119047Y-70550057D01*
X41119047Y-70550057D02*
X41166666Y-70645295D01*
X41166666Y-70645295D02*
X41166666Y-70788152D01*
X41166666Y-70788152D02*
X41119047Y-70883390D01*
X41119047Y-70883390D02*
X41071428Y-70931009D01*
X41071428Y-70931009D02*
X40976190Y-70978628D01*
X40976190Y-70978628D02*
X40595238Y-70978628D01*
X42119047Y-71454819D02*
X41547619Y-71454819D01*
X41833333Y-71454819D02*
X41833333Y-70454819D01*
X41833333Y-70454819D02*
X41738095Y-70597676D01*
X41738095Y-70597676D02*
X41642857Y-70692914D01*
X41642857Y-70692914D02*
X41547619Y-70740533D01*
X48867142Y-66284819D02*
X48533809Y-65808628D01*
X48295714Y-66284819D02*
X48295714Y-65284819D01*
X48295714Y-65284819D02*
X48676666Y-65284819D01*
X48676666Y-65284819D02*
X48771904Y-65332438D01*
X48771904Y-65332438D02*
X48819523Y-65380057D01*
X48819523Y-65380057D02*
X48867142Y-65475295D01*
X48867142Y-65475295D02*
X48867142Y-65618152D01*
X48867142Y-65618152D02*
X48819523Y-65713390D01*
X48819523Y-65713390D02*
X48771904Y-65761009D01*
X48771904Y-65761009D02*
X48676666Y-65808628D01*
X48676666Y-65808628D02*
X48295714Y-65808628D01*
X49819523Y-66284819D02*
X49248095Y-66284819D01*
X49533809Y-66284819D02*
X49533809Y-65284819D01*
X49533809Y-65284819D02*
X49438571Y-65427676D01*
X49438571Y-65427676D02*
X49343333Y-65522914D01*
X49343333Y-65522914D02*
X49248095Y-65570533D01*
X50152857Y-65284819D02*
X50771904Y-65284819D01*
X50771904Y-65284819D02*
X50438571Y-65665771D01*
X50438571Y-65665771D02*
X50581428Y-65665771D01*
X50581428Y-65665771D02*
X50676666Y-65713390D01*
X50676666Y-65713390D02*
X50724285Y-65761009D01*
X50724285Y-65761009D02*
X50771904Y-65856247D01*
X50771904Y-65856247D02*
X50771904Y-66094342D01*
X50771904Y-66094342D02*
X50724285Y-66189580D01*
X50724285Y-66189580D02*
X50676666Y-66237200D01*
X50676666Y-66237200D02*
X50581428Y-66284819D01*
X50581428Y-66284819D02*
X50295714Y-66284819D01*
X50295714Y-66284819D02*
X50200476Y-66237200D01*
X50200476Y-66237200D02*
X50152857Y-66189580D01*
X31323333Y-35784819D02*
X30990000Y-35308628D01*
X30751905Y-35784819D02*
X30751905Y-34784819D01*
X30751905Y-34784819D02*
X31132857Y-34784819D01*
X31132857Y-34784819D02*
X31228095Y-34832438D01*
X31228095Y-34832438D02*
X31275714Y-34880057D01*
X31275714Y-34880057D02*
X31323333Y-34975295D01*
X31323333Y-34975295D02*
X31323333Y-35118152D01*
X31323333Y-35118152D02*
X31275714Y-35213390D01*
X31275714Y-35213390D02*
X31228095Y-35261009D01*
X31228095Y-35261009D02*
X31132857Y-35308628D01*
X31132857Y-35308628D02*
X30751905Y-35308628D01*
X32180476Y-34784819D02*
X31990000Y-34784819D01*
X31990000Y-34784819D02*
X31894762Y-34832438D01*
X31894762Y-34832438D02*
X31847143Y-34880057D01*
X31847143Y-34880057D02*
X31751905Y-35022914D01*
X31751905Y-35022914D02*
X31704286Y-35213390D01*
X31704286Y-35213390D02*
X31704286Y-35594342D01*
X31704286Y-35594342D02*
X31751905Y-35689580D01*
X31751905Y-35689580D02*
X31799524Y-35737200D01*
X31799524Y-35737200D02*
X31894762Y-35784819D01*
X31894762Y-35784819D02*
X32085238Y-35784819D01*
X32085238Y-35784819D02*
X32180476Y-35737200D01*
X32180476Y-35737200D02*
X32228095Y-35689580D01*
X32228095Y-35689580D02*
X32275714Y-35594342D01*
X32275714Y-35594342D02*
X32275714Y-35356247D01*
X32275714Y-35356247D02*
X32228095Y-35261009D01*
X32228095Y-35261009D02*
X32180476Y-35213390D01*
X32180476Y-35213390D02*
X32085238Y-35165771D01*
X32085238Y-35165771D02*
X31894762Y-35165771D01*
X31894762Y-35165771D02*
X31799524Y-35213390D01*
X31799524Y-35213390D02*
X31751905Y-35261009D01*
X31751905Y-35261009D02*
X31704286Y-35356247D01*
X51967261Y-57100057D02*
X51872023Y-57052438D01*
X51872023Y-57052438D02*
X51776785Y-56957200D01*
X51776785Y-56957200D02*
X51633928Y-56814342D01*
X51633928Y-56814342D02*
X51538690Y-56766723D01*
X51538690Y-56766723D02*
X51443452Y-56766723D01*
X51491071Y-57004819D02*
X51395833Y-56957200D01*
X51395833Y-56957200D02*
X51300595Y-56861961D01*
X51300595Y-56861961D02*
X51252976Y-56671485D01*
X51252976Y-56671485D02*
X51252976Y-56338152D01*
X51252976Y-56338152D02*
X51300595Y-56147676D01*
X51300595Y-56147676D02*
X51395833Y-56052438D01*
X51395833Y-56052438D02*
X51491071Y-56004819D01*
X51491071Y-56004819D02*
X51681547Y-56004819D01*
X51681547Y-56004819D02*
X51776785Y-56052438D01*
X51776785Y-56052438D02*
X51872023Y-56147676D01*
X51872023Y-56147676D02*
X51919642Y-56338152D01*
X51919642Y-56338152D02*
X51919642Y-56671485D01*
X51919642Y-56671485D02*
X51872023Y-56861961D01*
X51872023Y-56861961D02*
X51776785Y-56957200D01*
X51776785Y-56957200D02*
X51681547Y-57004819D01*
X51681547Y-57004819D02*
X51491071Y-57004819D01*
X52252976Y-56004819D02*
X52872023Y-56004819D01*
X52872023Y-56004819D02*
X52538690Y-56385771D01*
X52538690Y-56385771D02*
X52681547Y-56385771D01*
X52681547Y-56385771D02*
X52776785Y-56433390D01*
X52776785Y-56433390D02*
X52824404Y-56481009D01*
X52824404Y-56481009D02*
X52872023Y-56576247D01*
X52872023Y-56576247D02*
X52872023Y-56814342D01*
X52872023Y-56814342D02*
X52824404Y-56909580D01*
X52824404Y-56909580D02*
X52776785Y-56957200D01*
X52776785Y-56957200D02*
X52681547Y-57004819D01*
X52681547Y-57004819D02*
X52395833Y-57004819D01*
X52395833Y-57004819D02*
X52300595Y-56957200D01*
X52300595Y-56957200D02*
X52252976Y-56909580D01*
X32124819Y-75152857D02*
X31648628Y-75486190D01*
X32124819Y-75724285D02*
X31124819Y-75724285D01*
X31124819Y-75724285D02*
X31124819Y-75343333D01*
X31124819Y-75343333D02*
X31172438Y-75248095D01*
X31172438Y-75248095D02*
X31220057Y-75200476D01*
X31220057Y-75200476D02*
X31315295Y-75152857D01*
X31315295Y-75152857D02*
X31458152Y-75152857D01*
X31458152Y-75152857D02*
X31553390Y-75200476D01*
X31553390Y-75200476D02*
X31601009Y-75248095D01*
X31601009Y-75248095D02*
X31648628Y-75343333D01*
X31648628Y-75343333D02*
X31648628Y-75724285D01*
X31220057Y-74771904D02*
X31172438Y-74724285D01*
X31172438Y-74724285D02*
X31124819Y-74629047D01*
X31124819Y-74629047D02*
X31124819Y-74390952D01*
X31124819Y-74390952D02*
X31172438Y-74295714D01*
X31172438Y-74295714D02*
X31220057Y-74248095D01*
X31220057Y-74248095D02*
X31315295Y-74200476D01*
X31315295Y-74200476D02*
X31410533Y-74200476D01*
X31410533Y-74200476D02*
X31553390Y-74248095D01*
X31553390Y-74248095D02*
X32124819Y-74819523D01*
X32124819Y-74819523D02*
X32124819Y-74200476D01*
X31124819Y-73867142D02*
X31124819Y-73248095D01*
X31124819Y-73248095D02*
X31505771Y-73581428D01*
X31505771Y-73581428D02*
X31505771Y-73438571D01*
X31505771Y-73438571D02*
X31553390Y-73343333D01*
X31553390Y-73343333D02*
X31601009Y-73295714D01*
X31601009Y-73295714D02*
X31696247Y-73248095D01*
X31696247Y-73248095D02*
X31934342Y-73248095D01*
X31934342Y-73248095D02*
X32029580Y-73295714D01*
X32029580Y-73295714D02*
X32077200Y-73343333D01*
X32077200Y-73343333D02*
X32124819Y-73438571D01*
X32124819Y-73438571D02*
X32124819Y-73724285D01*
X32124819Y-73724285D02*
X32077200Y-73819523D01*
X32077200Y-73819523D02*
X32029580Y-73867142D01*
X58049580Y-58686666D02*
X58097200Y-58734285D01*
X58097200Y-58734285D02*
X58144819Y-58877142D01*
X58144819Y-58877142D02*
X58144819Y-58972380D01*
X58144819Y-58972380D02*
X58097200Y-59115237D01*
X58097200Y-59115237D02*
X58001961Y-59210475D01*
X58001961Y-59210475D02*
X57906723Y-59258094D01*
X57906723Y-59258094D02*
X57716247Y-59305713D01*
X57716247Y-59305713D02*
X57573390Y-59305713D01*
X57573390Y-59305713D02*
X57382914Y-59258094D01*
X57382914Y-59258094D02*
X57287676Y-59210475D01*
X57287676Y-59210475D02*
X57192438Y-59115237D01*
X57192438Y-59115237D02*
X57144819Y-58972380D01*
X57144819Y-58972380D02*
X57144819Y-58877142D01*
X57144819Y-58877142D02*
X57192438Y-58734285D01*
X57192438Y-58734285D02*
X57240057Y-58686666D01*
X57478152Y-57829523D02*
X58144819Y-57829523D01*
X57097200Y-58067618D02*
X57811485Y-58305713D01*
X57811485Y-58305713D02*
X57811485Y-57686666D01*
X68867142Y-65784819D02*
X68533809Y-65308628D01*
X68295714Y-65784819D02*
X68295714Y-64784819D01*
X68295714Y-64784819D02*
X68676666Y-64784819D01*
X68676666Y-64784819D02*
X68771904Y-64832438D01*
X68771904Y-64832438D02*
X68819523Y-64880057D01*
X68819523Y-64880057D02*
X68867142Y-64975295D01*
X68867142Y-64975295D02*
X68867142Y-65118152D01*
X68867142Y-65118152D02*
X68819523Y-65213390D01*
X68819523Y-65213390D02*
X68771904Y-65261009D01*
X68771904Y-65261009D02*
X68676666Y-65308628D01*
X68676666Y-65308628D02*
X68295714Y-65308628D01*
X69248095Y-64880057D02*
X69295714Y-64832438D01*
X69295714Y-64832438D02*
X69390952Y-64784819D01*
X69390952Y-64784819D02*
X69629047Y-64784819D01*
X69629047Y-64784819D02*
X69724285Y-64832438D01*
X69724285Y-64832438D02*
X69771904Y-64880057D01*
X69771904Y-64880057D02*
X69819523Y-64975295D01*
X69819523Y-64975295D02*
X69819523Y-65070533D01*
X69819523Y-65070533D02*
X69771904Y-65213390D01*
X69771904Y-65213390D02*
X69200476Y-65784819D01*
X69200476Y-65784819D02*
X69819523Y-65784819D01*
X70724285Y-64784819D02*
X70248095Y-64784819D01*
X70248095Y-64784819D02*
X70200476Y-65261009D01*
X70200476Y-65261009D02*
X70248095Y-65213390D01*
X70248095Y-65213390D02*
X70343333Y-65165771D01*
X70343333Y-65165771D02*
X70581428Y-65165771D01*
X70581428Y-65165771D02*
X70676666Y-65213390D01*
X70676666Y-65213390D02*
X70724285Y-65261009D01*
X70724285Y-65261009D02*
X70771904Y-65356247D01*
X70771904Y-65356247D02*
X70771904Y-65594342D01*
X70771904Y-65594342D02*
X70724285Y-65689580D01*
X70724285Y-65689580D02*
X70676666Y-65737200D01*
X70676666Y-65737200D02*
X70581428Y-65784819D01*
X70581428Y-65784819D02*
X70343333Y-65784819D01*
X70343333Y-65784819D02*
X70248095Y-65737200D01*
X70248095Y-65737200D02*
X70200476Y-65689580D01*
X35853333Y-47784819D02*
X35520000Y-47308628D01*
X35281905Y-47784819D02*
X35281905Y-46784819D01*
X35281905Y-46784819D02*
X35662857Y-46784819D01*
X35662857Y-46784819D02*
X35758095Y-46832438D01*
X35758095Y-46832438D02*
X35805714Y-46880057D01*
X35805714Y-46880057D02*
X35853333Y-46975295D01*
X35853333Y-46975295D02*
X35853333Y-47118152D01*
X35853333Y-47118152D02*
X35805714Y-47213390D01*
X35805714Y-47213390D02*
X35758095Y-47261009D01*
X35758095Y-47261009D02*
X35662857Y-47308628D01*
X35662857Y-47308628D02*
X35281905Y-47308628D01*
X36186667Y-46784819D02*
X36853333Y-46784819D01*
X36853333Y-46784819D02*
X36424762Y-47784819D01*
X61604819Y-67142857D02*
X61128628Y-67476190D01*
X61604819Y-67714285D02*
X60604819Y-67714285D01*
X60604819Y-67714285D02*
X60604819Y-67333333D01*
X60604819Y-67333333D02*
X60652438Y-67238095D01*
X60652438Y-67238095D02*
X60700057Y-67190476D01*
X60700057Y-67190476D02*
X60795295Y-67142857D01*
X60795295Y-67142857D02*
X60938152Y-67142857D01*
X60938152Y-67142857D02*
X61033390Y-67190476D01*
X61033390Y-67190476D02*
X61081009Y-67238095D01*
X61081009Y-67238095D02*
X61128628Y-67333333D01*
X61128628Y-67333333D02*
X61128628Y-67714285D01*
X61604819Y-66190476D02*
X61604819Y-66761904D01*
X61604819Y-66476190D02*
X60604819Y-66476190D01*
X60604819Y-66476190D02*
X60747676Y-66571428D01*
X60747676Y-66571428D02*
X60842914Y-66666666D01*
X60842914Y-66666666D02*
X60890533Y-66761904D01*
X61033390Y-65619047D02*
X60985771Y-65714285D01*
X60985771Y-65714285D02*
X60938152Y-65761904D01*
X60938152Y-65761904D02*
X60842914Y-65809523D01*
X60842914Y-65809523D02*
X60795295Y-65809523D01*
X60795295Y-65809523D02*
X60700057Y-65761904D01*
X60700057Y-65761904D02*
X60652438Y-65714285D01*
X60652438Y-65714285D02*
X60604819Y-65619047D01*
X60604819Y-65619047D02*
X60604819Y-65428571D01*
X60604819Y-65428571D02*
X60652438Y-65333333D01*
X60652438Y-65333333D02*
X60700057Y-65285714D01*
X60700057Y-65285714D02*
X60795295Y-65238095D01*
X60795295Y-65238095D02*
X60842914Y-65238095D01*
X60842914Y-65238095D02*
X60938152Y-65285714D01*
X60938152Y-65285714D02*
X60985771Y-65333333D01*
X60985771Y-65333333D02*
X61033390Y-65428571D01*
X61033390Y-65428571D02*
X61033390Y-65619047D01*
X61033390Y-65619047D02*
X61081009Y-65714285D01*
X61081009Y-65714285D02*
X61128628Y-65761904D01*
X61128628Y-65761904D02*
X61223866Y-65809523D01*
X61223866Y-65809523D02*
X61414342Y-65809523D01*
X61414342Y-65809523D02*
X61509580Y-65761904D01*
X61509580Y-65761904D02*
X61557200Y-65714285D01*
X61557200Y-65714285D02*
X61604819Y-65619047D01*
X61604819Y-65619047D02*
X61604819Y-65428571D01*
X61604819Y-65428571D02*
X61557200Y-65333333D01*
X61557200Y-65333333D02*
X61509580Y-65285714D01*
X61509580Y-65285714D02*
X61414342Y-65238095D01*
X61414342Y-65238095D02*
X61223866Y-65238095D01*
X61223866Y-65238095D02*
X61128628Y-65285714D01*
X61128628Y-65285714D02*
X61081009Y-65333333D01*
X61081009Y-65333333D02*
X61033390Y-65428571D01*
X67019580Y-49166666D02*
X67067200Y-49214285D01*
X67067200Y-49214285D02*
X67114819Y-49357142D01*
X67114819Y-49357142D02*
X67114819Y-49452380D01*
X67114819Y-49452380D02*
X67067200Y-49595237D01*
X67067200Y-49595237D02*
X66971961Y-49690475D01*
X66971961Y-49690475D02*
X66876723Y-49738094D01*
X66876723Y-49738094D02*
X66686247Y-49785713D01*
X66686247Y-49785713D02*
X66543390Y-49785713D01*
X66543390Y-49785713D02*
X66352914Y-49738094D01*
X66352914Y-49738094D02*
X66257676Y-49690475D01*
X66257676Y-49690475D02*
X66162438Y-49595237D01*
X66162438Y-49595237D02*
X66114819Y-49452380D01*
X66114819Y-49452380D02*
X66114819Y-49357142D01*
X66114819Y-49357142D02*
X66162438Y-49214285D01*
X66162438Y-49214285D02*
X66210057Y-49166666D01*
X66114819Y-48833332D02*
X66114819Y-48214285D01*
X66114819Y-48214285D02*
X66495771Y-48547618D01*
X66495771Y-48547618D02*
X66495771Y-48404761D01*
X66495771Y-48404761D02*
X66543390Y-48309523D01*
X66543390Y-48309523D02*
X66591009Y-48261904D01*
X66591009Y-48261904D02*
X66686247Y-48214285D01*
X66686247Y-48214285D02*
X66924342Y-48214285D01*
X66924342Y-48214285D02*
X67019580Y-48261904D01*
X67019580Y-48261904D02*
X67067200Y-48309523D01*
X67067200Y-48309523D02*
X67114819Y-48404761D01*
X67114819Y-48404761D02*
X67114819Y-48690475D01*
X67114819Y-48690475D02*
X67067200Y-48785713D01*
X67067200Y-48785713D02*
X67019580Y-48833332D01*
X48428571Y-70454819D02*
X48428571Y-71169104D01*
X48428571Y-71169104D02*
X48380952Y-71311961D01*
X48380952Y-71311961D02*
X48285714Y-71407200D01*
X48285714Y-71407200D02*
X48142857Y-71454819D01*
X48142857Y-71454819D02*
X48047619Y-71454819D01*
X48666667Y-71550057D02*
X49428571Y-71550057D01*
X50142857Y-71454819D02*
X49666667Y-71454819D01*
X49666667Y-71454819D02*
X49666667Y-70454819D01*
X50476191Y-70931009D02*
X50809524Y-70931009D01*
X50952381Y-71454819D02*
X50476191Y-71454819D01*
X50476191Y-71454819D02*
X50476191Y-70454819D01*
X50476191Y-70454819D02*
X50952381Y-70454819D01*
X51380953Y-71454819D02*
X51380953Y-70454819D01*
X51380953Y-70454819D02*
X51619048Y-70454819D01*
X51619048Y-70454819D02*
X51761905Y-70502438D01*
X51761905Y-70502438D02*
X51857143Y-70597676D01*
X51857143Y-70597676D02*
X51904762Y-70692914D01*
X51904762Y-70692914D02*
X51952381Y-70883390D01*
X51952381Y-70883390D02*
X51952381Y-71026247D01*
X51952381Y-71026247D02*
X51904762Y-71216723D01*
X51904762Y-71216723D02*
X51857143Y-71311961D01*
X51857143Y-71311961D02*
X51761905Y-71407200D01*
X51761905Y-71407200D02*
X51619048Y-71454819D01*
X51619048Y-71454819D02*
X51380953Y-71454819D01*
X52904762Y-71454819D02*
X52333334Y-71454819D01*
X52619048Y-71454819D02*
X52619048Y-70454819D01*
X52619048Y-70454819D02*
X52523810Y-70597676D01*
X52523810Y-70597676D02*
X52428572Y-70692914D01*
X52428572Y-70692914D02*
X52333334Y-70740533D01*
X53519580Y-63166666D02*
X53567200Y-63214285D01*
X53567200Y-63214285D02*
X53614819Y-63357142D01*
X53614819Y-63357142D02*
X53614819Y-63452380D01*
X53614819Y-63452380D02*
X53567200Y-63595237D01*
X53567200Y-63595237D02*
X53471961Y-63690475D01*
X53471961Y-63690475D02*
X53376723Y-63738094D01*
X53376723Y-63738094D02*
X53186247Y-63785713D01*
X53186247Y-63785713D02*
X53043390Y-63785713D01*
X53043390Y-63785713D02*
X52852914Y-63738094D01*
X52852914Y-63738094D02*
X52757676Y-63690475D01*
X52757676Y-63690475D02*
X52662438Y-63595237D01*
X52662438Y-63595237D02*
X52614819Y-63452380D01*
X52614819Y-63452380D02*
X52614819Y-63357142D01*
X52614819Y-63357142D02*
X52662438Y-63214285D01*
X52662438Y-63214285D02*
X52710057Y-63166666D01*
X53043390Y-62595237D02*
X52995771Y-62690475D01*
X52995771Y-62690475D02*
X52948152Y-62738094D01*
X52948152Y-62738094D02*
X52852914Y-62785713D01*
X52852914Y-62785713D02*
X52805295Y-62785713D01*
X52805295Y-62785713D02*
X52710057Y-62738094D01*
X52710057Y-62738094D02*
X52662438Y-62690475D01*
X52662438Y-62690475D02*
X52614819Y-62595237D01*
X52614819Y-62595237D02*
X52614819Y-62404761D01*
X52614819Y-62404761D02*
X52662438Y-62309523D01*
X52662438Y-62309523D02*
X52710057Y-62261904D01*
X52710057Y-62261904D02*
X52805295Y-62214285D01*
X52805295Y-62214285D02*
X52852914Y-62214285D01*
X52852914Y-62214285D02*
X52948152Y-62261904D01*
X52948152Y-62261904D02*
X52995771Y-62309523D01*
X52995771Y-62309523D02*
X53043390Y-62404761D01*
X53043390Y-62404761D02*
X53043390Y-62595237D01*
X53043390Y-62595237D02*
X53091009Y-62690475D01*
X53091009Y-62690475D02*
X53138628Y-62738094D01*
X53138628Y-62738094D02*
X53233866Y-62785713D01*
X53233866Y-62785713D02*
X53424342Y-62785713D01*
X53424342Y-62785713D02*
X53519580Y-62738094D01*
X53519580Y-62738094D02*
X53567200Y-62690475D01*
X53567200Y-62690475D02*
X53614819Y-62595237D01*
X53614819Y-62595237D02*
X53614819Y-62404761D01*
X53614819Y-62404761D02*
X53567200Y-62309523D01*
X53567200Y-62309523D02*
X53519580Y-62261904D01*
X53519580Y-62261904D02*
X53424342Y-62214285D01*
X53424342Y-62214285D02*
X53233866Y-62214285D01*
X53233866Y-62214285D02*
X53138628Y-62261904D01*
X53138628Y-62261904D02*
X53091009Y-62309523D01*
X53091009Y-62309523D02*
X53043390Y-62404761D01*
X45367142Y-66284819D02*
X45033809Y-65808628D01*
X44795714Y-66284819D02*
X44795714Y-65284819D01*
X44795714Y-65284819D02*
X45176666Y-65284819D01*
X45176666Y-65284819D02*
X45271904Y-65332438D01*
X45271904Y-65332438D02*
X45319523Y-65380057D01*
X45319523Y-65380057D02*
X45367142Y-65475295D01*
X45367142Y-65475295D02*
X45367142Y-65618152D01*
X45367142Y-65618152D02*
X45319523Y-65713390D01*
X45319523Y-65713390D02*
X45271904Y-65761009D01*
X45271904Y-65761009D02*
X45176666Y-65808628D01*
X45176666Y-65808628D02*
X44795714Y-65808628D01*
X46319523Y-66284819D02*
X45748095Y-66284819D01*
X46033809Y-66284819D02*
X46033809Y-65284819D01*
X46033809Y-65284819D02*
X45938571Y-65427676D01*
X45938571Y-65427676D02*
X45843333Y-65522914D01*
X45843333Y-65522914D02*
X45748095Y-65570533D01*
X47176666Y-65618152D02*
X47176666Y-66284819D01*
X46938571Y-65237200D02*
X46700476Y-65951485D01*
X46700476Y-65951485D02*
X47319523Y-65951485D01*
X31313333Y-29699580D02*
X31265714Y-29747200D01*
X31265714Y-29747200D02*
X31122857Y-29794819D01*
X31122857Y-29794819D02*
X31027619Y-29794819D01*
X31027619Y-29794819D02*
X30884762Y-29747200D01*
X30884762Y-29747200D02*
X30789524Y-29651961D01*
X30789524Y-29651961D02*
X30741905Y-29556723D01*
X30741905Y-29556723D02*
X30694286Y-29366247D01*
X30694286Y-29366247D02*
X30694286Y-29223390D01*
X30694286Y-29223390D02*
X30741905Y-29032914D01*
X30741905Y-29032914D02*
X30789524Y-28937676D01*
X30789524Y-28937676D02*
X30884762Y-28842438D01*
X30884762Y-28842438D02*
X31027619Y-28794819D01*
X31027619Y-28794819D02*
X31122857Y-28794819D01*
X31122857Y-28794819D02*
X31265714Y-28842438D01*
X31265714Y-28842438D02*
X31313333Y-28890057D01*
X32265714Y-29794819D02*
X31694286Y-29794819D01*
X31980000Y-29794819D02*
X31980000Y-28794819D01*
X31980000Y-28794819D02*
X31884762Y-28937676D01*
X31884762Y-28937676D02*
X31789524Y-29032914D01*
X31789524Y-29032914D02*
X31694286Y-29080533D01*
X35954819Y-59738094D02*
X34954819Y-59738094D01*
X34954819Y-59738094D02*
X34954819Y-59499999D01*
X34954819Y-59499999D02*
X35002438Y-59357142D01*
X35002438Y-59357142D02*
X35097676Y-59261904D01*
X35097676Y-59261904D02*
X35192914Y-59214285D01*
X35192914Y-59214285D02*
X35383390Y-59166666D01*
X35383390Y-59166666D02*
X35526247Y-59166666D01*
X35526247Y-59166666D02*
X35716723Y-59214285D01*
X35716723Y-59214285D02*
X35811961Y-59261904D01*
X35811961Y-59261904D02*
X35907200Y-59357142D01*
X35907200Y-59357142D02*
X35954819Y-59499999D01*
X35954819Y-59499999D02*
X35954819Y-59738094D01*
X34954819Y-58833332D02*
X34954819Y-58166666D01*
X34954819Y-58166666D02*
X35954819Y-58595237D01*
X64375595Y-64554819D02*
X64375595Y-65364342D01*
X64375595Y-65364342D02*
X64423214Y-65459580D01*
X64423214Y-65459580D02*
X64470833Y-65507200D01*
X64470833Y-65507200D02*
X64566071Y-65554819D01*
X64566071Y-65554819D02*
X64756547Y-65554819D01*
X64756547Y-65554819D02*
X64851785Y-65507200D01*
X64851785Y-65507200D02*
X64899404Y-65459580D01*
X64899404Y-65459580D02*
X64947023Y-65364342D01*
X64947023Y-65364342D02*
X64947023Y-64554819D01*
X65899404Y-64554819D02*
X65423214Y-64554819D01*
X65423214Y-64554819D02*
X65375595Y-65031009D01*
X65375595Y-65031009D02*
X65423214Y-64983390D01*
X65423214Y-64983390D02*
X65518452Y-64935771D01*
X65518452Y-64935771D02*
X65756547Y-64935771D01*
X65756547Y-64935771D02*
X65851785Y-64983390D01*
X65851785Y-64983390D02*
X65899404Y-65031009D01*
X65899404Y-65031009D02*
X65947023Y-65126247D01*
X65947023Y-65126247D02*
X65947023Y-65364342D01*
X65947023Y-65364342D02*
X65899404Y-65459580D01*
X65899404Y-65459580D02*
X65851785Y-65507200D01*
X65851785Y-65507200D02*
X65756547Y-65554819D01*
X65756547Y-65554819D02*
X65518452Y-65554819D01*
X65518452Y-65554819D02*
X65423214Y-65507200D01*
X65423214Y-65507200D02*
X65375595Y-65459580D01*
X49348095Y-20564819D02*
X49348095Y-21374342D01*
X49348095Y-21374342D02*
X49395714Y-21469580D01*
X49395714Y-21469580D02*
X49443333Y-21517200D01*
X49443333Y-21517200D02*
X49538571Y-21564819D01*
X49538571Y-21564819D02*
X49729047Y-21564819D01*
X49729047Y-21564819D02*
X49824285Y-21517200D01*
X49824285Y-21517200D02*
X49871904Y-21469580D01*
X49871904Y-21469580D02*
X49919523Y-21374342D01*
X49919523Y-21374342D02*
X49919523Y-20564819D01*
X50919523Y-21564819D02*
X50348095Y-21564819D01*
X50633809Y-21564819D02*
X50633809Y-20564819D01*
X50633809Y-20564819D02*
X50538571Y-20707676D01*
X50538571Y-20707676D02*
X50443333Y-20802914D01*
X50443333Y-20802914D02*
X50348095Y-20850533D01*
X45988094Y-25629104D02*
X46464284Y-25629104D01*
X45892856Y-25914819D02*
X46226189Y-24914819D01*
X46226189Y-24914819D02*
X46559522Y-25914819D01*
X46892856Y-25248152D02*
X46892856Y-25914819D01*
X46892856Y-25343390D02*
X46940475Y-25295771D01*
X46940475Y-25295771D02*
X47035713Y-25248152D01*
X47035713Y-25248152D02*
X47178570Y-25248152D01*
X47178570Y-25248152D02*
X47273808Y-25295771D01*
X47273808Y-25295771D02*
X47321427Y-25391009D01*
X47321427Y-25391009D02*
X47321427Y-25914819D01*
X47654761Y-25248152D02*
X48035713Y-25248152D01*
X47797618Y-24914819D02*
X47797618Y-25771961D01*
X47797618Y-25771961D02*
X47845237Y-25867200D01*
X47845237Y-25867200D02*
X47940475Y-25914819D01*
X47940475Y-25914819D02*
X48035713Y-25914819D01*
X48749999Y-25867200D02*
X48654761Y-25914819D01*
X48654761Y-25914819D02*
X48464285Y-25914819D01*
X48464285Y-25914819D02*
X48369047Y-25867200D01*
X48369047Y-25867200D02*
X48321428Y-25771961D01*
X48321428Y-25771961D02*
X48321428Y-25391009D01*
X48321428Y-25391009D02*
X48369047Y-25295771D01*
X48369047Y-25295771D02*
X48464285Y-25248152D01*
X48464285Y-25248152D02*
X48654761Y-25248152D01*
X48654761Y-25248152D02*
X48749999Y-25295771D01*
X48749999Y-25295771D02*
X48797618Y-25391009D01*
X48797618Y-25391009D02*
X48797618Y-25486247D01*
X48797618Y-25486247D02*
X48321428Y-25581485D01*
X49226190Y-25248152D02*
X49226190Y-25914819D01*
X49226190Y-25343390D02*
X49273809Y-25295771D01*
X49273809Y-25295771D02*
X49369047Y-25248152D01*
X49369047Y-25248152D02*
X49511904Y-25248152D01*
X49511904Y-25248152D02*
X49607142Y-25295771D01*
X49607142Y-25295771D02*
X49654761Y-25391009D01*
X49654761Y-25391009D02*
X49654761Y-25914819D01*
X50130952Y-25248152D02*
X50130952Y-25914819D01*
X50130952Y-25343390D02*
X50178571Y-25295771D01*
X50178571Y-25295771D02*
X50273809Y-25248152D01*
X50273809Y-25248152D02*
X50416666Y-25248152D01*
X50416666Y-25248152D02*
X50511904Y-25295771D01*
X50511904Y-25295771D02*
X50559523Y-25391009D01*
X50559523Y-25391009D02*
X50559523Y-25914819D01*
X51464285Y-25914819D02*
X51464285Y-25391009D01*
X51464285Y-25391009D02*
X51416666Y-25295771D01*
X51416666Y-25295771D02*
X51321428Y-25248152D01*
X51321428Y-25248152D02*
X51130952Y-25248152D01*
X51130952Y-25248152D02*
X51035714Y-25295771D01*
X51464285Y-25867200D02*
X51369047Y-25914819D01*
X51369047Y-25914819D02*
X51130952Y-25914819D01*
X51130952Y-25914819D02*
X51035714Y-25867200D01*
X51035714Y-25867200D02*
X50988095Y-25771961D01*
X50988095Y-25771961D02*
X50988095Y-25676723D01*
X50988095Y-25676723D02*
X51035714Y-25581485D01*
X51035714Y-25581485D02*
X51130952Y-25533866D01*
X51130952Y-25533866D02*
X51369047Y-25533866D01*
X51369047Y-25533866D02*
X51464285Y-25486247D01*
X52654762Y-25629104D02*
X53130952Y-25629104D01*
X52559524Y-25914819D02*
X52892857Y-24914819D01*
X52892857Y-24914819D02*
X53226190Y-25914819D01*
X53559524Y-25914819D02*
X53559524Y-25248152D01*
X53559524Y-25438628D02*
X53607143Y-25343390D01*
X53607143Y-25343390D02*
X53654762Y-25295771D01*
X53654762Y-25295771D02*
X53750000Y-25248152D01*
X53750000Y-25248152D02*
X53845238Y-25248152D01*
X54559524Y-25867200D02*
X54464286Y-25914819D01*
X54464286Y-25914819D02*
X54273810Y-25914819D01*
X54273810Y-25914819D02*
X54178572Y-25867200D01*
X54178572Y-25867200D02*
X54130953Y-25771961D01*
X54130953Y-25771961D02*
X54130953Y-25391009D01*
X54130953Y-25391009D02*
X54178572Y-25295771D01*
X54178572Y-25295771D02*
X54273810Y-25248152D01*
X54273810Y-25248152D02*
X54464286Y-25248152D01*
X54464286Y-25248152D02*
X54559524Y-25295771D01*
X54559524Y-25295771D02*
X54607143Y-25391009D01*
X54607143Y-25391009D02*
X54607143Y-25486247D01*
X54607143Y-25486247D02*
X54130953Y-25581485D01*
X55464286Y-25914819D02*
X55464286Y-25391009D01*
X55464286Y-25391009D02*
X55416667Y-25295771D01*
X55416667Y-25295771D02*
X55321429Y-25248152D01*
X55321429Y-25248152D02*
X55130953Y-25248152D01*
X55130953Y-25248152D02*
X55035715Y-25295771D01*
X55464286Y-25867200D02*
X55369048Y-25914819D01*
X55369048Y-25914819D02*
X55130953Y-25914819D01*
X55130953Y-25914819D02*
X55035715Y-25867200D01*
X55035715Y-25867200D02*
X54988096Y-25771961D01*
X54988096Y-25771961D02*
X54988096Y-25676723D01*
X54988096Y-25676723D02*
X55035715Y-25581485D01*
X55035715Y-25581485D02*
X55130953Y-25533866D01*
X55130953Y-25533866D02*
X55369048Y-25533866D01*
X55369048Y-25533866D02*
X55464286Y-25486247D01*
X25367142Y-50784819D02*
X25033809Y-50308628D01*
X24795714Y-50784819D02*
X24795714Y-49784819D01*
X24795714Y-49784819D02*
X25176666Y-49784819D01*
X25176666Y-49784819D02*
X25271904Y-49832438D01*
X25271904Y-49832438D02*
X25319523Y-49880057D01*
X25319523Y-49880057D02*
X25367142Y-49975295D01*
X25367142Y-49975295D02*
X25367142Y-50118152D01*
X25367142Y-50118152D02*
X25319523Y-50213390D01*
X25319523Y-50213390D02*
X25271904Y-50261009D01*
X25271904Y-50261009D02*
X25176666Y-50308628D01*
X25176666Y-50308628D02*
X24795714Y-50308628D01*
X25748095Y-49880057D02*
X25795714Y-49832438D01*
X25795714Y-49832438D02*
X25890952Y-49784819D01*
X25890952Y-49784819D02*
X26129047Y-49784819D01*
X26129047Y-49784819D02*
X26224285Y-49832438D01*
X26224285Y-49832438D02*
X26271904Y-49880057D01*
X26271904Y-49880057D02*
X26319523Y-49975295D01*
X26319523Y-49975295D02*
X26319523Y-50070533D01*
X26319523Y-50070533D02*
X26271904Y-50213390D01*
X26271904Y-50213390D02*
X25700476Y-50784819D01*
X25700476Y-50784819D02*
X26319523Y-50784819D01*
X26652857Y-49784819D02*
X27319523Y-49784819D01*
X27319523Y-49784819D02*
X26890952Y-50784819D01*
X74234819Y-68333333D02*
X74949104Y-68333333D01*
X74949104Y-68333333D02*
X75091961Y-68380952D01*
X75091961Y-68380952D02*
X75187200Y-68476190D01*
X75187200Y-68476190D02*
X75234819Y-68619047D01*
X75234819Y-68619047D02*
X75234819Y-68714285D01*
X74330057Y-67904761D02*
X74282438Y-67857142D01*
X74282438Y-67857142D02*
X74234819Y-67761904D01*
X74234819Y-67761904D02*
X74234819Y-67523809D01*
X74234819Y-67523809D02*
X74282438Y-67428571D01*
X74282438Y-67428571D02*
X74330057Y-67380952D01*
X74330057Y-67380952D02*
X74425295Y-67333333D01*
X74425295Y-67333333D02*
X74520533Y-67333333D01*
X74520533Y-67333333D02*
X74663390Y-67380952D01*
X74663390Y-67380952D02*
X75234819Y-67952380D01*
X75234819Y-67952380D02*
X75234819Y-67333333D01*
X64124819Y-49166666D02*
X63648628Y-49499999D01*
X64124819Y-49738094D02*
X63124819Y-49738094D01*
X63124819Y-49738094D02*
X63124819Y-49357142D01*
X63124819Y-49357142D02*
X63172438Y-49261904D01*
X63172438Y-49261904D02*
X63220057Y-49214285D01*
X63220057Y-49214285D02*
X63315295Y-49166666D01*
X63315295Y-49166666D02*
X63458152Y-49166666D01*
X63458152Y-49166666D02*
X63553390Y-49214285D01*
X63553390Y-49214285D02*
X63601009Y-49261904D01*
X63601009Y-49261904D02*
X63648628Y-49357142D01*
X63648628Y-49357142D02*
X63648628Y-49738094D01*
X63553390Y-48595237D02*
X63505771Y-48690475D01*
X63505771Y-48690475D02*
X63458152Y-48738094D01*
X63458152Y-48738094D02*
X63362914Y-48785713D01*
X63362914Y-48785713D02*
X63315295Y-48785713D01*
X63315295Y-48785713D02*
X63220057Y-48738094D01*
X63220057Y-48738094D02*
X63172438Y-48690475D01*
X63172438Y-48690475D02*
X63124819Y-48595237D01*
X63124819Y-48595237D02*
X63124819Y-48404761D01*
X63124819Y-48404761D02*
X63172438Y-48309523D01*
X63172438Y-48309523D02*
X63220057Y-48261904D01*
X63220057Y-48261904D02*
X63315295Y-48214285D01*
X63315295Y-48214285D02*
X63362914Y-48214285D01*
X63362914Y-48214285D02*
X63458152Y-48261904D01*
X63458152Y-48261904D02*
X63505771Y-48309523D01*
X63505771Y-48309523D02*
X63553390Y-48404761D01*
X63553390Y-48404761D02*
X63553390Y-48595237D01*
X63553390Y-48595237D02*
X63601009Y-48690475D01*
X63601009Y-48690475D02*
X63648628Y-48738094D01*
X63648628Y-48738094D02*
X63743866Y-48785713D01*
X63743866Y-48785713D02*
X63934342Y-48785713D01*
X63934342Y-48785713D02*
X64029580Y-48738094D01*
X64029580Y-48738094D02*
X64077200Y-48690475D01*
X64077200Y-48690475D02*
X64124819Y-48595237D01*
X64124819Y-48595237D02*
X64124819Y-48404761D01*
X64124819Y-48404761D02*
X64077200Y-48309523D01*
X64077200Y-48309523D02*
X64029580Y-48261904D01*
X64029580Y-48261904D02*
X63934342Y-48214285D01*
X63934342Y-48214285D02*
X63743866Y-48214285D01*
X63743866Y-48214285D02*
X63648628Y-48261904D01*
X63648628Y-48261904D02*
X63601009Y-48309523D01*
X63601009Y-48309523D02*
X63553390Y-48404761D01*
X46519580Y-63642857D02*
X46567200Y-63690476D01*
X46567200Y-63690476D02*
X46614819Y-63833333D01*
X46614819Y-63833333D02*
X46614819Y-63928571D01*
X46614819Y-63928571D02*
X46567200Y-64071428D01*
X46567200Y-64071428D02*
X46471961Y-64166666D01*
X46471961Y-64166666D02*
X46376723Y-64214285D01*
X46376723Y-64214285D02*
X46186247Y-64261904D01*
X46186247Y-64261904D02*
X46043390Y-64261904D01*
X46043390Y-64261904D02*
X45852914Y-64214285D01*
X45852914Y-64214285D02*
X45757676Y-64166666D01*
X45757676Y-64166666D02*
X45662438Y-64071428D01*
X45662438Y-64071428D02*
X45614819Y-63928571D01*
X45614819Y-63928571D02*
X45614819Y-63833333D01*
X45614819Y-63833333D02*
X45662438Y-63690476D01*
X45662438Y-63690476D02*
X45710057Y-63642857D01*
X46614819Y-62690476D02*
X46614819Y-63261904D01*
X46614819Y-62976190D02*
X45614819Y-62976190D01*
X45614819Y-62976190D02*
X45757676Y-63071428D01*
X45757676Y-63071428D02*
X45852914Y-63166666D01*
X45852914Y-63166666D02*
X45900533Y-63261904D01*
X45614819Y-62071428D02*
X45614819Y-61976190D01*
X45614819Y-61976190D02*
X45662438Y-61880952D01*
X45662438Y-61880952D02*
X45710057Y-61833333D01*
X45710057Y-61833333D02*
X45805295Y-61785714D01*
X45805295Y-61785714D02*
X45995771Y-61738095D01*
X45995771Y-61738095D02*
X46233866Y-61738095D01*
X46233866Y-61738095D02*
X46424342Y-61785714D01*
X46424342Y-61785714D02*
X46519580Y-61833333D01*
X46519580Y-61833333D02*
X46567200Y-61880952D01*
X46567200Y-61880952D02*
X46614819Y-61976190D01*
X46614819Y-61976190D02*
X46614819Y-62071428D01*
X46614819Y-62071428D02*
X46567200Y-62166666D01*
X46567200Y-62166666D02*
X46519580Y-62214285D01*
X46519580Y-62214285D02*
X46424342Y-62261904D01*
X46424342Y-62261904D02*
X46233866Y-62309523D01*
X46233866Y-62309523D02*
X45995771Y-62309523D01*
X45995771Y-62309523D02*
X45805295Y-62261904D01*
X45805295Y-62261904D02*
X45710057Y-62214285D01*
X45710057Y-62214285D02*
X45662438Y-62166666D01*
X45662438Y-62166666D02*
X45614819Y-62071428D01*
X61049580Y-58686666D02*
X61097200Y-58734285D01*
X61097200Y-58734285D02*
X61144819Y-58877142D01*
X61144819Y-58877142D02*
X61144819Y-58972380D01*
X61144819Y-58972380D02*
X61097200Y-59115237D01*
X61097200Y-59115237D02*
X61001961Y-59210475D01*
X61001961Y-59210475D02*
X60906723Y-59258094D01*
X60906723Y-59258094D02*
X60716247Y-59305713D01*
X60716247Y-59305713D02*
X60573390Y-59305713D01*
X60573390Y-59305713D02*
X60382914Y-59258094D01*
X60382914Y-59258094D02*
X60287676Y-59210475D01*
X60287676Y-59210475D02*
X60192438Y-59115237D01*
X60192438Y-59115237D02*
X60144819Y-58972380D01*
X60144819Y-58972380D02*
X60144819Y-58877142D01*
X60144819Y-58877142D02*
X60192438Y-58734285D01*
X60192438Y-58734285D02*
X60240057Y-58686666D01*
X60240057Y-58305713D02*
X60192438Y-58258094D01*
X60192438Y-58258094D02*
X60144819Y-58162856D01*
X60144819Y-58162856D02*
X60144819Y-57924761D01*
X60144819Y-57924761D02*
X60192438Y-57829523D01*
X60192438Y-57829523D02*
X60240057Y-57781904D01*
X60240057Y-57781904D02*
X60335295Y-57734285D01*
X60335295Y-57734285D02*
X60430533Y-57734285D01*
X60430533Y-57734285D02*
X60573390Y-57781904D01*
X60573390Y-57781904D02*
X61144819Y-58353332D01*
X61144819Y-58353332D02*
X61144819Y-57734285D01*
X43124819Y-67142857D02*
X42648628Y-67476190D01*
X43124819Y-67714285D02*
X42124819Y-67714285D01*
X42124819Y-67714285D02*
X42124819Y-67333333D01*
X42124819Y-67333333D02*
X42172438Y-67238095D01*
X42172438Y-67238095D02*
X42220057Y-67190476D01*
X42220057Y-67190476D02*
X42315295Y-67142857D01*
X42315295Y-67142857D02*
X42458152Y-67142857D01*
X42458152Y-67142857D02*
X42553390Y-67190476D01*
X42553390Y-67190476D02*
X42601009Y-67238095D01*
X42601009Y-67238095D02*
X42648628Y-67333333D01*
X42648628Y-67333333D02*
X42648628Y-67714285D01*
X42220057Y-66761904D02*
X42172438Y-66714285D01*
X42172438Y-66714285D02*
X42124819Y-66619047D01*
X42124819Y-66619047D02*
X42124819Y-66380952D01*
X42124819Y-66380952D02*
X42172438Y-66285714D01*
X42172438Y-66285714D02*
X42220057Y-66238095D01*
X42220057Y-66238095D02*
X42315295Y-66190476D01*
X42315295Y-66190476D02*
X42410533Y-66190476D01*
X42410533Y-66190476D02*
X42553390Y-66238095D01*
X42553390Y-66238095D02*
X43124819Y-66809523D01*
X43124819Y-66809523D02*
X43124819Y-66190476D01*
X42220057Y-65809523D02*
X42172438Y-65761904D01*
X42172438Y-65761904D02*
X42124819Y-65666666D01*
X42124819Y-65666666D02*
X42124819Y-65428571D01*
X42124819Y-65428571D02*
X42172438Y-65333333D01*
X42172438Y-65333333D02*
X42220057Y-65285714D01*
X42220057Y-65285714D02*
X42315295Y-65238095D01*
X42315295Y-65238095D02*
X42410533Y-65238095D01*
X42410533Y-65238095D02*
X42553390Y-65285714D01*
X42553390Y-65285714D02*
X43124819Y-65857142D01*
X43124819Y-65857142D02*
X43124819Y-65238095D01*
X23504819Y-41690476D02*
X24219104Y-41690476D01*
X24219104Y-41690476D02*
X24361961Y-41738095D01*
X24361961Y-41738095D02*
X24457200Y-41833333D01*
X24457200Y-41833333D02*
X24504819Y-41976190D01*
X24504819Y-41976190D02*
X24504819Y-42071428D01*
X24600057Y-41452381D02*
X24600057Y-40690476D01*
X24457200Y-40499999D02*
X24504819Y-40357142D01*
X24504819Y-40357142D02*
X24504819Y-40119047D01*
X24504819Y-40119047D02*
X24457200Y-40023809D01*
X24457200Y-40023809D02*
X24409580Y-39976190D01*
X24409580Y-39976190D02*
X24314342Y-39928571D01*
X24314342Y-39928571D02*
X24219104Y-39928571D01*
X24219104Y-39928571D02*
X24123866Y-39976190D01*
X24123866Y-39976190D02*
X24076247Y-40023809D01*
X24076247Y-40023809D02*
X24028628Y-40119047D01*
X24028628Y-40119047D02*
X23981009Y-40309523D01*
X23981009Y-40309523D02*
X23933390Y-40404761D01*
X23933390Y-40404761D02*
X23885771Y-40452380D01*
X23885771Y-40452380D02*
X23790533Y-40499999D01*
X23790533Y-40499999D02*
X23695295Y-40499999D01*
X23695295Y-40499999D02*
X23600057Y-40452380D01*
X23600057Y-40452380D02*
X23552438Y-40404761D01*
X23552438Y-40404761D02*
X23504819Y-40309523D01*
X23504819Y-40309523D02*
X23504819Y-40071428D01*
X23504819Y-40071428D02*
X23552438Y-39928571D01*
X24504819Y-39499999D02*
X23504819Y-39499999D01*
X23504819Y-39499999D02*
X23504819Y-39261904D01*
X23504819Y-39261904D02*
X23552438Y-39119047D01*
X23552438Y-39119047D02*
X23647676Y-39023809D01*
X23647676Y-39023809D02*
X23742914Y-38976190D01*
X23742914Y-38976190D02*
X23933390Y-38928571D01*
X23933390Y-38928571D02*
X24076247Y-38928571D01*
X24076247Y-38928571D02*
X24266723Y-38976190D01*
X24266723Y-38976190D02*
X24361961Y-39023809D01*
X24361961Y-39023809D02*
X24457200Y-39119047D01*
X24457200Y-39119047D02*
X24504819Y-39261904D01*
X24504819Y-39261904D02*
X24504819Y-39499999D01*
X24504819Y-37976190D02*
X24504819Y-38547618D01*
X24504819Y-38261904D02*
X23504819Y-38261904D01*
X23504819Y-38261904D02*
X23647676Y-38357142D01*
X23647676Y-38357142D02*
X23742914Y-38452380D01*
X23742914Y-38452380D02*
X23790533Y-38547618D01*
X64713095Y-25864819D02*
X64713095Y-26674342D01*
X64713095Y-26674342D02*
X64760714Y-26769580D01*
X64760714Y-26769580D02*
X64808333Y-26817200D01*
X64808333Y-26817200D02*
X64903571Y-26864819D01*
X64903571Y-26864819D02*
X65094047Y-26864819D01*
X65094047Y-26864819D02*
X65189285Y-26817200D01*
X65189285Y-26817200D02*
X65236904Y-26769580D01*
X65236904Y-26769580D02*
X65284523Y-26674342D01*
X65284523Y-26674342D02*
X65284523Y-25864819D01*
X65665476Y-25864819D02*
X66284523Y-25864819D01*
X66284523Y-25864819D02*
X65951190Y-26245771D01*
X65951190Y-26245771D02*
X66094047Y-26245771D01*
X66094047Y-26245771D02*
X66189285Y-26293390D01*
X66189285Y-26293390D02*
X66236904Y-26341009D01*
X66236904Y-26341009D02*
X66284523Y-26436247D01*
X66284523Y-26436247D02*
X66284523Y-26674342D01*
X66284523Y-26674342D02*
X66236904Y-26769580D01*
X66236904Y-26769580D02*
X66189285Y-26817200D01*
X66189285Y-26817200D02*
X66094047Y-26864819D01*
X66094047Y-26864819D02*
X65808333Y-26864819D01*
X65808333Y-26864819D02*
X65713095Y-26817200D01*
X65713095Y-26817200D02*
X65665476Y-26769580D01*
X43019580Y-63186666D02*
X43067200Y-63234285D01*
X43067200Y-63234285D02*
X43114819Y-63377142D01*
X43114819Y-63377142D02*
X43114819Y-63472380D01*
X43114819Y-63472380D02*
X43067200Y-63615237D01*
X43067200Y-63615237D02*
X42971961Y-63710475D01*
X42971961Y-63710475D02*
X42876723Y-63758094D01*
X42876723Y-63758094D02*
X42686247Y-63805713D01*
X42686247Y-63805713D02*
X42543390Y-63805713D01*
X42543390Y-63805713D02*
X42352914Y-63758094D01*
X42352914Y-63758094D02*
X42257676Y-63710475D01*
X42257676Y-63710475D02*
X42162438Y-63615237D01*
X42162438Y-63615237D02*
X42114819Y-63472380D01*
X42114819Y-63472380D02*
X42114819Y-63377142D01*
X42114819Y-63377142D02*
X42162438Y-63234285D01*
X42162438Y-63234285D02*
X42210057Y-63186666D01*
X42114819Y-62329523D02*
X42114819Y-62519999D01*
X42114819Y-62519999D02*
X42162438Y-62615237D01*
X42162438Y-62615237D02*
X42210057Y-62662856D01*
X42210057Y-62662856D02*
X42352914Y-62758094D01*
X42352914Y-62758094D02*
X42543390Y-62805713D01*
X42543390Y-62805713D02*
X42924342Y-62805713D01*
X42924342Y-62805713D02*
X43019580Y-62758094D01*
X43019580Y-62758094D02*
X43067200Y-62710475D01*
X43067200Y-62710475D02*
X43114819Y-62615237D01*
X43114819Y-62615237D02*
X43114819Y-62424761D01*
X43114819Y-62424761D02*
X43067200Y-62329523D01*
X43067200Y-62329523D02*
X43019580Y-62281904D01*
X43019580Y-62281904D02*
X42924342Y-62234285D01*
X42924342Y-62234285D02*
X42686247Y-62234285D01*
X42686247Y-62234285D02*
X42591009Y-62281904D01*
X42591009Y-62281904D02*
X42543390Y-62329523D01*
X42543390Y-62329523D02*
X42495771Y-62424761D01*
X42495771Y-62424761D02*
X42495771Y-62615237D01*
X42495771Y-62615237D02*
X42543390Y-62710475D01*
X42543390Y-62710475D02*
X42591009Y-62758094D01*
X42591009Y-62758094D02*
X42686247Y-62805713D01*
D11*
%TO.C,C5*%
X25912164Y-71140000D02*
X26127836Y-71140000D01*
X25912164Y-71860000D02*
X26127836Y-71860000D01*
%TO.C,R4*%
X30356359Y-51120000D02*
X30663641Y-51120000D01*
X30356359Y-51880000D02*
X30663641Y-51880000D01*
%TO.C,Q1*%
X29890000Y-41235000D02*
X29890000Y-39765000D01*
X32110000Y-39900748D02*
X32110000Y-41235000D01*
X32310000Y-39750000D02*
X32120000Y-39610000D01*
X32310000Y-39470000D01*
X32310000Y-39750000D01*
G36*
X32310000Y-39750000D02*
G01*
X32120000Y-39610000D01*
X32310000Y-39470000D01*
X32310000Y-39750000D01*
G37*
%TO.C,D4*%
X61740000Y-55400000D02*
X61740000Y-56600000D01*
X63700000Y-55400000D02*
X61740000Y-55400000D01*
X63700000Y-56600000D02*
X61740000Y-56600000D01*
%TO.C,C7*%
X35892164Y-51140000D02*
X36107836Y-51140000D01*
X35892164Y-51860000D02*
X36107836Y-51860000D01*
%TO.C,R19*%
X56106300Y-66346359D02*
X56106300Y-66653641D01*
X56866300Y-66346359D02*
X56866300Y-66653641D01*
%TO.C,R24*%
X63153641Y-51120000D02*
X62846359Y-51120000D01*
X63153641Y-51880000D02*
X62846359Y-51880000D01*
%TO.C,R16*%
X67143641Y-51120000D02*
X66836359Y-51120000D01*
X67143641Y-51880000D02*
X66836359Y-51880000D01*
%TO.C,C12*%
X65740000Y-54585000D02*
X65740000Y-62650000D01*
X70260000Y-54585000D02*
X65740000Y-54585000D01*
X70260000Y-62650000D02*
X70260000Y-54585000D01*
%TO.C,R9*%
X34356359Y-31620000D02*
X34663641Y-31620000D01*
X34356359Y-32380000D02*
X34663641Y-32380000D01*
%TO.C,J_BTN1*%
X57940000Y-72090000D02*
X57940000Y-79910000D01*
X57940000Y-73690000D02*
X58860000Y-73690000D01*
X57940000Y-79910000D02*
X68060000Y-79910000D01*
X58860000Y-72090000D02*
X57940000Y-72090000D01*
X58860000Y-73690000D02*
X58860000Y-72090000D01*
X59140000Y-73690000D02*
X58860000Y-73690000D01*
X59140000Y-73690000D02*
X59140000Y-72475000D01*
X59200000Y-77650000D02*
X59200000Y-79910000D01*
X59700000Y-77650000D02*
X59700000Y-79910000D01*
X60500000Y-75550000D02*
X65500000Y-75550000D01*
X60500000Y-79910000D02*
X60500000Y-75550000D01*
X65500000Y-75550000D02*
X65500000Y-79910000D01*
X67140000Y-72090000D02*
X67140000Y-73690000D01*
X67140000Y-73690000D02*
X66860000Y-73690000D01*
X68060000Y-72090000D02*
X67140000Y-72090000D01*
X68060000Y-73690000D02*
X67140000Y-73690000D01*
X68060000Y-79910000D02*
X68060000Y-72090000D01*
X58700000Y-76050000D02*
X59700000Y-76050000D01*
X59700000Y-77650000D01*
X58700000Y-77650000D01*
X58700000Y-76050000D01*
X66300000Y-76050000D02*
X67300000Y-76050000D01*
X67300000Y-77650000D01*
X66300000Y-77650000D01*
X66300000Y-76050000D01*
%TO.C,D6*%
X37100000Y-31400000D02*
X39060000Y-31400000D01*
X37100000Y-32600000D02*
X39060000Y-32600000D01*
X39060000Y-32600000D02*
X39060000Y-31400000D01*
%TO.C,R15*%
X53356359Y-66620000D02*
X53663641Y-66620000D01*
X53356359Y-67380000D02*
X53663641Y-67380000D01*
%TO.C,D8*%
X41150000Y-60560000D02*
X41150000Y-57900000D01*
X41150000Y-60560000D02*
X42850000Y-60560000D01*
X42850000Y-60560000D02*
X42850000Y-57900000D01*
%TO.C,Q2*%
X45802500Y-57440000D02*
X47322500Y-57440000D01*
X45802500Y-57490000D02*
X45802500Y-57440000D01*
X45802500Y-59390000D02*
X45802500Y-58610000D01*
X45802500Y-60560000D02*
X45802500Y-60510000D01*
X47322500Y-57440000D02*
X47322500Y-58440000D01*
X47322500Y-59560000D02*
X47322500Y-60560000D01*
X47322500Y-60560000D02*
X45802500Y-60560000D01*
X45502500Y-58950000D02*
X45022500Y-58950000D01*
X45262500Y-58620000D01*
X45502500Y-58950000D01*
G36*
X45502500Y-58950000D02*
G01*
X45022500Y-58950000D01*
X45262500Y-58620000D01*
X45502500Y-58950000D01*
G37*
%TO.C,U2*%
X34452500Y-35640000D02*
X34927500Y-35640000D01*
X34452500Y-36115000D02*
X34452500Y-35640000D01*
X34452500Y-39860000D02*
X34452500Y-39385000D01*
X34927500Y-39860000D02*
X34452500Y-39860000D01*
X38197500Y-35640000D02*
X38672500Y-35640000D01*
X38672500Y-35640000D02*
X38672500Y-36115000D01*
X38672500Y-39385000D02*
X38672500Y-39860000D01*
X38672500Y-39860000D02*
X38197500Y-39860000D01*
X33952500Y-36500000D02*
X33622500Y-36740000D01*
X33622500Y-36260000D01*
X33952500Y-36500000D01*
G36*
X33952500Y-36500000D02*
G01*
X33622500Y-36740000D01*
X33622500Y-36260000D01*
X33952500Y-36500000D01*
G37*
%TO.C,D5*%
X71740000Y-65400000D02*
X71740000Y-66600000D01*
X73700000Y-65400000D02*
X71740000Y-65400000D01*
X73700000Y-66600000D02*
X71740000Y-66600000D01*
%TO.C,R2*%
X31356359Y-33120000D02*
X31663641Y-33120000D01*
X31356359Y-33880000D02*
X31663641Y-33880000D01*
%TO.C,R17*%
X22836359Y-71120000D02*
X23143641Y-71120000D01*
X22836359Y-71880000D02*
X23143641Y-71880000D01*
%TO.C,R3*%
X30346359Y-48120000D02*
X30653641Y-48120000D01*
X30346359Y-48880000D02*
X30653641Y-48880000D01*
%TO.C,R21*%
X63120000Y-63143641D02*
X63120000Y-62836359D01*
X63880000Y-63143641D02*
X63880000Y-62836359D01*
%TO.C,C9*%
X48140000Y-62912164D02*
X48140000Y-63127836D01*
X48860000Y-62912164D02*
X48860000Y-63127836D01*
%TO.C,R12*%
X35866359Y-45120000D02*
X36173641Y-45120000D01*
X35866359Y-45880000D02*
X36173641Y-45880000D01*
%TO.C,R26*%
X69643641Y-69620000D02*
X69336359Y-69620000D01*
X69643641Y-70380000D02*
X69336359Y-70380000D01*
%TO.C,R10*%
X29643641Y-71120000D02*
X29336359Y-71120000D01*
X29643641Y-71880000D02*
X29336359Y-71880000D01*
%TO.C,C11*%
X26640000Y-74412164D02*
X26640000Y-74627836D01*
X27360000Y-74412164D02*
X27360000Y-74627836D01*
%TO.C,R5*%
X55120000Y-62846359D02*
X55120000Y-63153641D01*
X55880000Y-62846359D02*
X55880000Y-63153641D01*
%TO.C,R1*%
X30346359Y-45120000D02*
X30653641Y-45120000D01*
X30346359Y-45880000D02*
X30653641Y-45880000D01*
%TO.C,R11*%
X32836359Y-71120000D02*
X33143641Y-71120000D01*
X32836359Y-71880000D02*
X33143641Y-71880000D01*
%TO.C,R20*%
X58620000Y-62846359D02*
X58620000Y-63153641D01*
X59380000Y-62846359D02*
X59380000Y-63153641D01*
%TO.C,J_SIO1*%
X70132500Y-36800000D02*
X70132500Y-37800000D01*
X70132500Y-37800000D02*
X71132500Y-37300000D01*
X71132500Y-37300000D02*
X70132500Y-36800000D01*
X71522500Y-26220000D02*
X78852500Y-26220000D01*
X71522500Y-61080000D02*
X71522500Y-26220000D01*
X78852500Y-26220000D02*
X88512500Y-29690000D01*
X78852500Y-61080000D02*
X71522500Y-61080000D01*
X84952500Y-34510000D02*
X84952500Y-52790000D01*
X84952500Y-52790000D02*
X88512500Y-53420000D01*
X88512500Y-29690000D02*
X88512500Y-33880000D01*
X88512500Y-33880000D02*
X84952500Y-34510000D01*
X88512500Y-53420000D02*
X88512500Y-57610000D01*
X88512500Y-57610000D02*
X78852500Y-61080000D01*
%TO.C,R28*%
X22336359Y-51120000D02*
X22643641Y-51120000D01*
X22336359Y-51880000D02*
X22643641Y-51880000D01*
%TO.C,U4*%
X63415000Y-38255000D02*
X67535000Y-38255000D01*
X63415000Y-38320000D02*
X63415000Y-38255000D01*
X63415000Y-47125000D02*
X63415000Y-47060000D01*
X67535000Y-38255000D02*
X67535000Y-38320000D01*
X67535000Y-47060000D02*
X67535000Y-47125000D01*
X67535000Y-47125000D02*
X63415000Y-47125000D01*
X62875000Y-38320000D02*
X62635000Y-37990000D01*
X63115000Y-37990000D01*
X62875000Y-38320000D01*
G36*
X62875000Y-38320000D02*
G01*
X62635000Y-37990000D01*
X63115000Y-37990000D01*
X62875000Y-38320000D01*
G37*
%TO.C,J_PWR1*%
X36440000Y-72090000D02*
X36440000Y-79910000D01*
X36440000Y-73690000D02*
X37360000Y-73690000D01*
X36440000Y-79910000D02*
X42560000Y-79910000D01*
X37360000Y-72090000D02*
X36440000Y-72090000D01*
X37360000Y-73690000D02*
X37360000Y-72090000D01*
X37640000Y-73690000D02*
X37360000Y-73690000D01*
X37640000Y-73690000D02*
X37640000Y-72475000D01*
X37700000Y-77650000D02*
X37700000Y-79910000D01*
X38200000Y-77650000D02*
X38200000Y-79910000D01*
X39000000Y-75550000D02*
X40000000Y-75550000D01*
X39000000Y-79910000D02*
X39000000Y-75550000D01*
X40000000Y-75550000D02*
X40000000Y-79910000D01*
X41640000Y-72090000D02*
X41640000Y-73690000D01*
X41640000Y-73690000D02*
X41360000Y-73690000D01*
X42560000Y-72090000D02*
X41640000Y-72090000D01*
X42560000Y-73690000D02*
X41640000Y-73690000D01*
X42560000Y-79910000D02*
X42560000Y-72090000D01*
X37200000Y-76050000D02*
X38200000Y-76050000D01*
X38200000Y-77650000D01*
X37200000Y-77650000D01*
X37200000Y-76050000D01*
X40800000Y-76050000D02*
X41800000Y-76050000D01*
X41800000Y-77650000D01*
X40800000Y-77650000D01*
X40800000Y-76050000D01*
%TO.C,R13*%
X49356359Y-66620000D02*
X49663641Y-66620000D01*
X49356359Y-67380000D02*
X49663641Y-67380000D01*
%TO.C,R6*%
X31336359Y-36120000D02*
X31643641Y-36120000D01*
X31336359Y-36880000D02*
X31643641Y-36880000D01*
%TO.C,Q3*%
X51302500Y-57390000D02*
X52822500Y-57390000D01*
X51302500Y-57440000D02*
X51302500Y-57390000D01*
X51302500Y-59340000D02*
X51302500Y-58560000D01*
X51302500Y-60510000D02*
X51302500Y-60460000D01*
X52822500Y-57390000D02*
X52822500Y-58390000D01*
X52822500Y-59510000D02*
X52822500Y-60510000D01*
X52822500Y-60510000D02*
X51302500Y-60510000D01*
X51002500Y-58900000D02*
X50522500Y-58900000D01*
X50762500Y-58570000D01*
X51002500Y-58900000D01*
G36*
X51002500Y-58900000D02*
G01*
X50522500Y-58900000D01*
X50762500Y-58570000D01*
X51002500Y-58900000D01*
G37*
%TO.C,R23*%
X30120000Y-74356359D02*
X30120000Y-74663641D01*
X30880000Y-74356359D02*
X30880000Y-74663641D01*
%TO.C,C4*%
X56170000Y-58412164D02*
X56170000Y-58627836D01*
X56890000Y-58412164D02*
X56890000Y-58627836D01*
%TO.C,R25*%
X69356359Y-66120000D02*
X69663641Y-66120000D01*
X69356359Y-66880000D02*
X69663641Y-66880000D01*
%TO.C,R7*%
X35866359Y-48120000D02*
X36173641Y-48120000D01*
X35866359Y-48880000D02*
X36173641Y-48880000D01*
%TO.C,R18*%
X59600000Y-66346359D02*
X59600000Y-66653641D01*
X60360000Y-66346359D02*
X60360000Y-66653641D01*
%TO.C,C3*%
X65140000Y-48892164D02*
X65140000Y-49107836D01*
X65860000Y-48892164D02*
X65860000Y-49107836D01*
%TO.C,J_LED1*%
X45440000Y-72090000D02*
X45440000Y-79910000D01*
X45440000Y-73690000D02*
X46360000Y-73690000D01*
X45440000Y-79910000D02*
X55560000Y-79910000D01*
X46360000Y-72090000D02*
X45440000Y-72090000D01*
X46360000Y-73690000D02*
X46360000Y-72090000D01*
X46640000Y-73690000D02*
X46360000Y-73690000D01*
X46640000Y-73690000D02*
X46640000Y-72475000D01*
X46700000Y-77650000D02*
X46700000Y-79910000D01*
X47200000Y-77650000D02*
X47200000Y-79910000D01*
X48000000Y-75550000D02*
X53000000Y-75550000D01*
X48000000Y-79910000D02*
X48000000Y-75550000D01*
X53000000Y-75550000D02*
X53000000Y-79910000D01*
X54640000Y-72090000D02*
X54640000Y-73690000D01*
X54640000Y-73690000D02*
X54360000Y-73690000D01*
X55560000Y-72090000D02*
X54640000Y-72090000D01*
X55560000Y-73690000D02*
X54640000Y-73690000D01*
X55560000Y-79910000D02*
X55560000Y-72090000D01*
X46200000Y-76050000D02*
X47200000Y-76050000D01*
X47200000Y-77650000D01*
X46200000Y-77650000D01*
X46200000Y-76050000D01*
X53800000Y-76050000D02*
X54800000Y-76050000D01*
X54800000Y-77650000D01*
X53800000Y-77650000D01*
X53800000Y-76050000D01*
%TO.C,C8*%
X51640000Y-62892164D02*
X51640000Y-63107836D01*
X52360000Y-62892164D02*
X52360000Y-63107836D01*
%TO.C,R14*%
X45856359Y-66620000D02*
X46163641Y-66620000D01*
X45856359Y-67380000D02*
X46163641Y-67380000D01*
%TO.C,C1*%
X31372164Y-30140000D02*
X31587836Y-30140000D01*
X31372164Y-30860000D02*
X31587836Y-30860000D01*
%TO.C,D7*%
X36650000Y-57440000D02*
X36650000Y-60100000D01*
X38350000Y-57440000D02*
X36650000Y-57440000D01*
X38350000Y-57440000D02*
X38350000Y-60100000D01*
%TO.C,U5*%
X64227500Y-65940000D02*
X66047500Y-65940000D01*
X64227500Y-65990000D02*
X64227500Y-65940000D01*
X64227500Y-69060000D02*
X64227500Y-69010000D01*
X66047500Y-65940000D02*
X66047500Y-65990000D01*
X66047500Y-67110000D02*
X66047500Y-67890000D01*
X66047500Y-69010000D02*
X66047500Y-69060000D01*
X66047500Y-69060000D02*
X64227500Y-69060000D01*
X63687500Y-65990000D02*
X63447500Y-65660000D01*
X63927500Y-65660000D01*
X63687500Y-65990000D01*
G36*
X63687500Y-65990000D02*
G01*
X63447500Y-65660000D01*
X63927500Y-65660000D01*
X63687500Y-65990000D01*
G37*
%TO.C,U1*%
X41250000Y-22560000D02*
X41250000Y-29355000D01*
X41250000Y-28870000D02*
X59250000Y-28870000D01*
X41250000Y-53960000D02*
X41250000Y-53605000D01*
X41250000Y-53960000D02*
X59250000Y-53960000D01*
X59250000Y-22560000D02*
X41250000Y-22560000D01*
X59250000Y-22605000D02*
X59250000Y-29355000D01*
X59250000Y-53960000D02*
X59250000Y-53605000D01*
%TO.C,R27*%
X25856359Y-51120000D02*
X26163641Y-51120000D01*
X25856359Y-51880000D02*
X26163641Y-51880000D01*
%TO.C,SD1*%
X27600000Y-54440000D02*
X22000000Y-54440000D01*
X28300000Y-67310000D02*
X22000000Y-67310000D01*
X30850000Y-54440000D02*
X32010000Y-54440000D01*
X32010000Y-54440000D02*
X32010000Y-65700000D01*
X32010000Y-67200000D02*
X32010000Y-67310000D01*
X32010000Y-67310000D02*
X30200000Y-67310000D01*
%TO.C,J2*%
X75725000Y-70800000D02*
X75725000Y-71600000D01*
X78645000Y-63300000D02*
X80425000Y-63300000D01*
X78645000Y-72700000D02*
X80425000Y-72700000D01*
%TO.C,R8*%
X62120000Y-48846359D02*
X62120000Y-49153641D01*
X62880000Y-48846359D02*
X62880000Y-49153641D01*
%TO.C,C10*%
X44640000Y-62892164D02*
X44640000Y-63107836D01*
X45360000Y-62892164D02*
X45360000Y-63107836D01*
%TO.C,C2*%
X59170000Y-58412164D02*
X59170000Y-58627836D01*
X59890000Y-58412164D02*
X59890000Y-58627836D01*
%TO.C,R22*%
X41120000Y-66346359D02*
X41120000Y-66653641D01*
X41880000Y-66346359D02*
X41880000Y-66653641D01*
%TO.C,J_SD1*%
X20140000Y-31940000D02*
X20140000Y-48060000D01*
X20140000Y-34500000D02*
X24500000Y-34500000D01*
X20140000Y-48060000D02*
X27960000Y-48060000D01*
X22400000Y-33200000D02*
X20140000Y-33200000D01*
X22400000Y-33700000D02*
X20140000Y-33700000D01*
X24500000Y-34500000D02*
X24500000Y-45500000D01*
X24500000Y-45500000D02*
X20140000Y-45500000D01*
X26360000Y-31940000D02*
X26360000Y-32860000D01*
X26360000Y-32860000D02*
X27960000Y-32860000D01*
X26360000Y-33140000D02*
X26360000Y-32860000D01*
X26360000Y-33140000D02*
X27575000Y-33140000D01*
X26360000Y-47140000D02*
X26360000Y-46860000D01*
X26360000Y-48060000D02*
X26360000Y-47140000D01*
X27960000Y-31940000D02*
X20140000Y-31940000D01*
X27960000Y-32860000D02*
X27960000Y-31940000D01*
X27960000Y-47140000D02*
X26360000Y-47140000D01*
X27960000Y-48060000D02*
X27960000Y-47140000D01*
X24000000Y-32700000D02*
X22400000Y-32700000D01*
X22400000Y-33700000D01*
X24000000Y-33700000D01*
X24000000Y-32700000D01*
X24000000Y-46300000D02*
X22400000Y-46300000D01*
X22400000Y-47300000D01*
X24000000Y-47300000D01*
X24000000Y-46300000D01*
%TO.C,U3*%
X63415000Y-27255000D02*
X67535000Y-27255000D01*
X63415000Y-27320000D02*
X63415000Y-27255000D01*
X63415000Y-36125000D02*
X63415000Y-36060000D01*
X67535000Y-27255000D02*
X67535000Y-27320000D01*
X67535000Y-36060000D02*
X67535000Y-36125000D01*
X67535000Y-36125000D02*
X63415000Y-36125000D01*
X62875000Y-27320000D02*
X62635000Y-26990000D01*
X63115000Y-26990000D01*
X62875000Y-27320000D01*
G36*
X62875000Y-27320000D02*
G01*
X62635000Y-26990000D01*
X63115000Y-26990000D01*
X62875000Y-27320000D01*
G37*
%TO.C,C6*%
X41140000Y-62912164D02*
X41140000Y-63127836D01*
X41860000Y-62912164D02*
X41860000Y-63127836D01*
%TD*%
%LPC*%
D12*
%TO.C,C5*%
X25540000Y-71500000D03*
X26500000Y-71500000D03*
%TD*%
D13*
%TO.C,R4*%
X30000000Y-51500000D03*
X31020000Y-51500000D03*
%TD*%
D14*
%TO.C,Q1*%
X31650000Y-39612500D03*
X31000000Y-39612500D03*
X30350000Y-39612500D03*
X30350000Y-41387500D03*
X31000000Y-41387500D03*
X31650000Y-41387500D03*
%TD*%
D15*
%TO.C,MH1*%
X22500000Y-28000000D03*
%TD*%
D16*
%TO.C,D4*%
X62300000Y-56000000D03*
X63700000Y-56000000D03*
%TD*%
D12*
%TO.C,C7*%
X35520000Y-51500000D03*
X36480000Y-51500000D03*
%TD*%
D17*
%TO.C,R19*%
X56486300Y-65990000D03*
X56486300Y-67010000D03*
%TD*%
D18*
%TO.C,R24*%
X63510000Y-51500000D03*
X62490000Y-51500000D03*
%TD*%
%TO.C,R16*%
X67500000Y-51500000D03*
X66480000Y-51500000D03*
%TD*%
D19*
%TO.C,C12*%
X68000000Y-55880000D03*
X68000000Y-62120000D03*
%TD*%
D13*
%TO.C,R9*%
X34000000Y-32000000D03*
X35020000Y-32000000D03*
%TD*%
D20*
%TO.C,J_BTN1*%
X60000000Y-73550000D03*
D21*
X62000000Y-73550000D03*
X64000000Y-73550000D03*
X66000000Y-73550000D03*
%TD*%
D22*
%TO.C,D6*%
X38500000Y-32000000D03*
X37100000Y-32000000D03*
%TD*%
D13*
%TO.C,R15*%
X53000000Y-67000000D03*
X54020000Y-67000000D03*
%TD*%
D15*
%TO.C,MH4*%
X82000000Y-77500000D03*
%TD*%
D23*
%TO.C,D8*%
X42000000Y-60000000D03*
X42000000Y-57900000D03*
%TD*%
D24*
%TO.C,Q2*%
X45625000Y-58050000D03*
X45625000Y-59950000D03*
X47500000Y-59000000D03*
%TD*%
D25*
%TO.C,U2*%
X34625000Y-36500000D03*
X34625000Y-37000000D03*
X34625000Y-37500000D03*
X34625000Y-38000000D03*
X34625000Y-38500000D03*
X34625000Y-39000000D03*
D26*
X35312500Y-39687500D03*
X35812500Y-39687500D03*
X36312500Y-39687500D03*
X36812500Y-39687500D03*
X37312500Y-39687500D03*
X37812500Y-39687500D03*
D25*
X38500000Y-39000000D03*
X38500000Y-38500000D03*
X38500000Y-38000000D03*
X38500000Y-37500000D03*
X38500000Y-37000000D03*
X38500000Y-36500000D03*
D26*
X37812500Y-35812500D03*
X37312500Y-35812500D03*
X36812500Y-35812500D03*
X36312500Y-35812500D03*
X35812500Y-35812500D03*
X35312500Y-35812500D03*
D27*
X36562500Y-37750000D03*
%TD*%
D16*
%TO.C,D5*%
X72300000Y-66000000D03*
X73700000Y-66000000D03*
%TD*%
D13*
%TO.C,R2*%
X31000000Y-33500000D03*
X32020000Y-33500000D03*
%TD*%
%TO.C,R17*%
X22480000Y-71500000D03*
X23500000Y-71500000D03*
%TD*%
%TO.C,R3*%
X29990000Y-48500000D03*
X31010000Y-48500000D03*
%TD*%
D28*
%TO.C,R21*%
X63500000Y-63500000D03*
X63500000Y-62480000D03*
%TD*%
D29*
%TO.C,C9*%
X48500000Y-62540000D03*
X48500000Y-63500000D03*
%TD*%
D13*
%TO.C,R12*%
X35510000Y-45500000D03*
X36530000Y-45500000D03*
%TD*%
D18*
%TO.C,R26*%
X70000000Y-70000000D03*
X68980000Y-70000000D03*
%TD*%
%TO.C,R10*%
X30000000Y-71500000D03*
X28980000Y-71500000D03*
%TD*%
D29*
%TO.C,C11*%
X27000000Y-74040000D03*
X27000000Y-75000000D03*
%TD*%
D17*
%TO.C,R5*%
X55500000Y-62490000D03*
X55500000Y-63510000D03*
%TD*%
D13*
%TO.C,R1*%
X29990000Y-45500000D03*
X31010000Y-45500000D03*
%TD*%
%TO.C,R11*%
X32480000Y-71500000D03*
X33500000Y-71500000D03*
%TD*%
D17*
%TO.C,R20*%
X59000000Y-62490000D03*
X59000000Y-63510000D03*
%TD*%
D30*
%TO.C,J_SIO1*%
X72872500Y-37300000D03*
D31*
X75412500Y-37300000D03*
X72872500Y-39840000D03*
X75412500Y-39840000D03*
X72872500Y-42380000D03*
X75412500Y-42380000D03*
X72872500Y-44920000D03*
X75412500Y-44920000D03*
X72872500Y-47460000D03*
X75412500Y-47460000D03*
X72872500Y-50000000D03*
X75412500Y-50000000D03*
%TD*%
D13*
%TO.C,R28*%
X21980000Y-51500000D03*
X23000000Y-51500000D03*
%TD*%
D32*
%TO.C,U4*%
X63000000Y-38880000D03*
X63000000Y-40150000D03*
X63000000Y-41420000D03*
X63000000Y-42690000D03*
X63000000Y-43960000D03*
X63000000Y-45230000D03*
X63000000Y-46500000D03*
X67950000Y-46500000D03*
X67950000Y-45230000D03*
X67950000Y-43960000D03*
X67950000Y-42690000D03*
X67950000Y-41420000D03*
X67950000Y-40150000D03*
X67950000Y-38880000D03*
%TD*%
D20*
%TO.C,J_PWR1*%
X38500000Y-73550000D03*
D21*
X40500000Y-73550000D03*
%TD*%
D13*
%TO.C,R13*%
X49000000Y-67000000D03*
X50020000Y-67000000D03*
%TD*%
%TO.C,R6*%
X30980000Y-36500000D03*
X32000000Y-36500000D03*
%TD*%
D24*
%TO.C,Q3*%
X51125000Y-58000000D03*
X51125000Y-59900000D03*
X53000000Y-58950000D03*
%TD*%
D17*
%TO.C,R23*%
X30500000Y-74000000D03*
X30500000Y-75020000D03*
%TD*%
D29*
%TO.C,C4*%
X56530000Y-58040000D03*
X56530000Y-59000000D03*
%TD*%
D13*
%TO.C,R25*%
X69000000Y-66500000D03*
X70020000Y-66500000D03*
%TD*%
%TO.C,R7*%
X35510000Y-48500000D03*
X36530000Y-48500000D03*
%TD*%
D17*
%TO.C,R18*%
X59980000Y-65990000D03*
X59980000Y-67010000D03*
%TD*%
D29*
%TO.C,C3*%
X65500000Y-48520000D03*
X65500000Y-49480000D03*
%TD*%
D20*
%TO.C,J_LED1*%
X47500000Y-73550000D03*
D21*
X49500000Y-73550000D03*
X51500000Y-73550000D03*
X53500000Y-73550000D03*
%TD*%
D29*
%TO.C,C8*%
X52000000Y-62520000D03*
X52000000Y-63480000D03*
%TD*%
D13*
%TO.C,R14*%
X45500000Y-67000000D03*
X46520000Y-67000000D03*
%TD*%
D12*
%TO.C,C1*%
X31000000Y-30500000D03*
X31960000Y-30500000D03*
%TD*%
D33*
%TO.C,D7*%
X37500000Y-58000000D03*
X37500000Y-60100000D03*
%TD*%
D34*
%TO.C,U5*%
X64000000Y-66550000D03*
X64000000Y-67500000D03*
X64000000Y-68450000D03*
X66275000Y-68450000D03*
X66275000Y-66550000D03*
%TD*%
D35*
%TO.C,U1*%
X41500000Y-30000000D03*
X41500000Y-31270000D03*
X41500000Y-32540000D03*
X41500000Y-33810000D03*
X41500000Y-35080000D03*
X41500000Y-36350000D03*
X41500000Y-37620000D03*
X41500000Y-38890000D03*
X41500000Y-40160000D03*
X41500000Y-41430000D03*
X41500000Y-42700000D03*
X41500000Y-43970000D03*
X41500000Y-45240000D03*
X41500000Y-46510000D03*
X41500000Y-47780000D03*
X41500000Y-49050000D03*
X41500000Y-50320000D03*
X41500000Y-51590000D03*
X41500000Y-52860000D03*
X59000000Y-52860000D03*
X59000000Y-51590000D03*
X59000000Y-50320000D03*
X59000000Y-49050000D03*
X59000000Y-47780000D03*
X59000000Y-46510000D03*
X59000000Y-45240000D03*
X59000000Y-43970000D03*
X59000000Y-42700000D03*
X59000000Y-41430000D03*
X59000000Y-40160000D03*
X59000000Y-38890000D03*
X59000000Y-37620000D03*
X59000000Y-36350000D03*
X59000000Y-35080000D03*
X59000000Y-33810000D03*
X59000000Y-32540000D03*
X59000000Y-31270000D03*
X59000000Y-30000000D03*
D36*
X47345000Y-36395000D03*
X47350000Y-37795000D03*
X47350000Y-39195000D03*
X48750000Y-36395000D03*
X48750000Y-37795000D03*
X48750000Y-39195000D03*
X50150000Y-36395000D03*
X50150000Y-37795000D03*
X50150000Y-39195000D03*
%TD*%
D13*
%TO.C,R27*%
X25500000Y-51500000D03*
X26520000Y-51500000D03*
%TD*%
D37*
%TO.C,SD1*%
X20875000Y-64050000D03*
X20875000Y-62950000D03*
X20875000Y-61850000D03*
X20875000Y-60750000D03*
X20875000Y-59650000D03*
X20875000Y-58550000D03*
X20875000Y-57450000D03*
X20875000Y-56350000D03*
D38*
X30100000Y-55225000D03*
D39*
X31675000Y-66450000D03*
D40*
X28600000Y-54900000D03*
D41*
X21000000Y-55150000D03*
D42*
X21000000Y-66500000D03*
D43*
X29250000Y-66850000D03*
%TD*%
D44*
%TO.C,J2*%
X77820000Y-70890000D03*
X77820000Y-65110000D03*
D45*
X76680000Y-71200000D03*
X76680000Y-70400000D03*
D46*
X76680000Y-69250000D03*
X76680000Y-68250000D03*
X76680000Y-67750000D03*
X76680000Y-66750000D03*
D45*
X76680000Y-65600000D03*
X76680000Y-64800000D03*
X76680000Y-64800000D03*
X76680000Y-65600000D03*
D46*
X76680000Y-66250000D03*
X76680000Y-67250000D03*
X76680000Y-68750000D03*
X76680000Y-69750000D03*
D45*
X76680000Y-70400000D03*
X76680000Y-71200000D03*
D47*
X77320000Y-72320000D03*
D48*
X81500000Y-72320000D03*
D47*
X77320000Y-63680000D03*
D48*
X81500000Y-63680000D03*
%TD*%
D17*
%TO.C,R8*%
X62500000Y-48490000D03*
X62500000Y-49510000D03*
%TD*%
D29*
%TO.C,C10*%
X45000000Y-62520000D03*
X45000000Y-63480000D03*
%TD*%
D15*
%TO.C,MH2*%
X82000000Y-28000000D03*
%TD*%
D29*
%TO.C,C2*%
X59530000Y-58040000D03*
X59530000Y-59000000D03*
%TD*%
D17*
%TO.C,R22*%
X41500000Y-65990000D03*
X41500000Y-67010000D03*
%TD*%
D49*
%TO.C,J_SD1*%
X26500000Y-34000000D03*
D50*
X26500000Y-36000000D03*
X26500000Y-38000000D03*
X26500000Y-40000000D03*
X26500000Y-42000000D03*
X26500000Y-44000000D03*
X26500000Y-46000000D03*
%TD*%
D15*
%TO.C,MH3*%
X22500000Y-77500000D03*
%TD*%
D32*
%TO.C,U3*%
X63000000Y-27880000D03*
X63000000Y-29150000D03*
X63000000Y-30420000D03*
X63000000Y-31690000D03*
X63000000Y-32960000D03*
X63000000Y-34230000D03*
X63000000Y-35500000D03*
X67950000Y-35500000D03*
X67950000Y-34230000D03*
X67950000Y-32960000D03*
X67950000Y-31690000D03*
X67950000Y-30420000D03*
X67950000Y-29150000D03*
X67950000Y-27880000D03*
%TD*%
D29*
%TO.C,C6*%
X41500000Y-62540000D03*
X41500000Y-63500000D03*
%TD*%
%LPD*%
M02*
