%TF.GenerationSoftware,KiCad,Pcbnew,9.0.7*%
%TF.CreationDate,2026-07-28T22:14:39-07:00*%
%TF.ProjectId,FN32ROV-XEBook-KiCad,464e3332-524f-4562-9d58-45426f6f6b2d,rev?*%
%TF.SameCoordinates,Original*%
%TF.FileFunction,Legend,Bot*%
%TF.FilePolarity,Positive*%
%FSLAX46Y46*%
G04 Gerber Fmt 4.6, Leading zero omitted, Abs format (unit mm)*
G04 Created by KiCad (PCBNEW 9.0.7) date 2026-07-28 22:14:39*
%MOMM*%
%LPD*%
G01*
G04 APERTURE LIST*
G04 Aperture macros list*
%AMRoundRect*
0 Rectangle with rounded corners*
0 $1 Rounding radius*
0 $2 $3 $4 $5 $6 $7 $8 $9 X,Y pos of 4 corners*
0 Add a 4 corners polygon primitive as box body*
4,1,4,$2,$3,$4,$5,$6,$7,$8,$9,$2,$3,0*
0 Add four circle primitives for the rounded corners*
1,1,$1+$1,$2,$3*
1,1,$1+$1,$4,$5*
1,1,$1+$1,$6,$7*
1,1,$1+$1,$8,$9*
0 Add four rect primitives between the rounded corners*
20,1,$1+$1,$2,$3,$4,$5,0*
20,1,$1+$1,$4,$5,$6,$7,0*
20,1,$1+$1,$6,$7,$8,$9,0*
20,1,$1+$1,$8,$9,$2,$3,0*%
G04 Aperture macros list end*
%ADD10C,0.000000*%
%ADD11C,0.529166*%
%ADD12C,2.200000*%
%ADD13RoundRect,0.250000X-0.350000X-0.625000X0.350000X-0.625000X0.350000X0.625000X-0.350000X0.625000X0*%
%ADD14O,1.200000X1.750000*%
%ADD15RoundRect,0.250000X-0.600000X-0.600000X0.600000X-0.600000X0.600000X0.600000X-0.600000X0.600000X0*%
%ADD16C,1.700000*%
%ADD17C,0.650000*%
%ADD18O,2.100000X1.000000*%
%ADD19O,1.600000X1.000000*%
%ADD20RoundRect,0.250000X-0.625000X0.350000X-0.625000X-0.350000X0.625000X-0.350000X0.625000X0.350000X0*%
%ADD21O,1.750000X1.200000*%
G04 APERTURE END LIST*
D10*
G36*
X49049478Y-62232464D02*
G01*
X49052483Y-62232612D01*
X49055499Y-62232863D01*
X49058533Y-62233227D01*
X49061591Y-62233708D01*
X49064678Y-62234313D01*
X49067801Y-62235045D01*
X49070965Y-62235912D01*
X49074175Y-62236919D01*
X49077438Y-62238073D01*
X49080760Y-62239379D01*
X49084145Y-62240843D01*
X49087601Y-62242471D01*
X49091132Y-62244270D01*
X49094745Y-62246242D01*
X49098444Y-62248396D01*
X49101817Y-62250318D01*
X49105188Y-62252330D01*
X49108552Y-62254430D01*
X49111907Y-62256615D01*
X49115251Y-62258882D01*
X49118579Y-62261228D01*
X49125181Y-62266143D01*
X49131689Y-62271340D01*
X49138078Y-62276793D01*
X49144327Y-62282479D01*
X49150410Y-62288376D01*
X49156306Y-62294377D01*
X49161992Y-62300427D01*
X49164750Y-62303485D01*
X49167445Y-62306573D01*
X49170077Y-62309696D01*
X49172641Y-62312860D01*
X49175136Y-62316070D01*
X49177557Y-62319333D01*
X49179903Y-62322654D01*
X49182169Y-62326041D01*
X49184354Y-62329495D01*
X49186454Y-62333028D01*
X49188466Y-62336640D01*
X49190388Y-62340339D01*
X49192216Y-62343712D01*
X49193947Y-62347082D01*
X49195577Y-62350447D01*
X49197105Y-62353803D01*
X49198527Y-62357146D01*
X49199840Y-62360474D01*
X49201042Y-62363785D01*
X49202130Y-62367075D01*
X49203100Y-62370342D01*
X49203950Y-62373583D01*
X49204678Y-62376795D01*
X49205279Y-62379972D01*
X49205752Y-62383116D01*
X49206093Y-62386220D01*
X49206300Y-62389285D01*
X49206370Y-62392304D01*
X49206370Y-62970022D01*
X49206300Y-62974143D01*
X49206096Y-62978267D01*
X49205763Y-62982389D01*
X49205307Y-62986511D01*
X49204733Y-62990634D01*
X49204049Y-62994756D01*
X49203258Y-62998880D01*
X49202369Y-63003001D01*
X49200314Y-63011246D01*
X49197932Y-63019492D01*
X49195270Y-63027738D01*
X49192374Y-63035983D01*
X49190829Y-63040081D01*
X49189192Y-63044130D01*
X49187468Y-63048127D01*
X49185659Y-63052069D01*
X49183767Y-63055951D01*
X49181796Y-63059772D01*
X49179749Y-63063530D01*
X49177629Y-63067219D01*
X49175439Y-63070838D01*
X49173182Y-63074384D01*
X49170861Y-63077855D01*
X49168479Y-63081244D01*
X49166039Y-63084553D01*
X49163543Y-63087775D01*
X49160996Y-63090909D01*
X49158400Y-63093953D01*
X49155752Y-63097279D01*
X49153054Y-63100512D01*
X49150304Y-63103651D01*
X49147498Y-63106697D01*
X49144634Y-63109650D01*
X49141709Y-63112507D01*
X49138720Y-63115273D01*
X49135663Y-63117943D01*
X49132535Y-63120521D01*
X49129334Y-63123006D01*
X49126057Y-63125395D01*
X49122701Y-63127691D01*
X49119262Y-63129894D01*
X49115738Y-63132004D01*
X49112126Y-63134019D01*
X49108422Y-63135942D01*
X49104672Y-63137770D01*
X49100922Y-63139500D01*
X49097173Y-63141131D01*
X49093424Y-63142658D01*
X49089675Y-63144081D01*
X49085927Y-63145393D01*
X49082179Y-63146596D01*
X49078431Y-63147683D01*
X49074682Y-63148653D01*
X49070934Y-63149503D01*
X49067186Y-63150232D01*
X49063437Y-63150832D01*
X49059689Y-63151305D01*
X49055939Y-63151646D01*
X49052190Y-63151854D01*
X49048439Y-63151923D01*
X48646643Y-63151923D01*
X48646643Y-63361817D01*
X48872519Y-63361817D01*
X48872519Y-63211905D01*
X49204358Y-63327844D01*
X49204358Y-63585707D01*
X49204310Y-63588726D01*
X49204166Y-63591791D01*
X49203923Y-63594895D01*
X49203577Y-63598039D01*
X49203126Y-63601218D01*
X49202566Y-63604428D01*
X49201896Y-63607669D01*
X49201110Y-63610935D01*
X49200208Y-63614226D01*
X49199185Y-63617536D01*
X49198040Y-63620865D01*
X49196768Y-63624209D01*
X49195367Y-63627564D01*
X49193835Y-63630928D01*
X49192167Y-63634298D01*
X49190361Y-63637671D01*
X49186517Y-63644414D01*
X49182487Y-63651134D01*
X49178270Y-63657805D01*
X49173866Y-63664407D01*
X49169276Y-63670914D01*
X49164498Y-63677304D01*
X49159532Y-63683553D01*
X49154377Y-63689635D01*
X49151730Y-63692608D01*
X49149039Y-63695532D01*
X49146307Y-63698403D01*
X49143538Y-63701217D01*
X49140733Y-63703975D01*
X49137897Y-63706671D01*
X49135031Y-63709302D01*
X49132138Y-63711867D01*
X49129223Y-63714361D01*
X49126286Y-63716783D01*
X49123332Y-63719128D01*
X49120362Y-63721395D01*
X49117381Y-63723580D01*
X49114391Y-63725680D01*
X49111394Y-63727693D01*
X49108393Y-63729613D01*
X49105392Y-63731442D01*
X49102391Y-63733172D01*
X49099391Y-63734803D01*
X49096392Y-63736330D01*
X49093392Y-63737752D01*
X49090394Y-63739065D01*
X49087396Y-63740268D01*
X49084398Y-63741355D01*
X49081400Y-63742325D01*
X49078403Y-63743175D01*
X49075406Y-63743903D01*
X49072410Y-63744505D01*
X49069413Y-63744978D01*
X49066417Y-63745318D01*
X49063421Y-63745525D01*
X49060425Y-63745595D01*
X48472733Y-63745595D01*
X48469735Y-63745548D01*
X48466731Y-63745400D01*
X48463715Y-63745148D01*
X48460680Y-63744783D01*
X48457622Y-63744303D01*
X48454535Y-63743698D01*
X48451412Y-63742966D01*
X48448248Y-63742099D01*
X48445037Y-63741091D01*
X48441774Y-63739937D01*
X48438452Y-63738631D01*
X48435067Y-63737167D01*
X48431611Y-63735540D01*
X48428080Y-63733741D01*
X48424467Y-63731769D01*
X48420767Y-63729613D01*
X48417394Y-63727693D01*
X48414024Y-63725680D01*
X48410660Y-63723580D01*
X48407305Y-63721395D01*
X48403961Y-63719128D01*
X48400632Y-63716783D01*
X48394031Y-63711867D01*
X48387523Y-63706671D01*
X48381133Y-63701217D01*
X48374885Y-63695532D01*
X48368802Y-63689635D01*
X48362906Y-63683553D01*
X48357220Y-63677304D01*
X48351767Y-63670914D01*
X48349136Y-63667675D01*
X48346571Y-63664407D01*
X48344076Y-63661116D01*
X48341655Y-63657805D01*
X48339309Y-63654477D01*
X48337043Y-63651134D01*
X48334858Y-63647779D01*
X48332758Y-63644414D01*
X48330745Y-63641044D01*
X48328824Y-63637671D01*
X48326996Y-63634298D01*
X48325265Y-63630928D01*
X48323635Y-63627564D01*
X48322107Y-63624209D01*
X48320685Y-63620865D01*
X48319371Y-63617536D01*
X48318169Y-63614226D01*
X48317082Y-63610935D01*
X48316112Y-63607669D01*
X48315261Y-63604428D01*
X48314534Y-63601218D01*
X48313932Y-63598039D01*
X48313460Y-63594895D01*
X48313118Y-63591791D01*
X48312911Y-63588726D01*
X48312842Y-63585707D01*
X48312842Y-63013995D01*
X48312911Y-63009873D01*
X48313116Y-63005751D01*
X48313449Y-63001627D01*
X48313905Y-62997506D01*
X48314479Y-62993382D01*
X48315164Y-62989261D01*
X48315954Y-62985137D01*
X48316844Y-62981015D01*
X48318899Y-62972769D01*
X48321281Y-62964524D01*
X48323944Y-62956279D01*
X48326840Y-62948034D01*
X48328385Y-62943935D01*
X48330021Y-62939882D01*
X48331746Y-62935876D01*
X48333555Y-62931917D01*
X48335447Y-62928005D01*
X48337417Y-62924138D01*
X48339464Y-62920318D01*
X48341584Y-62916546D01*
X48346031Y-62909142D01*
X48350734Y-62901924D01*
X48355669Y-62894894D01*
X48360812Y-62888053D01*
X48363460Y-62885081D01*
X48366158Y-62882154D01*
X48368908Y-62879273D01*
X48371714Y-62876441D01*
X48374578Y-62873654D01*
X48377503Y-62870913D01*
X48380493Y-62868218D01*
X48383550Y-62865571D01*
X48386678Y-62862969D01*
X48389879Y-62860416D01*
X48393156Y-62857907D01*
X48396513Y-62855446D01*
X48399952Y-62853031D01*
X48403477Y-62850662D01*
X48407090Y-62848339D01*
X48410794Y-62846064D01*
X48414544Y-62844236D01*
X48418293Y-62842506D01*
X48422043Y-62840875D01*
X48425791Y-62839348D01*
X48429540Y-62837926D01*
X48433288Y-62836613D01*
X48437036Y-62835410D01*
X48440784Y-62834323D01*
X48444532Y-62833354D01*
X48448280Y-62832503D01*
X48452028Y-62831775D01*
X48455777Y-62831175D01*
X48459525Y-62830702D01*
X48463274Y-62830360D01*
X48467024Y-62830153D01*
X48470774Y-62830084D01*
X48872570Y-62830084D01*
X48870560Y-62828073D01*
X48870587Y-62828098D01*
X48870587Y-62614210D01*
X48644713Y-62614210D01*
X48644713Y-62764122D01*
X48312870Y-62648183D01*
X48312870Y-62390320D01*
X48312918Y-62387649D01*
X48313062Y-62384891D01*
X48313305Y-62382052D01*
X48313651Y-62379136D01*
X48314102Y-62376149D01*
X48314662Y-62373098D01*
X48315333Y-62369990D01*
X48316118Y-62366827D01*
X48317020Y-62363619D01*
X48318043Y-62360370D01*
X48319189Y-62357085D01*
X48320461Y-62353771D01*
X48321862Y-62350433D01*
X48323395Y-62347078D01*
X48325063Y-62343712D01*
X48326869Y-62340339D01*
X48330712Y-62333596D01*
X48334742Y-62326877D01*
X48338959Y-62320206D01*
X48343362Y-62313603D01*
X48347952Y-62307097D01*
X48352730Y-62300707D01*
X48357696Y-62294459D01*
X48362851Y-62288376D01*
X48368845Y-62282479D01*
X48374841Y-62276793D01*
X48380838Y-62271340D01*
X48386836Y-62266143D01*
X48392834Y-62261228D01*
X48398831Y-62256615D01*
X48401829Y-62254430D01*
X48404827Y-62252330D01*
X48407824Y-62250318D01*
X48410820Y-62248396D01*
X48417473Y-62244839D01*
X48420728Y-62243208D01*
X48423937Y-62241681D01*
X48427098Y-62240258D01*
X48430213Y-62238945D01*
X48433281Y-62237743D01*
X48436302Y-62236656D01*
X48439276Y-62235686D01*
X48442204Y-62234836D01*
X48445085Y-62234109D01*
X48447919Y-62233507D01*
X48450706Y-62233035D01*
X48453447Y-62232692D01*
X48456141Y-62232485D01*
X48458788Y-62232416D01*
X49046481Y-62232416D01*
X49049478Y-62232464D01*
G37*
G36*
X53328343Y-63367848D02*
G01*
X53558238Y-63367848D01*
X53558238Y-62234426D01*
X53888068Y-62234426D01*
X53888068Y-63589727D01*
X53888020Y-63592726D01*
X53887873Y-63595730D01*
X53887620Y-63598745D01*
X53887256Y-63601781D01*
X53886775Y-63604838D01*
X53886171Y-63607925D01*
X53885439Y-63611047D01*
X53884572Y-63614211D01*
X53883564Y-63617423D01*
X53882410Y-63620685D01*
X53881104Y-63624006D01*
X53879640Y-63627392D01*
X53878012Y-63630848D01*
X53876214Y-63634379D01*
X53874241Y-63637991D01*
X53872086Y-63641691D01*
X53870164Y-63645065D01*
X53868152Y-63648434D01*
X53866052Y-63651798D01*
X53863867Y-63655154D01*
X53861600Y-63658497D01*
X53859255Y-63661827D01*
X53854338Y-63668429D01*
X53849142Y-63674936D01*
X53843689Y-63681325D01*
X53838002Y-63687573D01*
X53832106Y-63693657D01*
X53826023Y-63699551D01*
X53819775Y-63705238D01*
X53813386Y-63710691D01*
X53810146Y-63713324D01*
X53806879Y-63715887D01*
X53803588Y-63718383D01*
X53800277Y-63720804D01*
X53796948Y-63723150D01*
X53793605Y-63725415D01*
X53790250Y-63727600D01*
X53786885Y-63729700D01*
X53783515Y-63731713D01*
X53780142Y-63733634D01*
X53776769Y-63735462D01*
X53773399Y-63737192D01*
X53770035Y-63738823D01*
X53766680Y-63740351D01*
X53763336Y-63741772D01*
X53760007Y-63743087D01*
X53756696Y-63744287D01*
X53753406Y-63745375D01*
X53750139Y-63746346D01*
X53746898Y-63747196D01*
X53743687Y-63747923D01*
X53740508Y-63748525D01*
X53737365Y-63748998D01*
X53734260Y-63749338D01*
X53731196Y-63749545D01*
X53728177Y-63749616D01*
X53730187Y-63751627D01*
X53730111Y-63751627D01*
X53142418Y-63751627D01*
X53139444Y-63751556D01*
X53136507Y-63751350D01*
X53133599Y-63751007D01*
X53130711Y-63750532D01*
X53127835Y-63749929D01*
X53124962Y-63749201D01*
X53122082Y-63748348D01*
X53119188Y-63747377D01*
X53116271Y-63746288D01*
X53113321Y-63745086D01*
X53110329Y-63743772D01*
X53107288Y-63742351D01*
X53104189Y-63740825D01*
X53101022Y-63739196D01*
X53094450Y-63735646D01*
X53091101Y-63733728D01*
X53087798Y-63731719D01*
X53084542Y-63729621D01*
X53081333Y-63727439D01*
X53078171Y-63725172D01*
X53075056Y-63722826D01*
X53071988Y-63720405D01*
X53068967Y-63717908D01*
X53065993Y-63715342D01*
X53063066Y-63712710D01*
X53060185Y-63710011D01*
X53057351Y-63707253D01*
X53054564Y-63704436D01*
X53051824Y-63701565D01*
X53046483Y-63695667D01*
X53043555Y-63692647D01*
X53040758Y-63689584D01*
X53038084Y-63686480D01*
X53035524Y-63683335D01*
X53033070Y-63680157D01*
X53030711Y-63676946D01*
X53028440Y-63673706D01*
X53026248Y-63670440D01*
X53022066Y-63663837D01*
X53018093Y-63657166D01*
X53014261Y-63650446D01*
X53010499Y-63643704D01*
X53008693Y-63640331D01*
X53007025Y-63636961D01*
X53005493Y-63633596D01*
X53004092Y-63630240D01*
X53002820Y-63626897D01*
X53001674Y-63623569D01*
X53000651Y-63620257D01*
X52999749Y-63616968D01*
X52998963Y-63613700D01*
X52998292Y-63610460D01*
X52997732Y-63607248D01*
X52997281Y-63604070D01*
X52996935Y-63600927D01*
X52996692Y-63597822D01*
X52996548Y-63594758D01*
X52996500Y-63591739D01*
X52996500Y-62234426D01*
X53328343Y-62234426D01*
X53328343Y-63367848D01*
G37*
G36*
X35459388Y-61108969D02*
G01*
X35125563Y-61108969D01*
X35125563Y-60725163D01*
X35459388Y-60725163D01*
X35459388Y-61108969D01*
G37*
G36*
X54551693Y-66386347D02*
G01*
X53802077Y-66386347D01*
X53802077Y-66382352D01*
X53802077Y-66382300D01*
X53799102Y-66382229D01*
X53796165Y-66382021D01*
X53793257Y-66381680D01*
X53790369Y-66381205D01*
X53787493Y-66380602D01*
X53784620Y-66379874D01*
X53781740Y-66379021D01*
X53778846Y-66378050D01*
X53775928Y-66376961D01*
X53772978Y-66375759D01*
X53769986Y-66374445D01*
X53766945Y-66373024D01*
X53763845Y-66371498D01*
X53760678Y-66369869D01*
X53754107Y-66366318D01*
X53750757Y-66364401D01*
X53747455Y-66362392D01*
X53744199Y-66360295D01*
X53740991Y-66358111D01*
X53737829Y-66355846D01*
X53734714Y-66353500D01*
X53731646Y-66351078D01*
X53728625Y-66348582D01*
X53725651Y-66346017D01*
X53722724Y-66343384D01*
X53719843Y-66340685D01*
X53717009Y-66337926D01*
X53714221Y-66335110D01*
X53711481Y-66332238D01*
X53706139Y-66326341D01*
X53703211Y-66323321D01*
X53700415Y-66320257D01*
X53697741Y-66317152D01*
X53695181Y-66314009D01*
X53692726Y-66310830D01*
X53690368Y-66307620D01*
X53688097Y-66304379D01*
X53685905Y-66301113D01*
X53681723Y-66294511D01*
X53677751Y-66287838D01*
X53673918Y-66281120D01*
X53670155Y-66274377D01*
X53668350Y-66271003D01*
X53666682Y-66267634D01*
X53665149Y-66264269D01*
X53663748Y-66260914D01*
X53662477Y-66257570D01*
X53661331Y-66254241D01*
X53660309Y-66250930D01*
X53659406Y-66247641D01*
X53658621Y-66244373D01*
X53657950Y-66241132D01*
X53657390Y-66237921D01*
X53656939Y-66234743D01*
X53656593Y-66231600D01*
X53656350Y-66228495D01*
X53656206Y-66225431D01*
X53656159Y-66222413D01*
X53656159Y-66002490D01*
X53656159Y-65254857D01*
X53991995Y-65254857D01*
X53991995Y-66002490D01*
X54221890Y-66002490D01*
X54221890Y-65254857D01*
X53991995Y-65254857D01*
X53656159Y-65254857D01*
X53656159Y-65027024D01*
X53656206Y-65024355D01*
X53656350Y-65021597D01*
X53656593Y-65018756D01*
X53656939Y-65015841D01*
X53657390Y-65012855D01*
X53657950Y-65009805D01*
X53658621Y-65006695D01*
X53659406Y-65003534D01*
X53660309Y-65000325D01*
X53661331Y-64997075D01*
X53662477Y-64993791D01*
X53663748Y-64990476D01*
X53665149Y-64987139D01*
X53666682Y-64983784D01*
X53668350Y-64980418D01*
X53670155Y-64977046D01*
X53673999Y-64970303D01*
X53678030Y-64963583D01*
X53682247Y-64956910D01*
X53686650Y-64950310D01*
X53691241Y-64943801D01*
X53696019Y-64937412D01*
X53700985Y-64931164D01*
X53706139Y-64925082D01*
X53712133Y-64919185D01*
X53718129Y-64913500D01*
X53724127Y-64908046D01*
X53730124Y-64902850D01*
X53736122Y-64897933D01*
X53742119Y-64893321D01*
X53745117Y-64891137D01*
X53748114Y-64889037D01*
X53751111Y-64887024D01*
X53754107Y-64885103D01*
X53760760Y-64881545D01*
X53764016Y-64879914D01*
X53767224Y-64878387D01*
X53770386Y-64876964D01*
X53773501Y-64875652D01*
X53776569Y-64874449D01*
X53779590Y-64873362D01*
X53782565Y-64872391D01*
X53785492Y-64871541D01*
X53788373Y-64870813D01*
X53791207Y-64870212D01*
X53793994Y-64869739D01*
X53796735Y-64869399D01*
X53799429Y-64869191D01*
X53802077Y-64869121D01*
X54551693Y-64869121D01*
X54551693Y-66386347D01*
G37*
G36*
X69796139Y-66348486D02*
G01*
X68596730Y-66348486D01*
X68596730Y-66148513D01*
X68596730Y-65748807D01*
X68996464Y-65748807D01*
X68996464Y-66148513D01*
X69396435Y-66148513D01*
X69396435Y-65748807D01*
X68996464Y-65748807D01*
X68596730Y-65748807D01*
X68596730Y-65748781D01*
X68796730Y-65748781D01*
X68796730Y-65548808D01*
X68796730Y-65548783D01*
X68596730Y-65548783D01*
X68596730Y-65349075D01*
X68996464Y-65349075D01*
X68996464Y-65548808D01*
X69396435Y-65548808D01*
X69396435Y-65349075D01*
X68996464Y-65349075D01*
X68596730Y-65349075D01*
X68596730Y-65149078D01*
X68596730Y-65149076D01*
X69796139Y-65149076D01*
X69796139Y-66348486D01*
G37*
G36*
X38372907Y-62236486D02*
G01*
X38375911Y-62236632D01*
X38378928Y-62236885D01*
X38381962Y-62237250D01*
X38385020Y-62237730D01*
X38388107Y-62238334D01*
X38391230Y-62239066D01*
X38394393Y-62239933D01*
X38397604Y-62240942D01*
X38400867Y-62242096D01*
X38404188Y-62243402D01*
X38407574Y-62244866D01*
X38411030Y-62246493D01*
X38414561Y-62248290D01*
X38418174Y-62250265D01*
X38421874Y-62252419D01*
X38425247Y-62254340D01*
X38428617Y-62256352D01*
X38431981Y-62258453D01*
X38435336Y-62260638D01*
X38438680Y-62262903D01*
X38442008Y-62265249D01*
X38448610Y-62270166D01*
X38455117Y-62275362D01*
X38461507Y-62280816D01*
X38467755Y-62286501D01*
X38473838Y-62292397D01*
X38479734Y-62298399D01*
X38485420Y-62304450D01*
X38488177Y-62307507D01*
X38490873Y-62310594D01*
X38493505Y-62313717D01*
X38496069Y-62316880D01*
X38498564Y-62320092D01*
X38500986Y-62323354D01*
X38503331Y-62326677D01*
X38505598Y-62330061D01*
X38507783Y-62333517D01*
X38509883Y-62337048D01*
X38511895Y-62340661D01*
X38513816Y-62344362D01*
X38515644Y-62347735D01*
X38517374Y-62351105D01*
X38519005Y-62354468D01*
X38520533Y-62357823D01*
X38521954Y-62361167D01*
X38523268Y-62364496D01*
X38524470Y-62367807D01*
X38525557Y-62371098D01*
X38526527Y-62374364D01*
X38527378Y-62377605D01*
X38528105Y-62380815D01*
X38528706Y-62383995D01*
X38529179Y-62387137D01*
X38529521Y-62390242D01*
X38529727Y-62393305D01*
X38529797Y-62396326D01*
X38529797Y-63587718D01*
X38529749Y-63590716D01*
X38529602Y-63593719D01*
X38529349Y-63596736D01*
X38528986Y-63599770D01*
X38528505Y-63602829D01*
X38527901Y-63605915D01*
X38527168Y-63609038D01*
X38526301Y-63612201D01*
X38525294Y-63615413D01*
X38524140Y-63618675D01*
X38522834Y-63621996D01*
X38521370Y-63625383D01*
X38519742Y-63628838D01*
X38517944Y-63632369D01*
X38515971Y-63635981D01*
X38513816Y-63639681D01*
X38511895Y-63643055D01*
X38509883Y-63646424D01*
X38507783Y-63649789D01*
X38505598Y-63653144D01*
X38503331Y-63656487D01*
X38500986Y-63659817D01*
X38496069Y-63666418D01*
X38490873Y-63672926D01*
X38485420Y-63679315D01*
X38479734Y-63685563D01*
X38473838Y-63691647D01*
X38470840Y-63694598D01*
X38467836Y-63697460D01*
X38464820Y-63700243D01*
X38461786Y-63702950D01*
X38458728Y-63705585D01*
X38455641Y-63708158D01*
X38452518Y-63710673D01*
X38449354Y-63713133D01*
X38446144Y-63715548D01*
X38442880Y-63717922D01*
X38436173Y-63722568D01*
X38429186Y-63727121D01*
X38421874Y-63731624D01*
X38421874Y-63733635D01*
X38418501Y-63735462D01*
X38415131Y-63737194D01*
X38411767Y-63738823D01*
X38408412Y-63740352D01*
X38405068Y-63741773D01*
X38401740Y-63743087D01*
X38398429Y-63744288D01*
X38395138Y-63745376D01*
X38391871Y-63746347D01*
X38388631Y-63747197D01*
X38385420Y-63747924D01*
X38382241Y-63748525D01*
X38379098Y-63748998D01*
X38375993Y-63749340D01*
X38372930Y-63749546D01*
X38369910Y-63749617D01*
X37782217Y-63749617D01*
X37779243Y-63749546D01*
X37776306Y-63749338D01*
X37773398Y-63748997D01*
X37770511Y-63748521D01*
X37767634Y-63747918D01*
X37764761Y-63747190D01*
X37761881Y-63746337D01*
X37758987Y-63745367D01*
X37756069Y-63744277D01*
X37753119Y-63743076D01*
X37750128Y-63741761D01*
X37747087Y-63740341D01*
X37743987Y-63738813D01*
X37740820Y-63737185D01*
X37734249Y-63733635D01*
X37730899Y-63731718D01*
X37727596Y-63729709D01*
X37724340Y-63727610D01*
X37721132Y-63725427D01*
X37717970Y-63723162D01*
X37714855Y-63720816D01*
X37711787Y-63718394D01*
X37708766Y-63715897D01*
X37705792Y-63713331D01*
X37702864Y-63710698D01*
X37699984Y-63708001D01*
X37697150Y-63705242D01*
X37694362Y-63702426D01*
X37691621Y-63699553D01*
X37686280Y-63693657D01*
X37683352Y-63690637D01*
X37680556Y-63687573D01*
X37677882Y-63684468D01*
X37675322Y-63681325D01*
X37672867Y-63678146D01*
X37670509Y-63674936D01*
X37668238Y-63671695D01*
X37666046Y-63668429D01*
X37661863Y-63661827D01*
X37657891Y-63655154D01*
X37654059Y-63648436D01*
X37650297Y-63641693D01*
X37648491Y-63638319D01*
X37646824Y-63634950D01*
X37645291Y-63631585D01*
X37643890Y-63628231D01*
X37642619Y-63624887D01*
X37641473Y-63621558D01*
X37640450Y-63618247D01*
X37639548Y-63614957D01*
X37638763Y-63611689D01*
X37638092Y-63608449D01*
X37637532Y-63605238D01*
X37637081Y-63602059D01*
X37636735Y-63598917D01*
X37636491Y-63595811D01*
X37636347Y-63592748D01*
X37636300Y-63589728D01*
X37636300Y-63363827D01*
X37636300Y-62938032D01*
X37970098Y-62938032D01*
X37970098Y-63363827D01*
X38090034Y-63363827D01*
X37970098Y-62938032D01*
X37636300Y-62938032D01*
X37636300Y-62616193D01*
X38080059Y-62616193D01*
X38199995Y-63041988D01*
X38199995Y-62616193D01*
X38080059Y-62616193D01*
X37636300Y-62616193D01*
X37636300Y-62394341D01*
X37636347Y-62391671D01*
X37636491Y-62388913D01*
X37636735Y-62386072D01*
X37637081Y-62383157D01*
X37637532Y-62380170D01*
X37638092Y-62377121D01*
X37638763Y-62374011D01*
X37639548Y-62370849D01*
X37640450Y-62367640D01*
X37641473Y-62364391D01*
X37642619Y-62361106D01*
X37643890Y-62357793D01*
X37645291Y-62354456D01*
X37646824Y-62351101D01*
X37648491Y-62347734D01*
X37650297Y-62344362D01*
X37654140Y-62337619D01*
X37658170Y-62330899D01*
X37662387Y-62324226D01*
X37666790Y-62317625D01*
X37671381Y-62311117D01*
X37676159Y-62304728D01*
X37681125Y-62298480D01*
X37686280Y-62292397D01*
X37692274Y-62286501D01*
X37698270Y-62280816D01*
X37704267Y-62275362D01*
X37710264Y-62270166D01*
X37716262Y-62265249D01*
X37722259Y-62260638D01*
X37725257Y-62258453D01*
X37728255Y-62256352D01*
X37731252Y-62254340D01*
X37734249Y-62252419D01*
X37740901Y-62248860D01*
X37744157Y-62247231D01*
X37747366Y-62245702D01*
X37750528Y-62244281D01*
X37753643Y-62242967D01*
X37756710Y-62241765D01*
X37759732Y-62240678D01*
X37762706Y-62239707D01*
X37765633Y-62238857D01*
X37768514Y-62238129D01*
X37771348Y-62237528D01*
X37774135Y-62237055D01*
X37776876Y-62236715D01*
X37779570Y-62236508D01*
X37782217Y-62236437D01*
X38369910Y-62236437D01*
X38372907Y-62236486D01*
G37*
G36*
X38168007Y-59975546D02*
G01*
X38012088Y-59975546D01*
X38012088Y-61108969D01*
X37680247Y-61108969D01*
X37680247Y-59591742D01*
X37680247Y-59591741D01*
X38168007Y-59591741D01*
X38168007Y-59975546D01*
G37*
G36*
X42637744Y-65132936D02*
G01*
X42895608Y-64869067D01*
X43195460Y-64869067D01*
X43195460Y-66386294D01*
X42861635Y-66386294D01*
X42861635Y-65434773D01*
X42637744Y-65632682D01*
X42413855Y-65432789D01*
X42413855Y-66386294D01*
X42084025Y-66386294D01*
X42084025Y-64869067D01*
X42383877Y-64869067D01*
X42637744Y-65132936D01*
G37*
G36*
X54743596Y-59977531D02*
G01*
X54463746Y-59977531D01*
X54463746Y-61110952D01*
X54131907Y-61110952D01*
X54131907Y-59977531D01*
X53852057Y-59977531D01*
X53852057Y-59593727D01*
X54743596Y-59593727D01*
X54743596Y-59977531D01*
G37*
G36*
X68028855Y-64719132D02*
G01*
X63880955Y-64719132D01*
X63880955Y-59671701D01*
X68028855Y-59671701D01*
X68028855Y-64719132D01*
G37*
G36*
X67397320Y-66148488D02*
G01*
X67797291Y-66148488D01*
X67797291Y-65149078D01*
X68196995Y-65149078D01*
X68196995Y-66348486D01*
X66997612Y-66348486D01*
X66997612Y-65149078D01*
X67397320Y-65149078D01*
X67397320Y-66148488D01*
G37*
G36*
X51939011Y-66386403D02*
G01*
X51189394Y-66386403D01*
X51189394Y-66382407D01*
X51189394Y-66382300D01*
X51186420Y-66382229D01*
X51183483Y-66382021D01*
X51180575Y-66381680D01*
X51177687Y-66381205D01*
X51174811Y-66380602D01*
X51171938Y-66379874D01*
X51169059Y-66379021D01*
X51166164Y-66378050D01*
X51163247Y-66376961D01*
X51160297Y-66375759D01*
X51157305Y-66374445D01*
X51154264Y-66373024D01*
X51151165Y-66371498D01*
X51147998Y-66369869D01*
X51141427Y-66366318D01*
X51138077Y-66364401D01*
X51134774Y-66362392D01*
X51131518Y-66360295D01*
X51128309Y-66358111D01*
X51125147Y-66355846D01*
X51122032Y-66353500D01*
X51118964Y-66351078D01*
X51115943Y-66348582D01*
X51112969Y-66346017D01*
X51110042Y-66343384D01*
X51107161Y-66340685D01*
X51104327Y-66337926D01*
X51101540Y-66335110D01*
X51098800Y-66332238D01*
X51093459Y-66326341D01*
X51090531Y-66323321D01*
X51087734Y-66320257D01*
X51085060Y-66317152D01*
X51082500Y-66314009D01*
X51080046Y-66310830D01*
X51077687Y-66307620D01*
X51075416Y-66304379D01*
X51073224Y-66301113D01*
X51069042Y-66294511D01*
X51065069Y-66287838D01*
X51061237Y-66281120D01*
X51057475Y-66274377D01*
X51055669Y-66271003D01*
X51054001Y-66267634D01*
X51052469Y-66264269D01*
X51051068Y-66260914D01*
X51049796Y-66257570D01*
X51048650Y-66254241D01*
X51047627Y-66250930D01*
X51046725Y-66247641D01*
X51045939Y-66244373D01*
X51045268Y-66241132D01*
X51044709Y-66237921D01*
X51044257Y-66234743D01*
X51043911Y-66231600D01*
X51043668Y-66228495D01*
X51043524Y-66225431D01*
X51043477Y-66222413D01*
X51043477Y-66002490D01*
X51043477Y-65790585D01*
X51379313Y-65790585D01*
X51379313Y-66002490D01*
X51607199Y-66002490D01*
X51607199Y-65790585D01*
X51379313Y-65790585D01*
X51043477Y-65790585D01*
X51043477Y-65776642D01*
X51043617Y-65770297D01*
X51044039Y-65763999D01*
X51044741Y-65757756D01*
X51045725Y-65751566D01*
X51046989Y-65745436D01*
X51048535Y-65739367D01*
X51050362Y-65733362D01*
X51052470Y-65727424D01*
X51054859Y-65721555D01*
X51057530Y-65715761D01*
X51060482Y-65710042D01*
X51063715Y-65704402D01*
X51067229Y-65698843D01*
X51071025Y-65693370D01*
X51075102Y-65687984D01*
X51079461Y-65682688D01*
X51083960Y-65677534D01*
X51088459Y-65672572D01*
X51092957Y-65667801D01*
X51097455Y-65663229D01*
X51101952Y-65658855D01*
X51106450Y-65654682D01*
X51110947Y-65650716D01*
X51115444Y-65646957D01*
X51119941Y-65643410D01*
X51124438Y-65640075D01*
X51128936Y-65636957D01*
X51133433Y-65634059D01*
X51137931Y-65631383D01*
X51142430Y-65628934D01*
X51146929Y-65626711D01*
X51151429Y-65624719D01*
X51149884Y-65624648D01*
X51148252Y-65624442D01*
X51146537Y-65624099D01*
X51144745Y-65623624D01*
X51142883Y-65623021D01*
X51140957Y-65622293D01*
X51138971Y-65621440D01*
X51136933Y-65620469D01*
X51134848Y-65619380D01*
X51132722Y-65618178D01*
X51130561Y-65616864D01*
X51128372Y-65615443D01*
X51126159Y-65613917D01*
X51123929Y-65612288D01*
X51121687Y-65610562D01*
X51119441Y-65608739D01*
X51116839Y-65606839D01*
X51114286Y-65604890D01*
X51111779Y-65602890D01*
X51109319Y-65600833D01*
X51106906Y-65598720D01*
X51104541Y-65596543D01*
X51102222Y-65594303D01*
X51099950Y-65591996D01*
X51097725Y-65589619D01*
X51095547Y-65587170D01*
X51093415Y-65584643D01*
X51091330Y-65582038D01*
X51089292Y-65579352D01*
X51087300Y-65576580D01*
X51085355Y-65573720D01*
X51083456Y-65570770D01*
X51079710Y-65565338D01*
X51075987Y-65559556D01*
X51072311Y-65553445D01*
X51068706Y-65547032D01*
X51065195Y-65540336D01*
X51061802Y-65533385D01*
X51058551Y-65526201D01*
X51055464Y-65518806D01*
X51052655Y-65511404D01*
X51051391Y-65507767D01*
X51050220Y-65504165D01*
X51049143Y-65500599D01*
X51048160Y-65497066D01*
X51047270Y-65493561D01*
X51046474Y-65490082D01*
X51045772Y-65486627D01*
X51045163Y-65483193D01*
X51044648Y-65479775D01*
X51044226Y-65476372D01*
X51043898Y-65472980D01*
X51043664Y-65469599D01*
X51043546Y-65466762D01*
X51043523Y-65466222D01*
X51043477Y-65462847D01*
X51043477Y-65254857D01*
X51379313Y-65254857D01*
X51379313Y-65466762D01*
X51607199Y-65466762D01*
X51607199Y-65254857D01*
X51379313Y-65254857D01*
X51043477Y-65254857D01*
X51043477Y-65027079D01*
X51043524Y-65024408D01*
X51043668Y-65021650D01*
X51043911Y-65018811D01*
X51044257Y-65015895D01*
X51044709Y-65012908D01*
X51045268Y-65009857D01*
X51045939Y-65006749D01*
X51046725Y-65003586D01*
X51047627Y-65000378D01*
X51048650Y-64997129D01*
X51049796Y-64993844D01*
X51051068Y-64990530D01*
X51052469Y-64987192D01*
X51054001Y-64983837D01*
X51055669Y-64980471D01*
X51057475Y-64977098D01*
X51061318Y-64970355D01*
X51065348Y-64963636D01*
X51069565Y-64956964D01*
X51073968Y-64950362D01*
X51078559Y-64943855D01*
X51083337Y-64937466D01*
X51088304Y-64931218D01*
X51093459Y-64925134D01*
X51099453Y-64919238D01*
X51105449Y-64913552D01*
X51111446Y-64908099D01*
X51117443Y-64902903D01*
X51123441Y-64897987D01*
X51129438Y-64893374D01*
X51132435Y-64891190D01*
X51135433Y-64889090D01*
X51138430Y-64887078D01*
X51141427Y-64885156D01*
X51148079Y-64881598D01*
X51151335Y-64879967D01*
X51154544Y-64878439D01*
X51157706Y-64877018D01*
X51160821Y-64875704D01*
X51163889Y-64874502D01*
X51166910Y-64873415D01*
X51169884Y-64872445D01*
X51172811Y-64871595D01*
X51175692Y-64870868D01*
X51178526Y-64870266D01*
X51181313Y-64869793D01*
X51184053Y-64869451D01*
X51186747Y-64869244D01*
X51189394Y-64869175D01*
X51939011Y-64869175D01*
X51939011Y-66386403D01*
G37*
G36*
X34843703Y-59975546D02*
G01*
X34687784Y-59975546D01*
X34687784Y-61108969D01*
X34355943Y-61108969D01*
X34355943Y-59591742D01*
X34355943Y-59591741D01*
X34843703Y-59591741D01*
X34843703Y-59975546D01*
G37*
G36*
X47879088Y-62616193D02*
G01*
X47599238Y-62616193D01*
X47599238Y-63749617D01*
X47267397Y-63749617D01*
X47267397Y-62616193D01*
X46987547Y-62616193D01*
X46987547Y-62232389D01*
X47879088Y-62232389D01*
X47879088Y-62616193D01*
G37*
G36*
X61240305Y-65822574D02*
G01*
X61464196Y-65622681D01*
X61688084Y-65820588D01*
X61688084Y-64869067D01*
X62021910Y-64869067D01*
X62021910Y-66386293D01*
X62025906Y-66386293D01*
X62025908Y-66386294D01*
X61722060Y-66386294D01*
X61464198Y-66122425D01*
X61210328Y-66386294D01*
X60910475Y-66386294D01*
X60910475Y-64869067D01*
X61240305Y-64869067D01*
X61240305Y-65822574D01*
G37*
G36*
X62019928Y-59593727D02*
G01*
X62019928Y-61110952D01*
X61686102Y-61110952D01*
X61686102Y-60555222D01*
X61332274Y-60555222D01*
X61332274Y-60189409D01*
X61686102Y-60189409D01*
X61686102Y-59977504D01*
X61172360Y-59977504D01*
X61172360Y-59593699D01*
X62019927Y-59593699D01*
X62019928Y-59593727D01*
G37*
G36*
X59691090Y-65822574D02*
G01*
X59914980Y-65622681D01*
X60138871Y-65820588D01*
X60138871Y-64869067D01*
X60472695Y-64869067D01*
X60472695Y-66386293D01*
X60476691Y-66386293D01*
X60476693Y-66386294D01*
X60172844Y-66386294D01*
X59914982Y-66122425D01*
X59661114Y-66386294D01*
X59361262Y-66386294D01*
X59361262Y-64869067D01*
X59691090Y-64869067D01*
X59691090Y-65822574D01*
G37*
G36*
X45990069Y-63367848D02*
G01*
X46219939Y-63367848D01*
X46219939Y-62234426D01*
X46549769Y-62234426D01*
X46549769Y-63589727D01*
X46549721Y-63592726D01*
X46549574Y-63595730D01*
X46549321Y-63598745D01*
X46548957Y-63601781D01*
X46548477Y-63604838D01*
X46547873Y-63607925D01*
X46547140Y-63611047D01*
X46546273Y-63614211D01*
X46545266Y-63617423D01*
X46544112Y-63620685D01*
X46542806Y-63624006D01*
X46541342Y-63627392D01*
X46539714Y-63630848D01*
X46537916Y-63634379D01*
X46535943Y-63637991D01*
X46533788Y-63641691D01*
X46531867Y-63645065D01*
X46529854Y-63648434D01*
X46527754Y-63651798D01*
X46525570Y-63655154D01*
X46523303Y-63658497D01*
X46520958Y-63661827D01*
X46516041Y-63668429D01*
X46510845Y-63674936D01*
X46505392Y-63681325D01*
X46499706Y-63687573D01*
X46493810Y-63693657D01*
X46487727Y-63699551D01*
X46481479Y-63705238D01*
X46475089Y-63710691D01*
X46471849Y-63713324D01*
X46468582Y-63715887D01*
X46465291Y-63718383D01*
X46461980Y-63720804D01*
X46458651Y-63723150D01*
X46455308Y-63725415D01*
X46451953Y-63727600D01*
X46448588Y-63729700D01*
X46445218Y-63731713D01*
X46441845Y-63733634D01*
X46438472Y-63735462D01*
X46435102Y-63737192D01*
X46431738Y-63738823D01*
X46428383Y-63740351D01*
X46425039Y-63741772D01*
X46421711Y-63743087D01*
X46418400Y-63744287D01*
X46415109Y-63745375D01*
X46411842Y-63746346D01*
X46408602Y-63747196D01*
X46405391Y-63747923D01*
X46402213Y-63748525D01*
X46399070Y-63748998D01*
X46395965Y-63749338D01*
X46392901Y-63749545D01*
X46389882Y-63749616D01*
X46391892Y-63751627D01*
X46391839Y-63751627D01*
X45804146Y-63751627D01*
X45801172Y-63751556D01*
X45798235Y-63751350D01*
X45795327Y-63751007D01*
X45792440Y-63750532D01*
X45789564Y-63749929D01*
X45786690Y-63749201D01*
X45783811Y-63748348D01*
X45780916Y-63747377D01*
X45777999Y-63746288D01*
X45775048Y-63745086D01*
X45772057Y-63743772D01*
X45769016Y-63742351D01*
X45765916Y-63740825D01*
X45762749Y-63739196D01*
X45756177Y-63735646D01*
X45752827Y-63733728D01*
X45749525Y-63731719D01*
X45746269Y-63729621D01*
X45743060Y-63727439D01*
X45739898Y-63725172D01*
X45736783Y-63722826D01*
X45733715Y-63720405D01*
X45730694Y-63717908D01*
X45727720Y-63715342D01*
X45724793Y-63712710D01*
X45721912Y-63710011D01*
X45719078Y-63707253D01*
X45716290Y-63704436D01*
X45713550Y-63701565D01*
X45708208Y-63695667D01*
X45705280Y-63692647D01*
X45702484Y-63689584D01*
X45699810Y-63686480D01*
X45697250Y-63683335D01*
X45694795Y-63680157D01*
X45692437Y-63676946D01*
X45690166Y-63673706D01*
X45687974Y-63670440D01*
X45683791Y-63663837D01*
X45679819Y-63657166D01*
X45675987Y-63650446D01*
X45672224Y-63643704D01*
X45670419Y-63640331D01*
X45668752Y-63636961D01*
X45667219Y-63633596D01*
X45665818Y-63630240D01*
X45664547Y-63626897D01*
X45663401Y-63623569D01*
X45662378Y-63620257D01*
X45661476Y-63616968D01*
X45660691Y-63613700D01*
X45660020Y-63610460D01*
X45659460Y-63607248D01*
X45659009Y-63604070D01*
X45658663Y-63600927D01*
X45658420Y-63597822D01*
X45658276Y-63594758D01*
X45658228Y-63591739D01*
X45658228Y-62234426D01*
X45990069Y-62234426D01*
X45990069Y-63367848D01*
G37*
G36*
X43897109Y-63749617D02*
G01*
X43561273Y-63749617D01*
X43561273Y-62232389D01*
X43897109Y-62232389D01*
X43897109Y-63749617D01*
G37*
G36*
X41624202Y-62230423D02*
G01*
X41630056Y-62230637D01*
X41635810Y-62230998D01*
X41641462Y-62231509D01*
X41647008Y-62232171D01*
X41652447Y-62232990D01*
X41657773Y-62233966D01*
X41662986Y-62235104D01*
X41668081Y-62236406D01*
X41673056Y-62237875D01*
X41677909Y-62239513D01*
X41682635Y-62241323D01*
X41687232Y-62243310D01*
X41691697Y-62245476D01*
X41696027Y-62247822D01*
X41700220Y-62250354D01*
X41704649Y-62253025D01*
X41708941Y-62255793D01*
X41713098Y-62258662D01*
X41717123Y-62261631D01*
X41721018Y-62264707D01*
X41724788Y-62267890D01*
X41728434Y-62271185D01*
X41731959Y-62274593D01*
X41735368Y-62278119D01*
X41738661Y-62281763D01*
X41741843Y-62285532D01*
X41744916Y-62289425D01*
X41747883Y-62293447D01*
X41750747Y-62297601D01*
X41753511Y-62301889D01*
X41756178Y-62306314D01*
X41758756Y-62310836D01*
X41761240Y-62315410D01*
X41763630Y-62320034D01*
X41765926Y-62324715D01*
X41768129Y-62329454D01*
X41770237Y-62334255D01*
X41772252Y-62339118D01*
X41774173Y-62344049D01*
X41776000Y-62349052D01*
X41777733Y-62354125D01*
X41779372Y-62359276D01*
X41780917Y-62364505D01*
X41782368Y-62369816D01*
X41783724Y-62375213D01*
X41784987Y-62380696D01*
X41786155Y-62386270D01*
X41788302Y-62397603D01*
X41790241Y-62409099D01*
X41791948Y-62420738D01*
X41793399Y-62432493D01*
X41794569Y-62444344D01*
X41795436Y-62456265D01*
X41795973Y-62468232D01*
X41796157Y-62480224D01*
X41796157Y-62969967D01*
X41796088Y-62974091D01*
X41795884Y-62978213D01*
X41795550Y-62982336D01*
X41795094Y-62986458D01*
X41794520Y-62990580D01*
X41793835Y-62994703D01*
X41793045Y-62998825D01*
X41792155Y-63002949D01*
X41790100Y-63011194D01*
X41787718Y-63019438D01*
X41785056Y-63027683D01*
X41782161Y-63035928D01*
X41778982Y-63044162D01*
X41777258Y-63048256D01*
X41775450Y-63052325D01*
X41773560Y-63056359D01*
X41771591Y-63060349D01*
X41769546Y-63064285D01*
X41767427Y-63068162D01*
X41765238Y-63071967D01*
X41762982Y-63075694D01*
X41760660Y-63079334D01*
X41758278Y-63082876D01*
X41755836Y-63086315D01*
X41753339Y-63089638D01*
X41750789Y-63092839D01*
X41748188Y-63095910D01*
X41742843Y-63101900D01*
X41737287Y-63107817D01*
X41734424Y-63110726D01*
X41731498Y-63113592D01*
X41728508Y-63116405D01*
X41725451Y-63119157D01*
X41722324Y-63121837D01*
X41719123Y-63124438D01*
X41715845Y-63126953D01*
X41712489Y-63129370D01*
X41709050Y-63131682D01*
X41705526Y-63133881D01*
X41701913Y-63135955D01*
X41698209Y-63137900D01*
X41694459Y-63139727D01*
X41690709Y-63141458D01*
X41686960Y-63143089D01*
X41683212Y-63144616D01*
X41679463Y-63146037D01*
X41675715Y-63147351D01*
X41671967Y-63148552D01*
X41668219Y-63149641D01*
X41664471Y-63150610D01*
X41660722Y-63151460D01*
X41656974Y-63152188D01*
X41653226Y-63152789D01*
X41649477Y-63153262D01*
X41645728Y-63153604D01*
X41641978Y-63153810D01*
X41638228Y-63153880D01*
X41276411Y-63153880D01*
X41276411Y-63363775D01*
X41796158Y-63363775D01*
X41796158Y-63365786D01*
X41796159Y-63365810D01*
X41796159Y-63749616D01*
X41104512Y-63749616D01*
X41099310Y-63749544D01*
X41094203Y-63749330D01*
X41089189Y-63748969D01*
X41084270Y-63748458D01*
X41079445Y-63747795D01*
X41074713Y-63746977D01*
X41070076Y-63746000D01*
X41065532Y-63744862D01*
X41061081Y-63743561D01*
X41056725Y-63742092D01*
X41052461Y-63740454D01*
X41048291Y-63738643D01*
X41044215Y-63736656D01*
X41040232Y-63734490D01*
X41036342Y-63732145D01*
X41032545Y-63729613D01*
X41028841Y-63726941D01*
X41025232Y-63724176D01*
X41021717Y-63721318D01*
X41018296Y-63718367D01*
X41014970Y-63715321D01*
X41011737Y-63712181D01*
X41008598Y-63708948D01*
X41005554Y-63705621D01*
X41002603Y-63702202D01*
X40999746Y-63698687D01*
X40996983Y-63695081D01*
X40994314Y-63691379D01*
X40991739Y-63687584D01*
X40989257Y-63683695D01*
X40986870Y-63679713D01*
X40984576Y-63675637D01*
X40980178Y-63667290D01*
X40975990Y-63658709D01*
X40972035Y-63649845D01*
X40970152Y-63645293D01*
X40968337Y-63640653D01*
X40966591Y-63635920D01*
X40964919Y-63631087D01*
X40963322Y-63626149D01*
X40961805Y-63621100D01*
X40960369Y-63615933D01*
X40959018Y-63610646D01*
X40957755Y-63605227D01*
X40956583Y-63599677D01*
X40954515Y-63588433D01*
X40952800Y-63577190D01*
X40951415Y-63565944D01*
X40950335Y-63554698D01*
X40949536Y-63543450D01*
X40948996Y-63532204D01*
X40948689Y-63520961D01*
X40948592Y-63509717D01*
X40948592Y-63027964D01*
X40948684Y-63023116D01*
X40948959Y-63018310D01*
X40949408Y-63013545D01*
X40950028Y-63008820D01*
X40950812Y-63004127D01*
X40951753Y-62999468D01*
X40952848Y-62994839D01*
X40954089Y-62990234D01*
X40955470Y-62985654D01*
X40956987Y-62981095D01*
X40958632Y-62976553D01*
X40960401Y-62972027D01*
X40962288Y-62967512D01*
X40964286Y-62963008D01*
X40968594Y-62954014D01*
X40970893Y-62949564D01*
X40973285Y-62945202D01*
X40975769Y-62940922D01*
X40978347Y-62936718D01*
X40981019Y-62932582D01*
X40983783Y-62928511D01*
X40986641Y-62924498D01*
X40989592Y-62920537D01*
X40992636Y-62916623D01*
X40995774Y-62912750D01*
X40999005Y-62908911D01*
X41002330Y-62905102D01*
X41009260Y-62897545D01*
X41016564Y-62890037D01*
X41020310Y-62886357D01*
X41024056Y-62882812D01*
X41027803Y-62879396D01*
X41031550Y-62876103D01*
X41035298Y-62872928D01*
X41039046Y-62869864D01*
X41046544Y-62864048D01*
X41054043Y-62858608D01*
X41061543Y-62853493D01*
X41069043Y-62848657D01*
X41076544Y-62844053D01*
X41080248Y-62841871D01*
X41083861Y-62839832D01*
X41087385Y-62837931D01*
X41090824Y-62836174D01*
X41094181Y-62834558D01*
X41097458Y-62833081D01*
X41100659Y-62831746D01*
X41103787Y-62830552D01*
X41106844Y-62829499D01*
X41109834Y-62828587D01*
X41112759Y-62827815D01*
X41115623Y-62827182D01*
X41118429Y-62826691D01*
X41121179Y-62826341D01*
X41123876Y-62826131D01*
X41126524Y-62826060D01*
X41468339Y-62826060D01*
X41468339Y-62614156D01*
X40948592Y-62614156D01*
X40948592Y-62230351D01*
X41618251Y-62230351D01*
X41624202Y-62230423D01*
G37*
G36*
X52560704Y-63749695D02*
G01*
X52226878Y-63749695D01*
X52226878Y-63153986D01*
X52001004Y-63153986D01*
X52001004Y-63749695D01*
X51669161Y-63749695D01*
X51665167Y-63747683D01*
X51665169Y-63747631D01*
X51665169Y-63139937D01*
X51665310Y-63133589D01*
X51665731Y-63127293D01*
X51666434Y-63121049D01*
X51667417Y-63114860D01*
X51668681Y-63108729D01*
X51670227Y-63102660D01*
X51672054Y-63096654D01*
X51674162Y-63090716D01*
X51676551Y-63084848D01*
X51679222Y-63079054D01*
X51682173Y-63073335D01*
X51685406Y-63067695D01*
X51688921Y-63062136D01*
X51692717Y-63056663D01*
X51696794Y-63051277D01*
X51701153Y-63045982D01*
X51705652Y-63040829D01*
X51710151Y-63035865D01*
X51714649Y-63031094D01*
X51719147Y-63026522D01*
X51723644Y-63022148D01*
X51728141Y-63017975D01*
X51732639Y-63014010D01*
X51737136Y-63010250D01*
X51741633Y-63006703D01*
X51746130Y-63003368D01*
X51750627Y-63000250D01*
X51755125Y-62997353D01*
X51759623Y-62994676D01*
X51764121Y-62992227D01*
X51768620Y-62990004D01*
X51773119Y-62988011D01*
X51771575Y-62987943D01*
X51769943Y-62987735D01*
X51768228Y-62987392D01*
X51766437Y-62986918D01*
X51764575Y-62986314D01*
X51762648Y-62985585D01*
X51760663Y-62984734D01*
X51758625Y-62983762D01*
X51756539Y-62982674D01*
X51754414Y-62981471D01*
X51752253Y-62980158D01*
X51750063Y-62978736D01*
X51747850Y-62977210D01*
X51745619Y-62975582D01*
X51743378Y-62973855D01*
X51741131Y-62972031D01*
X51738531Y-62970132D01*
X51735977Y-62968183D01*
X51733470Y-62966183D01*
X51731011Y-62964126D01*
X51728598Y-62962013D01*
X51726232Y-62959836D01*
X51723914Y-62957596D01*
X51721642Y-62955289D01*
X51719416Y-62952912D01*
X51717238Y-62950463D01*
X51715106Y-62947936D01*
X51713021Y-62945331D01*
X51710983Y-62942645D01*
X51708991Y-62939872D01*
X51707046Y-62937013D01*
X51705147Y-62934063D01*
X51701400Y-62928631D01*
X51697677Y-62922849D01*
X51694002Y-62916738D01*
X51690397Y-62910324D01*
X51686886Y-62903629D01*
X51683493Y-62896678D01*
X51680242Y-62889494D01*
X51677155Y-62882099D01*
X51674346Y-62874697D01*
X51673082Y-62871059D01*
X51671911Y-62867458D01*
X51670835Y-62863892D01*
X51669851Y-62860359D01*
X51668962Y-62856854D01*
X51668166Y-62853375D01*
X51667464Y-62849920D01*
X51666855Y-62846486D01*
X51666340Y-62843068D01*
X51665918Y-62839664D01*
X51665591Y-62836274D01*
X51665357Y-62832891D01*
X51665216Y-62829515D01*
X51665196Y-62828098D01*
X51665169Y-62826140D01*
X51665169Y-62616193D01*
X52001006Y-62616193D01*
X52001006Y-62828098D01*
X52226880Y-62828098D01*
X52226880Y-62616193D01*
X52001006Y-62616193D01*
X51665169Y-62616193D01*
X51665169Y-62390372D01*
X51665217Y-62387701D01*
X51665360Y-62384943D01*
X51665604Y-62382103D01*
X51665950Y-62379188D01*
X51666401Y-62376201D01*
X51666960Y-62373150D01*
X51667631Y-62370041D01*
X51668416Y-62366879D01*
X51669319Y-62363671D01*
X51670341Y-62360422D01*
X51671487Y-62357137D01*
X51672759Y-62353824D01*
X51674160Y-62350486D01*
X51675692Y-62347130D01*
X51677360Y-62343764D01*
X51679165Y-62340391D01*
X51683009Y-62333648D01*
X51687039Y-62326929D01*
X51691256Y-62320257D01*
X51695660Y-62313655D01*
X51700250Y-62307148D01*
X51705029Y-62300759D01*
X51709995Y-62294511D01*
X51715149Y-62288427D01*
X51721144Y-62282532D01*
X51727140Y-62276845D01*
X51733137Y-62271393D01*
X51739135Y-62266195D01*
X51745132Y-62261280D01*
X51751129Y-62256667D01*
X51754127Y-62254482D01*
X51757124Y-62252382D01*
X51760121Y-62250371D01*
X51763117Y-62248448D01*
X51769770Y-62244890D01*
X51773026Y-62243261D01*
X51776235Y-62241732D01*
X51779397Y-62240310D01*
X51782512Y-62238997D01*
X51785580Y-62237796D01*
X51788601Y-62236708D01*
X51791575Y-62235737D01*
X51794503Y-62234887D01*
X51797383Y-62234161D01*
X51800217Y-62233559D01*
X51803005Y-62233086D01*
X51805745Y-62232744D01*
X51808440Y-62232537D01*
X51811087Y-62232468D01*
X52560704Y-62232468D01*
X52560704Y-63749695D01*
G37*
G36*
X59595156Y-62828097D02*
G01*
X59595156Y-62828098D01*
X59595154Y-62828097D01*
X59595153Y-62828096D01*
X59595149Y-62828091D01*
X59595156Y-62828097D01*
G37*
G36*
X59595146Y-62828088D02*
G01*
X59595143Y-62828086D01*
X59595140Y-62828082D01*
X59595146Y-62828088D01*
G37*
G36*
X60174883Y-60727175D02*
G01*
X60404780Y-60727175D01*
X60404780Y-59593752D01*
X60734608Y-59593752D01*
X60734608Y-60949055D01*
X60734560Y-60952052D01*
X60734413Y-60955056D01*
X60734161Y-60958073D01*
X60733797Y-60961106D01*
X60733316Y-60964164D01*
X60732712Y-60967252D01*
X60731980Y-60970374D01*
X60731113Y-60973539D01*
X60730105Y-60976748D01*
X60728951Y-60980012D01*
X60727645Y-60983334D01*
X60726181Y-60986718D01*
X60724553Y-60990174D01*
X60722755Y-60993706D01*
X60720781Y-60997318D01*
X60718626Y-61001019D01*
X60716705Y-61004391D01*
X60714692Y-61007762D01*
X60712592Y-61011125D01*
X60710408Y-61014481D01*
X60708141Y-61017825D01*
X60705796Y-61021152D01*
X60700880Y-61027755D01*
X60695684Y-61034261D01*
X60690231Y-61040651D01*
X60684544Y-61046899D01*
X60678648Y-61052982D01*
X60672565Y-61058878D01*
X60666317Y-61064565D01*
X60659927Y-61070017D01*
X60656686Y-61072649D01*
X60653419Y-61075215D01*
X60650129Y-61077708D01*
X60646818Y-61080130D01*
X60643489Y-61082476D01*
X60640145Y-61084743D01*
X60636790Y-61086928D01*
X60633426Y-61089028D01*
X60630056Y-61091039D01*
X60626683Y-61092962D01*
X60623310Y-61094788D01*
X60619940Y-61096519D01*
X60616576Y-61098150D01*
X60613220Y-61099677D01*
X60609877Y-61101100D01*
X60606548Y-61102412D01*
X60603237Y-61103614D01*
X60599947Y-61104702D01*
X60596680Y-61105672D01*
X60593440Y-61106522D01*
X60590229Y-61107249D01*
X60587050Y-61107851D01*
X60583907Y-61108324D01*
X60580802Y-61108666D01*
X60577739Y-61108873D01*
X60574719Y-61108942D01*
X60576703Y-61110952D01*
X60576653Y-61110952D01*
X59988961Y-61110952D01*
X59985986Y-61110883D01*
X59983049Y-61110675D01*
X59980141Y-61110332D01*
X59977253Y-61109859D01*
X59974377Y-61109256D01*
X59971504Y-61108526D01*
X59968624Y-61107675D01*
X59965730Y-61106702D01*
X59962812Y-61105615D01*
X59959862Y-61104411D01*
X59956870Y-61103099D01*
X59953829Y-61101676D01*
X59950729Y-61100150D01*
X59947562Y-61098523D01*
X59940991Y-61094971D01*
X59937641Y-61093054D01*
X59934339Y-61091045D01*
X59931083Y-61088948D01*
X59927875Y-61086765D01*
X59924713Y-61084498D01*
X59921598Y-61082152D01*
X59918530Y-61079730D01*
X59915509Y-61077235D01*
X59912535Y-61074669D01*
X59909607Y-61072035D01*
X59906727Y-61069338D01*
X59903893Y-61066580D01*
X59901105Y-61063762D01*
X59898365Y-61060890D01*
X59893023Y-61054993D01*
X59890095Y-61051974D01*
X59887299Y-61048911D01*
X59884625Y-61045806D01*
X59882065Y-61042662D01*
X59879610Y-61039484D01*
X59877252Y-61036272D01*
X59874981Y-61033033D01*
X59872789Y-61029765D01*
X59868606Y-61023163D01*
X59864634Y-61016492D01*
X59860801Y-61009772D01*
X59857039Y-61003029D01*
X59855233Y-60999657D01*
X59853566Y-60996286D01*
X59852033Y-60992922D01*
X59850632Y-60989566D01*
X59849361Y-60986223D01*
X59848215Y-60982895D01*
X59847192Y-60979584D01*
X59846290Y-60976293D01*
X59845505Y-60973027D01*
X59844834Y-60969786D01*
X59844274Y-60966574D01*
X59843823Y-60963397D01*
X59843477Y-60960253D01*
X59843234Y-60957149D01*
X59843090Y-60954084D01*
X59843043Y-60951065D01*
X59843043Y-59593752D01*
X60174883Y-59593752D01*
X60174883Y-60727175D01*
G37*
G36*
X56026959Y-61110927D02*
G01*
X56026959Y-61110952D01*
X55177382Y-61110952D01*
X55177382Y-60727148D01*
X55691123Y-60727148D01*
X55691123Y-60517254D01*
X55337294Y-60517254D01*
X55337294Y-60189409D01*
X55691123Y-60189409D01*
X55691123Y-59977504D01*
X55177382Y-59977504D01*
X55177382Y-59593699D01*
X56026959Y-59593699D01*
X56026959Y-61110927D01*
G37*
G36*
X56796578Y-60203406D02*
G01*
X57066452Y-59593727D01*
X57358315Y-59593727D01*
X57358315Y-61110952D01*
X57358288Y-61110952D01*
X57024462Y-61110952D01*
X57024462Y-60499263D01*
X56754590Y-61110952D01*
X56464739Y-61110952D01*
X56464739Y-59593727D01*
X56796578Y-59593727D01*
X56796578Y-60203406D01*
G37*
G36*
X69796139Y-61550716D02*
G01*
X68596730Y-61550716D01*
X68596730Y-61150879D01*
X69796139Y-61150879D01*
X69796139Y-61550716D01*
G37*
G36*
X35025604Y-63587721D02*
G01*
X35025604Y-63589702D01*
X35025603Y-63589702D01*
X35025603Y-63587690D01*
X35025604Y-63587721D01*
G37*
G36*
X42964566Y-62238496D02*
G01*
X42967570Y-62238643D01*
X42970586Y-62238895D01*
X42973620Y-62239260D01*
X42976678Y-62239740D01*
X42979766Y-62240344D01*
X42982888Y-62241076D01*
X42986052Y-62241945D01*
X42989263Y-62242952D01*
X42992526Y-62244106D01*
X42995847Y-62245412D01*
X42999233Y-62246876D01*
X43002688Y-62248503D01*
X43006220Y-62250301D01*
X43009832Y-62252274D01*
X43013532Y-62254429D01*
X43016905Y-62256350D01*
X43020275Y-62258363D01*
X43023639Y-62260463D01*
X43026995Y-62262647D01*
X43030338Y-62264915D01*
X43033667Y-62267260D01*
X43040269Y-62272177D01*
X43046776Y-62277372D01*
X43053166Y-62282826D01*
X43059414Y-62288511D01*
X43065497Y-62294407D01*
X43071392Y-62300410D01*
X43077079Y-62306461D01*
X43079836Y-62309517D01*
X43082532Y-62312606D01*
X43085163Y-62315727D01*
X43087728Y-62318891D01*
X43090222Y-62322102D01*
X43092644Y-62325366D01*
X43094990Y-62328687D01*
X43097256Y-62332072D01*
X43099441Y-62335527D01*
X43101541Y-62339060D01*
X43103553Y-62342671D01*
X43105475Y-62346372D01*
X43107303Y-62349744D01*
X43109033Y-62353115D01*
X43110664Y-62356478D01*
X43112191Y-62359835D01*
X43113613Y-62363177D01*
X43114926Y-62366506D01*
X43116128Y-62369817D01*
X43117216Y-62373109D01*
X43118186Y-62376375D01*
X43119036Y-62379615D01*
X43119764Y-62382826D01*
X43120365Y-62386004D01*
X43120838Y-62389149D01*
X43121179Y-62392252D01*
X43121386Y-62395316D01*
X43121456Y-62398336D01*
X43121456Y-63589728D01*
X43121408Y-63592726D01*
X43121261Y-63595731D01*
X43121008Y-63598747D01*
X43120644Y-63601781D01*
X43120163Y-63604838D01*
X43119560Y-63607925D01*
X43118827Y-63611048D01*
X43117960Y-63614212D01*
X43116952Y-63617423D01*
X43115799Y-63620685D01*
X43114492Y-63624008D01*
X43113028Y-63627392D01*
X43111400Y-63630848D01*
X43109603Y-63634379D01*
X43107630Y-63637992D01*
X43105475Y-63641693D01*
X43103553Y-63645066D01*
X43101541Y-63648436D01*
X43099441Y-63651799D01*
X43097256Y-63655154D01*
X43094990Y-63658498D01*
X43092644Y-63661828D01*
X43087728Y-63668429D01*
X43082532Y-63674936D01*
X43077079Y-63681325D01*
X43071393Y-63687573D01*
X43065497Y-63693657D01*
X43059414Y-63699552D01*
X43053165Y-63705238D01*
X43046776Y-63710691D01*
X43043535Y-63713324D01*
X43040268Y-63715888D01*
X43036978Y-63718383D01*
X43033667Y-63720804D01*
X43030338Y-63723150D01*
X43026995Y-63725416D01*
X43023639Y-63727601D01*
X43020275Y-63729702D01*
X43016905Y-63731713D01*
X43013532Y-63733635D01*
X43010159Y-63735462D01*
X43006789Y-63737194D01*
X43003425Y-63738823D01*
X43000070Y-63740352D01*
X42996726Y-63741773D01*
X42993397Y-63743087D01*
X42990086Y-63744288D01*
X42986796Y-63745376D01*
X42983529Y-63746347D01*
X42980289Y-63747197D01*
X42977078Y-63747924D01*
X42973899Y-63748525D01*
X42970756Y-63748998D01*
X42967651Y-63749340D01*
X42964588Y-63749546D01*
X42961568Y-63749617D01*
X42961568Y-63751627D01*
X42373876Y-63751627D01*
X42370901Y-63751556D01*
X42367965Y-63751350D01*
X42365057Y-63751007D01*
X42362169Y-63750532D01*
X42359293Y-63749929D01*
X42356420Y-63749201D01*
X42353540Y-63748348D01*
X42350646Y-63747377D01*
X42347728Y-63746288D01*
X42344778Y-63745086D01*
X42341787Y-63743772D01*
X42338745Y-63742351D01*
X42335646Y-63740825D01*
X42332479Y-63739196D01*
X42325907Y-63735646D01*
X42322557Y-63733728D01*
X42319254Y-63731719D01*
X42315999Y-63729621D01*
X42312790Y-63727439D01*
X42309628Y-63725172D01*
X42306513Y-63722826D01*
X42303445Y-63720405D01*
X42300424Y-63717908D01*
X42297450Y-63715342D01*
X42294522Y-63712710D01*
X42291642Y-63710011D01*
X42288808Y-63707253D01*
X42286020Y-63704436D01*
X42283279Y-63701565D01*
X42277937Y-63695667D01*
X42275010Y-63692647D01*
X42272214Y-63689584D01*
X42269540Y-63686480D01*
X42266980Y-63683335D01*
X42264525Y-63680157D01*
X42262167Y-63676946D01*
X42259896Y-63673706D01*
X42257704Y-63670440D01*
X42253521Y-63663837D01*
X42249549Y-63657166D01*
X42245716Y-63650446D01*
X42241954Y-63643704D01*
X42240149Y-63640331D01*
X42238481Y-63636961D01*
X42236949Y-63633596D01*
X42235548Y-63630240D01*
X42234276Y-63626897D01*
X42233131Y-63623569D01*
X42232108Y-63620257D01*
X42231206Y-63616968D01*
X42230421Y-63613700D01*
X42229750Y-63610460D01*
X42229190Y-63607248D01*
X42228739Y-63604070D01*
X42228393Y-63600927D01*
X42228149Y-63597822D01*
X42228005Y-63594758D01*
X42227958Y-63591739D01*
X42227958Y-63363827D01*
X42227958Y-62616193D01*
X42563794Y-62616193D01*
X42563794Y-63363827D01*
X42791680Y-63363827D01*
X42791680Y-62616193D01*
X42563794Y-62616193D01*
X42227958Y-62616193D01*
X42227958Y-62396351D01*
X42228005Y-62393681D01*
X42228149Y-62390923D01*
X42228393Y-62388083D01*
X42228739Y-62385167D01*
X42229190Y-62382182D01*
X42229750Y-62379131D01*
X42230421Y-62376021D01*
X42231206Y-62372861D01*
X42232108Y-62369652D01*
X42233131Y-62366401D01*
X42234276Y-62363118D01*
X42235548Y-62359803D01*
X42236949Y-62356465D01*
X42238481Y-62353110D01*
X42240149Y-62349744D01*
X42241954Y-62346372D01*
X42245798Y-62339629D01*
X42249828Y-62332909D01*
X42254044Y-62326238D01*
X42258447Y-62319636D01*
X42263038Y-62313129D01*
X42267816Y-62306739D01*
X42272783Y-62300491D01*
X42277937Y-62294407D01*
X42283931Y-62288511D01*
X42289927Y-62282826D01*
X42295924Y-62277372D01*
X42301922Y-62272177D01*
X42307920Y-62267260D01*
X42313917Y-62262647D01*
X42316915Y-62260463D01*
X42319913Y-62258363D01*
X42322910Y-62256350D01*
X42325907Y-62254429D01*
X42332560Y-62250871D01*
X42335816Y-62249240D01*
X42339024Y-62247712D01*
X42342186Y-62246291D01*
X42345301Y-62244978D01*
X42348369Y-62243775D01*
X42351390Y-62242688D01*
X42354364Y-62241717D01*
X42357291Y-62240867D01*
X42360172Y-62240140D01*
X42363006Y-62239538D01*
X42365793Y-62239065D01*
X42368534Y-62238725D01*
X42371228Y-62238518D01*
X42373876Y-62238449D01*
X42961568Y-62238449D01*
X42964566Y-62238496D01*
G37*
G36*
X50105952Y-61109021D02*
G01*
X49772126Y-61109021D01*
X49772126Y-60513312D01*
X49546252Y-60513312D01*
X49546252Y-61109021D01*
X49214411Y-61109021D01*
X49210415Y-61107011D01*
X49210417Y-61106957D01*
X49210417Y-60499263D01*
X49210558Y-60492916D01*
X49210979Y-60486620D01*
X49211682Y-60480375D01*
X49212665Y-60474187D01*
X49213930Y-60468057D01*
X49215476Y-60461986D01*
X49217303Y-60455981D01*
X49219411Y-60450043D01*
X49221800Y-60444176D01*
X49224470Y-60438380D01*
X49227422Y-60432661D01*
X49230655Y-60427021D01*
X49234170Y-60421464D01*
X49237966Y-60415989D01*
X49242043Y-60410605D01*
X49246401Y-60405310D01*
X49250900Y-60400155D01*
X49255399Y-60395191D01*
X49259897Y-60390422D01*
X49264395Y-60385848D01*
X49268892Y-60381474D01*
X49273390Y-60377302D01*
X49277887Y-60373335D01*
X49282384Y-60369577D01*
X49286881Y-60366029D01*
X49291378Y-60362696D01*
X49295876Y-60359578D01*
X49300374Y-60356679D01*
X49304872Y-60354004D01*
X49309371Y-60351553D01*
X49313870Y-60349330D01*
X49318369Y-60347340D01*
X49316825Y-60347269D01*
X49315193Y-60347061D01*
X49313477Y-60346719D01*
X49311686Y-60346244D01*
X49309824Y-60345641D01*
X49307897Y-60344912D01*
X49305912Y-60344060D01*
X49303874Y-60343090D01*
X49301788Y-60342000D01*
X49299662Y-60340798D01*
X49297502Y-60339484D01*
X49295311Y-60338064D01*
X49293098Y-60336537D01*
X49290868Y-60334908D01*
X49288626Y-60333181D01*
X49286379Y-60331358D01*
X49283779Y-60329459D01*
X49281225Y-60327511D01*
X49278718Y-60325510D01*
X49276259Y-60323453D01*
X49273846Y-60321339D01*
X49271480Y-60319164D01*
X49269162Y-60316924D01*
X49266890Y-60314616D01*
X49264664Y-60312240D01*
X49262486Y-60309789D01*
X49260354Y-60307264D01*
X49258269Y-60304659D01*
X49256231Y-60301971D01*
X49254239Y-60299200D01*
X49252294Y-60296340D01*
X49250395Y-60293391D01*
X49246648Y-60287959D01*
X49242925Y-60282175D01*
X49239250Y-60276065D01*
X49235645Y-60269650D01*
X49232134Y-60262957D01*
X49228742Y-60256005D01*
X49225491Y-60248820D01*
X49222405Y-60241427D01*
X49219596Y-60234025D01*
X49218332Y-60230386D01*
X49217161Y-60226785D01*
X49216084Y-60223219D01*
X49215101Y-60219685D01*
X49214211Y-60216182D01*
X49213415Y-60212702D01*
X49212712Y-60209248D01*
X49212104Y-60205812D01*
X49211588Y-60202394D01*
X49211167Y-60198991D01*
X49210839Y-60195600D01*
X49210605Y-60192217D01*
X49210489Y-60189436D01*
X49210464Y-60188840D01*
X49210417Y-60185467D01*
X49210417Y-59977531D01*
X49548237Y-59977531D01*
X49548237Y-60189436D01*
X49774113Y-60189436D01*
X49774113Y-59977531D01*
X49548237Y-59977531D01*
X49210417Y-59977531D01*
X49210417Y-59749698D01*
X49210465Y-59747028D01*
X49210608Y-59744270D01*
X49210852Y-59741430D01*
X49211198Y-59738514D01*
X49211649Y-59735529D01*
X49212209Y-59732478D01*
X49212880Y-59729368D01*
X49213665Y-59726207D01*
X49214568Y-59722997D01*
X49215591Y-59719748D01*
X49216737Y-59716464D01*
X49218008Y-59713150D01*
X49219409Y-59709812D01*
X49220942Y-59706457D01*
X49222610Y-59703091D01*
X49224415Y-59699719D01*
X49228259Y-59692976D01*
X49232289Y-59686256D01*
X49236505Y-59679583D01*
X49240909Y-59672983D01*
X49245499Y-59666476D01*
X49250277Y-59660085D01*
X49255243Y-59653837D01*
X49260397Y-59647755D01*
X49266392Y-59641858D01*
X49272388Y-59636173D01*
X49278385Y-59630719D01*
X49284383Y-59625523D01*
X49290381Y-59620606D01*
X49296378Y-59615994D01*
X49299376Y-59613810D01*
X49302374Y-59611710D01*
X49305371Y-59609697D01*
X49308367Y-59607776D01*
X49315020Y-59604218D01*
X49318276Y-59602587D01*
X49321484Y-59601060D01*
X49324646Y-59599638D01*
X49327761Y-59598325D01*
X49330829Y-59597122D01*
X49333850Y-59596035D01*
X49336824Y-59595064D01*
X49339751Y-59594214D01*
X49342632Y-59593486D01*
X49345466Y-59592885D01*
X49348253Y-59592412D01*
X49350994Y-59592072D01*
X49353688Y-59591864D01*
X49356335Y-59591794D01*
X50105952Y-59591794D01*
X50105952Y-61109021D01*
G37*
G36*
X66597882Y-66348486D02*
G01*
X66198174Y-66348486D01*
X66198174Y-65948780D01*
X65798203Y-65948780D01*
X65798203Y-66348486D01*
X65398499Y-66348486D01*
X65398499Y-65948780D01*
X65598500Y-65948780D01*
X65598500Y-65748781D01*
X65598493Y-65748781D01*
X65598486Y-65748781D01*
X65598478Y-65748780D01*
X65598469Y-65748780D01*
X65398472Y-65748780D01*
X65398472Y-65349075D01*
X65798203Y-65349075D01*
X65798203Y-65748780D01*
X66198174Y-65748780D01*
X66198174Y-65349075D01*
X65798203Y-65349075D01*
X65398472Y-65349075D01*
X65398472Y-65149076D01*
X66597882Y-65149076D01*
X66597882Y-66348486D01*
G37*
G36*
X61216490Y-62104845D02*
G01*
X61242417Y-62106025D01*
X61268111Y-62108047D01*
X61293548Y-62110958D01*
X61318705Y-62114808D01*
X61343558Y-62119643D01*
X61355863Y-62122445D01*
X61368084Y-62125511D01*
X61380216Y-62128845D01*
X61392258Y-62132455D01*
X61416814Y-62139573D01*
X61442518Y-62147418D01*
X61497462Y-62165188D01*
X61557278Y-62185585D01*
X61622153Y-62208417D01*
X61675539Y-62242665D01*
X61725502Y-62278685D01*
X61772039Y-62316475D01*
X61794022Y-62336032D01*
X61815147Y-62356027D01*
X61835415Y-62376463D01*
X61854824Y-62397337D01*
X61873374Y-62418649D01*
X61891065Y-62440398D01*
X61907897Y-62462582D01*
X61923869Y-62485203D01*
X61938981Y-62508259D01*
X61953233Y-62531748D01*
X61966624Y-62555672D01*
X61979153Y-62580027D01*
X61990821Y-62604816D01*
X62001626Y-62630033D01*
X62011570Y-62655683D01*
X62020651Y-62681763D01*
X62028868Y-62708270D01*
X62036222Y-62735207D01*
X62042713Y-62762570D01*
X62048339Y-62790360D01*
X62053100Y-62818578D01*
X62056997Y-62847219D01*
X62060028Y-62876285D01*
X62062194Y-62905777D01*
X62063927Y-62966026D01*
X62063460Y-62994771D01*
X62062061Y-63023281D01*
X62059737Y-63051557D01*
X62056494Y-63079597D01*
X62052337Y-63107404D01*
X62047272Y-63134974D01*
X62041305Y-63162312D01*
X62034443Y-63189414D01*
X62026690Y-63216281D01*
X62018053Y-63242914D01*
X62008537Y-63269314D01*
X61998149Y-63295479D01*
X61986894Y-63321410D01*
X61974778Y-63347107D01*
X61961807Y-63372570D01*
X61947987Y-63397800D01*
X61928686Y-63423468D01*
X61909758Y-63447987D01*
X61891204Y-63471338D01*
X61873023Y-63493493D01*
X61855218Y-63514431D01*
X61837787Y-63534126D01*
X61820733Y-63552557D01*
X61804055Y-63569699D01*
X61786912Y-63586377D01*
X61768481Y-63603430D01*
X61748785Y-63620857D01*
X61727848Y-63638660D01*
X61705693Y-63656838D01*
X61682343Y-63675393D01*
X61657823Y-63694324D01*
X61632155Y-63713633D01*
X61605496Y-63727784D01*
X61578738Y-63741001D01*
X61551874Y-63753287D01*
X61524898Y-63764643D01*
X61497805Y-63775075D01*
X61470588Y-63784582D01*
X61443243Y-63793171D01*
X61415763Y-63800843D01*
X61388143Y-63807600D01*
X61360376Y-63813448D01*
X61332457Y-63818388D01*
X61304381Y-63822423D01*
X61276140Y-63825555D01*
X61247731Y-63827789D01*
X61219146Y-63829127D01*
X61190381Y-63829573D01*
X61136040Y-63819264D01*
X61082471Y-63807803D01*
X61029698Y-63795172D01*
X60977745Y-63781346D01*
X60926633Y-63766302D01*
X60876387Y-63750017D01*
X60827029Y-63732468D01*
X60778584Y-63713633D01*
X60740616Y-63685639D01*
X60717009Y-63669246D01*
X60694199Y-63653064D01*
X60672234Y-63637113D01*
X60651160Y-63621421D01*
X60631024Y-63606011D01*
X60611872Y-63590907D01*
X60593751Y-63576132D01*
X60576706Y-63561709D01*
X60568178Y-63554048D01*
X60559834Y-63546058D01*
X60551672Y-63537731D01*
X60543689Y-63529069D01*
X60535883Y-63520068D01*
X60528249Y-63510723D01*
X60520785Y-63501035D01*
X60513488Y-63490995D01*
X60506355Y-63480606D01*
X60499383Y-63469863D01*
X60492569Y-63458762D01*
X60485910Y-63447301D01*
X60479404Y-63435478D01*
X60473046Y-63423288D01*
X60466835Y-63410730D01*
X60460766Y-63397801D01*
X60444437Y-63366947D01*
X60429183Y-63336610D01*
X60415001Y-63306788D01*
X60401888Y-63277483D01*
X60389841Y-63248693D01*
X60378856Y-63220416D01*
X60368932Y-63192657D01*
X60360065Y-63165413D01*
X60352252Y-63138684D01*
X60345490Y-63112471D01*
X60339777Y-63086775D01*
X60335109Y-63061594D01*
X60331484Y-63036928D01*
X60328898Y-63012778D01*
X60327348Y-62989144D01*
X60326832Y-62966026D01*
X60326833Y-62965999D01*
X60466694Y-62965999D01*
X60467116Y-62986660D01*
X60468377Y-63007421D01*
X60470476Y-63028289D01*
X60473410Y-63049267D01*
X60477175Y-63070363D01*
X60481769Y-63091582D01*
X60487188Y-63112931D01*
X60493431Y-63134413D01*
X60500493Y-63156037D01*
X60508371Y-63177808D01*
X60517064Y-63199731D01*
X60526568Y-63221812D01*
X60536879Y-63244058D01*
X60547996Y-63266474D01*
X60559915Y-63289064D01*
X60572632Y-63311836D01*
X60586291Y-63334350D01*
X60600280Y-63356163D01*
X60614603Y-63377280D01*
X60629263Y-63397702D01*
X60644263Y-63417434D01*
X60659605Y-63436476D01*
X60675293Y-63454832D01*
X60691329Y-63472507D01*
X60707716Y-63489503D01*
X60724457Y-63505822D01*
X60741556Y-63521468D01*
X60759014Y-63536444D01*
X60776836Y-63550753D01*
X60795023Y-63564396D01*
X60813579Y-63577377D01*
X60832507Y-63589702D01*
X60855208Y-63601322D01*
X60877584Y-63612194D01*
X60899638Y-63622315D01*
X60921373Y-63631687D01*
X60942791Y-63640307D01*
X60963896Y-63648179D01*
X60984690Y-63655303D01*
X61005177Y-63661675D01*
X61025359Y-63667298D01*
X61045239Y-63672170D01*
X61064819Y-63676294D01*
X61084104Y-63679668D01*
X61103096Y-63682293D01*
X61121797Y-63684167D01*
X61140211Y-63685290D01*
X61158341Y-63685665D01*
X61171269Y-63685474D01*
X61186047Y-63684885D01*
X61202652Y-63683875D01*
X61221060Y-63682418D01*
X61241250Y-63680493D01*
X61263198Y-63678075D01*
X61286880Y-63675142D01*
X61312275Y-63671669D01*
X61325561Y-63669584D01*
X61339170Y-63667080D01*
X61353102Y-63664161D01*
X61367352Y-63660831D01*
X61381917Y-63657089D01*
X61396796Y-63652941D01*
X61427480Y-63643435D01*
X61459380Y-63632335D01*
X61492474Y-63619665D01*
X61526737Y-63605446D01*
X61562148Y-63589702D01*
X61585665Y-63572811D01*
X61608239Y-63555870D01*
X61629866Y-63538877D01*
X61650538Y-63521829D01*
X61670250Y-63504722D01*
X61688996Y-63487555D01*
X61706770Y-63470321D01*
X61723567Y-63453021D01*
X61739379Y-63435650D01*
X61754202Y-63418207D01*
X61768029Y-63400686D01*
X61780855Y-63383088D01*
X61792673Y-63365405D01*
X61803477Y-63347639D01*
X61813262Y-63329784D01*
X61822022Y-63311836D01*
X61833643Y-63292558D01*
X61844514Y-63272955D01*
X61854635Y-63253029D01*
X61864006Y-63232785D01*
X61872628Y-63212223D01*
X61880500Y-63191350D01*
X61887623Y-63170164D01*
X61893995Y-63148671D01*
X61899618Y-63126874D01*
X61904491Y-63104773D01*
X61908615Y-63082375D01*
X61911989Y-63059680D01*
X61914613Y-63036693D01*
X61916487Y-63013414D01*
X61917612Y-62989849D01*
X61917986Y-62965999D01*
X61917612Y-62943489D01*
X61916487Y-62920934D01*
X61914613Y-62898336D01*
X61911989Y-62875703D01*
X61908615Y-62853032D01*
X61904491Y-62830330D01*
X61899618Y-62807597D01*
X61893995Y-62784840D01*
X61887623Y-62762057D01*
X61880500Y-62739255D01*
X61872628Y-62716434D01*
X61864006Y-62693600D01*
X61854635Y-62670752D01*
X61844514Y-62647897D01*
X61833643Y-62625035D01*
X61822022Y-62602171D01*
X61818028Y-62602171D01*
X61818024Y-62602198D01*
X61789561Y-62558250D01*
X61759639Y-62517117D01*
X61744130Y-62497608D01*
X61728253Y-62478802D01*
X61712010Y-62460701D01*
X61695398Y-62443305D01*
X61678417Y-62426615D01*
X61661066Y-62410631D01*
X61643345Y-62395354D01*
X61625253Y-62380785D01*
X61606789Y-62366920D01*
X61587953Y-62353764D01*
X61568743Y-62341318D01*
X61549159Y-62329577D01*
X61529200Y-62318546D01*
X61508866Y-62308224D01*
X61488156Y-62298611D01*
X61467068Y-62289710D01*
X61445603Y-62281516D01*
X61423760Y-62274034D01*
X61401537Y-62267263D01*
X61378934Y-62261202D01*
X61355951Y-62255854D01*
X61332586Y-62251217D01*
X61308840Y-62247293D01*
X61284710Y-62244081D01*
X61260197Y-62241582D01*
X61235300Y-62239797D01*
X61184350Y-62238370D01*
X61156357Y-62238370D01*
X61140639Y-62238603D01*
X61124961Y-62239311D01*
X61109317Y-62240492D01*
X61093703Y-62242150D01*
X61078112Y-62244288D01*
X61062539Y-62246910D01*
X61046977Y-62250018D01*
X61031421Y-62253615D01*
X61015865Y-62257705D01*
X61000303Y-62262287D01*
X60984730Y-62267369D01*
X60969139Y-62272949D01*
X60953525Y-62279033D01*
X60937882Y-62285623D01*
X60922204Y-62292723D01*
X60906485Y-62300335D01*
X60876127Y-62316553D01*
X60846543Y-62333728D01*
X60832048Y-62342685D01*
X60817756Y-62351889D01*
X60803669Y-62361344D01*
X60789790Y-62371054D01*
X60776122Y-62381023D01*
X60762668Y-62391251D01*
X60749430Y-62401743D01*
X60736412Y-62412503D01*
X60723616Y-62423530D01*
X60711045Y-62434832D01*
X60698702Y-62446409D01*
X60686591Y-62458264D01*
X60674735Y-62470354D01*
X60663159Y-62482637D01*
X60651857Y-62495120D01*
X60640829Y-62507807D01*
X60630070Y-62520704D01*
X60619577Y-62533818D01*
X60609348Y-62547156D01*
X60599380Y-62560721D01*
X60589669Y-62574519D01*
X60580214Y-62588559D01*
X60571009Y-62602843D01*
X60562054Y-62617379D01*
X60553344Y-62632173D01*
X60544878Y-62647232D01*
X60536651Y-62662557D01*
X60528660Y-62678159D01*
X60521045Y-62693878D01*
X60513942Y-62709557D01*
X60507349Y-62725200D01*
X60501263Y-62740814D01*
X60495682Y-62756405D01*
X60490601Y-62771977D01*
X60486018Y-62787539D01*
X60481931Y-62803095D01*
X60478335Y-62818652D01*
X60475229Y-62834214D01*
X60472609Y-62849786D01*
X60470472Y-62865377D01*
X60468815Y-62880991D01*
X60467635Y-62896636D01*
X60466929Y-62912313D01*
X60466694Y-62928033D01*
X60466694Y-62965999D01*
X60326833Y-62965999D01*
X60327348Y-62940843D01*
X60328132Y-62928033D01*
X60328897Y-62915516D01*
X60331483Y-62890042D01*
X60335109Y-62864420D01*
X60339777Y-62838645D01*
X60345490Y-62812714D01*
X60352251Y-62786625D01*
X60360064Y-62760375D01*
X60368931Y-62733961D01*
X60378855Y-62707380D01*
X60389840Y-62680630D01*
X60401887Y-62653706D01*
X60415001Y-62626607D01*
X60429183Y-62599330D01*
X60444437Y-62571872D01*
X60460766Y-62544228D01*
X60469783Y-62521479D01*
X60480341Y-62498966D01*
X60492434Y-62476687D01*
X60506055Y-62454644D01*
X60521200Y-62432833D01*
X60537861Y-62411258D01*
X60556033Y-62389916D01*
X60575711Y-62368809D01*
X60596887Y-62347937D01*
X60619557Y-62327298D01*
X60643714Y-62306894D01*
X60669352Y-62286726D01*
X60696466Y-62266790D01*
X60725049Y-62247090D01*
X60755096Y-62227623D01*
X60786601Y-62208392D01*
X60786601Y-62210374D01*
X60810626Y-62197684D01*
X60834887Y-62185766D01*
X60859324Y-62174649D01*
X60883932Y-62164337D01*
X60908704Y-62154832D01*
X60933634Y-62146141D01*
X60958716Y-62138261D01*
X60983946Y-62131199D01*
X61009316Y-62124957D01*
X61034821Y-62119537D01*
X61060455Y-62114943D01*
X61086212Y-62111178D01*
X61112086Y-62108245D01*
X61138072Y-62106145D01*
X61164163Y-62104884D01*
X61190354Y-62104463D01*
X61216490Y-62104845D01*
G37*
G36*
X47393340Y-65478746D02*
G01*
X47663214Y-64869067D01*
X47955077Y-64869067D01*
X47955077Y-66386294D01*
X47955050Y-66386294D01*
X47621226Y-66386294D01*
X47621226Y-65774604D01*
X47351349Y-66386294D01*
X47061498Y-66386294D01*
X47061498Y-64869067D01*
X47393340Y-64869067D01*
X47393340Y-65478746D01*
G37*
G36*
X69796139Y-64749105D02*
G01*
X69596138Y-64749105D01*
X69596138Y-63949403D01*
X69196434Y-63949403D01*
X69196434Y-64549106D01*
X68996434Y-64549106D01*
X68996434Y-63949403D01*
X68796700Y-63949403D01*
X68796700Y-64749105D01*
X68596730Y-64749105D01*
X68596730Y-63549697D01*
X69796139Y-63549697D01*
X69796139Y-64749105D01*
G37*
G36*
X56502705Y-63749589D02*
G01*
X56502705Y-63749617D01*
X55653128Y-63749617D01*
X55653128Y-63365811D01*
X56166869Y-63365811D01*
X56166869Y-63155918D01*
X55813040Y-63155918D01*
X55813040Y-62828073D01*
X56166869Y-62828073D01*
X56166869Y-62616168D01*
X55653128Y-62616168D01*
X55653128Y-62232364D01*
X56502705Y-62232364D01*
X56502705Y-63749589D01*
G37*
G36*
X37244479Y-61108969D02*
G01*
X36910654Y-61108969D01*
X36910654Y-60725163D01*
X37244479Y-60725163D01*
X37244479Y-61108969D01*
G37*
G36*
X57378264Y-66386294D02*
G01*
X57044440Y-66386294D01*
X57044440Y-66002490D01*
X57378264Y-66002490D01*
X57378264Y-66386294D01*
G37*
G36*
X56436714Y-64869085D02*
G01*
X56442568Y-64869300D01*
X56448322Y-64869661D01*
X56453974Y-64870171D01*
X56459521Y-64870835D01*
X56464959Y-64871653D01*
X56470285Y-64872630D01*
X56475498Y-64873767D01*
X56480593Y-64875068D01*
X56485568Y-64876537D01*
X56490420Y-64878175D01*
X56495146Y-64879987D01*
X56499743Y-64881974D01*
X56504208Y-64884140D01*
X56508538Y-64886487D01*
X56512730Y-64889017D01*
X56517160Y-64891689D01*
X56521452Y-64894458D01*
X56525609Y-64897324D01*
X56529634Y-64900295D01*
X56533529Y-64903369D01*
X56537299Y-64906554D01*
X56540945Y-64909847D01*
X56544471Y-64913257D01*
X56547879Y-64916781D01*
X56551173Y-64920427D01*
X56554355Y-64924194D01*
X56557428Y-64928089D01*
X56560396Y-64932110D01*
X56563260Y-64936263D01*
X56566024Y-64940551D01*
X56568692Y-64944976D01*
X56571269Y-64949500D01*
X56573753Y-64954072D01*
X56576143Y-64958697D01*
X56578439Y-64963379D01*
X56580642Y-64968117D01*
X56582750Y-64972917D01*
X56584765Y-64977781D01*
X56586686Y-64982713D01*
X56588513Y-64987714D01*
X56590246Y-64992789D01*
X56591885Y-64997940D01*
X56593429Y-65003169D01*
X56594880Y-65008479D01*
X56596237Y-65013875D01*
X56597499Y-65019359D01*
X56598668Y-65024934D01*
X56600814Y-65036265D01*
X56602753Y-65047763D01*
X56604460Y-65059400D01*
X56605911Y-65071157D01*
X56607082Y-65083006D01*
X56607948Y-65094927D01*
X56608485Y-65106895D01*
X56608670Y-65118887D01*
X56608670Y-65608632D01*
X56608600Y-65612753D01*
X56608396Y-65616877D01*
X56608063Y-65620998D01*
X56607606Y-65625121D01*
X56607033Y-65629244D01*
X56606348Y-65633366D01*
X56605558Y-65637489D01*
X56604668Y-65641611D01*
X56602613Y-65649856D01*
X56600230Y-65658102D01*
X56597568Y-65666347D01*
X56594672Y-65674591D01*
X56593127Y-65678713D01*
X56591490Y-65682825D01*
X56589766Y-65686920D01*
X56587957Y-65690989D01*
X56586065Y-65695021D01*
X56584094Y-65699011D01*
X56582047Y-65702949D01*
X56579927Y-65706824D01*
X56577737Y-65710630D01*
X56575480Y-65714357D01*
X56573160Y-65717996D01*
X56570778Y-65721539D01*
X56568338Y-65724977D01*
X56565843Y-65728302D01*
X56563296Y-65731503D01*
X56560700Y-65734572D01*
X56555361Y-65740562D01*
X56549809Y-65746481D01*
X56546946Y-65749391D01*
X56544020Y-65752256D01*
X56541030Y-65755068D01*
X56537971Y-65757819D01*
X56534842Y-65760500D01*
X56531640Y-65763102D01*
X56528361Y-65765615D01*
X56525002Y-65768034D01*
X56521562Y-65770346D01*
X56518036Y-65772543D01*
X56514422Y-65774619D01*
X56510718Y-65776562D01*
X56506967Y-65778391D01*
X56503218Y-65780120D01*
X56499468Y-65781751D01*
X56495719Y-65783278D01*
X56491971Y-65784700D01*
X56488223Y-65786013D01*
X56484475Y-65787216D01*
X56480727Y-65788303D01*
X56476979Y-65789273D01*
X56473231Y-65790123D01*
X56469483Y-65790852D01*
X56465735Y-65791452D01*
X56461986Y-65791926D01*
X56458237Y-65792266D01*
X56454488Y-65792473D01*
X56450737Y-65792543D01*
X56088919Y-65792543D01*
X56088919Y-66002437D01*
X56608668Y-66002437D01*
X56608668Y-66004448D01*
X56608670Y-66004474D01*
X56608670Y-66388279D01*
X55917023Y-66388279D01*
X55911822Y-66388209D01*
X55906714Y-66387993D01*
X55901701Y-66387632D01*
X55896782Y-66387121D01*
X55891956Y-66386459D01*
X55887225Y-66385640D01*
X55882587Y-66384664D01*
X55878043Y-66383526D01*
X55873592Y-66382224D01*
X55869236Y-66380755D01*
X55864972Y-66379117D01*
X55860802Y-66377305D01*
X55856726Y-66375320D01*
X55852742Y-66373154D01*
X55848852Y-66370807D01*
X55845055Y-66368275D01*
X55841352Y-66365605D01*
X55837743Y-66362841D01*
X55834228Y-66359982D01*
X55830807Y-66357029D01*
X55827480Y-66353984D01*
X55824247Y-66350845D01*
X55821109Y-66347612D01*
X55818064Y-66344285D01*
X55815114Y-66340865D01*
X55812257Y-66337351D01*
X55809494Y-66333743D01*
X55806825Y-66330043D01*
X55804250Y-66326247D01*
X55801769Y-66322358D01*
X55799381Y-66318376D01*
X55797087Y-66314301D01*
X55792690Y-66305954D01*
X55788502Y-66297371D01*
X55784548Y-66288507D01*
X55782665Y-66283956D01*
X55780849Y-66279316D01*
X55779104Y-66274582D01*
X55777431Y-66269751D01*
X55775835Y-66264813D01*
X55774317Y-66259763D01*
X55772882Y-66254598D01*
X55771531Y-66249308D01*
X55770267Y-66243892D01*
X55769095Y-66238339D01*
X55767028Y-66227097D01*
X55765313Y-66215852D01*
X55763928Y-66204606D01*
X55762848Y-66193360D01*
X55762050Y-66182113D01*
X55761509Y-66170868D01*
X55761202Y-66159623D01*
X55761105Y-66148381D01*
X55761105Y-65666628D01*
X55761198Y-65661778D01*
X55761472Y-65656973D01*
X55761922Y-65652209D01*
X55762541Y-65647482D01*
X55763325Y-65642791D01*
X55764267Y-65638132D01*
X55765361Y-65633501D01*
X55766602Y-65628897D01*
X55767983Y-65624318D01*
X55769500Y-65619759D01*
X55771145Y-65615217D01*
X55772914Y-65610691D01*
X55774801Y-65606175D01*
X55776799Y-65601670D01*
X55781107Y-65592676D01*
X55783406Y-65588228D01*
X55785798Y-65583866D01*
X55788283Y-65579585D01*
X55790861Y-65575380D01*
X55793532Y-65571246D01*
X55796297Y-65567174D01*
X55799154Y-65563161D01*
X55802105Y-65559201D01*
X55805149Y-65555286D01*
X55808287Y-65551412D01*
X55811518Y-65547573D01*
X55814842Y-65543764D01*
X55821772Y-65536209D01*
X55829075Y-65528700D01*
X55832821Y-65525019D01*
X55836568Y-65521474D01*
X55840315Y-65518058D01*
X55844063Y-65514765D01*
X55847811Y-65511590D01*
X55851559Y-65508527D01*
X55859057Y-65502712D01*
X55866556Y-65497270D01*
X55874056Y-65492155D01*
X55881557Y-65487319D01*
X55889058Y-65482715D01*
X55892761Y-65480535D01*
X55896374Y-65478493D01*
X55899898Y-65476595D01*
X55903337Y-65474837D01*
X55906694Y-65473220D01*
X55909971Y-65471744D01*
X55913172Y-65470410D01*
X55916300Y-65469216D01*
X55919357Y-65468162D01*
X55922347Y-65467249D01*
X55925272Y-65466477D01*
X55928136Y-65465846D01*
X55930941Y-65465355D01*
X55933691Y-65465004D01*
X55936388Y-65464793D01*
X55939036Y-65464724D01*
X56280852Y-65464724D01*
X56280852Y-65252820D01*
X55761103Y-65252820D01*
X55761103Y-64869014D01*
X56430764Y-64869014D01*
X56436714Y-64869085D01*
G37*
G36*
X58601643Y-63749617D02*
G01*
X58265807Y-63749617D01*
X58265807Y-62232389D01*
X58601643Y-62232389D01*
X58601643Y-63749617D01*
G37*
G36*
X45470294Y-61109074D02*
G01*
X44720678Y-61109074D01*
X44720678Y-61105080D01*
X44720678Y-61104973D01*
X44717703Y-61104903D01*
X44714766Y-61104695D01*
X44711858Y-61104354D01*
X44708971Y-61103880D01*
X44706095Y-61103275D01*
X44703221Y-61102547D01*
X44700342Y-61101696D01*
X44697447Y-61100724D01*
X44694529Y-61099634D01*
X44691579Y-61098433D01*
X44688588Y-61097118D01*
X44685546Y-61095697D01*
X44682447Y-61094172D01*
X44679279Y-61092542D01*
X44672708Y-61088993D01*
X44669358Y-61087075D01*
X44666055Y-61085066D01*
X44662800Y-61082968D01*
X44659591Y-61080786D01*
X44656429Y-61078519D01*
X44653314Y-61076173D01*
X44650246Y-61073752D01*
X44647225Y-61071255D01*
X44644251Y-61068690D01*
X44641324Y-61066057D01*
X44638443Y-61063358D01*
X44635609Y-61060599D01*
X44632822Y-61057783D01*
X44630081Y-61054910D01*
X44624739Y-61049014D01*
X44621811Y-61045994D01*
X44619015Y-61042930D01*
X44616341Y-61039825D01*
X44613781Y-61036682D01*
X44611326Y-61033504D01*
X44608968Y-61030293D01*
X44606697Y-61027052D01*
X44604505Y-61023786D01*
X44600322Y-61017184D01*
X44596350Y-61010513D01*
X44592517Y-61003793D01*
X44588755Y-60997050D01*
X44586950Y-60993676D01*
X44585282Y-60990307D01*
X44583750Y-60986942D01*
X44582349Y-60983587D01*
X44581077Y-60980244D01*
X44579932Y-60976916D01*
X44578909Y-60973604D01*
X44578007Y-60970314D01*
X44577221Y-60967046D01*
X44576550Y-60963807D01*
X44575991Y-60960595D01*
X44575539Y-60957416D01*
X44575194Y-60954273D01*
X44574950Y-60951168D01*
X44574806Y-60948105D01*
X44574759Y-60945086D01*
X44574759Y-60725163D01*
X44574759Y-60513260D01*
X44910594Y-60513260D01*
X44910594Y-60725163D01*
X45138481Y-60725163D01*
X45138481Y-60513260D01*
X44910594Y-60513260D01*
X44574759Y-60513260D01*
X44574759Y-60499315D01*
X44574899Y-60492970D01*
X44575321Y-60486672D01*
X44576023Y-60480429D01*
X44577007Y-60474239D01*
X44578271Y-60468109D01*
X44579817Y-60462040D01*
X44581644Y-60456035D01*
X44583752Y-60450097D01*
X44586141Y-60444228D01*
X44588811Y-60438434D01*
X44591763Y-60432715D01*
X44594996Y-60427075D01*
X44598511Y-60421516D01*
X44602307Y-60416043D01*
X44606384Y-60410657D01*
X44610743Y-60405362D01*
X44615242Y-60400209D01*
X44619741Y-60395245D01*
X44624239Y-60390474D01*
X44628737Y-60385902D01*
X44633235Y-60381528D01*
X44637732Y-60377355D01*
X44642229Y-60373390D01*
X44646726Y-60369630D01*
X44651224Y-60366083D01*
X44655721Y-60362748D01*
X44660218Y-60359630D01*
X44664715Y-60356732D01*
X44669213Y-60354056D01*
X44673711Y-60351607D01*
X44678210Y-60349384D01*
X44682709Y-60347392D01*
X44681165Y-60347323D01*
X44679532Y-60347115D01*
X44677817Y-60346772D01*
X44676025Y-60346297D01*
X44674163Y-60345694D01*
X44672237Y-60344966D01*
X44670251Y-60344113D01*
X44668213Y-60343142D01*
X44666128Y-60342053D01*
X44664003Y-60340851D01*
X44661842Y-60339537D01*
X44659652Y-60338116D01*
X44657439Y-60336590D01*
X44655209Y-60334961D01*
X44652968Y-60333235D01*
X44650721Y-60331412D01*
X44648120Y-60329512D01*
X44645567Y-60327563D01*
X44643060Y-60325563D01*
X44640601Y-60323506D01*
X44638188Y-60321393D01*
X44635823Y-60319216D01*
X44633504Y-60316976D01*
X44631232Y-60314669D01*
X44629007Y-60312292D01*
X44626828Y-60309843D01*
X44624696Y-60307316D01*
X44622612Y-60304711D01*
X44620573Y-60302025D01*
X44618582Y-60299252D01*
X44616636Y-60296393D01*
X44614738Y-60293443D01*
X44610991Y-60288011D01*
X44607268Y-60282229D01*
X44603593Y-60276117D01*
X44599987Y-60269703D01*
X44596477Y-60263009D01*
X44593083Y-60256057D01*
X44589832Y-60248874D01*
X44586745Y-60241479D01*
X44583936Y-60234077D01*
X44582671Y-60230440D01*
X44581501Y-60226838D01*
X44580424Y-60223272D01*
X44579441Y-60219738D01*
X44578551Y-60216234D01*
X44577755Y-60212756D01*
X44577053Y-60209300D01*
X44576444Y-60205866D01*
X44575929Y-60202448D01*
X44575508Y-60199044D01*
X44575180Y-60195653D01*
X44574946Y-60192270D01*
X44574828Y-60189436D01*
X44574806Y-60188893D01*
X44574759Y-60185520D01*
X44574759Y-59977531D01*
X44910595Y-59977531D01*
X44910595Y-60189436D01*
X45138482Y-60189436D01*
X45138482Y-59977531D01*
X44910595Y-59977531D01*
X44574759Y-59977531D01*
X44574759Y-59749752D01*
X44574806Y-59747081D01*
X44574950Y-59744323D01*
X44575194Y-59741484D01*
X44575539Y-59738568D01*
X44575991Y-59735581D01*
X44576550Y-59732530D01*
X44577221Y-59729422D01*
X44578007Y-59726259D01*
X44578909Y-59723050D01*
X44579932Y-59719802D01*
X44581077Y-59716516D01*
X44582349Y-59713202D01*
X44583750Y-59709865D01*
X44585282Y-59706510D01*
X44586950Y-59703143D01*
X44588755Y-59699771D01*
X44592599Y-59693028D01*
X44596629Y-59686309D01*
X44600845Y-59679637D01*
X44605249Y-59673035D01*
X44609840Y-59666528D01*
X44614618Y-59660139D01*
X44619584Y-59653891D01*
X44624739Y-59647807D01*
X44630733Y-59641911D01*
X44636728Y-59636225D01*
X44642725Y-59630772D01*
X44648723Y-59625575D01*
X44654721Y-59620660D01*
X44660718Y-59616047D01*
X44663716Y-59613862D01*
X44666714Y-59611762D01*
X44669711Y-59609751D01*
X44672708Y-59607828D01*
X44679361Y-59604270D01*
X44682617Y-59602640D01*
X44685825Y-59601112D01*
X44688987Y-59599690D01*
X44692102Y-59598377D01*
X44695170Y-59597175D01*
X44698191Y-59596087D01*
X44701165Y-59595118D01*
X44704093Y-59594268D01*
X44706974Y-59593539D01*
X44709808Y-59592939D01*
X44712595Y-59592466D01*
X44715336Y-59592124D01*
X44718030Y-59591917D01*
X44720678Y-59591848D01*
X45470294Y-59591848D01*
X45470294Y-61109074D01*
G37*
G36*
X47525259Y-60189436D02*
G01*
X47753146Y-60189436D01*
X47753146Y-59593727D01*
X48084986Y-59593727D01*
X48084986Y-60189436D01*
X48084884Y-60196268D01*
X48084547Y-60203239D01*
X48083929Y-60210304D01*
X48083499Y-60213856D01*
X48082982Y-60217416D01*
X48082371Y-60220973D01*
X48081661Y-60224526D01*
X48080845Y-60228067D01*
X48079918Y-60231591D01*
X48078875Y-60235091D01*
X48077708Y-60238563D01*
X48076413Y-60241999D01*
X48074984Y-60245396D01*
X48068928Y-60259136D01*
X48065782Y-60266053D01*
X48062495Y-60272875D01*
X48059020Y-60279511D01*
X48057197Y-60282729D01*
X48055309Y-60285865D01*
X48053350Y-60288907D01*
X48051315Y-60291845D01*
X48049198Y-60294667D01*
X48046992Y-60297359D01*
X48037988Y-60307794D01*
X48033488Y-60312893D01*
X48028990Y-60317850D01*
X48024494Y-60322620D01*
X48019998Y-60327154D01*
X48015503Y-60331406D01*
X48013255Y-60333410D01*
X48011008Y-60335326D01*
X48008761Y-60337150D01*
X48006516Y-60338877D01*
X48004277Y-60340505D01*
X48002046Y-60342032D01*
X47999826Y-60343453D01*
X47997621Y-60344766D01*
X47995434Y-60345969D01*
X47993267Y-60347057D01*
X47991124Y-60348029D01*
X47989007Y-60348882D01*
X47986920Y-60349610D01*
X47984866Y-60350213D01*
X47982848Y-60350687D01*
X47980868Y-60351030D01*
X47978929Y-60351237D01*
X47977036Y-60351308D01*
X47981535Y-60353299D01*
X47986034Y-60355521D01*
X47990532Y-60357973D01*
X47995029Y-60360648D01*
X47999527Y-60363546D01*
X48004024Y-60366664D01*
X48008521Y-60369998D01*
X48013018Y-60373545D01*
X48017515Y-60377304D01*
X48022013Y-60381271D01*
X48026510Y-60385442D01*
X48031008Y-60389816D01*
X48035506Y-60394391D01*
X48040004Y-60399160D01*
X48044503Y-60404123D01*
X48049002Y-60409278D01*
X48053361Y-60414900D01*
X48057438Y-60420529D01*
X48061234Y-60426169D01*
X48064748Y-60431827D01*
X48067981Y-60437510D01*
X48070933Y-60443221D01*
X48073604Y-60448968D01*
X48075993Y-60454757D01*
X48078101Y-60460591D01*
X48079928Y-60466478D01*
X48081474Y-60472425D01*
X48082738Y-60478434D01*
X48083722Y-60484515D01*
X48084424Y-60490670D01*
X48084846Y-60496907D01*
X48084986Y-60503231D01*
X48084986Y-61110927D01*
X47753146Y-61110927D01*
X47753146Y-60515216D01*
X47515257Y-60515216D01*
X47515257Y-61110927D01*
X47191435Y-61110927D01*
X47191435Y-60503231D01*
X47191576Y-60496886D01*
X47191997Y-60490589D01*
X47192699Y-60484344D01*
X47193683Y-60478155D01*
X47194947Y-60472025D01*
X47196493Y-60465955D01*
X47198319Y-60459951D01*
X47200427Y-60454013D01*
X47202816Y-60448144D01*
X47205486Y-60442349D01*
X47208438Y-60436630D01*
X47211671Y-60430990D01*
X47215185Y-60425432D01*
X47218981Y-60419958D01*
X47223059Y-60414572D01*
X47227417Y-60409278D01*
X47231917Y-60404123D01*
X47236416Y-60399160D01*
X47240914Y-60394391D01*
X47245412Y-60389816D01*
X47249910Y-60385442D01*
X47254407Y-60381271D01*
X47258904Y-60377304D01*
X47263401Y-60373545D01*
X47267899Y-60369998D01*
X47272396Y-60366664D01*
X47276893Y-60363546D01*
X47281391Y-60360648D01*
X47285889Y-60357973D01*
X47290387Y-60355521D01*
X47294886Y-60353299D01*
X47299386Y-60351308D01*
X47297841Y-60351237D01*
X47296208Y-60351030D01*
X47294493Y-60350687D01*
X47292701Y-60350213D01*
X47290839Y-60349610D01*
X47288913Y-60348882D01*
X47286927Y-60348029D01*
X47284889Y-60347057D01*
X47282804Y-60345969D01*
X47280679Y-60344766D01*
X47278518Y-60343453D01*
X47276328Y-60342032D01*
X47274115Y-60340505D01*
X47271885Y-60338877D01*
X47269644Y-60337150D01*
X47267397Y-60335326D01*
X47264797Y-60333427D01*
X47262243Y-60331480D01*
X47259736Y-60329478D01*
X47257277Y-60327422D01*
X47254864Y-60325307D01*
X47252498Y-60323132D01*
X47250179Y-60320892D01*
X47247907Y-60318585D01*
X47245682Y-60316209D01*
X47243503Y-60313758D01*
X47241371Y-60311232D01*
X47239286Y-60308627D01*
X47237248Y-60305940D01*
X47235257Y-60303168D01*
X47233312Y-60300309D01*
X47231413Y-60297359D01*
X47227667Y-60291927D01*
X47223943Y-60286144D01*
X47220268Y-60280034D01*
X47216662Y-60273619D01*
X47213151Y-60266925D01*
X47209758Y-60259974D01*
X47206506Y-60252789D01*
X47203419Y-60245396D01*
X47200610Y-60237994D01*
X47199346Y-60234354D01*
X47198176Y-60230755D01*
X47197099Y-60227188D01*
X47196116Y-60223654D01*
X47195227Y-60220150D01*
X47194431Y-60216672D01*
X47193729Y-60213216D01*
X47193120Y-60209780D01*
X47192605Y-60206363D01*
X47192184Y-60202961D01*
X47191857Y-60199568D01*
X47191623Y-60196186D01*
X47191482Y-60192809D01*
X47191435Y-60189436D01*
X47191435Y-59593727D01*
X47525259Y-59593727D01*
X47525259Y-60189436D01*
G37*
G36*
X64998532Y-66348486D02*
G01*
X64998505Y-66348486D01*
X64598797Y-66348486D01*
X64598797Y-65349075D01*
X64198826Y-65349075D01*
X64198826Y-66348486D01*
X63799122Y-66348486D01*
X63799122Y-65149078D01*
X64998532Y-65149078D01*
X64998532Y-66348486D01*
G37*
G36*
X61218556Y-62476714D02*
G01*
X61245892Y-62478088D01*
X61272338Y-62480385D01*
X61297892Y-62483608D01*
X61322555Y-62487759D01*
X61346326Y-62492846D01*
X61369205Y-62498869D01*
X61391191Y-62505834D01*
X61412284Y-62513745D01*
X61432484Y-62522606D01*
X61451790Y-62532421D01*
X61470201Y-62543194D01*
X61487719Y-62554929D01*
X61504341Y-62567628D01*
X61520069Y-62581300D01*
X61534900Y-62595944D01*
X61548836Y-62611565D01*
X61561875Y-62628170D01*
X61574018Y-62645760D01*
X61585263Y-62664341D01*
X61595611Y-62683915D01*
X61605061Y-62704488D01*
X61613613Y-62726063D01*
X61621266Y-62748644D01*
X61628020Y-62772236D01*
X61633875Y-62796841D01*
X61638830Y-62822465D01*
X61642886Y-62849111D01*
X61646040Y-62876784D01*
X61648294Y-62905486D01*
X61649646Y-62935225D01*
X61650097Y-62965999D01*
X61648316Y-63026624D01*
X61642968Y-63083317D01*
X61638955Y-63110190D01*
X61634048Y-63136080D01*
X61628246Y-63160989D01*
X61621549Y-63184917D01*
X61613956Y-63207864D01*
X61605466Y-63229830D01*
X61596079Y-63250816D01*
X61585793Y-63270822D01*
X61574609Y-63289850D01*
X61562524Y-63307896D01*
X61549540Y-63324966D01*
X61535654Y-63341056D01*
X61520866Y-63356168D01*
X61505176Y-63370303D01*
X61488583Y-63383461D01*
X61471085Y-63395642D01*
X61452682Y-63406847D01*
X61433374Y-63417074D01*
X61413160Y-63426327D01*
X61392039Y-63434603D01*
X61370010Y-63441906D01*
X61347072Y-63448233D01*
X61323226Y-63453585D01*
X61298469Y-63457963D01*
X61272802Y-63461368D01*
X61246223Y-63463799D01*
X61218733Y-63465259D01*
X61190329Y-63465744D01*
X61149382Y-63464479D01*
X61110502Y-63460680D01*
X61073696Y-63454346D01*
X61056072Y-63450227D01*
X61038969Y-63445472D01*
X61022387Y-63440084D01*
X61006327Y-63434057D01*
X60990789Y-63427397D01*
X60975775Y-63420098D01*
X60961285Y-63412163D01*
X60947320Y-63403592D01*
X60933881Y-63394381D01*
X60920968Y-63384534D01*
X60908582Y-63374048D01*
X60896723Y-63362922D01*
X60885393Y-63351159D01*
X60874592Y-63338756D01*
X60864322Y-63325712D01*
X60854581Y-63312029D01*
X60845372Y-63297705D01*
X60836696Y-63282742D01*
X60828552Y-63267135D01*
X60820941Y-63250889D01*
X60813865Y-63233998D01*
X60807324Y-63216467D01*
X60795849Y-63179475D01*
X60786522Y-63139910D01*
X60788533Y-63135914D01*
X60788531Y-63135942D01*
X60922465Y-63097973D01*
X60926183Y-63111069D01*
X60930217Y-63123741D01*
X60934569Y-63135994D01*
X60939238Y-63147826D01*
X60944225Y-63159239D01*
X60949530Y-63170231D01*
X60955154Y-63180803D01*
X60961096Y-63190957D01*
X60967358Y-63200693D01*
X60973940Y-63210009D01*
X60980841Y-63218908D01*
X60988063Y-63227390D01*
X60995606Y-63235455D01*
X61003470Y-63243101D01*
X61011655Y-63250332D01*
X61020162Y-63257148D01*
X61028991Y-63263545D01*
X61038143Y-63269530D01*
X61047617Y-63275098D01*
X61057415Y-63280251D01*
X61067536Y-63284990D01*
X61077981Y-63289316D01*
X61088751Y-63293228D01*
X61099845Y-63296726D01*
X61111264Y-63299812D01*
X61123009Y-63302484D01*
X61135079Y-63304745D01*
X61147475Y-63306595D01*
X61160198Y-63308031D01*
X61173248Y-63309057D01*
X61200329Y-63309878D01*
X61218596Y-63309539D01*
X61236289Y-63308521D01*
X61253407Y-63306823D01*
X61269949Y-63304447D01*
X61285916Y-63301395D01*
X61301307Y-63297663D01*
X61316122Y-63293256D01*
X61330361Y-63288170D01*
X61344022Y-63282409D01*
X61357106Y-63275972D01*
X61369612Y-63268860D01*
X61381541Y-63261071D01*
X61392891Y-63252607D01*
X61403662Y-63243470D01*
X61413854Y-63233657D01*
X61423467Y-63223171D01*
X61432500Y-63212012D01*
X61440952Y-63200178D01*
X61448824Y-63187674D01*
X61456116Y-63174495D01*
X61462826Y-63160646D01*
X61468954Y-63146124D01*
X61474500Y-63130931D01*
X61479465Y-63115066D01*
X61483846Y-63098531D01*
X61487645Y-63081327D01*
X61490860Y-63063451D01*
X61493491Y-63044906D01*
X61495538Y-63025694D01*
X61497001Y-63005811D01*
X61497879Y-62985260D01*
X61498171Y-62964041D01*
X61496954Y-62920095D01*
X61493306Y-62878962D01*
X61487234Y-62840645D01*
X61483290Y-62822544D01*
X61478743Y-62805149D01*
X61473592Y-62788460D01*
X61467839Y-62772475D01*
X61461484Y-62757199D01*
X61454528Y-62742628D01*
X61446971Y-62728764D01*
X61438815Y-62715609D01*
X61430061Y-62703161D01*
X61420708Y-62691422D01*
X61410758Y-62680391D01*
X61400212Y-62670068D01*
X61389069Y-62660456D01*
X61377331Y-62651553D01*
X61364999Y-62643361D01*
X61352074Y-62635879D01*
X61338555Y-62629106D01*
X61324445Y-62623047D01*
X61309742Y-62617699D01*
X61294450Y-62613062D01*
X61278567Y-62609138D01*
X61262095Y-62605925D01*
X61245034Y-62603426D01*
X61227386Y-62601641D01*
X61209151Y-62600571D01*
X61190329Y-62600213D01*
X61168987Y-62600870D01*
X61148436Y-62602845D01*
X61128670Y-62606141D01*
X61109682Y-62610768D01*
X61091467Y-62616731D01*
X61074019Y-62624033D01*
X61057333Y-62632683D01*
X61041402Y-62642685D01*
X61026221Y-62654046D01*
X61011784Y-62666772D01*
X60998085Y-62680869D01*
X60985118Y-62696342D01*
X60972878Y-62713196D01*
X60961359Y-62731439D01*
X60950554Y-62751076D01*
X60940459Y-62772112D01*
X60806525Y-62744119D01*
X60810893Y-62727699D01*
X60815754Y-62711793D01*
X60821106Y-62696404D01*
X60826950Y-62681531D01*
X60833286Y-62667175D01*
X60840115Y-62653336D01*
X60847435Y-62640016D01*
X60855247Y-62627212D01*
X60863551Y-62614926D01*
X60872346Y-62603161D01*
X60881634Y-62591912D01*
X60891414Y-62581184D01*
X60901686Y-62570977D01*
X60912450Y-62561289D01*
X60923705Y-62552121D01*
X60935453Y-62543474D01*
X60947693Y-62535348D01*
X60960424Y-62527743D01*
X60973648Y-62520662D01*
X60987364Y-62514101D01*
X61001571Y-62508063D01*
X61016271Y-62502550D01*
X61031463Y-62497558D01*
X61047146Y-62493091D01*
X61063322Y-62489148D01*
X61079990Y-62485731D01*
X61097149Y-62482838D01*
X61114801Y-62480469D01*
X61132945Y-62478627D01*
X61151581Y-62477310D01*
X61170709Y-62476519D01*
X61190329Y-62476255D01*
X61218556Y-62476714D01*
G37*
G36*
X42654739Y-59597822D02*
G01*
X42657743Y-59597970D01*
X42660759Y-59598221D01*
X42663794Y-59598585D01*
X42666852Y-59599066D01*
X42669939Y-59599671D01*
X42673062Y-59600403D01*
X42676225Y-59601270D01*
X42679436Y-59602277D01*
X42682699Y-59603431D01*
X42686021Y-59604737D01*
X42689406Y-59606201D01*
X42692862Y-59607829D01*
X42696393Y-59609628D01*
X42700006Y-59611600D01*
X42703706Y-59613755D01*
X42707079Y-59615676D01*
X42710449Y-59617688D01*
X42713813Y-59619788D01*
X42717169Y-59621973D01*
X42720512Y-59624240D01*
X42723841Y-59626586D01*
X42730442Y-59631501D01*
X42736950Y-59636698D01*
X42743339Y-59642151D01*
X42749587Y-59647837D01*
X42755670Y-59653734D01*
X42761566Y-59659735D01*
X42767252Y-59665785D01*
X42770009Y-59668843D01*
X42772705Y-59671931D01*
X42775337Y-59675054D01*
X42777902Y-59678218D01*
X42780396Y-59681428D01*
X42782818Y-59684691D01*
X42785164Y-59688012D01*
X42787430Y-59691398D01*
X42789615Y-59694853D01*
X42791715Y-59698386D01*
X42793727Y-59701998D01*
X42795649Y-59705697D01*
X42797477Y-59709070D01*
X42799207Y-59712440D01*
X42800838Y-59715805D01*
X42802365Y-59719161D01*
X42803787Y-59722504D01*
X42805100Y-59725832D01*
X42806302Y-59729143D01*
X42807389Y-59732433D01*
X42808360Y-59735700D01*
X42809210Y-59738941D01*
X42809937Y-59742153D01*
X42810538Y-59745330D01*
X42811011Y-59748474D01*
X42811352Y-59751578D01*
X42811559Y-59754643D01*
X42811629Y-59757662D01*
X42811629Y-60949055D01*
X42811581Y-60952052D01*
X42811434Y-60955056D01*
X42811181Y-60958073D01*
X42810817Y-60961106D01*
X42810336Y-60964164D01*
X42809733Y-60967252D01*
X42809000Y-60970374D01*
X42808133Y-60973539D01*
X42807126Y-60976748D01*
X42805972Y-60980012D01*
X42804666Y-60983334D01*
X42803202Y-60986718D01*
X42801574Y-60990174D01*
X42799777Y-60993706D01*
X42797804Y-60997318D01*
X42795649Y-61001019D01*
X42793727Y-61004391D01*
X42791715Y-61007762D01*
X42789615Y-61011125D01*
X42787430Y-61014481D01*
X42785164Y-61017825D01*
X42782818Y-61021152D01*
X42777902Y-61027755D01*
X42772706Y-61034261D01*
X42767253Y-61040651D01*
X42761566Y-61046899D01*
X42755670Y-61052982D01*
X42749587Y-61058878D01*
X42743339Y-61064565D01*
X42736949Y-61070017D01*
X42733709Y-61072649D01*
X42730442Y-61075215D01*
X42727152Y-61077708D01*
X42723841Y-61080130D01*
X42720512Y-61082476D01*
X42717169Y-61084743D01*
X42713813Y-61086928D01*
X42710449Y-61089028D01*
X42707079Y-61091039D01*
X42703706Y-61092962D01*
X42700333Y-61094788D01*
X42696963Y-61096519D01*
X42693599Y-61098150D01*
X42690244Y-61099677D01*
X42686900Y-61101100D01*
X42683571Y-61102412D01*
X42680260Y-61103614D01*
X42676970Y-61104702D01*
X42673703Y-61105672D01*
X42670462Y-61106522D01*
X42667251Y-61107249D01*
X42664073Y-61107851D01*
X42660930Y-61108324D01*
X42657825Y-61108666D01*
X42654761Y-61108873D01*
X42651741Y-61108942D01*
X42651741Y-61110952D01*
X42064050Y-61110952D01*
X42061076Y-61110883D01*
X42058139Y-61110675D01*
X42055231Y-61110332D01*
X42052343Y-61109859D01*
X42049467Y-61109256D01*
X42046593Y-61108526D01*
X42043714Y-61107675D01*
X42040820Y-61106702D01*
X42037902Y-61105615D01*
X42034951Y-61104411D01*
X42031960Y-61103099D01*
X42028919Y-61101676D01*
X42025819Y-61100150D01*
X42022652Y-61098523D01*
X42016080Y-61094971D01*
X42012730Y-61093054D01*
X42009428Y-61091045D01*
X42006172Y-61088948D01*
X42002963Y-61086765D01*
X41999801Y-61084498D01*
X41996687Y-61082152D01*
X41993619Y-61079730D01*
X41990598Y-61077235D01*
X41987624Y-61074669D01*
X41984696Y-61072035D01*
X41981816Y-61069338D01*
X41978982Y-61066580D01*
X41976194Y-61063762D01*
X41973453Y-61060890D01*
X41968111Y-61054993D01*
X41965184Y-61051974D01*
X41962387Y-61048911D01*
X41959713Y-61045806D01*
X41957154Y-61042662D01*
X41954699Y-61039484D01*
X41952340Y-61036272D01*
X41950069Y-61033033D01*
X41947877Y-61029765D01*
X41943694Y-61023163D01*
X41939722Y-61016492D01*
X41935890Y-61009772D01*
X41932127Y-61003029D01*
X41930322Y-60999657D01*
X41928655Y-60996286D01*
X41927122Y-60992922D01*
X41925721Y-60989566D01*
X41924450Y-60986223D01*
X41923304Y-60982895D01*
X41922281Y-60979584D01*
X41921379Y-60976293D01*
X41920594Y-60973027D01*
X41919923Y-60969786D01*
X41919363Y-60966574D01*
X41918912Y-60963397D01*
X41918566Y-60960253D01*
X41918323Y-60957149D01*
X41918179Y-60954084D01*
X41918131Y-60951065D01*
X41918131Y-60725163D01*
X41918131Y-59977531D01*
X42253940Y-59977531D01*
X42253940Y-60725163D01*
X42481826Y-60725163D01*
X42481826Y-59977531D01*
X42253940Y-59977531D01*
X41918131Y-59977531D01*
X41918131Y-59755678D01*
X41918179Y-59753007D01*
X41918323Y-59750249D01*
X41918566Y-59747410D01*
X41918912Y-59744494D01*
X41919363Y-59741507D01*
X41919923Y-59738456D01*
X41920594Y-59735348D01*
X41921379Y-59732185D01*
X41922281Y-59728977D01*
X41923304Y-59725728D01*
X41924450Y-59722443D01*
X41925721Y-59719129D01*
X41927122Y-59715791D01*
X41928655Y-59712436D01*
X41930322Y-59709070D01*
X41932127Y-59705697D01*
X41935971Y-59698954D01*
X41940001Y-59692235D01*
X41944217Y-59685564D01*
X41948621Y-59678961D01*
X41953212Y-59672455D01*
X41957990Y-59666065D01*
X41962957Y-59659817D01*
X41968111Y-59653734D01*
X41974105Y-59647837D01*
X41980101Y-59642151D01*
X41986098Y-59636698D01*
X41992095Y-59631502D01*
X41998093Y-59626586D01*
X42004090Y-59621973D01*
X42007088Y-59619788D01*
X42010086Y-59617688D01*
X42013084Y-59615676D01*
X42016080Y-59613755D01*
X42022733Y-59610197D01*
X42025989Y-59608566D01*
X42029198Y-59607039D01*
X42032359Y-59605616D01*
X42035474Y-59604304D01*
X42038542Y-59603101D01*
X42041563Y-59602014D01*
X42044538Y-59601044D01*
X42047465Y-59600194D01*
X42050346Y-59599466D01*
X42053180Y-59598865D01*
X42055967Y-59598393D01*
X42058708Y-59598050D01*
X42061402Y-59597843D01*
X42064050Y-59597774D01*
X42651741Y-59597774D01*
X42654739Y-59597822D01*
G37*
G36*
X69796139Y-62949991D02*
G01*
X69596138Y-62949991D01*
X69596138Y-63149991D01*
X68796700Y-63149991D01*
X68796700Y-62949991D01*
X68596730Y-62949991D01*
X68596730Y-62750259D01*
X68596730Y-62350287D01*
X68796730Y-62350287D01*
X68796730Y-62750259D01*
X69596169Y-62750259D01*
X69596169Y-62350287D01*
X68796730Y-62350287D01*
X68596730Y-62350287D01*
X68596730Y-61950581D01*
X69796139Y-61950581D01*
X69796139Y-62949991D01*
G37*
G36*
X36540846Y-59975546D02*
G01*
X36021099Y-59975546D01*
X36476870Y-61108969D01*
X36115052Y-61108969D01*
X35647295Y-59947553D01*
X35647295Y-59591741D01*
X36540846Y-59591741D01*
X36540846Y-59975546D01*
G37*
G36*
X51276373Y-59597822D02*
G01*
X51279377Y-59597970D01*
X51282393Y-59598221D01*
X51285428Y-59598585D01*
X51288486Y-59599066D01*
X51291573Y-59599671D01*
X51294696Y-59600403D01*
X51297859Y-59601270D01*
X51301070Y-59602277D01*
X51304333Y-59603431D01*
X51307655Y-59604737D01*
X51311040Y-59606201D01*
X51314496Y-59607829D01*
X51318028Y-59609628D01*
X51321641Y-59611600D01*
X51325341Y-59613755D01*
X51328714Y-59615676D01*
X51332084Y-59617688D01*
X51335448Y-59619788D01*
X51338803Y-59621973D01*
X51342146Y-59624240D01*
X51345475Y-59626586D01*
X51352077Y-59631501D01*
X51358584Y-59636698D01*
X51364973Y-59642151D01*
X51371221Y-59647837D01*
X51377305Y-59653734D01*
X51383201Y-59659735D01*
X51388887Y-59665785D01*
X51391644Y-59668843D01*
X51394340Y-59671931D01*
X51396972Y-59675054D01*
X51399537Y-59678218D01*
X51402031Y-59681428D01*
X51404453Y-59684691D01*
X51406799Y-59688012D01*
X51409065Y-59691398D01*
X51411250Y-59694853D01*
X51413350Y-59698386D01*
X51415363Y-59701998D01*
X51417284Y-59705697D01*
X51419112Y-59709070D01*
X51420843Y-59712440D01*
X51422473Y-59715805D01*
X51424001Y-59719161D01*
X51425423Y-59722504D01*
X51426736Y-59725832D01*
X51427938Y-59729143D01*
X51429025Y-59732433D01*
X51429995Y-59735700D01*
X51430845Y-59738941D01*
X51431573Y-59742153D01*
X51432174Y-59745330D01*
X51432647Y-59748474D01*
X51432988Y-59751578D01*
X51433195Y-59754643D01*
X51433264Y-59757662D01*
X51433264Y-60949055D01*
X51433216Y-60952052D01*
X51433069Y-60955056D01*
X51432817Y-60958073D01*
X51432453Y-60961106D01*
X51431972Y-60964164D01*
X51431368Y-60967252D01*
X51430636Y-60970374D01*
X51429769Y-60973539D01*
X51428762Y-60976748D01*
X51427608Y-60980012D01*
X51426302Y-60983334D01*
X51424838Y-60986718D01*
X51423210Y-60990174D01*
X51421412Y-60993706D01*
X51419439Y-60997318D01*
X51417284Y-61001019D01*
X51415363Y-61004391D01*
X51413350Y-61007762D01*
X51411250Y-61011125D01*
X51409065Y-61014481D01*
X51406799Y-61017825D01*
X51404453Y-61021152D01*
X51399537Y-61027755D01*
X51394340Y-61034261D01*
X51388887Y-61040651D01*
X51383201Y-61046899D01*
X51377305Y-61052982D01*
X51371221Y-61058878D01*
X51364973Y-61064565D01*
X51358584Y-61070017D01*
X51355343Y-61072649D01*
X51352077Y-61075215D01*
X51348786Y-61077708D01*
X51345475Y-61080130D01*
X51342146Y-61082476D01*
X51338803Y-61084743D01*
X51335448Y-61086928D01*
X51332084Y-61089028D01*
X51328714Y-61091039D01*
X51325341Y-61092962D01*
X51321968Y-61094788D01*
X51318598Y-61096519D01*
X51315233Y-61098150D01*
X51311878Y-61099677D01*
X51308535Y-61101100D01*
X51305206Y-61102412D01*
X51301895Y-61103614D01*
X51298604Y-61104702D01*
X51295337Y-61105672D01*
X51292096Y-61106522D01*
X51288885Y-61107249D01*
X51285707Y-61107851D01*
X51282563Y-61108324D01*
X51279458Y-61108666D01*
X51276395Y-61108873D01*
X51273375Y-61108942D01*
X51273375Y-61110952D01*
X50685683Y-61110952D01*
X50682708Y-61110883D01*
X50679771Y-61110675D01*
X50676863Y-61110332D01*
X50673976Y-61109859D01*
X50671100Y-61109256D01*
X50668226Y-61108526D01*
X50665347Y-61107675D01*
X50662453Y-61106702D01*
X50659535Y-61105615D01*
X50656585Y-61104411D01*
X50653594Y-61103099D01*
X50650553Y-61101676D01*
X50647453Y-61100150D01*
X50644286Y-61098523D01*
X50637715Y-61094971D01*
X50634365Y-61093054D01*
X50631062Y-61091045D01*
X50627806Y-61088948D01*
X50624597Y-61086765D01*
X50621436Y-61084498D01*
X50618321Y-61082152D01*
X50615253Y-61079730D01*
X50612232Y-61077235D01*
X50609257Y-61074669D01*
X50606330Y-61072035D01*
X50603449Y-61069338D01*
X50600616Y-61066580D01*
X50597828Y-61063762D01*
X50595088Y-61060890D01*
X50589747Y-61054993D01*
X50586819Y-61051974D01*
X50584022Y-61048911D01*
X50581349Y-61045806D01*
X50578789Y-61042662D01*
X50576334Y-61039484D01*
X50573975Y-61036272D01*
X50571705Y-61033033D01*
X50569513Y-61029765D01*
X50565330Y-61023163D01*
X50561358Y-61016492D01*
X50557525Y-61009772D01*
X50553763Y-61003029D01*
X50551957Y-60999657D01*
X50550290Y-60996286D01*
X50548757Y-60992922D01*
X50547356Y-60989566D01*
X50546084Y-60986223D01*
X50544938Y-60982895D01*
X50543916Y-60979584D01*
X50543013Y-60976293D01*
X50542228Y-60973027D01*
X50541557Y-60969786D01*
X50540997Y-60966574D01*
X50540546Y-60963397D01*
X50540200Y-60960253D01*
X50539956Y-60957149D01*
X50539812Y-60954084D01*
X50539765Y-60951065D01*
X50539765Y-60725163D01*
X50539765Y-59977531D01*
X50875573Y-59977531D01*
X50875573Y-60725163D01*
X51103459Y-60725163D01*
X51103459Y-59977531D01*
X50875573Y-59977531D01*
X50539765Y-59977531D01*
X50539765Y-59755678D01*
X50539812Y-59753007D01*
X50539956Y-59750249D01*
X50540200Y-59747410D01*
X50540546Y-59744494D01*
X50540997Y-59741507D01*
X50541557Y-59738456D01*
X50542228Y-59735348D01*
X50543013Y-59732185D01*
X50543916Y-59728977D01*
X50544938Y-59725728D01*
X50546084Y-59722443D01*
X50547356Y-59719129D01*
X50548757Y-59715791D01*
X50550290Y-59712436D01*
X50551957Y-59709070D01*
X50553763Y-59705697D01*
X50557607Y-59698954D01*
X50561637Y-59692235D01*
X50565853Y-59685564D01*
X50570256Y-59678961D01*
X50574847Y-59672455D01*
X50579626Y-59666065D01*
X50584592Y-59659817D01*
X50589747Y-59653734D01*
X50595741Y-59647837D01*
X50601736Y-59642151D01*
X50607733Y-59636698D01*
X50613731Y-59631502D01*
X50619729Y-59626586D01*
X50625726Y-59621973D01*
X50628724Y-59619788D01*
X50631721Y-59617688D01*
X50634718Y-59615676D01*
X50637715Y-59613755D01*
X50644368Y-59610197D01*
X50647623Y-59608566D01*
X50650832Y-59607039D01*
X50653994Y-59605616D01*
X50657109Y-59604304D01*
X50660177Y-59603101D01*
X50663198Y-59602014D01*
X50666172Y-59601044D01*
X50669100Y-59600194D01*
X50671980Y-59599466D01*
X50674814Y-59598865D01*
X50677601Y-59598393D01*
X50680342Y-59598050D01*
X50683036Y-59597843D01*
X50685683Y-59597774D01*
X51273375Y-59597774D01*
X51276373Y-59597822D01*
G37*
G36*
X39815170Y-62612197D02*
G01*
X39295423Y-62612197D01*
X39295423Y-62824102D01*
X39637238Y-62824102D01*
X39639533Y-62824173D01*
X39641925Y-62824383D01*
X39644417Y-62824736D01*
X39647012Y-62825228D01*
X39649712Y-62825862D01*
X39652521Y-62826634D01*
X39655442Y-62827548D01*
X39658477Y-62828603D01*
X39661629Y-62829798D01*
X39664902Y-62831135D01*
X39668297Y-62832611D01*
X39671818Y-62834226D01*
X39675468Y-62835983D01*
X39679249Y-62837879D01*
X39683164Y-62839917D01*
X39687217Y-62842095D01*
X39691317Y-62844388D01*
X39695369Y-62846773D01*
X39699375Y-62849246D01*
X39703335Y-62851805D01*
X39707248Y-62854446D01*
X39711114Y-62857168D01*
X39714933Y-62859965D01*
X39718706Y-62862835D01*
X39726111Y-62868782D01*
X39733328Y-62874989D01*
X39740357Y-62881428D01*
X39747199Y-62888078D01*
X39750548Y-62891498D01*
X39753851Y-62895009D01*
X39757107Y-62898607D01*
X39760316Y-62902290D01*
X39763477Y-62906055D01*
X39766592Y-62909899D01*
X39769660Y-62913820D01*
X39772681Y-62917814D01*
X39778583Y-62926011D01*
X39784297Y-62934465D01*
X39789826Y-62943154D01*
X39795167Y-62952056D01*
X39797699Y-62956576D01*
X39800046Y-62961140D01*
X39802211Y-62965736D01*
X39804198Y-62970364D01*
X39806009Y-62975012D01*
X39807647Y-62979678D01*
X39809116Y-62984357D01*
X39810418Y-62989041D01*
X39811555Y-62993724D01*
X39812532Y-62998401D01*
X39813350Y-63003066D01*
X39814013Y-63007713D01*
X39814523Y-63012337D01*
X39814884Y-63016931D01*
X39815099Y-63021490D01*
X39815170Y-63026006D01*
X39815170Y-63747630D01*
X38965593Y-63747630D01*
X38965593Y-63363827D01*
X38971573Y-63361815D01*
X38971600Y-63361817D01*
X39487325Y-63361817D01*
X39487325Y-63151922D01*
X39123497Y-63151922D01*
X39119773Y-63151875D01*
X39116091Y-63151727D01*
X39112443Y-63151474D01*
X39108824Y-63151111D01*
X39105229Y-63150629D01*
X39101650Y-63150026D01*
X39098083Y-63149293D01*
X39094522Y-63148426D01*
X39090960Y-63147419D01*
X39087392Y-63146265D01*
X39083812Y-63144959D01*
X39080214Y-63143495D01*
X39076593Y-63141866D01*
X39072941Y-63140069D01*
X39069255Y-63138095D01*
X39065527Y-63135942D01*
X39061823Y-63133670D01*
X39058211Y-63131352D01*
X39054686Y-63128987D01*
X39051247Y-63126576D01*
X39047891Y-63124116D01*
X39044613Y-63121610D01*
X39041413Y-63119056D01*
X39038285Y-63116455D01*
X39035228Y-63113806D01*
X39032238Y-63111111D01*
X39029313Y-63108369D01*
X39026449Y-63105581D01*
X39023643Y-63102744D01*
X39020893Y-63099860D01*
X39015547Y-63093952D01*
X39012947Y-63090908D01*
X39010397Y-63087774D01*
X39007899Y-63084552D01*
X39005458Y-63081243D01*
X39003075Y-63077854D01*
X39000754Y-63074383D01*
X38998498Y-63070837D01*
X38996309Y-63067218D01*
X38994190Y-63063530D01*
X38992145Y-63059771D01*
X38990175Y-63055950D01*
X38988285Y-63052067D01*
X38986477Y-63048126D01*
X38984754Y-63044129D01*
X38983119Y-63040081D01*
X38981575Y-63035981D01*
X38979769Y-63031858D01*
X38978102Y-63027737D01*
X38976569Y-63023613D01*
X38975168Y-63019492D01*
X38973897Y-63015368D01*
X38972751Y-63011246D01*
X38971728Y-63007123D01*
X38970826Y-63003000D01*
X38970041Y-62998879D01*
X38969369Y-62994755D01*
X38968810Y-62990634D01*
X38968358Y-62986510D01*
X38968013Y-62982388D01*
X38967769Y-62978265D01*
X38967625Y-62974142D01*
X38967578Y-62970021D01*
X38967578Y-62478265D01*
X38967761Y-62466274D01*
X38968296Y-62454307D01*
X38969159Y-62442386D01*
X38970326Y-62430536D01*
X38971775Y-62418779D01*
X38973483Y-62407140D01*
X38975425Y-62395645D01*
X38977579Y-62384312D01*
X38978774Y-62378737D01*
X38980104Y-62373255D01*
X38981562Y-62367858D01*
X38983143Y-62362546D01*
X38984840Y-62357317D01*
X38986649Y-62352167D01*
X38988563Y-62347093D01*
X38990577Y-62342091D01*
X38994879Y-62332296D01*
X38999509Y-62322756D01*
X39004420Y-62313451D01*
X39009567Y-62304355D01*
X39012238Y-62299926D01*
X39015003Y-62295633D01*
X39017861Y-62291477D01*
X39020813Y-62287452D01*
X39023859Y-62283557D01*
X39026998Y-62279787D01*
X39030231Y-62276140D01*
X39033558Y-62272615D01*
X39036978Y-62269206D01*
X39040492Y-62265913D01*
X39044100Y-62262732D01*
X39047801Y-62259659D01*
X39051596Y-62256691D01*
X39055484Y-62253827D01*
X39059466Y-62251063D01*
X39063542Y-62248396D01*
X39067734Y-62245869D01*
X39072065Y-62243526D01*
X39076530Y-62241362D01*
X39081127Y-62239376D01*
X39085853Y-62237566D01*
X39090705Y-62235928D01*
X39095680Y-62234459D01*
X39100776Y-62233155D01*
X39105988Y-62232017D01*
X39111315Y-62231038D01*
X39116753Y-62230218D01*
X39122300Y-62229554D01*
X39127951Y-62229041D01*
X39133706Y-62228679D01*
X39139560Y-62228465D01*
X39145510Y-62228393D01*
X39815170Y-62228393D01*
X39815170Y-62612197D01*
G37*
G36*
X53224385Y-66386268D02*
G01*
X53224385Y-66386294D01*
X52374808Y-66386294D01*
X52374808Y-66002490D01*
X52888548Y-66002490D01*
X52888548Y-65792596D01*
X52534720Y-65792596D01*
X52534720Y-65464750D01*
X52888548Y-65464750D01*
X52888548Y-65252845D01*
X52374808Y-65252845D01*
X52374808Y-64869041D01*
X53224385Y-64869041D01*
X53224385Y-66386268D01*
G37*
G36*
X69396435Y-60351308D02*
G01*
X69596169Y-60351308D01*
X69596169Y-59551737D01*
X69796166Y-59551737D01*
X69796166Y-60751145D01*
X68996464Y-60751145D01*
X68996464Y-59951574D01*
X68796730Y-59951574D01*
X68796730Y-60751145D01*
X68596730Y-60751145D01*
X68596730Y-59551737D01*
X69396435Y-59551737D01*
X69396435Y-60351308D01*
G37*
G36*
X46755667Y-61110952D02*
G01*
X45906090Y-61110952D01*
X45906090Y-60727148D01*
X46419832Y-60727148D01*
X46419832Y-60555249D01*
X46066004Y-60555249D01*
X46066004Y-60189436D01*
X46419832Y-60189436D01*
X46419832Y-59977531D01*
X45906090Y-59977531D01*
X45906090Y-59593727D01*
X46755667Y-59593727D01*
X46755667Y-61110952D01*
G37*
G36*
X55323325Y-66386294D02*
G01*
X54987488Y-66386294D01*
X54987488Y-64869067D01*
X55323325Y-64869067D01*
X55323325Y-66386294D01*
G37*
G36*
X46625730Y-66386294D02*
G01*
X46291905Y-66386294D01*
X46291905Y-66002490D01*
X46625730Y-66002490D01*
X46625730Y-66386294D01*
G37*
G36*
X45224416Y-63749669D02*
G01*
X44474800Y-63749669D01*
X44474800Y-63745673D01*
X44474800Y-63745621D01*
X44471825Y-63745550D01*
X44468888Y-63745344D01*
X44465980Y-63745001D01*
X44463093Y-63744526D01*
X44460216Y-63743923D01*
X44457343Y-63743195D01*
X44454463Y-63742342D01*
X44451569Y-63741371D01*
X44448651Y-63740282D01*
X44445701Y-63739080D01*
X44442710Y-63737766D01*
X44439669Y-63736345D01*
X44436569Y-63734819D01*
X44433402Y-63733190D01*
X44426831Y-63729640D01*
X44423481Y-63727722D01*
X44420178Y-63725713D01*
X44416922Y-63723615D01*
X44413713Y-63721432D01*
X44410552Y-63719167D01*
X44407437Y-63716820D01*
X44404369Y-63714399D01*
X44401348Y-63711902D01*
X44398373Y-63709336D01*
X44395446Y-63706704D01*
X44392565Y-63704005D01*
X44389731Y-63701247D01*
X44386944Y-63698431D01*
X44384203Y-63695559D01*
X44378861Y-63689661D01*
X44375933Y-63686641D01*
X44373137Y-63683578D01*
X44370463Y-63680474D01*
X44367903Y-63677329D01*
X44365449Y-63674151D01*
X44363090Y-63670941D01*
X44360819Y-63667700D01*
X44358627Y-63664434D01*
X44354444Y-63657832D01*
X44350471Y-63651159D01*
X44346639Y-63644441D01*
X44342877Y-63637698D01*
X44341072Y-63634324D01*
X44339404Y-63630955D01*
X44337872Y-63627590D01*
X44336471Y-63624235D01*
X44335199Y-63620891D01*
X44334054Y-63617562D01*
X44333031Y-63614251D01*
X44332129Y-63610962D01*
X44331344Y-63607694D01*
X44330673Y-63604453D01*
X44330113Y-63601242D01*
X44329662Y-63598064D01*
X44329316Y-63594921D01*
X44329073Y-63591816D01*
X44328929Y-63588752D01*
X44328882Y-63585734D01*
X44328882Y-63363827D01*
X44328882Y-62616193D01*
X44664717Y-62616193D01*
X44664717Y-63363827D01*
X44894588Y-63363827D01*
X44894588Y-62616193D01*
X44664717Y-62616193D01*
X44328882Y-62616193D01*
X44328882Y-62390345D01*
X44328929Y-62387676D01*
X44329073Y-62384918D01*
X44329316Y-62382077D01*
X44329662Y-62379161D01*
X44330113Y-62376176D01*
X44330673Y-62373125D01*
X44331344Y-62370015D01*
X44332129Y-62366855D01*
X44333031Y-62363646D01*
X44334054Y-62360396D01*
X44335199Y-62357112D01*
X44336471Y-62353797D01*
X44337872Y-62350460D01*
X44339404Y-62347105D01*
X44341072Y-62343739D01*
X44342877Y-62340366D01*
X44346720Y-62333623D01*
X44350750Y-62326904D01*
X44354967Y-62320231D01*
X44359370Y-62313630D01*
X44363961Y-62307122D01*
X44368740Y-62300733D01*
X44373706Y-62294484D01*
X44378861Y-62288401D01*
X44384855Y-62282505D01*
X44390851Y-62276820D01*
X44396848Y-62271366D01*
X44402845Y-62266171D01*
X44408843Y-62261254D01*
X44414840Y-62256642D01*
X44417839Y-62254458D01*
X44420837Y-62252358D01*
X44423834Y-62250344D01*
X44426831Y-62248424D01*
X44433483Y-62244866D01*
X44436739Y-62243234D01*
X44439948Y-62241706D01*
X44443109Y-62240285D01*
X44446224Y-62238972D01*
X44449292Y-62237769D01*
X44452313Y-62236683D01*
X44455287Y-62235712D01*
X44458215Y-62234861D01*
X44461095Y-62234134D01*
X44463929Y-62233533D01*
X44466717Y-62233060D01*
X44469458Y-62232719D01*
X44472152Y-62232512D01*
X44474800Y-62232443D01*
X45224416Y-62232443D01*
X45224416Y-63749669D01*
G37*
G36*
X50671685Y-62842068D02*
G01*
X50941559Y-62232389D01*
X51233422Y-62232389D01*
X51233422Y-63749617D01*
X51233397Y-63749617D01*
X50899571Y-63749617D01*
X50899571Y-63137926D01*
X50629696Y-63749617D01*
X50339846Y-63749617D01*
X50339846Y-62232389D01*
X50671685Y-62232389D01*
X50671685Y-62842068D01*
G37*
D11*
X69802558Y-58138374D02*
X69954930Y-58149960D01*
X70105086Y-58169040D01*
X70252839Y-58195426D01*
X70397999Y-58228929D01*
X70540378Y-58269361D01*
X70679788Y-58316531D01*
X70816040Y-58370255D01*
X70948945Y-58430340D01*
X71078315Y-58496599D01*
X71203962Y-58568844D01*
X71325696Y-58646886D01*
X71443330Y-58730538D01*
X71556675Y-58819609D01*
X71665542Y-58913912D01*
X71769743Y-59013260D01*
X71869090Y-59117460D01*
X71963393Y-59226327D01*
X72052465Y-59339672D01*
X72136116Y-59457307D01*
X72214159Y-59579042D01*
X72286404Y-59704687D01*
X72352664Y-59834058D01*
X72412749Y-59966963D01*
X72466471Y-60103216D01*
X72513642Y-60242625D01*
X72554073Y-60385004D01*
X72587576Y-60530164D01*
X72613962Y-60677917D01*
X72633043Y-60828074D01*
X72644629Y-60980446D01*
X72648533Y-61134844D01*
X72648533Y-64865151D01*
X72644629Y-65019550D01*
X72633043Y-65171922D01*
X72613962Y-65322080D01*
X72587576Y-65469832D01*
X72554073Y-65614992D01*
X72513642Y-65757372D01*
X72466471Y-65896782D01*
X72412749Y-66033034D01*
X72352664Y-66165938D01*
X72286404Y-66295309D01*
X72214159Y-66420956D01*
X72136116Y-66542690D01*
X72052465Y-66660325D01*
X71963393Y-66773669D01*
X71869090Y-66882537D01*
X71769743Y-66986738D01*
X71665542Y-67086084D01*
X71556675Y-67180387D01*
X71443330Y-67269458D01*
X71325696Y-67353110D01*
X71203962Y-67431152D01*
X71078315Y-67503399D01*
X70948945Y-67569658D01*
X70816040Y-67629742D01*
X70679788Y-67683465D01*
X70540378Y-67730637D01*
X70397999Y-67771068D01*
X70252839Y-67804570D01*
X70105086Y-67830956D01*
X69954930Y-67850037D01*
X69802558Y-67861623D01*
X69648159Y-67865527D01*
X34351841Y-67865530D01*
X34197442Y-67861626D01*
X34045070Y-67850039D01*
X33894914Y-67830959D01*
X33747161Y-67804574D01*
X33602001Y-67771070D01*
X33459622Y-67730639D01*
X33320212Y-67683469D01*
X33183960Y-67629745D01*
X33051055Y-67569660D01*
X32921685Y-67503401D01*
X32796038Y-67431157D01*
X32674303Y-67353113D01*
X32556669Y-67269463D01*
X32443325Y-67180391D01*
X32334457Y-67086088D01*
X32230256Y-66986741D01*
X32130910Y-66882541D01*
X32036607Y-66773673D01*
X31947535Y-66660328D01*
X31863884Y-66542694D01*
X31785841Y-66420959D01*
X31713596Y-66295312D01*
X31647337Y-66165942D01*
X31587252Y-66033037D01*
X31533529Y-65896785D01*
X31486358Y-65757375D01*
X31445927Y-65614997D01*
X31412424Y-65469836D01*
X31386038Y-65322084D01*
X31366958Y-65171926D01*
X31355371Y-65019554D01*
X31351467Y-64865156D01*
X31351467Y-61134849D01*
X31355371Y-60980449D01*
X31366958Y-60828077D01*
X31386038Y-60677920D01*
X31412424Y-60530169D01*
X31445927Y-60385008D01*
X31486358Y-60242628D01*
X31533529Y-60103218D01*
X31587252Y-59966967D01*
X31647337Y-59834062D01*
X31713596Y-59704691D01*
X31785841Y-59579044D01*
X31863884Y-59457310D01*
X31947535Y-59339676D01*
X32036607Y-59226332D01*
X32130910Y-59117463D01*
X32230256Y-59013262D01*
X32334457Y-58913916D01*
X32443325Y-58819614D01*
X32556669Y-58730542D01*
X32674303Y-58646890D01*
X32796038Y-58568848D01*
X32921685Y-58496602D01*
X33051055Y-58430342D01*
X33183960Y-58370257D01*
X33320212Y-58316535D01*
X33459622Y-58269363D01*
X33602001Y-58228932D01*
X33747161Y-58195430D01*
X33894914Y-58169044D01*
X34045070Y-58149963D01*
X34197442Y-58138376D01*
X34351841Y-58134473D01*
X69648159Y-58134469D01*
X69802558Y-58138374D01*
D10*
G36*
X49282357Y-66386347D02*
G01*
X48948531Y-66386347D01*
X48948531Y-65790639D01*
X48722657Y-65790639D01*
X48722657Y-66386347D01*
X48390818Y-66386347D01*
X48386822Y-66384338D01*
X48386822Y-66384284D01*
X48386822Y-65776589D01*
X48386963Y-65770242D01*
X48387384Y-65763945D01*
X48388087Y-65757701D01*
X48389070Y-65751513D01*
X48390334Y-65745381D01*
X48391880Y-65739312D01*
X48393707Y-65733307D01*
X48395815Y-65727369D01*
X48398204Y-65721502D01*
X48400875Y-65715706D01*
X48403826Y-65709987D01*
X48407059Y-65704347D01*
X48410574Y-65698790D01*
X48414370Y-65693315D01*
X48418447Y-65687929D01*
X48422806Y-65682634D01*
X48427305Y-65677481D01*
X48431804Y-65672517D01*
X48436302Y-65667748D01*
X48440800Y-65663173D01*
X48445297Y-65658800D01*
X48449794Y-65654629D01*
X48454292Y-65650661D01*
X48458789Y-65646902D01*
X48463286Y-65643355D01*
X48467783Y-65640020D01*
X48472281Y-65636904D01*
X48476779Y-65634006D01*
X48481277Y-65631329D01*
X48485775Y-65628878D01*
X48490275Y-65626656D01*
X48494774Y-65624664D01*
X48493230Y-65624595D01*
X48491597Y-65624386D01*
X48489882Y-65624044D01*
X48488091Y-65623570D01*
X48486229Y-65622968D01*
X48484302Y-65622238D01*
X48482317Y-65621386D01*
X48480278Y-65620414D01*
X48478193Y-65619326D01*
X48476067Y-65618123D01*
X48473906Y-65616810D01*
X48471716Y-65615388D01*
X48469503Y-65613862D01*
X48467273Y-65612234D01*
X48465031Y-65610506D01*
X48462784Y-65608683D01*
X48460184Y-65606785D01*
X48457630Y-65604837D01*
X48455123Y-65602835D01*
X48452664Y-65600780D01*
X48450251Y-65598664D01*
X48447885Y-65596490D01*
X48445566Y-65594250D01*
X48443295Y-65591943D01*
X48441069Y-65589565D01*
X48438891Y-65587114D01*
X48436759Y-65584588D01*
X48434674Y-65581983D01*
X48432636Y-65579297D01*
X48430644Y-65576526D01*
X48428699Y-65573667D01*
X48426800Y-65570717D01*
X48423053Y-65565283D01*
X48419330Y-65559500D01*
X48415655Y-65553390D01*
X48412050Y-65546976D01*
X48408539Y-65540281D01*
X48405146Y-65533331D01*
X48401894Y-65526146D01*
X48398808Y-65518753D01*
X48396000Y-65511350D01*
X48394736Y-65507711D01*
X48393565Y-65504111D01*
X48392488Y-65500546D01*
X48391505Y-65497011D01*
X48390616Y-65493506D01*
X48389820Y-65490028D01*
X48389117Y-65486572D01*
X48388508Y-65483138D01*
X48387993Y-65479720D01*
X48387572Y-65476317D01*
X48387244Y-65472926D01*
X48387010Y-65469544D01*
X48386894Y-65466762D01*
X48386869Y-65466166D01*
X48386822Y-65462792D01*
X48386822Y-65254857D01*
X48722659Y-65254857D01*
X48722659Y-65466762D01*
X48948533Y-65466762D01*
X48948533Y-65254857D01*
X48722659Y-65254857D01*
X48386822Y-65254857D01*
X48386822Y-65027023D01*
X48386870Y-65024354D01*
X48387013Y-65021596D01*
X48387257Y-65018755D01*
X48387603Y-65015839D01*
X48388054Y-65012853D01*
X48388614Y-65009804D01*
X48389285Y-65006694D01*
X48390070Y-65003532D01*
X48390973Y-65000323D01*
X48391996Y-64997074D01*
X48393142Y-64993789D01*
X48394413Y-64990476D01*
X48395814Y-64987139D01*
X48397347Y-64983784D01*
X48399015Y-64980417D01*
X48400820Y-64977045D01*
X48404664Y-64970302D01*
X48408694Y-64963582D01*
X48412910Y-64956909D01*
X48417314Y-64950308D01*
X48421904Y-64943800D01*
X48426682Y-64937411D01*
X48431648Y-64931163D01*
X48436802Y-64925080D01*
X48442797Y-64919185D01*
X48448793Y-64913499D01*
X48454790Y-64908045D01*
X48460788Y-64902849D01*
X48466786Y-64897932D01*
X48472783Y-64893321D01*
X48475781Y-64891136D01*
X48478779Y-64889035D01*
X48481776Y-64887023D01*
X48484772Y-64885102D01*
X48491425Y-64881543D01*
X48494681Y-64879913D01*
X48497889Y-64878385D01*
X48501051Y-64876964D01*
X48504166Y-64875649D01*
X48507234Y-64874448D01*
X48510255Y-64873361D01*
X48513229Y-64872390D01*
X48516156Y-64871540D01*
X48519037Y-64870812D01*
X48521871Y-64870211D01*
X48524658Y-64869738D01*
X48527399Y-64869398D01*
X48530093Y-64869191D01*
X48532740Y-64869120D01*
X49282357Y-64869120D01*
X49282357Y-66386347D01*
G37*
G36*
X55217358Y-63749723D02*
G01*
X54467741Y-63749723D01*
X54467741Y-63745727D01*
X54467741Y-63745621D01*
X54464767Y-63745550D01*
X54461830Y-63745344D01*
X54458922Y-63745001D01*
X54456034Y-63744526D01*
X54453158Y-63743923D01*
X54450285Y-63743195D01*
X54447406Y-63742342D01*
X54444511Y-63741371D01*
X54441594Y-63740282D01*
X54438644Y-63739080D01*
X54435652Y-63737766D01*
X54432612Y-63736345D01*
X54429512Y-63734819D01*
X54426345Y-63733190D01*
X54419774Y-63729640D01*
X54416424Y-63727722D01*
X54413121Y-63725713D01*
X54409865Y-63723615D01*
X54406656Y-63721432D01*
X54403494Y-63719167D01*
X54400379Y-63716820D01*
X54397311Y-63714399D01*
X54394290Y-63711902D01*
X54391316Y-63709336D01*
X54388389Y-63706704D01*
X54385508Y-63704005D01*
X54382674Y-63701247D01*
X54379887Y-63698431D01*
X54377147Y-63695559D01*
X54371806Y-63689661D01*
X54368878Y-63686641D01*
X54366081Y-63683578D01*
X54363407Y-63680474D01*
X54360847Y-63677329D01*
X54358393Y-63674151D01*
X54356034Y-63670941D01*
X54353763Y-63667700D01*
X54351571Y-63664434D01*
X54347389Y-63657832D01*
X54343416Y-63651159D01*
X54339584Y-63644441D01*
X54335822Y-63637698D01*
X54334016Y-63634324D01*
X54332348Y-63630955D01*
X54330816Y-63627590D01*
X54329415Y-63624235D01*
X54328143Y-63620891D01*
X54326997Y-63617562D01*
X54325974Y-63614251D01*
X54325072Y-63610962D01*
X54324286Y-63607694D01*
X54323615Y-63604453D01*
X54323056Y-63601242D01*
X54322604Y-63598064D01*
X54322258Y-63594921D01*
X54322015Y-63591816D01*
X54321871Y-63588752D01*
X54321824Y-63585734D01*
X54321824Y-63363827D01*
X54321824Y-63151922D01*
X54657660Y-63151922D01*
X54657660Y-63363827D01*
X54885544Y-63363827D01*
X54885544Y-63151922D01*
X54657660Y-63151922D01*
X54321824Y-63151922D01*
X54321824Y-63139963D01*
X54321964Y-63133617D01*
X54322386Y-63127320D01*
X54323088Y-63121077D01*
X54324072Y-63114887D01*
X54325336Y-63108756D01*
X54326882Y-63102688D01*
X54328709Y-63096683D01*
X54330817Y-63090744D01*
X54333206Y-63084876D01*
X54335877Y-63079082D01*
X54338829Y-63073363D01*
X54342062Y-63067723D01*
X54345576Y-63062163D01*
X54349372Y-63056691D01*
X54353449Y-63051305D01*
X54357808Y-63046009D01*
X54362307Y-63040855D01*
X54366806Y-63035891D01*
X54371304Y-63031121D01*
X54375802Y-63026549D01*
X54380299Y-63022174D01*
X54384797Y-63018002D01*
X54389294Y-63014037D01*
X54393791Y-63010278D01*
X54398288Y-63006729D01*
X54402785Y-63003395D01*
X54407283Y-63000278D01*
X54411780Y-62997379D01*
X54416278Y-62994704D01*
X54420777Y-62992254D01*
X54425276Y-62990031D01*
X54429776Y-62988039D01*
X54428231Y-62987969D01*
X54426599Y-62987762D01*
X54424884Y-62987420D01*
X54423092Y-62986944D01*
X54421230Y-62986341D01*
X54419303Y-62985613D01*
X54417318Y-62984762D01*
X54415280Y-62983790D01*
X54413195Y-62982700D01*
X54411069Y-62981499D01*
X54408908Y-62980184D01*
X54406718Y-62978763D01*
X54404505Y-62977238D01*
X54402274Y-62975608D01*
X54400033Y-62973882D01*
X54397786Y-62972059D01*
X54395185Y-62970159D01*
X54392631Y-62968210D01*
X54390125Y-62966211D01*
X54387665Y-62964153D01*
X54385253Y-62962040D01*
X54382887Y-62959863D01*
X54380568Y-62957623D01*
X54378297Y-62955316D01*
X54376071Y-62952939D01*
X54373893Y-62950490D01*
X54371761Y-62947964D01*
X54369676Y-62945358D01*
X54367638Y-62942672D01*
X54365646Y-62939900D01*
X54363701Y-62937040D01*
X54361802Y-62934090D01*
X54358055Y-62928658D01*
X54354332Y-62922876D01*
X54350656Y-62916765D01*
X54347051Y-62910352D01*
X54343541Y-62903656D01*
X54340148Y-62896705D01*
X54336897Y-62889521D01*
X54333811Y-62882126D01*
X54331002Y-62874725D01*
X54329738Y-62871087D01*
X54328567Y-62867486D01*
X54327490Y-62863920D01*
X54326507Y-62860387D01*
X54325617Y-62856882D01*
X54324821Y-62853403D01*
X54324119Y-62849947D01*
X54323510Y-62846513D01*
X54322995Y-62843096D01*
X54322573Y-62839692D01*
X54322245Y-62836300D01*
X54322011Y-62832919D01*
X54321870Y-62829542D01*
X54321850Y-62828098D01*
X54321824Y-62826167D01*
X54321824Y-62616193D01*
X54657660Y-62616193D01*
X54657660Y-62828098D01*
X54885544Y-62828098D01*
X54885544Y-62616193D01*
X54657660Y-62616193D01*
X54321824Y-62616193D01*
X54321824Y-62390399D01*
X54321871Y-62387728D01*
X54322015Y-62384970D01*
X54322258Y-62382131D01*
X54322604Y-62379215D01*
X54323056Y-62376228D01*
X54323615Y-62373177D01*
X54324286Y-62370069D01*
X54325072Y-62366907D01*
X54325974Y-62363698D01*
X54326997Y-62360449D01*
X54328143Y-62357164D01*
X54329415Y-62353850D01*
X54330816Y-62350514D01*
X54332348Y-62347158D01*
X54334016Y-62343791D01*
X54335822Y-62340418D01*
X54339665Y-62333675D01*
X54343695Y-62326956D01*
X54347912Y-62320284D01*
X54352315Y-62313682D01*
X54356906Y-62307175D01*
X54361684Y-62300787D01*
X54366651Y-62294539D01*
X54371806Y-62288455D01*
X54377799Y-62282560D01*
X54383795Y-62276872D01*
X54389792Y-62271419D01*
X54395790Y-62266223D01*
X54401787Y-62261307D01*
X54407784Y-62256694D01*
X54410782Y-62254509D01*
X54413780Y-62252409D01*
X54416777Y-62250397D01*
X54419774Y-62248476D01*
X54426426Y-62244918D01*
X54429682Y-62243287D01*
X54432891Y-62241760D01*
X54436052Y-62240337D01*
X54439167Y-62239024D01*
X54442235Y-62237822D01*
X54445256Y-62236735D01*
X54448230Y-62235765D01*
X54451157Y-62234915D01*
X54454038Y-62234188D01*
X54456872Y-62233586D01*
X54459659Y-62233114D01*
X54462400Y-62232771D01*
X54465094Y-62232565D01*
X54467741Y-62232495D01*
X55217358Y-62232495D01*
X55217358Y-63749723D01*
G37*
G36*
X43982074Y-59597822D02*
G01*
X43985078Y-59597970D01*
X43988094Y-59598221D01*
X43991128Y-59598585D01*
X43994186Y-59599066D01*
X43997273Y-59599671D01*
X44000396Y-59600403D01*
X44003560Y-59601270D01*
X44006770Y-59602277D01*
X44010034Y-59603431D01*
X44013355Y-59604737D01*
X44016741Y-59606201D01*
X44020196Y-59607829D01*
X44023728Y-59609628D01*
X44027341Y-59611600D01*
X44031041Y-59613755D01*
X44034414Y-59615676D01*
X44037784Y-59617688D01*
X44041148Y-59619788D01*
X44044503Y-59621973D01*
X44047847Y-59624240D01*
X44051175Y-59626586D01*
X44057777Y-59631501D01*
X44064284Y-59636698D01*
X44070673Y-59642151D01*
X44076921Y-59647837D01*
X44083004Y-59653734D01*
X44088900Y-59659735D01*
X44094587Y-59665785D01*
X44097344Y-59668843D01*
X44100040Y-59671931D01*
X44102672Y-59675054D01*
X44105236Y-59678218D01*
X44107731Y-59681428D01*
X44110152Y-59684691D01*
X44112498Y-59688012D01*
X44114765Y-59691398D01*
X44116950Y-59694853D01*
X44119050Y-59698386D01*
X44121062Y-59701998D01*
X44122983Y-59705697D01*
X44124811Y-59709070D01*
X44126541Y-59712440D01*
X44128172Y-59715805D01*
X44129700Y-59719161D01*
X44131121Y-59722504D01*
X44132435Y-59725832D01*
X44133636Y-59729143D01*
X44134724Y-59732433D01*
X44135694Y-59735700D01*
X44136544Y-59738941D01*
X44137271Y-59742153D01*
X44137873Y-59745330D01*
X44138346Y-59748474D01*
X44138687Y-59751578D01*
X44138894Y-59754643D01*
X44138963Y-59757662D01*
X44138963Y-60949055D01*
X44138915Y-60952052D01*
X44138768Y-60955056D01*
X44138516Y-60958073D01*
X44138152Y-60961106D01*
X44137671Y-60964164D01*
X44137067Y-60967252D01*
X44136335Y-60970374D01*
X44135468Y-60973539D01*
X44134460Y-60976748D01*
X44133306Y-60980012D01*
X44132000Y-60983334D01*
X44130536Y-60986718D01*
X44128909Y-60990174D01*
X44127111Y-60993706D01*
X44125138Y-60997318D01*
X44122983Y-61001019D01*
X44121062Y-61004391D01*
X44119050Y-61007762D01*
X44116950Y-61011125D01*
X44114765Y-61014481D01*
X44112498Y-61017825D01*
X44110153Y-61021152D01*
X44105237Y-61027755D01*
X44100040Y-61034261D01*
X44094587Y-61040651D01*
X44088901Y-61046899D01*
X44083004Y-61052982D01*
X44076921Y-61058878D01*
X44070673Y-61064565D01*
X44064284Y-61070017D01*
X44061043Y-61072649D01*
X44057776Y-61075215D01*
X44054486Y-61077708D01*
X44051175Y-61080130D01*
X44047846Y-61082476D01*
X44044503Y-61084743D01*
X44041148Y-61086928D01*
X44037784Y-61089028D01*
X44034414Y-61091039D01*
X44031041Y-61092962D01*
X44027668Y-61094788D01*
X44024298Y-61096519D01*
X44020933Y-61098150D01*
X44017578Y-61099677D01*
X44014235Y-61101100D01*
X44010906Y-61102412D01*
X44007595Y-61103614D01*
X44004304Y-61104702D01*
X44001037Y-61105672D01*
X43997797Y-61106522D01*
X43994586Y-61107249D01*
X43991407Y-61107851D01*
X43988264Y-61108324D01*
X43985159Y-61108666D01*
X43982095Y-61108873D01*
X43979076Y-61108942D01*
X43979076Y-61110952D01*
X43391384Y-61110952D01*
X43388409Y-61110883D01*
X43385472Y-61110675D01*
X43382565Y-61110332D01*
X43379677Y-61109859D01*
X43376801Y-61109256D01*
X43373928Y-61108526D01*
X43371048Y-61107675D01*
X43368154Y-61106702D01*
X43365236Y-61105615D01*
X43362286Y-61104411D01*
X43359294Y-61103099D01*
X43356253Y-61101676D01*
X43353153Y-61100150D01*
X43349986Y-61098523D01*
X43343415Y-61094971D01*
X43340065Y-61093054D01*
X43336762Y-61091045D01*
X43333506Y-61088948D01*
X43330298Y-61086765D01*
X43327136Y-61084498D01*
X43324021Y-61082152D01*
X43320953Y-61079730D01*
X43317932Y-61077235D01*
X43314958Y-61074669D01*
X43312031Y-61072035D01*
X43309150Y-61069338D01*
X43306316Y-61066580D01*
X43303529Y-61063762D01*
X43300788Y-61060890D01*
X43295446Y-61054993D01*
X43292518Y-61051974D01*
X43289722Y-61048911D01*
X43287048Y-61045806D01*
X43284488Y-61042662D01*
X43282033Y-61039484D01*
X43279675Y-61036272D01*
X43277404Y-61033033D01*
X43275212Y-61029765D01*
X43271029Y-61023163D01*
X43267056Y-61016492D01*
X43263224Y-61009772D01*
X43259462Y-61003029D01*
X43257657Y-60999657D01*
X43255989Y-60996286D01*
X43254456Y-60992922D01*
X43253056Y-60989566D01*
X43251784Y-60986223D01*
X43250638Y-60982895D01*
X43249616Y-60979584D01*
X43248713Y-60976293D01*
X43247928Y-60973027D01*
X43247257Y-60969786D01*
X43246698Y-60966574D01*
X43246246Y-60963397D01*
X43245900Y-60960253D01*
X43245657Y-60957149D01*
X43245513Y-60954084D01*
X43245466Y-60951065D01*
X43245466Y-60725163D01*
X43245466Y-59977531D01*
X43583260Y-59977531D01*
X43583260Y-60725163D01*
X43811146Y-60725163D01*
X43811146Y-59977531D01*
X43583260Y-59977531D01*
X43245466Y-59977531D01*
X43245466Y-59755678D01*
X43245513Y-59753007D01*
X43245657Y-59750249D01*
X43245900Y-59747410D01*
X43246246Y-59744494D01*
X43246698Y-59741507D01*
X43247257Y-59738456D01*
X43247928Y-59735348D01*
X43248713Y-59732185D01*
X43249616Y-59728977D01*
X43250638Y-59725728D01*
X43251784Y-59722443D01*
X43253056Y-59719129D01*
X43254456Y-59715791D01*
X43255989Y-59712436D01*
X43257657Y-59709070D01*
X43259462Y-59705697D01*
X43263305Y-59698954D01*
X43267335Y-59692235D01*
X43271552Y-59685564D01*
X43275955Y-59678961D01*
X43280546Y-59672455D01*
X43285325Y-59666065D01*
X43290291Y-59659817D01*
X43295446Y-59653734D01*
X43301440Y-59647837D01*
X43307435Y-59642151D01*
X43313432Y-59636698D01*
X43319430Y-59631502D01*
X43325427Y-59626586D01*
X43331425Y-59621973D01*
X43334423Y-59619788D01*
X43337421Y-59617688D01*
X43340418Y-59615676D01*
X43343415Y-59613755D01*
X43350068Y-59610197D01*
X43353323Y-59608566D01*
X43356532Y-59607039D01*
X43359694Y-59605616D01*
X43362808Y-59604304D01*
X43365876Y-59603101D01*
X43368897Y-59602014D01*
X43371871Y-59601044D01*
X43374799Y-59600194D01*
X43377680Y-59599466D01*
X43380514Y-59598865D01*
X43383301Y-59598393D01*
X43386042Y-59598050D01*
X43388736Y-59597843D01*
X43391384Y-59597774D01*
X43979076Y-59597774D01*
X43982074Y-59597822D01*
G37*
G36*
X45695198Y-64875148D02*
G01*
X45698202Y-64875295D01*
X45701218Y-64875548D01*
X45704252Y-64875912D01*
X45707310Y-64876393D01*
X45710398Y-64876997D01*
X45713520Y-64877730D01*
X45716684Y-64878597D01*
X45719894Y-64879604D01*
X45723158Y-64880758D01*
X45726479Y-64882064D01*
X45729865Y-64883528D01*
X45733320Y-64885156D01*
X45736851Y-64886954D01*
X45740464Y-64888927D01*
X45744164Y-64891081D01*
X45747537Y-64893003D01*
X45750907Y-64895015D01*
X45754271Y-64897115D01*
X45757627Y-64899300D01*
X45760970Y-64901567D01*
X45764299Y-64903913D01*
X45770901Y-64908828D01*
X45777408Y-64914025D01*
X45783797Y-64919478D01*
X45790046Y-64925164D01*
X45796129Y-64931061D01*
X45802024Y-64937062D01*
X45807710Y-64943112D01*
X45810467Y-64946170D01*
X45813163Y-64949258D01*
X45815795Y-64952381D01*
X45818360Y-64955545D01*
X45820854Y-64958754D01*
X45823276Y-64962018D01*
X45825621Y-64965339D01*
X45827888Y-64968724D01*
X45830073Y-64972180D01*
X45832173Y-64975712D01*
X45834185Y-64979325D01*
X45836107Y-64983024D01*
X45837934Y-64986397D01*
X45839665Y-64989767D01*
X45841295Y-64993132D01*
X45842823Y-64996487D01*
X45844245Y-64999831D01*
X45845558Y-65003159D01*
X45846760Y-65006470D01*
X45847848Y-65009760D01*
X45848818Y-65013027D01*
X45849668Y-65016267D01*
X45850395Y-65019478D01*
X45850997Y-65022657D01*
X45851470Y-65025801D01*
X45851811Y-65028905D01*
X45852018Y-65031970D01*
X45852087Y-65034988D01*
X45852087Y-66226382D01*
X45852040Y-66229379D01*
X45851892Y-66232383D01*
X45851640Y-66235399D01*
X45851276Y-66238433D01*
X45850795Y-66241491D01*
X45850191Y-66244579D01*
X45849459Y-66247702D01*
X45848592Y-66250864D01*
X45847584Y-66254075D01*
X45846430Y-66257339D01*
X45845124Y-66260660D01*
X45843660Y-66264045D01*
X45842032Y-66267501D01*
X45840235Y-66271033D01*
X45838261Y-66274645D01*
X45836107Y-66278346D01*
X45834185Y-66281718D01*
X45832173Y-66285089D01*
X45830073Y-66288452D01*
X45827888Y-66291808D01*
X45825622Y-66295152D01*
X45823276Y-66298479D01*
X45818360Y-66305082D01*
X45813164Y-66311588D01*
X45807711Y-66317977D01*
X45802025Y-66324225D01*
X45796129Y-66330309D01*
X45790045Y-66336205D01*
X45783797Y-66341892D01*
X45777408Y-66347344D01*
X45774167Y-66349976D01*
X45770900Y-66352542D01*
X45767610Y-66355035D01*
X45764299Y-66357457D01*
X45760970Y-66359803D01*
X45757626Y-66362070D01*
X45754271Y-66364255D01*
X45750907Y-66366354D01*
X45747537Y-66368366D01*
X45744164Y-66370288D01*
X45740791Y-66372115D01*
X45737421Y-66373846D01*
X45734057Y-66375477D01*
X45730702Y-66377004D01*
X45727358Y-66378425D01*
X45724030Y-66379739D01*
X45720719Y-66380940D01*
X45717428Y-66382029D01*
X45714161Y-66382998D01*
X45710921Y-66383848D01*
X45707710Y-66384575D01*
X45704531Y-66385177D01*
X45701388Y-66385650D01*
X45698283Y-66385992D01*
X45695220Y-66386198D01*
X45692200Y-66386268D01*
X45692200Y-66388279D01*
X45104508Y-66388279D01*
X45101533Y-66388210D01*
X45098597Y-66388002D01*
X45095689Y-66387659D01*
X45092801Y-66387185D01*
X45089925Y-66386581D01*
X45087052Y-66385852D01*
X45084172Y-66385001D01*
X45081278Y-66384028D01*
X45078360Y-66382941D01*
X45075410Y-66381737D01*
X45072419Y-66380425D01*
X45069377Y-66379002D01*
X45066278Y-66377477D01*
X45063110Y-66375849D01*
X45056539Y-66372298D01*
X45053189Y-66370381D01*
X45049886Y-66368372D01*
X45046630Y-66366275D01*
X45043422Y-66364092D01*
X45040260Y-66361824D01*
X45037145Y-66359479D01*
X45034077Y-66357057D01*
X45031056Y-66354562D01*
X45028082Y-66351996D01*
X45025154Y-66349362D01*
X45022273Y-66346665D01*
X45019439Y-66343905D01*
X45016652Y-66341088D01*
X45013911Y-66338217D01*
X45008569Y-66332319D01*
X45005642Y-66329300D01*
X45002845Y-66326236D01*
X45000172Y-66323132D01*
X44997612Y-66319988D01*
X44995157Y-66316810D01*
X44992799Y-66313598D01*
X44990528Y-66310358D01*
X44988336Y-66307091D01*
X44984153Y-66300489D01*
X44980181Y-66293818D01*
X44976348Y-66287098D01*
X44972586Y-66280355D01*
X44970781Y-66276983D01*
X44969113Y-66273612D01*
X44967581Y-66270248D01*
X44966180Y-66266893D01*
X44964908Y-66263550D01*
X44963763Y-66260222D01*
X44962740Y-66256911D01*
X44961838Y-66253619D01*
X44961052Y-66250352D01*
X44960381Y-66247113D01*
X44959822Y-66243901D01*
X44959370Y-66240723D01*
X44959025Y-66237579D01*
X44958781Y-66234475D01*
X44958637Y-66231411D01*
X44958590Y-66228392D01*
X44958590Y-65850593D01*
X45290431Y-65850593D01*
X45290431Y-66004527D01*
X45516304Y-66004527D01*
X45516304Y-65256895D01*
X45290431Y-65256895D01*
X45290431Y-65412813D01*
X44958590Y-65412813D01*
X44958590Y-65033005D01*
X44958637Y-65030334D01*
X44958781Y-65027576D01*
X44959025Y-65024737D01*
X44959370Y-65021821D01*
X44959822Y-65018834D01*
X44960381Y-65015783D01*
X44961052Y-65012675D01*
X44961838Y-65009512D01*
X44962740Y-65006304D01*
X44963763Y-65003055D01*
X44964908Y-64999769D01*
X44966180Y-64996455D01*
X44967581Y-64993118D01*
X44969113Y-64989763D01*
X44970781Y-64986396D01*
X44972586Y-64983024D01*
X44976430Y-64976281D01*
X44980459Y-64969561D01*
X44984676Y-64962890D01*
X44989079Y-64956288D01*
X44993670Y-64949782D01*
X44998448Y-64943392D01*
X45003415Y-64937144D01*
X45008569Y-64931061D01*
X45014563Y-64925164D01*
X45020559Y-64919478D01*
X45026556Y-64914025D01*
X45032554Y-64908828D01*
X45038552Y-64903913D01*
X45044549Y-64899300D01*
X45047547Y-64897115D01*
X45050545Y-64895015D01*
X45053542Y-64893003D01*
X45056539Y-64891081D01*
X45063192Y-64887524D01*
X45066448Y-64885893D01*
X45069656Y-64884366D01*
X45072818Y-64882943D01*
X45075933Y-64881630D01*
X45079001Y-64880428D01*
X45082022Y-64879340D01*
X45084996Y-64878371D01*
X45087923Y-64877521D01*
X45090804Y-64876792D01*
X45093638Y-64876192D01*
X45096425Y-64875719D01*
X45099166Y-64875377D01*
X45101860Y-64875170D01*
X45104508Y-64875101D01*
X45692200Y-64875101D01*
X45695198Y-64875148D01*
G37*
G36*
X35762233Y-62236458D02*
G01*
X35765297Y-62236605D01*
X35768401Y-62236858D01*
X35771545Y-62237223D01*
X35774723Y-62237703D01*
X35777934Y-62238306D01*
X35781175Y-62239040D01*
X35784442Y-62239907D01*
X35787732Y-62240914D01*
X35791043Y-62242068D01*
X35794372Y-62243374D01*
X35797715Y-62244838D01*
X35801071Y-62246465D01*
X35804435Y-62248263D01*
X35807805Y-62250236D01*
X35811178Y-62252392D01*
X35814905Y-62254312D01*
X35818584Y-62256326D01*
X35822217Y-62258426D01*
X35825802Y-62260610D01*
X35829341Y-62262877D01*
X35832832Y-62265222D01*
X35836276Y-62267643D01*
X35839673Y-62270139D01*
X35843023Y-62272702D01*
X35846326Y-62275334D01*
X35849581Y-62278030D01*
X35852790Y-62280788D01*
X35859066Y-62286474D01*
X35865153Y-62292369D01*
X35871049Y-62298453D01*
X35876735Y-62304701D01*
X35882188Y-62311090D01*
X35884820Y-62314331D01*
X35887384Y-62317599D01*
X35889879Y-62320888D01*
X35892300Y-62324199D01*
X35894646Y-62327528D01*
X35896913Y-62330872D01*
X35899098Y-62334227D01*
X35901198Y-62337592D01*
X35903210Y-62340961D01*
X35905131Y-62344335D01*
X35906959Y-62347707D01*
X35908689Y-62351077D01*
X35910320Y-62354441D01*
X35911848Y-62357796D01*
X35913269Y-62361139D01*
X35914583Y-62364469D01*
X35915785Y-62367779D01*
X35916872Y-62371071D01*
X35917842Y-62374336D01*
X35918693Y-62377578D01*
X35919420Y-62380788D01*
X35920021Y-62383966D01*
X35920494Y-62387110D01*
X35920836Y-62390214D01*
X35921042Y-62393278D01*
X35921112Y-62396299D01*
X35921112Y-63587690D01*
X35921042Y-63590710D01*
X35920834Y-63593773D01*
X35920492Y-63596879D01*
X35920018Y-63600021D01*
X35919415Y-63603200D01*
X35918686Y-63606411D01*
X35917834Y-63609651D01*
X35916862Y-63612918D01*
X35915774Y-63616209D01*
X35914571Y-63619520D01*
X35913258Y-63622850D01*
X35911836Y-63626193D01*
X35910310Y-63629548D01*
X35908682Y-63632911D01*
X35906955Y-63636281D01*
X35905131Y-63639654D01*
X35903214Y-63643028D01*
X35901205Y-63646397D01*
X35899107Y-63649761D01*
X35896924Y-63653116D01*
X35894658Y-63656460D01*
X35892312Y-63659790D01*
X35887394Y-63666390D01*
X35882195Y-63672899D01*
X35876739Y-63679288D01*
X35871050Y-63685536D01*
X35865153Y-63691620D01*
X35858488Y-63697434D01*
X35851942Y-63702922D01*
X35845442Y-63708130D01*
X35838919Y-63713106D01*
X35832302Y-63717894D01*
X35825520Y-63722541D01*
X35818502Y-63727093D01*
X35811178Y-63731597D01*
X35807805Y-63733425D01*
X35804435Y-63735156D01*
X35801071Y-63736786D01*
X35797715Y-63738314D01*
X35794372Y-63739735D01*
X35791043Y-63741049D01*
X35787732Y-63742250D01*
X35784441Y-63743338D01*
X35781174Y-63744309D01*
X35777934Y-63745159D01*
X35774723Y-63745886D01*
X35771545Y-63746488D01*
X35768401Y-63746961D01*
X35765297Y-63747301D01*
X35762233Y-63747508D01*
X35759213Y-63747579D01*
X35171521Y-63747579D01*
X35168524Y-63747530D01*
X35165527Y-63747383D01*
X35162529Y-63747130D01*
X35159531Y-63746766D01*
X35156533Y-63746285D01*
X35153534Y-63745683D01*
X35150535Y-63744950D01*
X35147536Y-63744083D01*
X35144538Y-63743074D01*
X35141539Y-63741920D01*
X35138540Y-63740614D01*
X35135542Y-63739150D01*
X35132544Y-63737522D01*
X35129546Y-63735726D01*
X35126549Y-63733752D01*
X35123552Y-63731597D01*
X35120202Y-63729675D01*
X35116899Y-63727663D01*
X35113643Y-63725563D01*
X35110435Y-63723378D01*
X35107273Y-63721113D01*
X35104158Y-63718767D01*
X35101090Y-63716346D01*
X35098069Y-63713850D01*
X35095095Y-63711286D01*
X35092168Y-63708654D01*
X35089287Y-63705958D01*
X35086453Y-63703201D01*
X35083665Y-63700385D01*
X35080925Y-63697514D01*
X35075583Y-63691620D01*
X35072655Y-63688599D01*
X35069859Y-63685536D01*
X35067185Y-63682430D01*
X35064625Y-63679288D01*
X35062170Y-63676109D01*
X35059812Y-63672899D01*
X35057541Y-63669657D01*
X35055349Y-63666390D01*
X35051166Y-63659790D01*
X35047194Y-63653116D01*
X35043362Y-63646397D01*
X35039600Y-63639654D01*
X35037794Y-63636281D01*
X35036127Y-63632911D01*
X35034594Y-63629548D01*
X35033193Y-63626193D01*
X35031922Y-63622850D01*
X35030776Y-63619520D01*
X35029753Y-63616209D01*
X35028851Y-63612918D01*
X35028066Y-63609651D01*
X35027395Y-63606411D01*
X35026835Y-63603200D01*
X35026384Y-63600021D01*
X35026038Y-63596879D01*
X35025794Y-63593773D01*
X35025651Y-63590710D01*
X35025604Y-63587721D01*
X35025604Y-63363827D01*
X35025604Y-63153932D01*
X35357444Y-63153932D01*
X35357444Y-63363827D01*
X35583319Y-63363827D01*
X35583319Y-63153932D01*
X35357444Y-63153932D01*
X35025604Y-63153932D01*
X35025604Y-62840085D01*
X35583319Y-62840085D01*
X35583319Y-62618205D01*
X35357444Y-62618205D01*
X35357444Y-62770128D01*
X35025604Y-62652176D01*
X35025604Y-62394313D01*
X35025651Y-62391644D01*
X35025795Y-62388886D01*
X35026038Y-62386045D01*
X35026384Y-62383129D01*
X35026835Y-62380144D01*
X35027395Y-62377094D01*
X35028066Y-62373983D01*
X35028851Y-62370823D01*
X35029754Y-62367614D01*
X35030776Y-62364364D01*
X35031922Y-62361080D01*
X35033194Y-62357765D01*
X35034594Y-62354428D01*
X35036127Y-62351073D01*
X35037795Y-62347707D01*
X35039600Y-62344335D01*
X35043444Y-62337592D01*
X35047473Y-62330872D01*
X35051690Y-62324199D01*
X35056094Y-62317598D01*
X35060684Y-62311090D01*
X35065463Y-62304701D01*
X35070429Y-62298453D01*
X35075583Y-62292369D01*
X35081577Y-62286474D01*
X35087573Y-62280788D01*
X35093570Y-62275334D01*
X35099568Y-62270139D01*
X35105566Y-62265222D01*
X35111563Y-62260610D01*
X35114561Y-62258426D01*
X35117558Y-62256326D01*
X35120556Y-62254312D01*
X35123552Y-62252392D01*
X35130205Y-62248834D01*
X35133461Y-62247203D01*
X35136669Y-62245676D01*
X35139831Y-62244253D01*
X35142946Y-62242939D01*
X35146014Y-62241738D01*
X35149035Y-62240651D01*
X35152009Y-62239680D01*
X35154937Y-62238830D01*
X35157817Y-62238102D01*
X35160651Y-62237501D01*
X35163439Y-62237028D01*
X35166179Y-62236688D01*
X35168874Y-62236480D01*
X35171521Y-62236411D01*
X35759213Y-62236411D01*
X35762233Y-62236458D01*
G37*
G36*
X59774049Y-62232464D02*
G01*
X59777053Y-62232612D01*
X59780069Y-62232863D01*
X59783104Y-62233227D01*
X59786161Y-62233708D01*
X59789249Y-62234313D01*
X59792372Y-62235045D01*
X59795535Y-62235912D01*
X59798746Y-62236919D01*
X59802009Y-62238073D01*
X59805331Y-62239379D01*
X59808716Y-62240843D01*
X59812172Y-62242471D01*
X59815703Y-62244270D01*
X59819316Y-62246242D01*
X59823016Y-62248396D01*
X59826389Y-62250318D01*
X59829759Y-62252330D01*
X59833123Y-62254430D01*
X59836478Y-62256615D01*
X59839822Y-62258882D01*
X59843151Y-62261228D01*
X59849752Y-62266143D01*
X59856260Y-62271340D01*
X59862650Y-62276793D01*
X59868898Y-62282479D01*
X59874981Y-62288376D01*
X59880877Y-62294377D01*
X59886564Y-62300427D01*
X59889321Y-62303485D01*
X59892017Y-62306573D01*
X59894648Y-62309696D01*
X59897213Y-62312860D01*
X59899707Y-62316070D01*
X59902129Y-62319333D01*
X59904474Y-62322654D01*
X59906741Y-62326041D01*
X59908925Y-62329495D01*
X59911025Y-62333028D01*
X59913038Y-62336640D01*
X59914959Y-62340339D01*
X59916787Y-62343712D01*
X59918518Y-62347082D01*
X59920148Y-62350447D01*
X59921676Y-62353803D01*
X59923098Y-62357146D01*
X59924412Y-62360474D01*
X59925613Y-62363785D01*
X59926701Y-62367075D01*
X59927671Y-62370342D01*
X59928522Y-62373583D01*
X59929249Y-62376795D01*
X59929850Y-62379972D01*
X59930323Y-62383116D01*
X59930665Y-62386220D01*
X59930871Y-62389285D01*
X59930941Y-62392304D01*
X59930941Y-62970022D01*
X59930872Y-62974143D01*
X59930667Y-62978267D01*
X59930334Y-62982389D01*
X59929878Y-62986511D01*
X59929304Y-62990634D01*
X59928619Y-62994756D01*
X59927829Y-62998880D01*
X59926939Y-63003001D01*
X59924885Y-63011246D01*
X59922503Y-63019492D01*
X59919840Y-63027738D01*
X59916945Y-63035983D01*
X59915400Y-63040081D01*
X59913764Y-63044130D01*
X59912039Y-63048127D01*
X59910229Y-63052069D01*
X59908338Y-63055951D01*
X59906367Y-63059772D01*
X59904320Y-63063530D01*
X59902200Y-63067219D01*
X59900010Y-63070838D01*
X59897752Y-63074384D01*
X59895431Y-63077855D01*
X59893049Y-63081244D01*
X59890609Y-63084553D01*
X59888114Y-63087775D01*
X59885567Y-63090909D01*
X59882971Y-63093953D01*
X59880323Y-63097279D01*
X59877625Y-63100512D01*
X59874875Y-63103651D01*
X59872070Y-63106697D01*
X59869206Y-63109650D01*
X59866280Y-63112507D01*
X59863291Y-63115273D01*
X59860234Y-63117943D01*
X59857106Y-63120521D01*
X59853905Y-63123006D01*
X59850628Y-63125395D01*
X59847271Y-63127691D01*
X59843832Y-63129894D01*
X59840308Y-63132004D01*
X59836695Y-63134019D01*
X59832991Y-63135942D01*
X59829241Y-63137770D01*
X59825491Y-63139500D01*
X59821742Y-63141131D01*
X59817993Y-63142658D01*
X59814245Y-63144081D01*
X59810497Y-63145393D01*
X59806749Y-63146596D01*
X59803001Y-63147683D01*
X59799253Y-63148653D01*
X59795505Y-63149503D01*
X59791757Y-63150232D01*
X59788008Y-63150832D01*
X59784260Y-63151305D01*
X59780510Y-63151646D01*
X59776761Y-63151854D01*
X59773011Y-63151923D01*
X59371214Y-63151923D01*
X59371214Y-63361817D01*
X59597088Y-63361817D01*
X59597088Y-63211905D01*
X59928929Y-63327844D01*
X59928929Y-63585707D01*
X59928882Y-63588726D01*
X59928738Y-63591791D01*
X59928494Y-63594895D01*
X59928148Y-63598039D01*
X59927697Y-63601218D01*
X59927137Y-63604428D01*
X59926466Y-63607669D01*
X59925681Y-63610935D01*
X59924778Y-63614226D01*
X59923755Y-63617536D01*
X59922610Y-63620865D01*
X59921338Y-63624209D01*
X59919937Y-63627564D01*
X59918404Y-63630928D01*
X59916736Y-63634298D01*
X59914931Y-63637671D01*
X59911087Y-63644414D01*
X59907057Y-63651134D01*
X59902841Y-63657805D01*
X59898437Y-63664407D01*
X59893847Y-63670914D01*
X59889069Y-63677304D01*
X59884103Y-63683553D01*
X59878949Y-63689635D01*
X59876301Y-63692608D01*
X59873610Y-63695532D01*
X59870879Y-63698403D01*
X59868109Y-63701217D01*
X59865305Y-63703975D01*
X59862468Y-63706671D01*
X59859602Y-63709302D01*
X59856710Y-63711867D01*
X59853794Y-63714361D01*
X59850857Y-63716783D01*
X59847903Y-63719128D01*
X59844934Y-63721395D01*
X59841952Y-63723580D01*
X59838962Y-63725680D01*
X59835965Y-63727693D01*
X59832964Y-63729613D01*
X59829963Y-63731442D01*
X59826962Y-63733172D01*
X59823962Y-63734803D01*
X59820963Y-63736330D01*
X59817964Y-63737752D01*
X59814965Y-63739065D01*
X59811967Y-63740268D01*
X59808969Y-63741355D01*
X59805972Y-63742325D01*
X59802974Y-63743175D01*
X59799978Y-63743903D01*
X59796981Y-63744505D01*
X59793985Y-63744978D01*
X59790988Y-63745318D01*
X59787992Y-63745525D01*
X59784996Y-63745595D01*
X59197304Y-63745595D01*
X59194306Y-63745548D01*
X59191302Y-63745400D01*
X59188286Y-63745148D01*
X59185251Y-63744783D01*
X59182193Y-63744303D01*
X59179106Y-63743698D01*
X59175983Y-63742966D01*
X59172819Y-63742099D01*
X59169608Y-63741091D01*
X59166345Y-63739937D01*
X59163024Y-63738631D01*
X59159638Y-63737167D01*
X59156182Y-63735540D01*
X59152651Y-63733741D01*
X59149038Y-63731769D01*
X59145339Y-63729613D01*
X59141966Y-63727693D01*
X59138595Y-63725680D01*
X59135231Y-63723580D01*
X59131876Y-63721395D01*
X59128532Y-63719128D01*
X59125204Y-63716783D01*
X59118602Y-63711867D01*
X59112094Y-63706671D01*
X59105705Y-63701217D01*
X59099456Y-63695532D01*
X59093373Y-63689635D01*
X59087477Y-63683553D01*
X59081791Y-63677304D01*
X59076338Y-63670914D01*
X59073706Y-63667675D01*
X59071141Y-63664407D01*
X59068647Y-63661116D01*
X59066226Y-63657805D01*
X59063880Y-63654477D01*
X59061614Y-63651134D01*
X59059429Y-63647779D01*
X59057329Y-63644414D01*
X59055316Y-63641044D01*
X59053395Y-63637671D01*
X59051567Y-63634298D01*
X59049836Y-63630928D01*
X59048206Y-63627564D01*
X59046678Y-63624209D01*
X59045256Y-63620865D01*
X59043943Y-63617536D01*
X59042741Y-63614226D01*
X59041653Y-63610935D01*
X59040683Y-63607669D01*
X59039833Y-63604428D01*
X59039105Y-63601218D01*
X59038504Y-63598039D01*
X59038031Y-63594895D01*
X59037690Y-63591791D01*
X59037483Y-63588726D01*
X59037413Y-63585707D01*
X59037413Y-63013995D01*
X59037483Y-63009873D01*
X59037687Y-63005751D01*
X59038020Y-63001627D01*
X59038476Y-62997506D01*
X59039050Y-62993382D01*
X59039735Y-62989261D01*
X59040525Y-62985137D01*
X59041415Y-62981015D01*
X59043470Y-62972769D01*
X59045852Y-62964524D01*
X59048515Y-62956279D01*
X59051411Y-62948034D01*
X59052956Y-62943935D01*
X59054592Y-62939882D01*
X59056316Y-62935876D01*
X59058126Y-62931917D01*
X59060017Y-62928005D01*
X59061988Y-62924138D01*
X59064035Y-62920318D01*
X59066155Y-62916546D01*
X59070602Y-62909142D01*
X59075305Y-62901924D01*
X59080240Y-62894894D01*
X59085383Y-62888053D01*
X59088031Y-62885081D01*
X59090729Y-62882154D01*
X59093479Y-62879273D01*
X59096285Y-62876441D01*
X59099149Y-62873654D01*
X59102074Y-62870913D01*
X59105064Y-62868218D01*
X59108122Y-62865571D01*
X59111249Y-62862969D01*
X59114450Y-62860416D01*
X59117728Y-62857907D01*
X59121084Y-62855446D01*
X59124524Y-62853031D01*
X59128048Y-62850662D01*
X59131661Y-62848339D01*
X59135365Y-62846064D01*
X59139115Y-62844236D01*
X59142865Y-62842506D01*
X59146614Y-62840875D01*
X59150363Y-62839348D01*
X59154111Y-62837926D01*
X59157859Y-62836613D01*
X59161607Y-62835410D01*
X59165355Y-62834323D01*
X59169103Y-62833354D01*
X59172851Y-62832503D01*
X59176599Y-62831775D01*
X59180348Y-62831175D01*
X59184097Y-62830702D01*
X59187846Y-62830360D01*
X59191595Y-62830153D01*
X59195345Y-62830084D01*
X59597142Y-62830084D01*
X59595156Y-62828097D01*
X59595156Y-62614210D01*
X59369280Y-62614210D01*
X59369280Y-62764122D01*
X59037442Y-62648183D01*
X59037442Y-62390320D01*
X59037489Y-62387649D01*
X59037633Y-62384891D01*
X59037876Y-62382052D01*
X59038222Y-62379136D01*
X59038673Y-62376149D01*
X59039233Y-62373098D01*
X59039904Y-62369990D01*
X59040689Y-62366827D01*
X59041591Y-62363619D01*
X59042614Y-62360370D01*
X59043760Y-62357085D01*
X59045031Y-62353771D01*
X59046432Y-62350433D01*
X59047965Y-62347078D01*
X59049632Y-62343712D01*
X59051438Y-62340339D01*
X59055282Y-62333596D01*
X59059312Y-62326877D01*
X59063528Y-62320206D01*
X59067932Y-62313603D01*
X59072523Y-62307097D01*
X59077301Y-62300707D01*
X59082268Y-62294459D01*
X59087422Y-62288376D01*
X59093416Y-62282479D01*
X59099412Y-62276793D01*
X59105410Y-62271340D01*
X59111407Y-62266143D01*
X59117405Y-62261228D01*
X59123402Y-62256615D01*
X59126399Y-62254430D01*
X59129397Y-62252330D01*
X59132394Y-62250318D01*
X59135390Y-62248396D01*
X59142043Y-62244839D01*
X59145298Y-62243208D01*
X59148507Y-62241681D01*
X59151669Y-62240258D01*
X59154784Y-62238945D01*
X59157852Y-62237743D01*
X59160873Y-62236656D01*
X59163847Y-62235686D01*
X59166775Y-62234836D01*
X59169656Y-62234109D01*
X59172490Y-62233507D01*
X59175277Y-62233035D01*
X59178018Y-62232692D01*
X59180712Y-62232485D01*
X59183360Y-62232416D01*
X59771052Y-62232416D01*
X59774049Y-62232464D01*
G37*
G36*
X44367863Y-64875148D02*
G01*
X44370867Y-64875295D01*
X44373884Y-64875548D01*
X44376918Y-64875912D01*
X44379976Y-64876393D01*
X44383063Y-64876997D01*
X44386186Y-64877730D01*
X44389350Y-64878597D01*
X44392560Y-64879604D01*
X44395823Y-64880758D01*
X44399145Y-64882064D01*
X44402531Y-64883528D01*
X44405986Y-64885156D01*
X44409518Y-64886954D01*
X44413130Y-64888927D01*
X44416831Y-64891081D01*
X44420203Y-64893003D01*
X44423573Y-64895015D01*
X44426937Y-64897115D01*
X44430293Y-64899300D01*
X44433636Y-64901567D01*
X44436965Y-64903913D01*
X44443566Y-64908828D01*
X44450074Y-64914025D01*
X44456463Y-64919478D01*
X44462711Y-64925164D01*
X44468794Y-64931061D01*
X44474690Y-64937062D01*
X44480376Y-64943112D01*
X44483133Y-64946170D01*
X44485829Y-64949258D01*
X44488461Y-64952381D01*
X44491025Y-64955545D01*
X44493520Y-64958754D01*
X44495941Y-64962018D01*
X44498287Y-64965339D01*
X44500554Y-64968724D01*
X44502739Y-64972180D01*
X44504839Y-64975712D01*
X44506851Y-64979325D01*
X44508772Y-64983024D01*
X44510600Y-64986397D01*
X44512330Y-64989767D01*
X44513961Y-64993132D01*
X44515489Y-64996487D01*
X44516910Y-64999831D01*
X44518224Y-65003159D01*
X44519426Y-65006470D01*
X44520513Y-65009760D01*
X44521483Y-65013027D01*
X44522334Y-65016267D01*
X44523061Y-65019478D01*
X44523663Y-65022657D01*
X44524135Y-65025801D01*
X44524477Y-65028905D01*
X44524683Y-65031970D01*
X44524753Y-65034988D01*
X44524753Y-66226382D01*
X44524705Y-66229379D01*
X44524558Y-66232383D01*
X44524305Y-66235399D01*
X44523942Y-66238433D01*
X44523461Y-66241491D01*
X44522857Y-66244579D01*
X44522124Y-66247702D01*
X44521257Y-66250864D01*
X44520250Y-66254075D01*
X44519096Y-66257339D01*
X44517790Y-66260660D01*
X44516326Y-66264045D01*
X44514698Y-66267501D01*
X44512900Y-66271033D01*
X44510927Y-66274645D01*
X44508772Y-66278346D01*
X44506851Y-66281718D01*
X44504839Y-66285089D01*
X44502739Y-66288452D01*
X44500554Y-66291808D01*
X44498287Y-66295152D01*
X44495942Y-66298479D01*
X44491026Y-66305082D01*
X44485830Y-66311588D01*
X44480377Y-66317977D01*
X44474690Y-66324225D01*
X44468794Y-66330309D01*
X44462711Y-66336205D01*
X44456463Y-66341892D01*
X44450073Y-66347344D01*
X44446833Y-66349976D01*
X44443566Y-66352542D01*
X44440276Y-66355035D01*
X44436965Y-66357457D01*
X44433636Y-66359803D01*
X44430292Y-66362070D01*
X44426937Y-66364255D01*
X44423573Y-66366354D01*
X44420203Y-66368366D01*
X44416831Y-66370288D01*
X44413458Y-66372115D01*
X44410087Y-66373846D01*
X44406723Y-66375477D01*
X44403368Y-66377004D01*
X44400024Y-66378425D01*
X44396696Y-66379739D01*
X44393384Y-66380940D01*
X44390094Y-66382029D01*
X44386827Y-66382998D01*
X44383587Y-66383848D01*
X44380376Y-66384575D01*
X44377197Y-66385177D01*
X44374054Y-66385650D01*
X44370949Y-66385992D01*
X44367885Y-66386198D01*
X44364866Y-66386268D01*
X44364866Y-66388279D01*
X43777173Y-66388279D01*
X43774199Y-66388210D01*
X43771262Y-66388002D01*
X43768355Y-66387659D01*
X43765467Y-66387185D01*
X43762591Y-66386581D01*
X43759717Y-66385852D01*
X43756838Y-66385001D01*
X43753944Y-66384028D01*
X43751026Y-66382941D01*
X43748076Y-66381737D01*
X43745084Y-66380425D01*
X43742043Y-66379002D01*
X43738943Y-66377477D01*
X43735776Y-66375849D01*
X43729205Y-66372298D01*
X43725855Y-66370381D01*
X43722552Y-66368372D01*
X43719296Y-66366275D01*
X43716087Y-66364092D01*
X43712926Y-66361824D01*
X43709811Y-66359479D01*
X43706743Y-66357057D01*
X43703722Y-66354562D01*
X43700748Y-66351996D01*
X43697820Y-66349362D01*
X43694939Y-66346665D01*
X43692105Y-66343905D01*
X43689318Y-66341088D01*
X43686577Y-66338217D01*
X43681236Y-66332319D01*
X43678308Y-66329300D01*
X43675512Y-66326236D01*
X43672838Y-66323132D01*
X43670278Y-66319988D01*
X43667823Y-66316810D01*
X43665464Y-66313598D01*
X43663194Y-66310358D01*
X43661001Y-66307091D01*
X43656819Y-66300489D01*
X43652846Y-66293818D01*
X43649014Y-66287098D01*
X43645252Y-66280355D01*
X43643446Y-66276983D01*
X43641779Y-66273612D01*
X43640246Y-66270248D01*
X43638846Y-66266893D01*
X43637574Y-66263550D01*
X43636428Y-66260222D01*
X43635406Y-66256911D01*
X43634503Y-66253619D01*
X43633718Y-66250352D01*
X43633047Y-66247113D01*
X43632487Y-66243901D01*
X43632036Y-66240723D01*
X43631690Y-66237579D01*
X43631447Y-66234475D01*
X43631303Y-66231411D01*
X43631256Y-66228392D01*
X43631256Y-66002490D01*
X43631256Y-65254857D01*
X43967064Y-65254857D01*
X43967064Y-66002490D01*
X44194951Y-66002490D01*
X44194951Y-65254857D01*
X43967064Y-65254857D01*
X43631256Y-65254857D01*
X43631256Y-65033005D01*
X43631303Y-65030334D01*
X43631447Y-65027576D01*
X43631690Y-65024737D01*
X43632036Y-65021821D01*
X43632487Y-65018834D01*
X43633047Y-65015783D01*
X43633718Y-65012675D01*
X43634503Y-65009512D01*
X43635406Y-65006304D01*
X43636428Y-65003055D01*
X43637574Y-64999769D01*
X43638846Y-64996455D01*
X43640246Y-64993118D01*
X43641779Y-64989763D01*
X43643446Y-64986396D01*
X43645252Y-64983024D01*
X43649095Y-64976281D01*
X43653125Y-64969561D01*
X43657342Y-64962890D01*
X43661745Y-64956288D01*
X43666336Y-64949782D01*
X43671115Y-64943392D01*
X43676081Y-64937144D01*
X43681236Y-64931061D01*
X43687229Y-64925164D01*
X43693225Y-64919478D01*
X43699222Y-64914025D01*
X43705219Y-64908828D01*
X43711217Y-64903913D01*
X43717214Y-64899300D01*
X43720213Y-64897115D01*
X43723210Y-64895015D01*
X43726208Y-64893003D01*
X43729205Y-64891081D01*
X43735857Y-64887524D01*
X43739113Y-64885893D01*
X43742322Y-64884366D01*
X43745484Y-64882943D01*
X43748598Y-64881630D01*
X43751666Y-64880428D01*
X43754687Y-64879340D01*
X43757661Y-64878371D01*
X43760589Y-64877521D01*
X43763469Y-64876792D01*
X43766303Y-64876192D01*
X43769091Y-64875719D01*
X43771832Y-64875377D01*
X43774526Y-64875170D01*
X43777173Y-64875101D01*
X44364866Y-64875101D01*
X44367863Y-64875148D01*
G37*
G36*
X50050023Y-66004500D02*
G01*
X50279917Y-66004500D01*
X50279917Y-64871078D01*
X50609747Y-64871078D01*
X50609747Y-66226381D01*
X50609700Y-66229378D01*
X50609552Y-66232382D01*
X50609300Y-66235399D01*
X50608936Y-66238433D01*
X50608455Y-66241490D01*
X50607851Y-66244577D01*
X50607118Y-66247700D01*
X50606251Y-66250864D01*
X50605244Y-66254075D01*
X50604090Y-66257337D01*
X50602783Y-66260660D01*
X50601319Y-66264044D01*
X50599691Y-66267500D01*
X50597894Y-66271031D01*
X50595920Y-66274644D01*
X50593766Y-66278345D01*
X50591844Y-66281717D01*
X50589832Y-66285088D01*
X50587732Y-66288451D01*
X50585547Y-66291806D01*
X50583280Y-66295150D01*
X50580934Y-66298479D01*
X50576018Y-66305081D01*
X50570822Y-66311588D01*
X50565368Y-66317977D01*
X50559682Y-66324225D01*
X50553786Y-66330309D01*
X50547703Y-66336204D01*
X50541455Y-66341892D01*
X50535066Y-66347344D01*
X50531825Y-66349975D01*
X50528558Y-66352541D01*
X50525268Y-66355035D01*
X50521957Y-66357456D01*
X50518628Y-66359802D01*
X50515285Y-66362068D01*
X50511929Y-66364254D01*
X50508565Y-66366354D01*
X50505195Y-66368365D01*
X50501822Y-66370288D01*
X50498449Y-66372114D01*
X50495079Y-66373846D01*
X50491715Y-66375475D01*
X50488359Y-66377004D01*
X50485016Y-66378424D01*
X50481687Y-66379739D01*
X50478376Y-66380939D01*
X50475085Y-66382027D01*
X50471818Y-66382998D01*
X50468578Y-66383848D01*
X50465367Y-66384574D01*
X50462188Y-66385177D01*
X50459045Y-66385649D01*
X50455940Y-66385990D01*
X50452876Y-66386197D01*
X50449856Y-66386267D01*
X50451867Y-66388278D01*
X50451790Y-66388279D01*
X49864098Y-66388279D01*
X49861123Y-66388210D01*
X49858186Y-66388002D01*
X49855279Y-66387659D01*
X49852391Y-66387185D01*
X49849515Y-66386581D01*
X49846641Y-66385852D01*
X49843762Y-66385001D01*
X49840868Y-66384028D01*
X49837950Y-66382941D01*
X49835000Y-66381737D01*
X49832009Y-66380425D01*
X49828968Y-66379002D01*
X49825868Y-66377477D01*
X49822701Y-66375849D01*
X49816130Y-66372298D01*
X49812780Y-66370381D01*
X49809477Y-66368372D01*
X49806222Y-66366275D01*
X49803013Y-66364092D01*
X49799851Y-66361824D01*
X49796736Y-66359479D01*
X49793668Y-66357057D01*
X49790647Y-66354562D01*
X49787673Y-66351996D01*
X49784745Y-66349362D01*
X49781865Y-66346665D01*
X49779031Y-66343905D01*
X49776244Y-66341088D01*
X49773503Y-66338217D01*
X49768162Y-66332319D01*
X49765234Y-66329300D01*
X49762438Y-66326236D01*
X49759764Y-66323132D01*
X49757204Y-66319988D01*
X49754749Y-66316810D01*
X49752391Y-66313598D01*
X49750120Y-66310358D01*
X49747928Y-66307091D01*
X49743745Y-66300489D01*
X49739773Y-66293818D01*
X49735941Y-66287098D01*
X49732178Y-66280355D01*
X49730373Y-66276983D01*
X49728705Y-66273612D01*
X49727172Y-66270248D01*
X49725771Y-66266893D01*
X49724499Y-66263550D01*
X49723354Y-66260222D01*
X49722331Y-66256911D01*
X49721428Y-66253619D01*
X49720643Y-66250352D01*
X49719972Y-66247113D01*
X49719412Y-66243901D01*
X49718961Y-66240723D01*
X49718615Y-66237579D01*
X49718371Y-66234475D01*
X49718227Y-66231411D01*
X49718180Y-66228392D01*
X49718180Y-64871078D01*
X50050023Y-64871078D01*
X50050023Y-66004500D01*
G37*
G36*
X52718634Y-59593727D02*
G01*
X52718634Y-61110952D01*
X52384808Y-61110952D01*
X52384808Y-60555222D01*
X52030980Y-60555222D01*
X52030980Y-60189409D01*
X52384808Y-60189409D01*
X52384808Y-59977504D01*
X51871068Y-59977504D01*
X51871068Y-59593699D01*
X52718634Y-59593699D01*
X52718634Y-59593727D01*
G37*
G36*
X37204499Y-62612197D02*
G01*
X36684752Y-62612197D01*
X36684752Y-62824102D01*
X37026567Y-62824102D01*
X37028884Y-62824173D01*
X37031336Y-62824383D01*
X37033916Y-62824736D01*
X37036620Y-62825228D01*
X37039441Y-62825862D01*
X37042374Y-62826634D01*
X37045413Y-62827548D01*
X37048551Y-62828603D01*
X37051783Y-62829798D01*
X37055103Y-62831135D01*
X37058506Y-62832611D01*
X37061985Y-62834226D01*
X37065534Y-62835983D01*
X37069148Y-62837879D01*
X37072821Y-62839917D01*
X37076547Y-62842095D01*
X37080646Y-62844388D01*
X37084699Y-62846773D01*
X37088705Y-62849246D01*
X37092665Y-62851805D01*
X37096577Y-62854446D01*
X37100444Y-62857168D01*
X37104263Y-62859965D01*
X37108036Y-62862835D01*
X37115440Y-62868782D01*
X37122658Y-62874989D01*
X37129687Y-62881428D01*
X37136528Y-62888078D01*
X37143263Y-62895010D01*
X37149928Y-62902290D01*
X37153212Y-62906055D01*
X37156452Y-62909900D01*
X37159639Y-62913820D01*
X37162765Y-62917814D01*
X37165820Y-62921878D01*
X37168796Y-62926011D01*
X37171684Y-62930206D01*
X37174475Y-62934465D01*
X37177161Y-62938782D01*
X37179732Y-62943154D01*
X37182181Y-62947580D01*
X37184497Y-62952056D01*
X37187028Y-62956576D01*
X37189375Y-62961140D01*
X37191540Y-62965736D01*
X37193527Y-62970364D01*
X37195338Y-62975012D01*
X37196977Y-62979678D01*
X37198445Y-62984357D01*
X37199747Y-62989041D01*
X37200884Y-62993724D01*
X37201861Y-62998401D01*
X37202679Y-63003066D01*
X37203342Y-63007713D01*
X37203853Y-63012337D01*
X37204214Y-63016931D01*
X37204428Y-63021490D01*
X37204499Y-63026006D01*
X37204499Y-63747630D01*
X36354922Y-63747630D01*
X36354922Y-63361815D01*
X36354923Y-63361817D01*
X36872660Y-63361817D01*
X36872660Y-63151922D01*
X36508831Y-63151922D01*
X36505108Y-63151875D01*
X36501426Y-63151727D01*
X36497778Y-63151474D01*
X36494159Y-63151111D01*
X36490563Y-63150629D01*
X36486985Y-63150026D01*
X36483418Y-63149293D01*
X36479856Y-63148426D01*
X36476294Y-63147419D01*
X36472726Y-63146265D01*
X36469146Y-63144959D01*
X36465548Y-63143495D01*
X36461927Y-63141866D01*
X36458276Y-63140069D01*
X36454589Y-63138095D01*
X36450861Y-63135942D01*
X36447157Y-63133670D01*
X36443544Y-63131352D01*
X36440020Y-63128987D01*
X36436581Y-63126576D01*
X36433225Y-63124116D01*
X36429947Y-63121610D01*
X36426746Y-63119056D01*
X36423619Y-63116455D01*
X36420562Y-63113806D01*
X36417572Y-63111111D01*
X36414646Y-63108369D01*
X36411783Y-63105581D01*
X36408977Y-63102744D01*
X36406227Y-63099860D01*
X36400881Y-63093952D01*
X36398281Y-63090908D01*
X36395731Y-63087774D01*
X36393233Y-63084552D01*
X36390792Y-63081243D01*
X36388409Y-63077854D01*
X36386088Y-63074383D01*
X36383832Y-63070837D01*
X36381643Y-63067218D01*
X36379524Y-63063530D01*
X36377479Y-63059771D01*
X36375510Y-63055950D01*
X36373620Y-63052067D01*
X36371812Y-63048126D01*
X36370088Y-63044129D01*
X36368453Y-63040081D01*
X36366909Y-63035981D01*
X36365103Y-63031858D01*
X36363436Y-63027737D01*
X36361903Y-63023613D01*
X36360502Y-63019492D01*
X36359231Y-63015368D01*
X36358085Y-63011246D01*
X36357062Y-63007123D01*
X36356160Y-63003000D01*
X36355375Y-62998879D01*
X36354704Y-62994755D01*
X36354144Y-62990634D01*
X36353692Y-62986510D01*
X36353347Y-62982388D01*
X36353103Y-62978265D01*
X36352959Y-62974142D01*
X36352912Y-62970021D01*
X36352912Y-62478265D01*
X36353095Y-62466274D01*
X36353630Y-62454307D01*
X36354493Y-62442386D01*
X36355660Y-62430536D01*
X36357109Y-62418779D01*
X36358817Y-62407140D01*
X36360759Y-62395645D01*
X36362913Y-62384312D01*
X36364108Y-62378737D01*
X36365438Y-62373255D01*
X36366896Y-62367858D01*
X36368477Y-62362546D01*
X36370174Y-62357317D01*
X36371983Y-62352167D01*
X36373897Y-62347093D01*
X36375911Y-62342091D01*
X36380213Y-62332296D01*
X36384843Y-62322756D01*
X36389755Y-62313451D01*
X36394901Y-62304355D01*
X36397922Y-62299926D01*
X36400992Y-62295633D01*
X36404116Y-62291477D01*
X36407295Y-62287452D01*
X36410533Y-62283557D01*
X36413833Y-62279787D01*
X36417197Y-62276140D01*
X36420629Y-62272615D01*
X36424131Y-62269206D01*
X36427706Y-62265913D01*
X36431358Y-62262732D01*
X36435089Y-62259659D01*
X36438901Y-62256691D01*
X36442799Y-62253827D01*
X36446784Y-62251063D01*
X36450860Y-62248396D01*
X36455053Y-62245869D01*
X36459383Y-62243526D01*
X36463848Y-62241362D01*
X36468445Y-62239376D01*
X36473171Y-62237566D01*
X36478023Y-62235928D01*
X36482999Y-62234459D01*
X36488094Y-62233155D01*
X36493306Y-62232017D01*
X36498633Y-62231038D01*
X36504071Y-62230218D01*
X36509618Y-62229554D01*
X36515270Y-62229041D01*
X36521024Y-62228679D01*
X36526878Y-62228465D01*
X36532828Y-62228393D01*
X37204499Y-62228393D01*
X37204499Y-62612197D01*
G37*
G36*
X41152482Y-60151467D02*
G01*
X41152482Y-59591742D01*
X41486307Y-59591742D01*
X41486307Y-61108969D01*
X41484295Y-61106957D01*
X41150496Y-61106957D01*
X41150496Y-60545248D01*
X40934597Y-61106957D01*
X40596777Y-61106957D01*
X40864642Y-60349350D01*
X40596777Y-59591742D01*
X40938592Y-59591742D01*
X41152482Y-60151467D01*
G37*
G36*
X58129893Y-61110952D02*
G01*
X57794056Y-61110952D01*
X57794056Y-59593727D01*
X58129893Y-59593727D01*
X58129893Y-61110952D01*
G37*
G36*
X57830040Y-63749669D02*
G01*
X57080422Y-63749669D01*
X57080422Y-63745673D01*
X57080422Y-63745621D01*
X57077447Y-63745550D01*
X57074511Y-63745344D01*
X57071603Y-63745001D01*
X57068716Y-63744526D01*
X57065840Y-63743923D01*
X57062966Y-63743195D01*
X57060087Y-63742342D01*
X57057193Y-63741371D01*
X57054275Y-63740282D01*
X57051325Y-63739080D01*
X57048333Y-63737766D01*
X57045292Y-63736345D01*
X57042192Y-63734819D01*
X57039025Y-63733190D01*
X57032454Y-63729640D01*
X57029104Y-63727722D01*
X57025801Y-63725713D01*
X57022546Y-63723615D01*
X57019337Y-63721432D01*
X57016175Y-63719167D01*
X57013060Y-63716820D01*
X57009993Y-63714399D01*
X57006972Y-63711902D01*
X57003997Y-63709336D01*
X57001070Y-63706704D01*
X56998189Y-63704005D01*
X56995356Y-63701247D01*
X56992568Y-63698431D01*
X56989828Y-63695559D01*
X56984486Y-63689661D01*
X56981558Y-63686641D01*
X56978762Y-63683578D01*
X56976088Y-63680474D01*
X56973528Y-63677329D01*
X56971073Y-63674151D01*
X56968715Y-63670941D01*
X56966444Y-63667700D01*
X56964252Y-63664434D01*
X56960069Y-63657832D01*
X56956097Y-63651159D01*
X56952264Y-63644441D01*
X56948502Y-63637698D01*
X56946697Y-63634324D01*
X56945029Y-63630955D01*
X56943496Y-63627590D01*
X56942095Y-63624235D01*
X56940824Y-63620891D01*
X56939678Y-63617562D01*
X56938656Y-63614251D01*
X56937753Y-63610962D01*
X56936968Y-63607694D01*
X56936297Y-63604453D01*
X56935737Y-63601242D01*
X56935286Y-63598064D01*
X56934940Y-63594921D01*
X56934697Y-63591816D01*
X56934553Y-63588752D01*
X56934506Y-63585734D01*
X56934506Y-63363827D01*
X56934506Y-62616193D01*
X57270314Y-62616193D01*
X57270314Y-63363827D01*
X57500208Y-63363827D01*
X57500208Y-62616193D01*
X57270314Y-62616193D01*
X56934506Y-62616193D01*
X56934506Y-62390345D01*
X56934553Y-62387676D01*
X56934697Y-62384918D01*
X56934940Y-62382077D01*
X56935286Y-62379161D01*
X56935737Y-62376176D01*
X56936297Y-62373125D01*
X56936968Y-62370015D01*
X56937753Y-62366855D01*
X56938656Y-62363646D01*
X56939678Y-62360396D01*
X56940824Y-62357112D01*
X56942095Y-62353797D01*
X56943496Y-62350460D01*
X56945029Y-62347105D01*
X56946697Y-62343739D01*
X56948502Y-62340366D01*
X56952346Y-62333623D01*
X56956376Y-62326904D01*
X56960593Y-62320231D01*
X56964996Y-62313630D01*
X56969587Y-62307122D01*
X56974366Y-62300733D01*
X56979332Y-62294484D01*
X56984486Y-62288401D01*
X56990480Y-62282505D01*
X56996476Y-62276820D01*
X57002474Y-62271366D01*
X57008471Y-62266171D01*
X57014469Y-62261254D01*
X57020466Y-62256642D01*
X57023464Y-62254458D01*
X57026461Y-62252358D01*
X57029458Y-62250344D01*
X57032454Y-62248424D01*
X57039107Y-62244866D01*
X57042363Y-62243234D01*
X57045571Y-62241706D01*
X57048733Y-62240285D01*
X57051848Y-62238972D01*
X57054916Y-62237769D01*
X57057937Y-62236683D01*
X57060911Y-62235712D01*
X57063839Y-62234861D01*
X57066719Y-62234134D01*
X57069553Y-62233533D01*
X57072340Y-62233060D01*
X57075081Y-62232719D01*
X57077775Y-62232512D01*
X57080422Y-62232443D01*
X57830040Y-62232443D01*
X57830040Y-63749669D01*
G37*
G36*
X58143887Y-65822574D02*
G01*
X58367777Y-65622681D01*
X58591668Y-65820588D01*
X58591668Y-64869067D01*
X58925494Y-64869067D01*
X58925494Y-66386293D01*
X58929488Y-66386293D01*
X58929490Y-66386294D01*
X58625643Y-66386294D01*
X58367779Y-66122425D01*
X58113911Y-66386294D01*
X57814059Y-66386294D01*
X57814059Y-64869067D01*
X58143887Y-64869067D01*
X58143887Y-65822574D01*
G37*
G36*
X39045577Y-60323368D02*
G01*
X39151515Y-59591741D01*
X39487352Y-59591741D01*
X39221498Y-61108969D01*
X38869682Y-61108969D01*
X38869655Y-61108969D01*
X38593801Y-59591741D01*
X38929636Y-59591741D01*
X39045577Y-60323368D01*
G37*
G36*
X58895491Y-60725190D02*
G01*
X59409234Y-60725190D01*
X59409234Y-61108994D01*
X58707612Y-61108994D01*
X58707604Y-61108988D01*
X58707601Y-61108984D01*
X58707597Y-61108981D01*
X58707594Y-61108978D01*
X58707591Y-61108975D01*
X58707588Y-61108971D01*
X58707585Y-61108969D01*
X58704588Y-61108920D01*
X58701591Y-61108773D01*
X58698593Y-61108520D01*
X58695594Y-61108156D01*
X58692596Y-61107676D01*
X58689597Y-61107073D01*
X58686598Y-61106340D01*
X58683599Y-61105473D01*
X58680601Y-61104466D01*
X58677602Y-61103312D01*
X58674603Y-61102006D01*
X58671605Y-61100541D01*
X58668607Y-61098913D01*
X58665610Y-61097116D01*
X58662613Y-61095142D01*
X58659617Y-61092987D01*
X58656621Y-61091066D01*
X58653627Y-61089053D01*
X58650638Y-61086953D01*
X58647658Y-61084769D01*
X58644689Y-61082503D01*
X58641734Y-61080157D01*
X58638797Y-61077736D01*
X58635879Y-61075240D01*
X58632986Y-61072677D01*
X58630118Y-61070044D01*
X58627280Y-61067348D01*
X58624474Y-61064591D01*
X58621703Y-61061775D01*
X58618971Y-61058904D01*
X58616280Y-61055982D01*
X58613633Y-61053009D01*
X58611054Y-61049989D01*
X58608564Y-61046926D01*
X58606155Y-61043820D01*
X58603822Y-61040678D01*
X58601560Y-61037499D01*
X58599363Y-61034289D01*
X58595138Y-61027780D01*
X58591102Y-61021180D01*
X58587208Y-61014507D01*
X58579659Y-61001044D01*
X58577858Y-60997671D01*
X58576194Y-60994301D01*
X58574663Y-60990938D01*
X58573264Y-60987583D01*
X58571993Y-60984240D01*
X58570847Y-60980910D01*
X58569824Y-60977599D01*
X58568920Y-60974308D01*
X58568134Y-60971041D01*
X58567461Y-60967801D01*
X58566900Y-60964590D01*
X58566447Y-60961411D01*
X58566100Y-60958269D01*
X58565855Y-60955163D01*
X58565710Y-60952101D01*
X58565663Y-60949080D01*
X58565663Y-59591769D01*
X58895491Y-59591769D01*
X58895491Y-60725190D01*
G37*
%LPC*%
D12*
%TO.C,MH1*%
X22500000Y-28000000D03*
%TD*%
D13*
%TO.C,J_BTN1*%
X60000000Y-73550000D03*
D14*
X62000000Y-73550000D03*
X64000000Y-73550000D03*
X66000000Y-73550000D03*
%TD*%
D12*
%TO.C,MH4*%
X82000000Y-77500000D03*
%TD*%
D15*
%TO.C,J_SIO1*%
X72872500Y-37300000D03*
D16*
X75412500Y-37300000D03*
X72872500Y-39840000D03*
X75412500Y-39840000D03*
X72872500Y-42380000D03*
X75412500Y-42380000D03*
X72872500Y-44920000D03*
X75412500Y-44920000D03*
X72872500Y-47460000D03*
X75412500Y-47460000D03*
X72872500Y-50000000D03*
X75412500Y-50000000D03*
%TD*%
D13*
%TO.C,J_PWR1*%
X38500000Y-73550000D03*
D14*
X40500000Y-73550000D03*
%TD*%
D13*
%TO.C,J_LED1*%
X47500000Y-73550000D03*
D14*
X49500000Y-73550000D03*
X51500000Y-73550000D03*
X53500000Y-73550000D03*
%TD*%
D17*
%TO.C,J2*%
X77820000Y-70890000D03*
X77820000Y-65110000D03*
D18*
X77320000Y-72320000D03*
D19*
X81500000Y-72320000D03*
D18*
X77320000Y-63680000D03*
D19*
X81500000Y-63680000D03*
%TD*%
D12*
%TO.C,MH2*%
X82000000Y-28000000D03*
%TD*%
D20*
%TO.C,J_SD1*%
X26500000Y-34000000D03*
D21*
X26500000Y-36000000D03*
X26500000Y-38000000D03*
X26500000Y-40000000D03*
X26500000Y-42000000D03*
X26500000Y-44000000D03*
X26500000Y-46000000D03*
%TD*%
D12*
%TO.C,MH3*%
X22500000Y-77500000D03*
%TD*%
%LPD*%
M02*
